<svg width="461" height="223" viewBox="0 0 461 223" fill="none" xmlns="http://www.w3.org/2000/svg">
<path d="M38.4918 41H23.4379V0.272726H38.4719C42.6216 0.272726 46.1945 1.08807 49.1907 2.71875C52.2002 4.33617 54.5202 6.66951 56.1509 9.71875C57.7816 12.7547 58.5969 16.3873 58.5969 20.6165C58.5969 24.8589 57.7816 28.5047 56.1509 31.554C54.5335 34.6032 52.2201 36.9432 49.2106 38.5739C46.2011 40.1913 42.6282 41 38.4918 41ZM33.2816 32.608H38.114C40.3943 32.608 42.3233 32.2235 43.9009 31.4545C45.4918 30.6723 46.6916 29.4062 47.5004 27.6562C48.3223 25.893 48.7333 23.5464 48.7333 20.6165C48.7333 17.6866 48.3223 15.3532 47.5004 13.6165C46.6784 11.8665 45.4653 10.607 43.8612 9.83807C42.2702 9.05587 40.3081 8.66477 37.9748 8.66477H33.2816V32.608ZM64.3441 41V10.4545H73.7901V16.0227H74.1083C74.6651 14.0076 75.5733 12.5095 76.8327 11.5284C78.0922 10.5341 79.5572 10.0369 81.2276 10.0369C81.6784 10.0369 82.1424 10.0701 82.6197 10.1364C83.0969 10.1894 83.5411 10.2756 83.9521 10.3949V18.8466C83.488 18.6875 82.8782 18.5616 82.1225 18.4688C81.3801 18.3759 80.7172 18.3295 80.1339 18.3295C78.9805 18.3295 77.9397 18.5881 77.0117 19.1051C76.0969 19.6089 75.3744 20.3182 74.8441 21.233C74.3271 22.1345 74.0685 23.1951 74.0685 24.4148V41H64.3441ZM100.607 41.5767C97.4118 41.5767 94.6542 40.947 92.3342 39.6875C90.0273 38.4148 88.2508 36.6051 87.0046 34.2585C85.7717 31.8987 85.1552 29.0947 85.1552 25.8466C85.1552 22.6913 85.7783 19.9337 87.0245 17.5739C88.2707 15.2008 90.0273 13.358 92.2944 12.0455C94.5614 10.7197 97.2328 10.0568 100.309 10.0568C102.483 10.0568 104.471 10.3949 106.275 11.071C108.078 11.7472 109.635 12.7481 110.948 14.0739C112.26 15.3996 113.281 17.0369 114.01 18.9858C114.739 20.9214 115.104 23.142 115.104 25.6477V28.0739H88.5558V22.4261H106.056C106.042 21.392 105.797 20.4706 105.32 19.6619C104.843 18.8532 104.186 18.2235 103.351 17.7727C102.529 17.3087 101.581 17.0767 100.507 17.0767C99.4203 17.0767 98.4459 17.322 97.5842 17.8125C96.7224 18.2898 96.0397 18.946 95.5359 19.7812C95.0321 20.6032 94.7669 21.5379 94.7404 22.5852V28.3324C94.7404 29.5786 94.9857 30.6723 95.4762 31.6136C95.9667 32.5417 96.6628 33.2642 97.5643 33.7812C98.4658 34.2983 99.5397 34.5568 100.786 34.5568C101.648 34.5568 102.43 34.4375 103.132 34.1989C103.835 33.9602 104.438 33.6089 104.942 33.1449C105.446 32.6809 105.824 32.1108 106.076 31.4347L115.005 31.6932C114.633 33.6951 113.818 35.4384 112.559 36.9233C111.312 38.3949 109.675 39.5417 107.647 40.3636C105.618 41.1723 103.272 41.5767 100.607 41.5767ZM128.681 41.517C126.733 41.517 125.002 41.1922 123.491 40.5426C121.993 39.8797 120.806 38.8854 119.931 37.5597C119.07 36.2206 118.639 34.5436 118.639 32.5284C118.639 30.8314 118.937 29.3996 119.534 28.233C120.13 27.0663 120.952 26.1184 122 25.3892C123.047 24.66 124.253 24.1098 125.619 23.7386C126.984 23.3542 128.443 23.0956 129.994 22.9631C131.731 22.804 133.129 22.6383 134.19 22.4659C135.251 22.2803 136.02 22.0218 136.497 21.6903C136.987 21.3456 137.233 20.8617 137.233 20.2386V20.1392C137.233 19.1184 136.881 18.3295 136.179 17.7727C135.476 17.2159 134.528 16.9375 133.335 16.9375C132.049 16.9375 131.015 17.2159 130.233 17.7727C129.45 18.3295 128.953 19.0985 128.741 20.0795L119.772 19.7614C120.038 17.9053 120.72 16.2481 121.821 14.7898C122.934 13.3182 124.459 12.1648 126.395 11.3295C128.343 10.4811 130.683 10.0568 133.414 10.0568C135.363 10.0568 137.16 10.2888 138.804 10.7528C140.448 11.2036 141.879 11.8665 143.099 12.7415C144.319 13.6032 145.26 14.6638 145.923 15.9233C146.599 17.1828 146.937 18.6212 146.937 20.2386V41H137.789V36.7443H137.551C137.007 37.7784 136.311 38.6534 135.463 39.3693C134.627 40.0852 133.64 40.6222 132.5 40.9801C131.373 41.3381 130.1 41.517 128.681 41.517ZM131.684 35.1534C132.732 35.1534 133.673 34.9413 134.508 34.517C135.357 34.0928 136.033 33.5095 136.537 32.767C137.04 32.0114 137.292 31.1364 137.292 30.142V27.2386C137.014 27.3845 136.676 27.517 136.278 27.6364C135.894 27.7557 135.469 27.8684 135.005 27.9744C134.541 28.0805 134.064 28.1733 133.574 28.2528C133.083 28.3324 132.612 28.4053 132.162 28.4716C131.247 28.6174 130.465 28.8428 129.815 29.1477C129.179 29.4527 128.688 29.8504 128.343 30.3409C128.012 30.8182 127.846 31.3883 127.846 32.0511C127.846 33.0587 128.204 33.8277 128.92 34.358C129.649 34.8883 130.571 35.1534 131.684 35.1534ZM152.883 41V10.4545H162.13V16.0625H162.468C163.105 14.2064 164.179 12.7415 165.69 11.6676C167.201 10.5938 169.004 10.0568 171.099 10.0568C173.22 10.0568 175.037 10.6004 176.548 11.6875C178.059 12.7746 179.02 14.233 179.431 16.0625H179.75C180.32 14.2462 181.433 12.7945 183.091 11.7074C184.748 10.607 186.703 10.0568 188.957 10.0568C191.847 10.0568 194.194 10.9848 195.997 12.8409C197.8 14.6837 198.701 17.2159 198.701 20.4375V41H188.977V22.6648C188.977 21.1402 188.586 19.9801 187.804 19.1847C187.021 18.3759 186.007 17.9716 184.761 17.9716C183.422 17.9716 182.368 18.4091 181.599 19.2841C180.843 20.1458 180.466 21.3059 180.466 22.7642V41H171.119V22.5653C171.119 21.1468 170.734 20.0265 169.966 19.2045C169.197 18.3826 168.182 17.9716 166.923 17.9716C166.074 17.9716 165.325 18.1771 164.676 18.5881C164.026 18.9858 163.516 19.5559 163.145 20.2983C162.787 21.0407 162.608 21.9157 162.608 22.9233V41H152.883Z" fill="#FF4747"/>
<rect x="60" y="34" width="343" height="42" rx="14" fill="#A4A4A4"/>
<path d="M77.87 62V50.3636H79.2791V60.75H84.6882V62H77.87ZM90.3473 62.1818C89.5064 62.1818 88.781 61.9962 88.1712 61.625C87.5651 61.25 87.0973 60.7273 86.7678 60.0568C86.442 59.3826 86.2791 58.5985 86.2791 57.7045C86.2791 56.8106 86.442 56.0227 86.7678 55.3409C87.0973 54.6553 87.5556 54.1212 88.1428 53.7386C88.7337 53.3523 89.4231 53.1591 90.2109 53.1591C90.6655 53.1591 91.1143 53.2348 91.5575 53.3864C92.0007 53.5379 92.4041 53.7841 92.7678 54.125C93.1314 54.4621 93.4212 54.9091 93.6371 55.4659C93.853 56.0227 93.9609 56.7083 93.9609 57.5227V58.0909H87.2337V56.9318H92.5973C92.5973 56.4394 92.4988 56 92.3018 55.6136C92.1087 55.2273 91.8321 54.9223 91.4723 54.6989C91.1162 54.4754 90.6958 54.3636 90.2109 54.3636C89.6768 54.3636 89.2147 54.4962 88.8246 54.7614C88.4382 55.0227 88.1409 55.3636 87.9325 55.7841C87.7242 56.2045 87.62 56.6553 87.62 57.1364V57.9091C87.62 58.5682 87.7337 59.1269 87.9609 59.5852C88.192 60.0398 88.5121 60.3864 88.9212 60.625C89.3303 60.8598 89.8056 60.9773 90.3473 60.9773C90.6996 60.9773 91.0178 60.928 91.3018 60.8295C91.5897 60.7273 91.8378 60.5758 92.0462 60.375C92.2545 60.1705 92.4155 59.9167 92.5291 59.6136L93.8246 59.9773C93.6882 60.4167 93.459 60.803 93.1371 61.1364C92.8151 61.4659 92.4174 61.7235 91.9439 61.9091C91.4704 62.0909 90.9382 62.1818 90.3473 62.1818ZM98.5689 62.2045C98.0159 62.2045 97.514 62.1004 97.0632 61.892C96.6125 61.6799 96.2545 61.375 95.9893 60.9773C95.7242 60.5758 95.5916 60.0909 95.5916 59.5227C95.5916 59.0227 95.6901 58.6174 95.8871 58.3068C96.084 57.9924 96.3473 57.7462 96.6768 57.5682C97.0064 57.3902 97.37 57.2576 97.7678 57.1705C98.1693 57.0795 98.5727 57.0076 98.978 56.9545C99.5083 56.8864 99.9382 56.8352 100.268 56.8011C100.601 56.7633 100.844 56.7008 100.995 56.6136C101.15 56.5265 101.228 56.375 101.228 56.1591V56.1136C101.228 55.553 101.075 55.1174 100.768 54.8068C100.465 54.4962 100.004 54.3409 99.3871 54.3409C98.7469 54.3409 98.245 54.4811 97.8814 54.7614C97.5178 55.0417 97.2621 55.3409 97.1143 55.6591L95.8416 55.2045C96.0689 54.6742 96.3719 54.2614 96.7507 53.9659C97.1333 53.6667 97.55 53.4583 98.0007 53.3409C98.4553 53.2197 98.9022 53.1591 99.3416 53.1591C99.6219 53.1591 99.9439 53.1932 100.308 53.2614C100.675 53.3258 101.029 53.4602 101.37 53.6648C101.715 53.8693 102.001 54.178 102.228 54.5909C102.455 55.0038 102.569 55.5568 102.569 56.25V62H101.228V60.8182H101.16C101.069 61.0076 100.917 61.2102 100.705 61.4261C100.493 61.642 100.211 61.8258 99.8587 61.9773C99.5064 62.1288 99.0765 62.2045 98.5689 62.2045ZM98.7734 61C99.3037 61 99.7507 60.8958 100.114 60.6875C100.482 60.4792 100.758 60.2102 100.944 59.8807C101.133 59.5511 101.228 59.2045 101.228 58.8409V57.6136C101.171 57.6818 101.046 57.7443 100.853 57.8011C100.664 57.8542 100.444 57.9015 100.194 57.9432C99.9477 57.9811 99.7071 58.0152 99.4723 58.0455C99.2412 58.072 99.0537 58.0947 98.9098 58.1136C98.5613 58.1591 98.2356 58.233 97.9325 58.3352C97.6333 58.4337 97.3909 58.5833 97.2053 58.7841C97.0234 58.9811 96.9325 59.25 96.9325 59.5909C96.9325 60.0568 97.1049 60.4091 97.4496 60.6477C97.7981 60.8826 98.2393 61 98.7734 61ZM105.016 62V53.2727H106.312V54.5909H106.403C106.562 54.1591 106.85 53.8087 107.266 53.5398C107.683 53.2708 108.153 53.1364 108.675 53.1364C108.774 53.1364 108.897 53.1383 109.045 53.142C109.192 53.1458 109.304 53.1515 109.38 53.1591V54.5227C109.335 54.5114 109.23 54.4943 109.067 54.4716C108.908 54.4451 108.74 54.4318 108.562 54.4318C108.138 54.4318 107.759 54.5208 107.425 54.6989C107.096 54.8731 106.835 55.1155 106.641 55.4261C106.452 55.733 106.357 56.0833 106.357 56.4773V62H105.016ZM112.31 56.75V62H110.969V53.2727H112.265V54.6364H112.379C112.583 54.1932 112.894 53.8371 113.31 53.5682C113.727 53.2955 114.265 53.1591 114.924 53.1591C115.515 53.1591 116.032 53.2803 116.475 53.5227C116.918 53.7614 117.263 54.125 117.509 54.6136C117.755 55.0985 117.879 55.7121 117.879 56.4545V62H116.538V56.5455C116.538 55.8598 116.36 55.3258 116.004 54.9432C115.647 54.5568 115.159 54.3636 114.538 54.3636C114.11 54.3636 113.727 54.4564 113.39 54.642C113.057 54.8277 112.793 55.0985 112.6 55.4545C112.407 55.8106 112.31 56.2424 112.31 56.75ZM131.374 53.2727C131.306 52.697 131.03 52.25 130.545 51.9318C130.06 51.6136 129.465 51.4545 128.761 51.4545C128.246 51.4545 127.795 51.5379 127.408 51.7045C127.026 51.8712 126.727 52.1004 126.511 52.392C126.299 52.6837 126.192 53.0152 126.192 53.3864C126.192 53.697 126.266 53.964 126.414 54.1875C126.566 54.4072 126.759 54.5909 126.994 54.7386C127.228 54.8826 127.475 55.0019 127.732 55.0966C127.99 55.1875 128.227 55.2614 128.442 55.3182L129.624 55.6364C129.927 55.7159 130.264 55.8258 130.636 55.9659C131.011 56.1061 131.369 56.2973 131.71 56.5398C132.054 56.7784 132.338 57.0852 132.562 57.4602C132.785 57.8352 132.897 58.2955 132.897 58.8409C132.897 59.4697 132.732 60.0379 132.403 60.5455C132.077 61.053 131.6 61.4564 130.971 61.7557C130.346 62.0549 129.586 62.2045 128.692 62.2045C127.859 62.2045 127.138 62.0701 126.528 61.8011C125.922 61.5322 125.444 61.1572 125.096 60.6761C124.751 60.1951 124.556 59.6364 124.511 59H125.965C126.003 59.4394 126.151 59.803 126.408 60.0909C126.67 60.375 126.999 60.5871 127.397 60.7273C127.799 60.8636 128.23 60.9318 128.692 60.9318C129.23 60.9318 129.713 60.8447 130.141 60.6705C130.569 60.4924 130.908 60.2462 131.158 59.9318C131.408 59.6136 131.533 59.2424 131.533 58.8182C131.533 58.4318 131.425 58.1174 131.21 57.875C130.994 57.6326 130.71 57.4356 130.357 57.2841C130.005 57.1326 129.624 57 129.215 56.8864L127.783 56.4773C126.874 56.2159 126.155 55.8428 125.624 55.358C125.094 54.8731 124.829 54.2386 124.829 53.4545C124.829 52.803 125.005 52.2348 125.357 51.75C125.713 51.2614 126.191 50.8826 126.789 50.6136C127.391 50.3409 128.064 50.2045 128.806 50.2045C129.556 50.2045 130.223 50.339 130.806 50.608C131.389 50.8731 131.852 51.2367 132.192 51.6989C132.537 52.161 132.719 52.6856 132.738 53.2727H131.374ZM135.032 65.2727V53.2727H136.327V54.6591H136.487C136.585 54.5076 136.721 54.3144 136.896 54.0795C137.074 53.8409 137.327 53.6288 137.657 53.4432C137.99 53.2538 138.441 53.1591 139.009 53.1591C139.744 53.1591 140.392 53.3428 140.952 53.7102C141.513 54.0777 141.951 54.5985 142.265 55.2727C142.579 55.947 142.737 56.7424 142.737 57.6591C142.737 58.5833 142.579 59.3845 142.265 60.0625C141.951 60.7367 141.515 61.2595 140.958 61.6307C140.401 61.9981 139.759 62.1818 139.032 62.1818C138.471 62.1818 138.022 62.089 137.685 61.9034C137.348 61.714 137.089 61.5 136.907 61.2614C136.725 61.0189 136.585 60.8182 136.487 60.6591H136.373V65.2727H135.032ZM136.35 57.6364C136.35 58.2955 136.447 58.8769 136.64 59.3807C136.833 59.8807 137.115 60.2727 137.487 60.5568C137.858 60.8371 138.312 60.9773 138.85 60.9773C139.411 60.9773 139.879 60.8295 140.254 60.5341C140.632 60.2348 140.916 59.8333 141.106 59.3295C141.299 58.822 141.396 58.2576 141.396 57.6364C141.396 57.0227 141.301 56.4697 141.112 55.9773C140.926 55.4811 140.644 55.089 140.265 54.8011C139.89 54.5095 139.418 54.3636 138.85 54.3636C138.305 54.3636 137.846 54.5019 137.475 54.7784C137.104 55.0511 136.824 55.4337 136.634 55.9261C136.445 56.4148 136.35 56.9848 136.35 57.6364ZM147.35 62.2045C146.797 62.2045 146.295 62.1004 145.844 61.892C145.394 61.6799 145.036 61.375 144.771 60.9773C144.505 60.5758 144.373 60.0909 144.373 59.5227C144.373 59.0227 144.471 58.6174 144.668 58.3068C144.865 57.9924 145.129 57.7462 145.458 57.5682C145.788 57.3902 146.151 57.2576 146.549 57.1705C146.951 57.0795 147.354 57.0076 147.759 56.9545C148.29 56.8864 148.719 56.8352 149.049 56.8011C149.382 56.7633 149.625 56.7008 149.776 56.6136C149.932 56.5265 150.009 56.375 150.009 56.1591V56.1136C150.009 55.553 149.856 55.1174 149.549 54.8068C149.246 54.4962 148.786 54.3409 148.168 54.3409C147.528 54.3409 147.026 54.4811 146.663 54.7614C146.299 55.0417 146.043 55.3409 145.896 55.6591L144.623 55.2045C144.85 54.6742 145.153 54.2614 145.532 53.9659C145.915 53.6667 146.331 53.4583 146.782 53.3409C147.237 53.2197 147.683 53.1591 148.123 53.1591C148.403 53.1591 148.725 53.1932 149.089 53.2614C149.456 53.3258 149.81 53.4602 150.151 53.6648C150.496 53.8693 150.782 54.178 151.009 54.5909C151.237 55.0038 151.35 55.5568 151.35 56.25V62H150.009V60.8182H149.941C149.85 61.0076 149.699 61.2102 149.487 61.4261C149.274 61.642 148.992 61.8258 148.64 61.9773C148.288 62.1288 147.858 62.2045 147.35 62.2045ZM147.555 61C148.085 61 148.532 60.8958 148.896 60.6875C149.263 60.4792 149.54 60.2102 149.725 59.8807C149.915 59.5511 150.009 59.2045 150.009 58.8409V57.6136C149.952 57.6818 149.827 57.7443 149.634 57.8011C149.445 57.8542 149.225 57.9015 148.975 57.9432C148.729 57.9811 148.488 58.0152 148.254 58.0455C148.022 58.072 147.835 58.0947 147.691 58.1136C147.343 58.1591 147.017 58.233 146.714 58.3352C146.415 58.4337 146.172 58.5833 145.987 58.7841C145.805 58.9811 145.714 59.25 145.714 59.5909C145.714 60.0568 145.886 60.4091 146.231 60.6477C146.579 60.8826 147.021 61 147.555 61ZM155.138 56.75V62H153.798V53.2727H155.093V54.6364H155.207C155.411 54.1932 155.722 53.8371 156.138 53.5682C156.555 53.2955 157.093 53.1591 157.752 53.1591C158.343 53.1591 158.86 53.2803 159.303 53.5227C159.746 53.7614 160.091 54.125 160.337 54.6136C160.584 55.0985 160.707 55.7121 160.707 56.4545V62H159.366V56.5455C159.366 55.8598 159.188 55.3258 158.832 54.9432C158.476 54.5568 157.987 54.3636 157.366 54.3636C156.938 54.3636 156.555 54.4564 156.218 54.642C155.885 54.8277 155.621 55.0985 155.428 55.4545C155.235 55.8106 155.138 56.2424 155.138 56.75ZM163.157 62V53.2727H164.498V62H163.157ZM163.839 51.8182C163.577 51.8182 163.352 51.7292 163.163 51.5511C162.977 51.3731 162.884 51.1591 162.884 50.9091C162.884 50.6591 162.977 50.4451 163.163 50.267C163.352 50.089 163.577 50 163.839 50C164.1 50 164.324 50.089 164.509 50.267C164.699 50.4451 164.793 50.6591 164.793 50.9091C164.793 51.1591 164.699 51.3731 164.509 51.5511C164.324 51.7292 164.1 51.8182 163.839 51.8182ZM173.136 55.2273L171.931 55.5682C171.855 55.3674 171.744 55.1723 171.596 54.983C171.452 54.7898 171.255 54.6307 171.005 54.5057C170.755 54.3807 170.435 54.3182 170.045 54.3182C169.511 54.3182 169.066 54.4413 168.71 54.6875C168.357 54.9299 168.181 55.2386 168.181 55.6136C168.181 55.947 168.302 56.2102 168.545 56.4034C168.787 56.5966 169.166 56.7576 169.681 56.8864L170.977 57.2045C171.757 57.3939 172.338 57.6837 172.721 58.0739C173.103 58.4602 173.295 58.9583 173.295 59.5682C173.295 60.0682 173.151 60.5152 172.863 60.9091C172.579 61.303 172.181 61.6136 171.67 61.8409C171.158 62.0682 170.564 62.1818 169.886 62.1818C168.996 62.1818 168.259 61.9886 167.675 61.6023C167.092 61.2159 166.723 60.6515 166.567 59.9091L167.84 59.5909C167.961 60.0606 168.191 60.4129 168.528 60.6477C168.869 60.8826 169.314 61 169.863 61C170.488 61 170.984 60.8674 171.352 60.6023C171.723 60.3333 171.908 60.0114 171.908 59.6364C171.908 59.3333 171.802 59.0795 171.59 58.875C171.378 58.6667 171.052 58.5114 170.613 58.4091L169.158 58.0682C168.359 57.8788 167.772 57.5852 167.397 57.1875C167.026 56.786 166.84 56.2841 166.84 55.6818C166.84 55.1894 166.978 54.7538 167.255 54.375C167.535 53.9962 167.916 53.6989 168.397 53.483C168.882 53.267 169.431 53.1591 170.045 53.1591C170.908 53.1591 171.586 53.3485 172.079 53.7273C172.575 54.1061 172.927 54.6061 173.136 55.2273ZM176.654 56.75V62H175.313V50.3636H176.654V54.6364H176.768C176.972 54.1856 177.279 53.8277 177.688 53.5625C178.101 53.2936 178.65 53.1591 179.336 53.1591C179.931 53.1591 180.451 53.2784 180.898 53.517C181.345 53.7519 181.692 54.1136 181.938 54.6023C182.188 55.0871 182.313 55.7045 182.313 56.4545V62H180.972V56.5455C180.972 55.8523 180.792 55.3163 180.433 54.9375C180.076 54.5549 179.582 54.3636 178.95 54.3636C178.51 54.3636 178.116 54.4564 177.768 54.642C177.423 54.8277 177.15 55.0985 176.95 55.4545C176.753 55.8106 176.654 56.2424 176.654 56.75Z" fill="#393939"/>
<path d="M72.1456 83.5767C71.9202 82.7415 71.5888 82.0057 71.1513 81.3693C70.7138 80.7197 70.1768 80.1695 69.5405 79.7188C68.9041 79.268 68.175 78.9299 67.353 78.7045C66.531 78.4659 65.6295 78.3466 64.6484 78.3466C62.6731 78.3466 60.9628 78.8239 59.5178 79.7784C58.0859 80.733 56.9789 82.125 56.1967 83.9545C55.4145 85.7708 55.0234 87.9782 55.0234 90.5767C55.0234 93.1884 55.4013 95.4157 56.157 97.2585C56.9126 99.1013 58.0064 100.507 59.4382 101.474C60.87 102.442 62.6068 102.926 64.6484 102.926C66.4515 102.926 67.9761 102.634 69.2223 102.051C70.4818 101.455 71.4363 100.613 72.0859 99.5256C72.7356 98.4384 73.0604 97.1591 73.0604 95.6875L74.8899 95.9062H64.9865V88.7273H82.5462V94.1165C82.5462 97.7623 81.7706 100.884 80.2195 103.483C78.6816 106.081 76.5604 108.077 73.8558 109.469C71.1645 110.861 68.0689 111.557 64.5689 111.557C60.6844 111.557 57.2706 110.715 54.3274 109.031C51.3842 107.348 49.0907 104.948 47.4467 101.832C45.8028 98.7036 44.9808 94.9915 44.9808 90.696C44.9808 87.3551 45.478 84.392 46.4723 81.8068C47.4666 79.2083 48.852 77.0076 50.6286 75.2045C52.4183 73.4015 54.4865 72.036 56.8331 71.108C59.1929 70.1799 61.7318 69.7159 64.4496 69.7159C66.8094 69.7159 69.0036 70.054 71.032 70.7301C73.0736 71.4062 74.8767 72.3608 76.4411 73.5938C78.0187 74.8267 79.2981 76.2917 80.2791 77.9886C81.2602 79.6856 81.87 81.5483 82.1087 83.5767H72.1456ZM102.607 111.577C99.3982 111.577 96.6406 110.92 94.3338 109.608C92.0402 108.282 90.2704 106.439 89.0241 104.08C87.7912 101.706 87.1747 98.9555 87.1747 95.8267C87.1747 92.6847 87.7912 89.9337 89.0241 87.5739C90.2704 85.2008 92.0402 83.358 94.3338 82.0455C96.6406 80.7197 99.3982 80.0568 102.607 80.0568C105.815 80.0568 108.566 80.7197 110.859 82.0455C113.166 83.358 114.936 85.2008 116.169 87.5739C117.415 89.9337 118.038 92.6847 118.038 95.8267C118.038 98.9555 117.415 101.706 116.169 104.08C114.936 106.439 113.166 108.282 110.859 109.608C108.566 110.92 105.815 111.577 102.607 111.577ZM102.666 104.239C103.833 104.239 104.821 103.881 105.629 103.165C106.438 102.449 107.054 101.455 107.479 100.182C107.916 98.9091 108.135 97.4375 108.135 95.767C108.135 94.0701 107.916 92.5852 107.479 91.3125C107.054 90.0398 106.438 89.0455 105.629 88.3295C104.821 87.6136 103.833 87.2557 102.666 87.2557C101.46 87.2557 100.439 87.6136 99.6037 88.3295C98.7817 89.0455 98.152 90.0398 97.7145 91.3125C97.2902 92.5852 97.0781 94.0701 97.0781 95.767C97.0781 97.4375 97.2902 98.9091 97.7145 100.182C98.152 101.455 98.7817 102.449 99.6037 103.165C100.439 103.881 101.46 104.239 102.666 104.239ZM131.631 111.517C129.682 111.517 127.952 111.192 126.44 110.543C124.942 109.88 123.756 108.885 122.881 107.56C122.019 106.221 121.588 104.544 121.588 102.528C121.588 100.831 121.886 99.3996 122.483 98.233C123.08 97.0663 123.902 96.1184 124.949 95.3892C125.996 94.66 127.203 94.1098 128.568 93.7386C129.934 93.3542 131.392 93.0956 132.943 92.9631C134.68 92.804 136.079 92.6383 137.139 92.4659C138.2 92.2803 138.969 92.0218 139.446 91.6903C139.937 91.3456 140.182 90.8617 140.182 90.2386V90.1392C140.182 89.1184 139.83 88.3295 139.128 87.7727C138.425 87.2159 137.477 86.9375 136.284 86.9375C134.998 86.9375 133.964 87.2159 133.182 87.7727C132.4 88.3295 131.902 89.0985 131.69 90.0795L122.722 89.7614C122.987 87.9053 123.67 86.2481 124.77 84.7898C125.884 83.3182 127.408 82.1648 129.344 81.3295C131.293 80.4811 133.633 80.0568 136.364 80.0568C138.313 80.0568 140.109 80.2888 141.753 80.7528C143.397 81.2036 144.829 81.8665 146.048 82.7415C147.268 83.6032 148.209 84.6638 148.872 85.9233C149.548 87.1828 149.886 88.6212 149.886 90.2386V111H140.739V106.744H140.5C139.956 107.778 139.26 108.653 138.412 109.369C137.577 110.085 136.589 110.622 135.449 110.98C134.322 111.338 133.049 111.517 131.631 111.517ZM134.634 105.153C135.681 105.153 136.622 104.941 137.457 104.517C138.306 104.093 138.982 103.509 139.486 102.767C139.99 102.011 140.241 101.136 140.241 100.142V97.2386C139.963 97.3845 139.625 97.517 139.227 97.6364C138.843 97.7557 138.419 97.8684 137.955 97.9744C137.491 98.0805 137.013 98.1733 136.523 98.2528C136.032 98.3324 135.562 98.4053 135.111 98.4716C134.196 98.6174 133.414 98.8428 132.764 99.1477C132.128 99.4527 131.637 99.8504 131.293 100.341C130.961 100.818 130.795 101.388 130.795 102.051C130.795 103.059 131.153 103.828 131.869 104.358C132.598 104.888 133.52 105.153 134.634 105.153ZM165.557 70.2727V111H155.832V70.2727H165.557Z" fill="#FF4747"/>
<rect x="85" y="105" width="343" height="42" rx="14" fill="#CDCDCD"/>
<path d="M102.847 133V121.364H106.778C107.691 121.364 108.438 121.528 109.017 121.858C109.6 122.184 110.032 122.625 110.312 123.182C110.593 123.739 110.733 124.36 110.733 125.045C110.733 125.731 110.593 126.354 110.312 126.915C110.036 127.475 109.608 127.922 109.028 128.256C108.449 128.585 107.706 128.75 106.801 128.75H103.983V127.5H106.756C107.381 127.5 107.883 127.392 108.261 127.176C108.64 126.96 108.915 126.669 109.085 126.301C109.259 125.93 109.347 125.511 109.347 125.045C109.347 124.58 109.259 124.163 109.085 123.795C108.915 123.428 108.638 123.14 108.256 122.932C107.873 122.72 107.366 122.614 106.733 122.614H104.256V133H102.847ZM112.821 133V124.273H114.116V125.591H114.207C114.366 125.159 114.654 124.809 115.071 124.54C115.488 124.271 115.957 124.136 116.48 124.136C116.579 124.136 116.702 124.138 116.849 124.142C116.997 124.146 117.109 124.152 117.185 124.159V125.523C117.139 125.511 117.035 125.494 116.872 125.472C116.713 125.445 116.545 125.432 116.366 125.432C115.942 125.432 115.563 125.521 115.23 125.699C114.901 125.873 114.639 126.116 114.446 126.426C114.257 126.733 114.162 127.083 114.162 127.477V133H112.821ZM121.342 133.205C120.789 133.205 120.287 133.1 119.837 132.892C119.386 132.68 119.028 132.375 118.763 131.977C118.498 131.576 118.365 131.091 118.365 130.523C118.365 130.023 118.464 129.617 118.661 129.307C118.857 128.992 119.121 128.746 119.45 128.568C119.78 128.39 120.143 128.258 120.541 128.17C120.943 128.08 121.346 128.008 121.751 127.955C122.282 127.886 122.712 127.835 123.041 127.801C123.375 127.763 123.617 127.701 123.768 127.614C123.924 127.527 124.001 127.375 124.001 127.159V127.114C124.001 126.553 123.848 126.117 123.541 125.807C123.238 125.496 122.778 125.341 122.161 125.341C121.52 125.341 121.018 125.481 120.655 125.761C120.291 126.042 120.036 126.341 119.888 126.659L118.615 126.205C118.842 125.674 119.145 125.261 119.524 124.966C119.907 124.667 120.323 124.458 120.774 124.341C121.229 124.22 121.676 124.159 122.115 124.159C122.395 124.159 122.717 124.193 123.081 124.261C123.448 124.326 123.803 124.46 124.143 124.665C124.488 124.869 124.774 125.178 125.001 125.591C125.229 126.004 125.342 126.557 125.342 127.25V133H124.001V131.818H123.933C123.842 132.008 123.691 132.21 123.479 132.426C123.267 132.642 122.984 132.826 122.632 132.977C122.28 133.129 121.85 133.205 121.342 133.205ZM121.547 132C122.077 132 122.524 131.896 122.888 131.688C123.255 131.479 123.532 131.21 123.717 130.881C123.907 130.551 124.001 130.205 124.001 129.841V128.614C123.945 128.682 123.82 128.744 123.626 128.801C123.437 128.854 123.217 128.902 122.967 128.943C122.721 128.981 122.481 129.015 122.246 129.045C122.015 129.072 121.827 129.095 121.683 129.114C121.335 129.159 121.009 129.233 120.706 129.335C120.407 129.434 120.164 129.583 119.979 129.784C119.797 129.981 119.706 130.25 119.706 130.591C119.706 131.057 119.878 131.409 120.223 131.648C120.571 131.883 121.013 132 121.547 132ZM131.335 133.182C130.517 133.182 129.813 132.989 129.222 132.602C128.631 132.216 128.176 131.684 127.858 131.006C127.54 130.328 127.381 129.553 127.381 128.682C127.381 127.795 127.544 127.013 127.869 126.335C128.199 125.653 128.657 125.121 129.244 124.739C129.835 124.352 130.525 124.159 131.312 124.159C131.926 124.159 132.479 124.273 132.972 124.5C133.464 124.727 133.867 125.045 134.182 125.455C134.496 125.864 134.691 126.341 134.767 126.886H133.426C133.324 126.489 133.097 126.136 132.744 125.83C132.396 125.519 131.926 125.364 131.335 125.364C130.813 125.364 130.354 125.5 129.96 125.773C129.57 126.042 129.265 126.422 129.045 126.915C128.83 127.403 128.722 127.977 128.722 128.636C128.722 129.311 128.828 129.898 129.04 130.398C129.256 130.898 129.559 131.286 129.949 131.562C130.343 131.839 130.805 131.977 131.335 131.977C131.684 131.977 132 131.917 132.284 131.795C132.568 131.674 132.809 131.5 133.006 131.273C133.203 131.045 133.343 130.773 133.426 130.455H134.767C134.691 130.97 134.504 131.434 134.205 131.847C133.909 132.256 133.517 132.581 133.028 132.824C132.544 133.062 131.979 133.182 131.335 133.182ZM140.523 124.273V125.409H136V124.273H140.523ZM137.318 122.182H138.659V130.5C138.659 130.879 138.714 131.163 138.824 131.352C138.938 131.538 139.081 131.663 139.256 131.727C139.434 131.788 139.621 131.818 139.818 131.818C139.966 131.818 140.087 131.811 140.182 131.795C140.277 131.777 140.352 131.761 140.409 131.75L140.682 132.955C140.591 132.989 140.464 133.023 140.301 133.057C140.138 133.095 139.932 133.114 139.682 133.114C139.303 133.114 138.932 133.032 138.568 132.869C138.208 132.706 137.909 132.458 137.67 132.125C137.436 131.792 137.318 131.371 137.318 130.864V122.182ZM142.54 133V124.273H143.881V133H142.54ZM143.222 122.818C142.96 122.818 142.735 122.729 142.545 122.551C142.36 122.373 142.267 122.159 142.267 121.909C142.267 121.659 142.36 121.445 142.545 121.267C142.735 121.089 142.96 121 143.222 121C143.483 121 143.706 121.089 143.892 121.267C144.081 121.445 144.176 121.659 144.176 121.909C144.176 122.159 144.081 122.373 143.892 122.551C143.706 122.729 143.483 122.818 143.222 122.818ZM149.882 133.182C149.064 133.182 148.359 132.989 147.768 132.602C147.178 132.216 146.723 131.684 146.405 131.006C146.087 130.328 145.928 129.553 145.928 128.682C145.928 127.795 146.09 127.013 146.416 126.335C146.746 125.653 147.204 125.121 147.791 124.739C148.382 124.352 149.071 124.159 149.859 124.159C150.473 124.159 151.026 124.273 151.518 124.5C152.011 124.727 152.414 125.045 152.729 125.455C153.043 125.864 153.238 126.341 153.314 126.886H151.973C151.871 126.489 151.643 126.136 151.291 125.83C150.943 125.519 150.473 125.364 149.882 125.364C149.359 125.364 148.901 125.5 148.507 125.773C148.117 126.042 147.812 126.422 147.592 126.915C147.376 127.403 147.268 127.977 147.268 128.636C147.268 129.311 147.375 129.898 147.587 130.398C147.803 130.898 148.106 131.286 148.496 131.562C148.89 131.839 149.352 131.977 149.882 131.977C150.231 131.977 150.547 131.917 150.831 131.795C151.115 131.674 151.356 131.5 151.553 131.273C151.75 131.045 151.89 130.773 151.973 130.455H153.314C153.238 130.97 153.051 131.434 152.751 131.847C152.456 132.256 152.064 132.581 151.575 132.824C151.09 133.062 150.526 133.182 149.882 133.182ZM158.933 133.182C158.092 133.182 157.367 132.996 156.757 132.625C156.151 132.25 155.683 131.727 155.354 131.057C155.028 130.383 154.865 129.598 154.865 128.705C154.865 127.811 155.028 127.023 155.354 126.341C155.683 125.655 156.142 125.121 156.729 124.739C157.32 124.352 158.009 124.159 158.797 124.159C159.251 124.159 159.7 124.235 160.143 124.386C160.587 124.538 160.99 124.784 161.354 125.125C161.717 125.462 162.007 125.909 162.223 126.466C162.439 127.023 162.547 127.708 162.547 128.523V129.091H155.82V127.932H161.183C161.183 127.439 161.085 127 160.888 126.614C160.695 126.227 160.418 125.922 160.058 125.699C159.702 125.475 159.282 125.364 158.797 125.364C158.263 125.364 157.801 125.496 157.411 125.761C157.024 126.023 156.727 126.364 156.518 126.784C156.31 127.205 156.206 127.655 156.206 128.136V128.909C156.206 129.568 156.32 130.127 156.547 130.585C156.778 131.04 157.098 131.386 157.507 131.625C157.916 131.86 158.392 131.977 158.933 131.977C159.286 131.977 159.604 131.928 159.888 131.83C160.176 131.727 160.424 131.576 160.632 131.375C160.84 131.17 161.001 130.917 161.115 130.614L162.411 130.977C162.274 131.417 162.045 131.803 161.723 132.136C161.401 132.466 161.003 132.723 160.53 132.909C160.056 133.091 159.524 133.182 158.933 133.182ZM175.632 124.273C175.564 123.697 175.287 123.25 174.803 122.932C174.318 122.614 173.723 122.455 173.018 122.455C172.503 122.455 172.053 122.538 171.666 122.705C171.284 122.871 170.984 123.1 170.768 123.392C170.556 123.684 170.45 124.015 170.45 124.386C170.45 124.697 170.524 124.964 170.672 125.188C170.823 125.407 171.017 125.591 171.251 125.739C171.486 125.883 171.732 126.002 171.99 126.097C172.248 126.187 172.484 126.261 172.7 126.318L173.882 126.636C174.185 126.716 174.522 126.826 174.893 126.966C175.268 127.106 175.626 127.297 175.967 127.54C176.312 127.778 176.596 128.085 176.82 128.46C177.043 128.835 177.155 129.295 177.155 129.841C177.155 130.47 176.99 131.038 176.661 131.545C176.335 132.053 175.857 132.456 175.229 132.756C174.604 133.055 173.844 133.205 172.95 133.205C172.117 133.205 171.395 133.07 170.786 132.801C170.179 132.532 169.702 132.157 169.354 131.676C169.009 131.195 168.814 130.636 168.768 130H170.223C170.261 130.439 170.409 130.803 170.666 131.091C170.928 131.375 171.257 131.587 171.655 131.727C172.056 131.864 172.488 131.932 172.95 131.932C173.488 131.932 173.971 131.845 174.399 131.67C174.827 131.492 175.166 131.246 175.416 130.932C175.666 130.614 175.791 130.242 175.791 129.818C175.791 129.432 175.683 129.117 175.467 128.875C175.251 128.633 174.967 128.436 174.615 128.284C174.263 128.133 173.882 128 173.473 127.886L172.041 127.477C171.132 127.216 170.412 126.843 169.882 126.358C169.352 125.873 169.087 125.239 169.087 124.455C169.087 123.803 169.263 123.235 169.615 122.75C169.971 122.261 170.448 121.883 171.047 121.614C171.649 121.341 172.321 121.205 173.064 121.205C173.814 121.205 174.481 121.339 175.064 121.608C175.647 121.873 176.109 122.237 176.45 122.699C176.795 123.161 176.977 123.686 176.996 124.273H175.632ZM179.29 136.273V124.273H180.585V125.659H180.744C180.843 125.508 180.979 125.314 181.153 125.08C181.331 124.841 181.585 124.629 181.915 124.443C182.248 124.254 182.699 124.159 183.267 124.159C184.002 124.159 184.65 124.343 185.21 124.71C185.771 125.078 186.208 125.598 186.523 126.273C186.837 126.947 186.994 127.742 186.994 128.659C186.994 129.583 186.837 130.384 186.523 131.062C186.208 131.737 185.773 132.259 185.216 132.631C184.659 132.998 184.017 133.182 183.29 133.182C182.729 133.182 182.28 133.089 181.943 132.903C181.606 132.714 181.347 132.5 181.165 132.261C180.983 132.019 180.843 131.818 180.744 131.659H180.631V136.273H179.29ZM180.608 128.636C180.608 129.295 180.705 129.877 180.898 130.381C181.091 130.881 181.373 131.273 181.744 131.557C182.116 131.837 182.57 131.977 183.108 131.977C183.669 131.977 184.136 131.83 184.511 131.534C184.89 131.235 185.174 130.833 185.364 130.33C185.557 129.822 185.653 129.258 185.653 128.636C185.653 128.023 185.559 127.47 185.369 126.977C185.184 126.481 184.902 126.089 184.523 125.801C184.148 125.509 183.676 125.364 183.108 125.364C182.563 125.364 182.104 125.502 181.733 125.778C181.362 126.051 181.081 126.434 180.892 126.926C180.703 127.415 180.608 127.985 180.608 128.636ZM191.608 133.205C191.055 133.205 190.553 133.1 190.102 132.892C189.652 132.68 189.294 132.375 189.028 131.977C188.763 131.576 188.631 131.091 188.631 130.523C188.631 130.023 188.729 129.617 188.926 129.307C189.123 128.992 189.386 128.746 189.716 128.568C190.045 128.39 190.409 128.258 190.807 128.17C191.208 128.08 191.612 128.008 192.017 127.955C192.547 127.886 192.977 127.835 193.307 127.801C193.64 127.763 193.883 127.701 194.034 127.614C194.189 127.527 194.267 127.375 194.267 127.159V127.114C194.267 126.553 194.114 126.117 193.807 125.807C193.504 125.496 193.044 125.341 192.426 125.341C191.786 125.341 191.284 125.481 190.92 125.761C190.557 126.042 190.301 126.341 190.153 126.659L188.881 126.205C189.108 125.674 189.411 125.261 189.79 124.966C190.172 124.667 190.589 124.458 191.04 124.341C191.494 124.22 191.941 124.159 192.381 124.159C192.661 124.159 192.983 124.193 193.347 124.261C193.714 124.326 194.068 124.46 194.409 124.665C194.754 124.869 195.04 125.178 195.267 125.591C195.494 126.004 195.608 126.557 195.608 127.25V133H194.267V131.818H194.199C194.108 132.008 193.956 132.21 193.744 132.426C193.532 132.642 193.25 132.826 192.898 132.977C192.545 133.129 192.116 133.205 191.608 133.205ZM191.812 132C192.343 132 192.79 131.896 193.153 131.688C193.521 131.479 193.797 131.21 193.983 130.881C194.172 130.551 194.267 130.205 194.267 129.841V128.614C194.21 128.682 194.085 128.744 193.892 128.801C193.703 128.854 193.483 128.902 193.233 128.943C192.987 128.981 192.746 129.015 192.511 129.045C192.28 129.072 192.093 129.095 191.949 129.114C191.6 129.159 191.275 129.233 190.972 129.335C190.672 129.434 190.43 129.583 190.244 129.784C190.063 129.981 189.972 130.25 189.972 130.591C189.972 131.057 190.144 131.409 190.489 131.648C190.837 131.883 191.278 132 191.812 132ZM199.396 127.75V133H198.055V124.273H199.351V125.636H199.464C199.669 125.193 199.98 124.837 200.396 124.568C200.813 124.295 201.351 124.159 202.01 124.159C202.601 124.159 203.118 124.28 203.561 124.523C204.004 124.761 204.349 125.125 204.595 125.614C204.841 126.098 204.964 126.712 204.964 127.455V133H203.624V127.545C203.624 126.86 203.446 126.326 203.089 125.943C202.733 125.557 202.245 125.364 201.624 125.364C201.196 125.364 200.813 125.456 200.476 125.642C200.143 125.828 199.879 126.098 199.686 126.455C199.493 126.811 199.396 127.242 199.396 127.75ZM207.415 133V124.273H208.756V133H207.415ZM208.097 122.818C207.835 122.818 207.61 122.729 207.42 122.551C207.235 122.373 207.142 122.159 207.142 121.909C207.142 121.659 207.235 121.445 207.42 121.267C207.61 121.089 207.835 121 208.097 121C208.358 121 208.581 121.089 208.767 121.267C208.956 121.445 209.051 121.659 209.051 121.909C209.051 122.159 208.956 122.373 208.767 122.551C208.581 122.729 208.358 122.818 208.097 122.818ZM217.393 126.227L216.189 126.568C216.113 126.367 216.001 126.172 215.854 125.983C215.71 125.79 215.513 125.631 215.263 125.506C215.013 125.381 214.693 125.318 214.303 125.318C213.768 125.318 213.323 125.441 212.967 125.688C212.615 125.93 212.439 126.239 212.439 126.614C212.439 126.947 212.56 127.21 212.803 127.403C213.045 127.597 213.424 127.758 213.939 127.886L215.234 128.205C216.015 128.394 216.596 128.684 216.979 129.074C217.361 129.46 217.553 129.958 217.553 130.568C217.553 131.068 217.409 131.515 217.121 131.909C216.837 132.303 216.439 132.614 215.928 132.841C215.416 133.068 214.821 133.182 214.143 133.182C213.253 133.182 212.517 132.989 211.933 132.602C211.35 132.216 210.981 131.652 210.825 130.909L212.098 130.591C212.219 131.061 212.448 131.413 212.786 131.648C213.126 131.883 213.571 132 214.121 132C214.746 132 215.242 131.867 215.609 131.602C215.981 131.333 216.166 131.011 216.166 130.636C216.166 130.333 216.06 130.08 215.848 129.875C215.636 129.667 215.31 129.511 214.871 129.409L213.416 129.068C212.617 128.879 212.03 128.585 211.655 128.188C211.284 127.786 211.098 127.284 211.098 126.682C211.098 126.189 211.236 125.754 211.513 125.375C211.793 124.996 212.174 124.699 212.655 124.483C213.14 124.267 213.689 124.159 214.303 124.159C215.166 124.159 215.844 124.348 216.337 124.727C216.833 125.106 217.185 125.606 217.393 126.227ZM220.912 127.75V133H219.571V121.364H220.912V125.636H221.026C221.23 125.186 221.537 124.828 221.946 124.562C222.359 124.294 222.908 124.159 223.594 124.159C224.188 124.159 224.709 124.278 225.156 124.517C225.603 124.752 225.95 125.114 226.196 125.602C226.446 126.087 226.571 126.705 226.571 127.455V133H225.23V127.545C225.23 126.852 225.05 126.316 224.69 125.938C224.334 125.555 223.84 125.364 223.207 125.364C222.768 125.364 222.374 125.456 222.026 125.642C221.681 125.828 221.408 126.098 221.207 126.455C221.01 126.811 220.912 127.242 220.912 127.75ZM240.661 124.273L237.433 133H236.07L232.842 124.273H234.297L236.706 131.227H236.797L239.206 124.273H240.661ZM245.663 133.182C244.875 133.182 244.184 132.994 243.589 132.619C242.999 132.244 242.536 131.72 242.203 131.045C241.874 130.371 241.709 129.583 241.709 128.682C241.709 127.773 241.874 126.979 242.203 126.301C242.536 125.623 242.999 125.097 243.589 124.722C244.184 124.347 244.875 124.159 245.663 124.159C246.451 124.159 247.141 124.347 247.732 124.722C248.326 125.097 248.788 125.623 249.118 126.301C249.451 126.979 249.618 127.773 249.618 128.682C249.618 129.583 249.451 130.371 249.118 131.045C248.788 131.72 248.326 132.244 247.732 132.619C247.141 132.994 246.451 133.182 245.663 133.182ZM245.663 131.977C246.262 131.977 246.754 131.824 247.141 131.517C247.527 131.21 247.813 130.807 247.999 130.307C248.184 129.807 248.277 129.265 248.277 128.682C248.277 128.098 248.184 127.555 247.999 127.051C247.813 126.547 247.527 126.14 247.141 125.83C246.754 125.519 246.262 125.364 245.663 125.364C245.065 125.364 244.572 125.519 244.186 125.83C243.8 126.14 243.514 126.547 243.328 127.051C243.143 127.555 243.05 128.098 243.05 128.682C243.05 129.265 243.143 129.807 243.328 130.307C243.514 130.807 243.8 131.21 244.186 131.517C244.572 131.824 245.065 131.977 245.663 131.977ZM255.21 133.182C254.392 133.182 253.688 132.989 253.097 132.602C252.506 132.216 252.051 131.684 251.733 131.006C251.415 130.328 251.256 129.553 251.256 128.682C251.256 127.795 251.419 127.013 251.744 126.335C252.074 125.653 252.532 125.121 253.119 124.739C253.71 124.352 254.4 124.159 255.188 124.159C255.801 124.159 256.354 124.273 256.847 124.5C257.339 124.727 257.742 125.045 258.057 125.455C258.371 125.864 258.566 126.341 258.642 126.886H257.301C257.199 126.489 256.972 126.136 256.619 125.83C256.271 125.519 255.801 125.364 255.21 125.364C254.688 125.364 254.229 125.5 253.835 125.773C253.445 126.042 253.14 126.422 252.92 126.915C252.705 127.403 252.597 127.977 252.597 128.636C252.597 129.311 252.703 129.898 252.915 130.398C253.131 130.898 253.434 131.286 253.824 131.562C254.218 131.839 254.68 131.977 255.21 131.977C255.559 131.977 255.875 131.917 256.159 131.795C256.443 131.674 256.684 131.5 256.881 131.273C257.078 131.045 257.218 130.773 257.301 130.455H258.642C258.566 130.97 258.379 131.434 258.08 131.847C257.784 132.256 257.392 132.581 256.903 132.824C256.419 133.062 255.854 133.182 255.21 133.182ZM263.17 133.205C262.617 133.205 262.116 133.1 261.665 132.892C261.214 132.68 260.856 132.375 260.591 131.977C260.326 131.576 260.193 131.091 260.193 130.523C260.193 130.023 260.292 129.617 260.489 129.307C260.686 128.992 260.949 128.746 261.278 128.568C261.608 128.39 261.972 128.258 262.369 128.17C262.771 128.08 263.174 128.008 263.58 127.955C264.11 127.886 264.54 127.835 264.869 127.801C265.203 127.763 265.445 127.701 265.597 127.614C265.752 127.527 265.83 127.375 265.83 127.159V127.114C265.83 126.553 265.676 126.117 265.369 125.807C265.066 125.496 264.606 125.341 263.989 125.341C263.348 125.341 262.847 125.481 262.483 125.761C262.119 126.042 261.864 126.341 261.716 126.659L260.443 126.205C260.67 125.674 260.973 125.261 261.352 124.966C261.735 124.667 262.152 124.458 262.602 124.341C263.057 124.22 263.504 124.159 263.943 124.159C264.223 124.159 264.545 124.193 264.909 124.261C265.277 124.326 265.631 124.46 265.972 124.665C266.316 124.869 266.602 125.178 266.83 125.591C267.057 126.004 267.17 126.557 267.17 127.25V133H265.83V131.818H265.761C265.67 132.008 265.519 132.21 265.307 132.426C265.095 132.642 264.813 132.826 264.46 132.977C264.108 133.129 263.678 133.205 263.17 133.205ZM263.375 132C263.905 132 264.352 131.896 264.716 131.688C265.083 131.479 265.36 131.21 265.545 130.881C265.735 130.551 265.83 130.205 265.83 129.841V128.614C265.773 128.682 265.648 128.744 265.455 128.801C265.265 128.854 265.045 128.902 264.795 128.943C264.549 128.981 264.309 129.015 264.074 129.045C263.843 129.072 263.655 129.095 263.511 129.114C263.163 129.159 262.837 129.233 262.534 129.335C262.235 129.434 261.992 129.583 261.807 129.784C261.625 129.981 261.534 130.25 261.534 130.591C261.534 131.057 261.706 131.409 262.051 131.648C262.4 131.883 262.841 132 263.375 132ZM269.8 133V121.364H271.141V125.659H271.254C271.353 125.508 271.489 125.314 271.663 125.08C271.841 124.841 272.095 124.629 272.425 124.443C272.758 124.254 273.209 124.159 273.777 124.159C274.512 124.159 275.16 124.343 275.72 124.71C276.281 125.078 276.718 125.598 277.033 126.273C277.347 126.947 277.504 127.742 277.504 128.659C277.504 129.583 277.347 130.384 277.033 131.062C276.718 131.737 276.283 132.259 275.726 132.631C275.169 132.998 274.527 133.182 273.8 133.182C273.239 133.182 272.79 133.089 272.453 132.903C272.116 132.714 271.857 132.5 271.675 132.261C271.493 132.019 271.353 131.818 271.254 131.659H271.095V133H269.8ZM271.118 128.636C271.118 129.295 271.214 129.877 271.408 130.381C271.601 130.881 271.883 131.273 272.254 131.557C272.625 131.837 273.08 131.977 273.618 131.977C274.179 131.977 274.646 131.83 275.021 131.534C275.4 131.235 275.684 130.833 275.874 130.33C276.067 129.822 276.163 129.258 276.163 128.636C276.163 128.023 276.069 127.47 275.879 126.977C275.694 126.481 275.411 126.089 275.033 125.801C274.658 125.509 274.186 125.364 273.618 125.364C273.072 125.364 272.614 125.502 272.243 125.778C271.872 126.051 271.591 126.434 271.402 126.926C271.213 127.415 271.118 127.985 271.118 128.636ZM285.055 129.432V124.273H286.396V133H285.055V131.523H284.964C284.76 131.966 284.442 132.343 284.01 132.653C283.578 132.96 283.033 133.114 282.374 133.114C281.828 133.114 281.343 132.994 280.919 132.756C280.495 132.513 280.161 132.15 279.919 131.665C279.677 131.176 279.555 130.561 279.555 129.818V124.273H280.896V129.727C280.896 130.364 281.074 130.871 281.43 131.25C281.79 131.629 282.249 131.818 282.805 131.818C283.139 131.818 283.478 131.733 283.822 131.562C284.171 131.392 284.463 131.131 284.697 130.778C284.936 130.426 285.055 129.977 285.055 129.432ZM290.193 121.364V133H288.852V121.364H290.193ZM295.217 133.205C294.664 133.205 294.162 133.1 293.712 132.892C293.261 132.68 292.903 132.375 292.638 131.977C292.373 131.576 292.24 131.091 292.24 130.523C292.24 130.023 292.339 129.617 292.536 129.307C292.732 128.992 292.996 128.746 293.325 128.568C293.655 128.39 294.018 128.258 294.416 128.17C294.818 128.08 295.221 128.008 295.626 127.955C296.157 127.886 296.587 127.835 296.916 127.801C297.25 127.763 297.492 127.701 297.643 127.614C297.799 127.527 297.876 127.375 297.876 127.159V127.114C297.876 126.553 297.723 126.117 297.416 125.807C297.113 125.496 296.653 125.341 296.036 125.341C295.395 125.341 294.893 125.481 294.53 125.761C294.166 126.042 293.911 126.341 293.763 126.659L292.49 126.205C292.717 125.674 293.02 125.261 293.399 124.966C293.782 124.667 294.198 124.458 294.649 124.341C295.104 124.22 295.551 124.159 295.99 124.159C296.27 124.159 296.592 124.193 296.956 124.261C297.323 124.326 297.678 124.46 298.018 124.665C298.363 124.869 298.649 125.178 298.876 125.591C299.104 126.004 299.217 126.557 299.217 127.25V133H297.876V131.818H297.808C297.717 132.008 297.566 132.21 297.354 132.426C297.142 132.642 296.859 132.826 296.507 132.977C296.155 133.129 295.725 133.205 295.217 133.205ZM295.422 132C295.952 132 296.399 131.896 296.763 131.688C297.13 131.479 297.407 131.21 297.592 130.881C297.782 130.551 297.876 130.205 297.876 129.841V128.614C297.82 128.682 297.695 128.744 297.501 128.801C297.312 128.854 297.092 128.902 296.842 128.943C296.596 128.981 296.356 129.015 296.121 129.045C295.89 129.072 295.702 129.095 295.558 129.114C295.21 129.159 294.884 129.233 294.581 129.335C294.282 129.434 294.039 129.583 293.854 129.784C293.672 129.981 293.581 130.25 293.581 130.591C293.581 131.057 293.753 131.409 294.098 131.648C294.446 131.883 294.888 132 295.422 132ZM301.665 133V124.273H302.96V125.591H303.051C303.21 125.159 303.498 124.809 303.915 124.54C304.331 124.271 304.801 124.136 305.324 124.136C305.422 124.136 305.545 124.138 305.693 124.142C305.841 124.146 305.953 124.152 306.028 124.159V125.523C305.983 125.511 305.879 125.494 305.716 125.472C305.557 125.445 305.388 125.432 305.21 125.432C304.786 125.432 304.407 125.521 304.074 125.699C303.744 125.873 303.483 126.116 303.29 126.426C303.1 126.733 303.006 127.083 303.006 127.477V133H301.665ZM308.747 136.273C308.52 136.273 308.317 136.254 308.139 136.216C307.961 136.182 307.838 136.148 307.77 136.114L308.111 134.932C308.437 135.015 308.724 135.045 308.974 135.023C309.224 135 309.446 134.888 309.639 134.688C309.836 134.491 310.016 134.17 310.179 133.727L310.429 133.045L307.202 124.273H308.656L311.065 131.227H311.156L313.565 124.273H315.02L311.315 134.273C311.149 134.723 310.942 135.097 310.696 135.392C310.45 135.691 310.164 135.913 309.838 136.057C309.516 136.201 309.152 136.273 308.747 136.273Z" fill="#393939"/>
<path d="M78.2422 152.267V144.273H112.665V152.267H100.316V185H90.6115V152.267H78.2422ZM121.928 185.517C119.979 185.517 118.249 185.192 116.737 184.543C115.239 183.88 114.053 182.885 113.178 181.56C112.316 180.221 111.885 178.544 111.885 176.528C111.885 174.831 112.183 173.4 112.78 172.233C113.376 171.066 114.198 170.118 115.246 169.389C116.293 168.66 117.5 168.11 118.865 167.739C120.231 167.354 121.689 167.096 123.24 166.963C124.977 166.804 126.375 166.638 127.436 166.466C128.497 166.28 129.266 166.022 129.743 165.69C130.233 165.346 130.479 164.862 130.479 164.239V164.139C130.479 163.118 130.127 162.33 129.425 161.773C128.722 161.216 127.774 160.938 126.581 160.938C125.295 160.938 124.261 161.216 123.479 161.773C122.696 162.33 122.199 163.098 121.987 164.08L113.018 163.761C113.284 161.905 113.966 160.248 115.067 158.79C116.18 157.318 117.705 156.165 119.641 155.33C121.589 154.481 123.929 154.057 126.661 154.057C128.609 154.057 130.406 154.289 132.05 154.753C133.694 155.204 135.125 155.866 136.345 156.741C137.565 157.603 138.506 158.664 139.169 159.923C139.845 161.183 140.183 162.621 140.183 164.239V185H131.036V180.744H130.797C130.253 181.778 129.557 182.653 128.709 183.369C127.874 184.085 126.886 184.622 125.746 184.98C124.619 185.338 123.346 185.517 121.928 185.517ZM124.93 179.153C125.978 179.153 126.919 178.941 127.754 178.517C128.603 178.093 129.279 177.509 129.783 176.767C130.286 176.011 130.538 175.136 130.538 174.142V171.239C130.26 171.384 129.922 171.517 129.524 171.636C129.14 171.756 128.715 171.868 128.251 171.974C127.787 172.08 127.31 172.173 126.82 172.253C126.329 172.332 125.858 172.405 125.408 172.472C124.493 172.617 123.711 172.843 123.061 173.148C122.425 173.453 121.934 173.85 121.589 174.341C121.258 174.818 121.092 175.388 121.092 176.051C121.092 177.059 121.45 177.828 122.166 178.358C122.895 178.888 123.817 179.153 124.93 179.153ZM172.797 163.781L163.868 164.02C163.775 163.384 163.523 162.82 163.112 162.33C162.701 161.826 162.164 161.435 161.501 161.156C160.852 160.865 160.096 160.719 159.234 160.719C158.107 160.719 157.146 160.944 156.351 161.395C155.569 161.846 155.184 162.455 155.197 163.224C155.184 163.821 155.423 164.338 155.913 164.776C156.417 165.213 157.312 165.564 158.598 165.83L164.484 166.943C167.534 167.527 169.801 168.494 171.286 169.847C172.784 171.199 173.539 172.989 173.553 175.216C173.539 177.311 172.916 179.134 171.683 180.685C170.464 182.236 168.793 183.442 166.672 184.304C164.551 185.152 162.125 185.577 159.393 185.577C155.032 185.577 151.591 184.682 149.072 182.892C146.567 181.089 145.135 178.676 144.777 175.653L154.382 175.415C154.594 176.528 155.144 177.377 156.033 177.96C156.921 178.544 158.054 178.835 159.433 178.835C160.679 178.835 161.694 178.603 162.476 178.139C163.258 177.675 163.656 177.059 163.669 176.29C163.656 175.6 163.351 175.05 162.754 174.639C162.158 174.215 161.223 173.884 159.95 173.645L154.621 172.631C151.558 172.074 149.278 171.046 147.78 169.548C146.282 168.037 145.539 166.115 145.553 163.781C145.539 161.74 146.083 159.996 147.183 158.551C148.284 157.093 149.848 155.979 151.876 155.21C153.905 154.441 156.298 154.057 159.055 154.057C163.192 154.057 166.453 154.925 168.839 156.662C171.226 158.385 172.545 160.759 172.797 163.781ZM187.11 176.986L187.15 165.392H188.502L197.093 154.455H208.11L195.343 170.125H192.778L187.11 176.986ZM178.34 185V144.273H188.065V185H178.34ZM197.312 185L189.317 172.312L195.721 165.412L208.548 185H197.312Z" fill="#FF4747"/>
<rect x="118" y="181" width="343" height="42" rx="14" fill="#EAEAEA"/>
<path d="M135.526 208V196.364H136.935V206.75H142.344V208H135.526ZM148.004 208.182C147.163 208.182 146.437 207.996 145.827 207.625C145.221 207.25 144.754 206.727 144.424 206.057C144.098 205.383 143.935 204.598 143.935 203.705C143.935 202.811 144.098 202.023 144.424 201.341C144.754 200.655 145.212 200.121 145.799 199.739C146.39 199.352 147.079 199.159 147.867 199.159C148.322 199.159 148.771 199.235 149.214 199.386C149.657 199.538 150.06 199.784 150.424 200.125C150.788 200.462 151.077 200.909 151.293 201.466C151.509 202.023 151.617 202.708 151.617 203.523V204.091H144.89V202.932H150.254C150.254 202.439 150.155 202 149.958 201.614C149.765 201.227 149.488 200.922 149.129 200.699C148.772 200.475 148.352 200.364 147.867 200.364C147.333 200.364 146.871 200.496 146.481 200.761C146.094 201.023 145.797 201.364 145.589 201.784C145.38 202.205 145.276 202.655 145.276 203.136V203.909C145.276 204.568 145.39 205.127 145.617 205.585C145.848 206.04 146.168 206.386 146.577 206.625C146.987 206.86 147.462 206.977 148.004 206.977C148.356 206.977 148.674 206.928 148.958 206.83C149.246 206.727 149.494 206.576 149.702 206.375C149.911 206.17 150.072 205.917 150.185 205.614L151.481 205.977C151.344 206.417 151.115 206.803 150.793 207.136C150.471 207.466 150.074 207.723 149.6 207.909C149.127 208.091 148.594 208.182 148.004 208.182ZM156.225 208.205C155.672 208.205 155.17 208.1 154.719 207.892C154.269 207.68 153.911 207.375 153.646 206.977C153.38 206.576 153.248 206.091 153.248 205.523C153.248 205.023 153.346 204.617 153.543 204.307C153.74 203.992 154.004 203.746 154.333 203.568C154.663 203.39 155.026 203.258 155.424 203.17C155.826 203.08 156.229 203.008 156.634 202.955C157.165 202.886 157.594 202.835 157.924 202.801C158.257 202.763 158.5 202.701 158.651 202.614C158.807 202.527 158.884 202.375 158.884 202.159V202.114C158.884 201.553 158.731 201.117 158.424 200.807C158.121 200.496 157.661 200.341 157.043 200.341C156.403 200.341 155.901 200.481 155.538 200.761C155.174 201.042 154.918 201.341 154.771 201.659L153.498 201.205C153.725 200.674 154.028 200.261 154.407 199.966C154.79 199.667 155.206 199.458 155.657 199.341C156.112 199.22 156.558 199.159 156.998 199.159C157.278 199.159 157.6 199.193 157.964 199.261C158.331 199.326 158.685 199.46 159.026 199.665C159.371 199.869 159.657 200.178 159.884 200.591C160.112 201.004 160.225 201.557 160.225 202.25V208H158.884V206.818H158.816C158.725 207.008 158.574 207.21 158.362 207.426C158.149 207.642 157.867 207.826 157.515 207.977C157.163 208.129 156.733 208.205 156.225 208.205ZM156.43 207C156.96 207 157.407 206.896 157.771 206.688C158.138 206.479 158.415 206.21 158.6 205.881C158.79 205.551 158.884 205.205 158.884 204.841V203.614C158.827 203.682 158.702 203.744 158.509 203.801C158.32 203.854 158.1 203.902 157.85 203.943C157.604 203.981 157.363 204.015 157.129 204.045C156.897 204.072 156.71 204.095 156.566 204.114C156.218 204.159 155.892 204.233 155.589 204.335C155.29 204.434 155.047 204.583 154.862 204.784C154.68 204.981 154.589 205.25 154.589 205.591C154.589 206.057 154.761 206.409 155.106 206.648C155.454 206.883 155.896 207 156.43 207ZM162.673 208V199.273H163.968V200.591H164.059C164.218 200.159 164.506 199.809 164.923 199.54C165.339 199.271 165.809 199.136 166.332 199.136C166.43 199.136 166.553 199.138 166.701 199.142C166.849 199.146 166.96 199.152 167.036 199.159V200.523C166.991 200.511 166.887 200.494 166.724 200.472C166.565 200.445 166.396 200.432 166.218 200.432C165.794 200.432 165.415 200.521 165.082 200.699C164.752 200.873 164.491 201.116 164.298 201.426C164.108 201.733 164.013 202.083 164.013 202.477V208H162.673ZM169.967 202.75V208H168.626V199.273H169.921V200.636H170.035C170.239 200.193 170.55 199.837 170.967 199.568C171.383 199.295 171.921 199.159 172.58 199.159C173.171 199.159 173.688 199.28 174.131 199.523C174.575 199.761 174.919 200.125 175.165 200.614C175.412 201.098 175.535 201.712 175.535 202.455V208H174.194V202.545C174.194 201.86 174.016 201.326 173.66 200.943C173.304 200.557 172.815 200.364 172.194 200.364C171.766 200.364 171.383 200.456 171.046 200.642C170.713 200.828 170.45 201.098 170.256 201.455C170.063 201.811 169.967 202.242 169.967 202.75ZM186.031 208.182C185.212 208.182 184.508 207.989 183.917 207.602C183.326 207.216 182.871 206.684 182.553 206.006C182.235 205.328 182.076 204.553 182.076 203.682C182.076 202.795 182.239 202.013 182.565 201.335C182.894 200.653 183.353 200.121 183.94 199.739C184.531 199.352 185.22 199.159 186.008 199.159C186.621 199.159 187.174 199.273 187.667 199.5C188.159 199.727 188.563 200.045 188.877 200.455C189.192 200.864 189.387 201.341 189.462 201.886H188.121C188.019 201.489 187.792 201.136 187.44 200.83C187.091 200.519 186.621 200.364 186.031 200.364C185.508 200.364 185.049 200.5 184.656 200.773C184.265 201.042 183.96 201.422 183.741 201.915C183.525 202.403 183.417 202.977 183.417 203.636C183.417 204.311 183.523 204.898 183.735 205.398C183.951 205.898 184.254 206.286 184.644 206.562C185.038 206.839 185.5 206.977 186.031 206.977C186.379 206.977 186.695 206.917 186.979 206.795C187.263 206.674 187.504 206.5 187.701 206.273C187.898 206.045 188.038 205.773 188.121 205.455H189.462C189.387 205.97 189.199 206.434 188.9 206.847C188.604 207.256 188.212 207.581 187.724 207.824C187.239 208.062 186.674 208.182 186.031 208.182ZM194.968 208.182C194.18 208.182 193.489 207.994 192.894 207.619C192.303 207.244 191.841 206.72 191.508 206.045C191.178 205.371 191.013 204.583 191.013 203.682C191.013 202.773 191.178 201.979 191.508 201.301C191.841 200.623 192.303 200.097 192.894 199.722C193.489 199.347 194.18 199.159 194.968 199.159C195.756 199.159 196.445 199.347 197.036 199.722C197.631 200.097 198.093 200.623 198.423 201.301C198.756 201.979 198.923 202.773 198.923 203.682C198.923 204.583 198.756 205.371 198.423 206.045C198.093 206.72 197.631 207.244 197.036 207.619C196.445 207.994 195.756 208.182 194.968 208.182ZM194.968 206.977C195.567 206.977 196.059 206.824 196.445 206.517C196.832 206.21 197.118 205.807 197.303 205.307C197.489 204.807 197.582 204.265 197.582 203.682C197.582 203.098 197.489 202.555 197.303 202.051C197.118 201.547 196.832 201.14 196.445 200.83C196.059 200.519 195.567 200.364 194.968 200.364C194.37 200.364 193.877 200.519 193.491 200.83C193.104 201.14 192.818 201.547 192.633 202.051C192.447 202.555 192.354 203.098 192.354 203.682C192.354 204.265 192.447 204.807 192.633 205.307C192.818 205.807 193.104 206.21 193.491 206.517C193.877 206.824 194.37 206.977 194.968 206.977ZM200.969 208V199.273H202.265V200.636H202.379C202.56 200.17 202.854 199.809 203.259 199.551C203.665 199.29 204.151 199.159 204.719 199.159C205.295 199.159 205.774 199.29 206.157 199.551C206.543 199.809 206.844 200.17 207.06 200.636H207.151C207.375 200.186 207.71 199.828 208.157 199.562C208.604 199.294 209.14 199.159 209.765 199.159C210.545 199.159 211.183 199.403 211.68 199.892C212.176 200.377 212.424 201.133 212.424 202.159V208H211.083V202.159C211.083 201.515 210.907 201.055 210.555 200.778C210.202 200.502 209.788 200.364 209.31 200.364C208.697 200.364 208.221 200.549 207.884 200.92C207.547 201.288 207.379 201.754 207.379 202.318V208H206.015V202.023C206.015 201.527 205.854 201.127 205.532 200.824C205.21 200.517 204.795 200.364 204.288 200.364C203.939 200.364 203.613 200.456 203.31 200.642C203.011 200.828 202.769 201.085 202.583 201.415C202.401 201.741 202.31 202.117 202.31 202.545V208H200.969ZM214.876 208V199.273H216.171V200.636H216.285C216.467 200.17 216.76 199.809 217.165 199.551C217.571 199.29 218.058 199.159 218.626 199.159C219.201 199.159 219.681 199.29 220.063 199.551C220.45 199.809 220.751 200.17 220.967 200.636H221.058C221.281 200.186 221.616 199.828 222.063 199.562C222.51 199.294 223.046 199.159 223.671 199.159C224.451 199.159 225.09 199.403 225.586 199.892C226.082 200.377 226.33 201.133 226.33 202.159V208H224.989V202.159C224.989 201.515 224.813 201.055 224.461 200.778C224.109 200.502 223.694 200.364 223.217 200.364C222.603 200.364 222.128 200.549 221.79 200.92C221.453 201.288 221.285 201.754 221.285 202.318V208H219.921V202.023C219.921 201.527 219.76 201.127 219.438 200.824C219.116 200.517 218.701 200.364 218.194 200.364C217.845 200.364 217.52 200.456 217.217 200.642C216.917 200.828 216.675 201.085 216.489 201.415C216.308 201.741 216.217 202.117 216.217 202.545V208H214.876ZM232.327 208.182C231.54 208.182 230.848 207.994 230.254 207.619C229.663 207.244 229.201 206.72 228.867 206.045C228.538 205.371 228.373 204.583 228.373 203.682C228.373 202.773 228.538 201.979 228.867 201.301C229.201 200.623 229.663 200.097 230.254 199.722C230.848 199.347 231.54 199.159 232.327 199.159C233.115 199.159 233.805 199.347 234.396 199.722C234.99 200.097 235.452 200.623 235.782 201.301C236.115 201.979 236.282 202.773 236.282 203.682C236.282 204.583 236.115 205.371 235.782 206.045C235.452 206.72 234.99 207.244 234.396 207.619C233.805 207.994 233.115 208.182 232.327 208.182ZM232.327 206.977C232.926 206.977 233.418 206.824 233.805 206.517C234.191 206.21 234.477 205.807 234.663 205.307C234.848 204.807 234.941 204.265 234.941 203.682C234.941 203.098 234.848 202.555 234.663 202.051C234.477 201.547 234.191 201.14 233.805 200.83C233.418 200.519 232.926 200.364 232.327 200.364C231.729 200.364 231.237 200.519 230.85 200.83C230.464 201.14 230.178 201.547 229.992 202.051C229.807 202.555 229.714 203.098 229.714 203.682C229.714 204.265 229.807 204.807 229.992 205.307C230.178 205.807 230.464 206.21 230.85 206.517C231.237 206.824 231.729 206.977 232.327 206.977ZM239.67 202.75V208H238.329V199.273H239.624V200.636H239.738C239.942 200.193 240.253 199.837 240.67 199.568C241.086 199.295 241.624 199.159 242.283 199.159C242.874 199.159 243.391 199.28 243.835 199.523C244.278 199.761 244.622 200.125 244.869 200.614C245.115 201.098 245.238 201.712 245.238 202.455V208H243.897V202.545C243.897 201.86 243.719 201.326 243.363 200.943C243.007 200.557 242.518 200.364 241.897 200.364C241.469 200.364 241.086 200.456 240.749 200.642C240.416 200.828 240.153 201.098 239.96 201.455C239.766 201.811 239.67 202.242 239.67 202.75ZM258.734 199.273C258.665 198.697 258.389 198.25 257.904 197.932C257.419 197.614 256.825 197.455 256.12 197.455C255.605 197.455 255.154 197.538 254.768 197.705C254.385 197.871 254.086 198.1 253.87 198.392C253.658 198.684 253.552 199.015 253.552 199.386C253.552 199.697 253.626 199.964 253.773 200.188C253.925 200.407 254.118 200.591 254.353 200.739C254.588 200.883 254.834 201.002 255.092 201.097C255.349 201.187 255.586 201.261 255.802 201.318L256.984 201.636C257.287 201.716 257.624 201.826 257.995 201.966C258.37 202.106 258.728 202.297 259.069 202.54C259.414 202.778 259.698 203.085 259.921 203.46C260.145 203.835 260.256 204.295 260.256 204.841C260.256 205.47 260.092 206.038 259.762 206.545C259.436 207.053 258.959 207.456 258.33 207.756C257.705 208.055 256.946 208.205 256.052 208.205C255.219 208.205 254.497 208.07 253.887 207.801C253.281 207.532 252.804 207.157 252.455 206.676C252.111 206.195 251.915 205.636 251.87 205H253.325C253.362 205.439 253.51 205.803 253.768 206.091C254.029 206.375 254.359 206.587 254.756 206.727C255.158 206.864 255.59 206.932 256.052 206.932C256.59 206.932 257.073 206.845 257.501 206.67C257.929 206.492 258.268 206.246 258.518 205.932C258.768 205.614 258.893 205.242 258.893 204.818C258.893 204.432 258.785 204.117 258.569 203.875C258.353 203.633 258.069 203.436 257.717 203.284C257.364 203.133 256.984 203 256.575 202.886L255.143 202.477C254.234 202.216 253.514 201.843 252.984 201.358C252.453 200.873 252.188 200.239 252.188 199.455C252.188 198.803 252.364 198.235 252.717 197.75C253.073 197.261 253.55 196.883 254.148 196.614C254.751 196.341 255.423 196.205 256.165 196.205C256.915 196.205 257.582 196.339 258.165 196.608C258.749 196.873 259.211 197.237 259.552 197.699C259.897 198.161 260.078 198.686 260.097 199.273H258.734ZM262.391 211.273V199.273H263.687V200.659H263.846C263.944 200.508 264.081 200.314 264.255 200.08C264.433 199.841 264.687 199.629 265.016 199.443C265.35 199.254 265.8 199.159 266.369 199.159C267.103 199.159 267.751 199.343 268.312 199.71C268.872 200.078 269.31 200.598 269.624 201.273C269.939 201.947 270.096 202.742 270.096 203.659C270.096 204.583 269.939 205.384 269.624 206.062C269.31 206.737 268.874 207.259 268.317 207.631C267.761 207.998 267.119 208.182 266.391 208.182C265.831 208.182 265.382 208.089 265.045 207.903C264.708 207.714 264.448 207.5 264.266 207.261C264.085 207.019 263.944 206.818 263.846 206.659H263.732V211.273H262.391ZM263.71 203.636C263.71 204.295 263.806 204.877 263.999 205.381C264.192 205.881 264.475 206.273 264.846 206.557C265.217 206.837 265.672 206.977 266.21 206.977C266.77 206.977 267.238 206.83 267.613 206.534C267.992 206.235 268.276 205.833 268.465 205.33C268.658 204.822 268.755 204.258 268.755 203.636C268.755 203.023 268.66 202.47 268.471 201.977C268.285 201.481 268.003 201.089 267.624 200.801C267.249 200.509 266.778 200.364 266.21 200.364C265.664 200.364 265.206 200.502 264.835 200.778C264.463 201.051 264.183 201.434 263.994 201.926C263.804 202.415 263.71 202.985 263.71 203.636ZM274.71 208.205C274.156 208.205 273.655 208.1 273.204 207.892C272.753 207.68 272.395 207.375 272.13 206.977C271.865 206.576 271.732 206.091 271.732 205.523C271.732 205.023 271.831 204.617 272.028 204.307C272.225 203.992 272.488 203.746 272.817 203.568C273.147 203.39 273.511 203.258 273.908 203.17C274.31 203.08 274.713 203.008 275.119 202.955C275.649 202.886 276.079 202.835 276.408 202.801C276.742 202.763 276.984 202.701 277.136 202.614C277.291 202.527 277.369 202.375 277.369 202.159V202.114C277.369 201.553 277.215 201.117 276.908 200.807C276.605 200.496 276.145 200.341 275.528 200.341C274.888 200.341 274.386 200.481 274.022 200.761C273.658 201.042 273.403 201.341 273.255 201.659L271.982 201.205C272.21 200.674 272.513 200.261 272.891 199.966C273.274 199.667 273.691 199.458 274.141 199.341C274.596 199.22 275.043 199.159 275.482 199.159C275.763 199.159 276.085 199.193 276.448 199.261C276.816 199.326 277.17 199.46 277.511 199.665C277.855 199.869 278.141 200.178 278.369 200.591C278.596 201.004 278.71 201.557 278.71 202.25V208H277.369V206.818H277.3C277.21 207.008 277.058 207.21 276.846 207.426C276.634 207.642 276.352 207.826 275.999 207.977C275.647 208.129 275.217 208.205 274.71 208.205ZM274.914 207C275.444 207 275.891 206.896 276.255 206.688C276.622 206.479 276.899 206.21 277.085 205.881C277.274 205.551 277.369 205.205 277.369 204.841V203.614C277.312 203.682 277.187 203.744 276.994 203.801C276.804 203.854 276.585 203.902 276.335 203.943C276.088 203.981 275.848 204.015 275.613 204.045C275.382 204.072 275.194 204.095 275.05 204.114C274.702 204.159 274.376 204.233 274.073 204.335C273.774 204.434 273.531 204.583 273.346 204.784C273.164 204.981 273.073 205.25 273.073 205.591C273.073 206.057 273.246 206.409 273.59 206.648C273.939 206.883 274.38 207 274.914 207ZM282.498 202.75V208H281.157V199.273H282.452V200.636H282.566C282.771 200.193 283.081 199.837 283.498 199.568C283.915 199.295 284.452 199.159 285.112 199.159C285.702 199.159 286.219 199.28 286.663 199.523C287.106 199.761 287.451 200.125 287.697 200.614C287.943 201.098 288.066 201.712 288.066 202.455V208H286.725V202.545C286.725 201.86 286.547 201.326 286.191 200.943C285.835 200.557 285.346 200.364 284.725 200.364C284.297 200.364 283.915 200.456 283.577 200.642C283.244 200.828 282.981 201.098 282.788 201.455C282.594 201.811 282.498 202.242 282.498 202.75ZM290.516 208V199.273H291.857V208H290.516ZM291.198 197.818C290.937 197.818 290.711 197.729 290.522 197.551C290.336 197.373 290.244 197.159 290.244 196.909C290.244 196.659 290.336 196.445 290.522 196.267C290.711 196.089 290.937 196 291.198 196C291.46 196 291.683 196.089 291.869 196.267C292.058 196.445 292.153 196.659 292.153 196.909C292.153 197.159 292.058 197.373 291.869 197.551C291.683 197.729 291.46 197.818 291.198 197.818ZM300.495 201.227L299.29 201.568C299.215 201.367 299.103 201.172 298.955 200.983C298.811 200.79 298.614 200.631 298.364 200.506C298.114 200.381 297.794 200.318 297.404 200.318C296.87 200.318 296.425 200.441 296.069 200.688C295.717 200.93 295.54 201.239 295.54 201.614C295.54 201.947 295.662 202.21 295.904 202.403C296.147 202.597 296.525 202.758 297.04 202.886L298.336 203.205C299.116 203.394 299.698 203.684 300.08 204.074C300.463 204.46 300.654 204.958 300.654 205.568C300.654 206.068 300.51 206.515 300.222 206.909C299.938 207.303 299.54 207.614 299.029 207.841C298.518 208.068 297.923 208.182 297.245 208.182C296.355 208.182 295.618 207.989 295.035 207.602C294.451 207.216 294.082 206.652 293.927 205.909L295.2 205.591C295.321 206.061 295.55 206.413 295.887 206.648C296.228 206.883 296.673 207 297.222 207C297.847 207 298.344 206.867 298.711 206.602C299.082 206.333 299.268 206.011 299.268 205.636C299.268 205.333 299.162 205.08 298.95 204.875C298.737 204.667 298.412 204.511 297.972 204.409L296.518 204.068C295.719 203.879 295.131 203.585 294.756 203.188C294.385 202.786 294.2 202.284 294.2 201.682C294.2 201.189 294.338 200.754 294.614 200.375C294.895 199.996 295.275 199.699 295.756 199.483C296.241 199.267 296.79 199.159 297.404 199.159C298.268 199.159 298.946 199.348 299.438 199.727C299.934 200.106 300.287 200.606 300.495 201.227ZM304.013 202.75V208H302.673V196.364H304.013V200.636H304.127C304.332 200.186 304.638 199.828 305.048 199.562C305.46 199.294 306.01 199.159 306.695 199.159C307.29 199.159 307.811 199.278 308.258 199.517C308.705 199.752 309.051 200.114 309.298 200.602C309.548 201.087 309.673 201.705 309.673 202.455V208H308.332V202.545C308.332 201.852 308.152 201.316 307.792 200.938C307.436 200.555 306.942 200.364 306.309 200.364C305.87 200.364 305.476 200.456 305.127 200.642C304.782 200.828 304.51 201.098 304.309 201.455C304.112 201.811 304.013 202.242 304.013 202.75ZM320.148 211.455C319.501 211.455 318.944 211.371 318.478 211.205C318.012 211.042 317.624 210.826 317.313 210.557C317.006 210.292 316.762 210.008 316.58 209.705L317.648 208.955C317.77 209.114 317.923 209.295 318.109 209.5C318.294 209.708 318.548 209.888 318.87 210.04C319.196 210.195 319.622 210.273 320.148 210.273C320.853 210.273 321.434 210.102 321.893 209.761C322.351 209.42 322.58 208.886 322.58 208.159V206.386H322.467C322.368 206.545 322.228 206.742 322.046 206.977C321.868 207.208 321.611 207.415 321.273 207.597C320.94 207.775 320.489 207.864 319.921 207.864C319.217 207.864 318.584 207.697 318.023 207.364C317.467 207.03 317.025 206.545 316.7 205.909C316.378 205.273 316.217 204.5 316.217 203.591C316.217 202.697 316.374 201.919 316.688 201.256C317.003 200.589 317.44 200.074 318.001 199.71C318.561 199.343 319.209 199.159 319.944 199.159C320.512 199.159 320.963 199.254 321.296 199.443C321.633 199.629 321.891 199.841 322.069 200.08C322.251 200.314 322.391 200.508 322.489 200.659H322.626V199.273H323.921V208.25C323.921 209 323.751 209.61 323.41 210.08C323.073 210.553 322.618 210.9 322.046 211.119C321.478 211.343 320.845 211.455 320.148 211.455ZM320.103 206.659C320.641 206.659 321.095 206.536 321.467 206.29C321.838 206.044 322.12 205.689 322.313 205.227C322.506 204.765 322.603 204.212 322.603 203.568C322.603 202.939 322.508 202.384 322.319 201.903C322.129 201.422 321.849 201.045 321.478 200.773C321.107 200.5 320.648 200.364 320.103 200.364C319.535 200.364 319.061 200.508 318.683 200.795C318.308 201.083 318.025 201.47 317.836 201.955C317.65 202.439 317.558 202.977 317.558 203.568C317.558 204.174 317.652 204.71 317.842 205.176C318.035 205.638 318.319 206.002 318.694 206.267C319.073 206.528 319.542 206.659 320.103 206.659ZM326.376 208V199.273H327.671V200.591H327.762C327.921 200.159 328.209 199.809 328.626 199.54C329.042 199.271 329.512 199.136 330.035 199.136C330.133 199.136 330.256 199.138 330.404 199.142C330.552 199.146 330.664 199.152 330.739 199.159V200.523C330.694 200.511 330.59 200.494 330.427 200.472C330.268 200.445 330.099 200.432 329.921 200.432C329.497 200.432 329.118 200.521 328.785 200.699C328.455 200.873 328.194 201.116 328.001 201.426C327.811 201.733 327.717 202.083 327.717 202.477V208H326.376ZM335.722 208.182C334.881 208.182 334.156 207.996 333.546 207.625C332.94 207.25 332.472 206.727 332.143 206.057C331.817 205.383 331.654 204.598 331.654 203.705C331.654 202.811 331.817 202.023 332.143 201.341C332.472 200.655 332.931 200.121 333.518 199.739C334.109 199.352 334.798 199.159 335.586 199.159C336.04 199.159 336.489 199.235 336.933 199.386C337.376 199.538 337.779 199.784 338.143 200.125C338.506 200.462 338.796 200.909 339.012 201.466C339.228 202.023 339.336 202.708 339.336 203.523V204.091H332.609V202.932H337.972C337.972 202.439 337.874 202 337.677 201.614C337.484 201.227 337.207 200.922 336.847 200.699C336.491 200.475 336.071 200.364 335.586 200.364C335.052 200.364 334.59 200.496 334.2 200.761C333.813 201.023 333.516 201.364 333.308 201.784C333.099 202.205 332.995 202.655 332.995 203.136V203.909C332.995 204.568 333.109 205.127 333.336 205.585C333.567 206.04 333.887 206.386 334.296 206.625C334.705 206.86 335.181 206.977 335.722 206.977C336.075 206.977 336.393 206.928 336.677 206.83C336.965 206.727 337.213 206.576 337.421 206.375C337.629 206.17 337.79 205.917 337.904 205.614L339.2 205.977C339.063 206.417 338.834 206.803 338.512 207.136C338.19 207.466 337.792 207.723 337.319 207.909C336.845 208.091 336.313 208.182 335.722 208.182ZM345.035 208.182C344.194 208.182 343.469 207.996 342.859 207.625C342.253 207.25 341.785 206.727 341.455 206.057C341.129 205.383 340.967 204.598 340.967 203.705C340.967 202.811 341.129 202.023 341.455 201.341C341.785 200.655 342.243 200.121 342.83 199.739C343.421 199.352 344.111 199.159 344.898 199.159C345.353 199.159 345.802 199.235 346.245 199.386C346.688 199.538 347.092 199.784 347.455 200.125C347.819 200.462 348.109 200.909 348.325 201.466C348.54 202.023 348.648 202.708 348.648 203.523V204.091H341.921V202.932H347.285C347.285 202.439 347.186 202 346.989 201.614C346.796 201.227 346.52 200.922 346.16 200.699C345.804 200.475 345.383 200.364 344.898 200.364C344.364 200.364 343.902 200.496 343.512 200.761C343.126 201.023 342.828 201.364 342.62 201.784C342.412 202.205 342.308 202.655 342.308 203.136V203.909C342.308 204.568 342.421 205.127 342.648 205.585C342.879 206.04 343.2 206.386 343.609 206.625C344.018 206.86 344.493 206.977 345.035 206.977C345.387 206.977 345.705 206.928 345.989 206.83C346.277 206.727 346.525 206.576 346.734 206.375C346.942 206.17 347.103 205.917 347.217 205.614L348.512 205.977C348.376 206.417 348.147 206.803 347.825 207.136C347.503 207.466 347.105 207.723 346.631 207.909C346.158 208.091 345.626 208.182 345.035 208.182ZM354.484 199.273V200.409H349.961V199.273H354.484ZM351.279 197.182H352.62V205.5C352.62 205.879 352.675 206.163 352.785 206.352C352.898 206.538 353.042 206.663 353.217 206.727C353.395 206.788 353.582 206.818 353.779 206.818C353.927 206.818 354.048 206.811 354.143 206.795C354.237 206.777 354.313 206.761 354.37 206.75L354.643 207.955C354.552 207.989 354.425 208.023 354.262 208.057C354.099 208.095 353.893 208.114 353.643 208.114C353.264 208.114 352.893 208.032 352.529 207.869C352.169 207.706 351.87 207.458 351.631 207.125C351.397 206.792 351.279 206.371 351.279 205.864V197.182ZM356.501 208V199.273H357.842V208H356.501ZM357.183 197.818C356.921 197.818 356.696 197.729 356.506 197.551C356.321 197.373 356.228 197.159 356.228 196.909C356.228 196.659 356.321 196.445 356.506 196.267C356.696 196.089 356.921 196 357.183 196C357.444 196 357.667 196.089 357.853 196.267C358.042 196.445 358.137 196.659 358.137 196.909C358.137 197.159 358.042 197.373 357.853 197.551C357.667 197.729 357.444 197.818 357.183 197.818ZM361.638 202.75V208H360.298V199.273H361.593V200.636H361.707C361.911 200.193 362.222 199.837 362.638 199.568C363.055 199.295 363.593 199.159 364.252 199.159C364.843 199.159 365.36 199.28 365.803 199.523C366.246 199.761 366.591 200.125 366.837 200.614C367.084 201.098 367.207 201.712 367.207 202.455V208H365.866V202.545C365.866 201.86 365.688 201.326 365.332 200.943C364.976 200.557 364.487 200.364 363.866 200.364C363.438 200.364 363.055 200.456 362.718 200.642C362.385 200.828 362.121 201.098 361.928 201.455C361.735 201.811 361.638 202.242 361.638 202.75ZM373.18 211.455C372.532 211.455 371.975 211.371 371.509 211.205C371.043 211.042 370.655 210.826 370.344 210.557C370.038 210.292 369.793 210.008 369.612 209.705L370.68 208.955C370.801 209.114 370.954 209.295 371.14 209.5C371.326 209.708 371.579 209.888 371.901 210.04C372.227 210.195 372.653 210.273 373.18 210.273C373.884 210.273 374.466 210.102 374.924 209.761C375.382 209.42 375.612 208.886 375.612 208.159V206.386H375.498C375.399 206.545 375.259 206.742 375.077 206.977C374.899 207.208 374.642 207.415 374.305 207.597C373.971 207.775 373.521 207.864 372.952 207.864C372.248 207.864 371.615 207.697 371.055 207.364C370.498 207.03 370.057 206.545 369.731 205.909C369.409 205.273 369.248 204.5 369.248 203.591C369.248 202.697 369.405 201.919 369.719 201.256C370.034 200.589 370.471 200.074 371.032 199.71C371.593 199.343 372.24 199.159 372.975 199.159C373.543 199.159 373.994 199.254 374.327 199.443C374.665 199.629 374.922 199.841 375.1 200.08C375.282 200.314 375.422 200.508 375.521 200.659H375.657V199.273H376.952V208.25C376.952 209 376.782 209.61 376.441 210.08C376.104 210.553 375.649 210.9 375.077 211.119C374.509 211.343 373.877 211.455 373.18 211.455ZM373.134 206.659C373.672 206.659 374.127 206.536 374.498 206.29C374.869 206.044 375.151 205.689 375.344 205.227C375.538 204.765 375.634 204.212 375.634 203.568C375.634 202.939 375.54 202.384 375.35 201.903C375.161 201.422 374.88 201.045 374.509 200.773C374.138 200.5 373.68 200.364 373.134 200.364C372.566 200.364 372.093 200.508 371.714 200.795C371.339 201.083 371.057 201.47 370.867 201.955C370.682 202.439 370.589 202.977 370.589 203.568C370.589 204.174 370.683 204.71 370.873 205.176C371.066 205.638 371.35 206.002 371.725 206.267C372.104 206.528 372.574 206.659 373.134 206.659ZM383.907 211.273V199.273H385.202V200.659H385.362C385.46 200.508 385.596 200.314 385.771 200.08C385.949 199.841 386.202 199.629 386.532 199.443C386.865 199.254 387.316 199.159 387.884 199.159C388.619 199.159 389.267 199.343 389.827 199.71C390.388 200.078 390.826 200.598 391.14 201.273C391.454 201.947 391.612 202.742 391.612 203.659C391.612 204.583 391.454 205.384 391.14 206.062C390.826 206.737 390.39 207.259 389.833 207.631C389.276 207.998 388.634 208.182 387.907 208.182C387.346 208.182 386.897 208.089 386.56 207.903C386.223 207.714 385.964 207.5 385.782 207.261C385.6 207.019 385.46 206.818 385.362 206.659H385.248V211.273H383.907ZM385.225 203.636C385.225 204.295 385.322 204.877 385.515 205.381C385.708 205.881 385.99 206.273 386.362 206.557C386.733 206.837 387.187 206.977 387.725 206.977C388.286 206.977 388.754 206.83 389.129 206.534C389.507 206.235 389.791 205.833 389.981 205.33C390.174 204.822 390.271 204.258 390.271 203.636C390.271 203.023 390.176 202.47 389.987 201.977C389.801 201.481 389.519 201.089 389.14 200.801C388.765 200.509 388.293 200.364 387.725 200.364C387.18 200.364 386.721 200.502 386.35 200.778C385.979 201.051 385.699 201.434 385.509 201.926C385.32 202.415 385.225 202.985 385.225 203.636ZM394.998 202.75V208H393.657V196.364H394.998V200.636H395.112C395.316 200.186 395.623 199.828 396.032 199.562C396.445 199.294 396.994 199.159 397.68 199.159C398.274 199.159 398.795 199.278 399.242 199.517C399.689 199.752 400.036 200.114 400.282 200.602C400.532 201.087 400.657 201.705 400.657 202.455V208H399.316V202.545C399.316 201.852 399.136 201.316 398.776 200.938C398.42 200.555 397.926 200.364 397.293 200.364C396.854 200.364 396.46 200.456 396.112 200.642C395.767 200.828 395.494 201.098 395.293 201.455C395.096 201.811 394.998 202.242 394.998 202.75ZM403.11 208V199.273H404.406V200.591H404.496C404.656 200.159 404.943 199.809 405.36 199.54C405.777 199.271 406.246 199.136 406.769 199.136C406.868 199.136 406.991 199.138 407.138 199.142C407.286 199.146 407.398 199.152 407.474 199.159V200.523C407.428 200.511 407.324 200.494 407.161 200.472C407.002 200.445 406.834 200.432 406.656 200.432C406.231 200.432 405.853 200.521 405.519 200.699C405.19 200.873 404.928 201.116 404.735 201.426C404.546 201.733 404.451 202.083 404.451 202.477V208H403.11ZM411.631 208.205C411.078 208.205 410.576 208.1 410.126 207.892C409.675 207.68 409.317 207.375 409.052 206.977C408.787 206.576 408.654 206.091 408.654 205.523C408.654 205.023 408.753 204.617 408.95 204.307C409.147 203.992 409.41 203.746 409.739 203.568C410.069 203.39 410.433 203.258 410.83 203.17C411.232 203.08 411.635 203.008 412.04 202.955C412.571 202.886 413.001 202.835 413.33 202.801C413.664 202.763 413.906 202.701 414.058 202.614C414.213 202.527 414.29 202.375 414.29 202.159V202.114C414.29 201.553 414.137 201.117 413.83 200.807C413.527 200.496 413.067 200.341 412.45 200.341C411.809 200.341 411.308 200.481 410.944 200.761C410.58 201.042 410.325 201.341 410.177 201.659L408.904 201.205C409.131 200.674 409.434 200.261 409.813 199.966C410.196 199.667 410.612 199.458 411.063 199.341C411.518 199.22 411.965 199.159 412.404 199.159C412.684 199.159 413.006 199.193 413.37 199.261C413.737 199.326 414.092 199.46 414.433 199.665C414.777 199.869 415.063 200.178 415.29 200.591C415.518 201.004 415.631 201.557 415.631 202.25V208H414.29V206.818H414.222C414.131 207.008 413.98 207.21 413.768 207.426C413.556 207.642 413.273 207.826 412.921 207.977C412.569 208.129 412.139 208.205 411.631 208.205ZM411.836 207C412.366 207 412.813 206.896 413.177 206.688C413.544 206.479 413.821 206.21 414.006 205.881C414.196 205.551 414.29 205.205 414.29 204.841V203.614C414.234 203.682 414.109 203.744 413.915 203.801C413.726 203.854 413.506 203.902 413.256 203.943C413.01 203.981 412.77 204.015 412.535 204.045C412.304 204.072 412.116 204.095 411.972 204.114C411.624 204.159 411.298 204.233 410.995 204.335C410.696 204.434 410.453 204.583 410.268 204.784C410.086 204.981 409.995 205.25 409.995 205.591C409.995 206.057 410.167 206.409 410.512 206.648C410.861 206.883 411.302 207 411.836 207ZM424.261 201.227L423.056 201.568C422.98 201.367 422.869 201.172 422.721 200.983C422.577 200.79 422.38 200.631 422.13 200.506C421.88 200.381 421.56 200.318 421.17 200.318C420.636 200.318 420.191 200.441 419.835 200.688C419.482 200.93 419.306 201.239 419.306 201.614C419.306 201.947 419.427 202.21 419.67 202.403C419.912 202.597 420.291 202.758 420.806 202.886L422.102 203.205C422.882 203.394 423.463 203.684 423.846 204.074C424.228 204.46 424.42 204.958 424.42 205.568C424.42 206.068 424.276 206.515 423.988 206.909C423.704 207.303 423.306 207.614 422.795 207.841C422.283 208.068 421.689 208.182 421.011 208.182C420.121 208.182 419.384 207.989 418.8 207.602C418.217 207.216 417.848 206.652 417.692 205.909L418.965 205.591C419.086 206.061 419.316 206.413 419.653 206.648C419.994 206.883 420.439 207 420.988 207C421.613 207 422.109 206.867 422.477 206.602C422.848 206.333 423.033 206.011 423.033 205.636C423.033 205.333 422.927 205.08 422.715 204.875C422.503 204.667 422.177 204.511 421.738 204.409L420.283 204.068C419.484 203.879 418.897 203.585 418.522 203.188C418.151 202.786 417.965 202.284 417.965 201.682C417.965 201.189 418.103 200.754 418.38 200.375C418.66 199.996 419.041 199.699 419.522 199.483C420.007 199.267 420.556 199.159 421.17 199.159C422.033 199.159 422.711 199.348 423.204 199.727C423.7 200.106 424.052 200.606 424.261 201.227ZM430.097 208.182C429.256 208.182 428.531 207.996 427.921 207.625C427.315 207.25 426.847 206.727 426.518 206.057C426.192 205.383 426.029 204.598 426.029 203.705C426.029 202.811 426.192 202.023 426.518 201.341C426.847 200.655 427.306 200.121 427.893 199.739C428.484 199.352 429.173 199.159 429.961 199.159C430.415 199.159 430.864 199.235 431.308 199.386C431.751 199.538 432.154 199.784 432.518 200.125C432.881 200.462 433.171 200.909 433.387 201.466C433.603 202.023 433.711 202.708 433.711 203.523V204.091H426.984V202.932H432.347C432.347 202.439 432.249 202 432.052 201.614C431.859 201.227 431.582 200.922 431.222 200.699C430.866 200.475 430.446 200.364 429.961 200.364C429.427 200.364 428.965 200.496 428.575 200.761C428.188 201.023 427.891 201.364 427.683 201.784C427.474 202.205 427.37 202.655 427.37 203.136V203.909C427.37 204.568 427.484 205.127 427.711 205.585C427.942 206.04 428.262 206.386 428.671 206.625C429.08 206.86 429.556 206.977 430.097 206.977C430.45 206.977 430.768 206.928 431.052 206.83C431.34 206.727 431.588 206.576 431.796 206.375C432.004 206.17 432.165 205.917 432.279 205.614L433.575 205.977C433.438 206.417 433.209 206.803 432.887 207.136C432.565 207.466 432.167 207.723 431.694 207.909C431.22 208.091 430.688 208.182 430.097 208.182ZM441.933 201.227L440.728 201.568C440.652 201.367 440.54 201.172 440.393 200.983C440.249 200.79 440.052 200.631 439.802 200.506C439.552 200.381 439.232 200.318 438.842 200.318C438.308 200.318 437.862 200.441 437.506 200.688C437.154 200.93 436.978 201.239 436.978 201.614C436.978 201.947 437.099 202.21 437.342 202.403C437.584 202.597 437.963 202.758 438.478 202.886L439.773 203.205C440.554 203.394 441.135 203.684 441.518 204.074C441.9 204.46 442.092 204.958 442.092 205.568C442.092 206.068 441.948 206.515 441.66 206.909C441.376 207.303 440.978 207.614 440.467 207.841C439.955 208.068 439.361 208.182 438.683 208.182C437.792 208.182 437.056 207.989 436.472 207.602C435.889 207.216 435.52 206.652 435.364 205.909L436.637 205.591C436.758 206.061 436.987 206.413 437.325 206.648C437.665 206.883 438.111 207 438.66 207C439.285 207 439.781 206.867 440.148 206.602C440.52 206.333 440.705 206.011 440.705 205.636C440.705 205.333 440.599 205.08 440.387 204.875C440.175 204.667 439.849 204.511 439.41 204.409L437.955 204.068C437.156 203.879 436.569 203.585 436.194 203.188C435.823 202.786 435.637 202.284 435.637 201.682C435.637 201.189 435.775 200.754 436.052 200.375C436.332 199.996 436.713 199.699 437.194 199.483C437.679 199.267 438.228 199.159 438.842 199.159C439.705 199.159 440.383 199.348 440.876 199.727C441.372 200.106 441.724 200.606 441.933 201.227Z" fill="#393939"/>
<path d="M4.46543 72.1949L5.85285 71.6248L4.46543 72.1949ZM37.8797 92.8279C38.4865 92.2639 38.5213 91.3148 37.9574 90.708L28.7676 80.8187C28.2037 80.2119 27.2546 80.1771 26.6477 80.741C26.0408 81.3049 26.006 82.254 26.57 82.8609L34.7387 91.6513L25.9482 99.8201C25.3414 100.384 25.3066 101.333 25.8705 101.94C26.4344 102.547 27.3836 102.582 27.9904 102.018L37.8797 92.8279ZM11.7749 38.877C10.7241 37.8066 10.7235 37.8071 10.723 37.8076C10.7227 37.8079 10.7221 37.8085 10.7215 37.8091C10.7204 37.8101 10.7191 37.8114 10.7176 37.8129C10.7145 37.8159 10.7106 37.8199 10.7057 37.8247C10.6961 37.8343 10.6828 37.8476 10.6662 37.8644C10.633 37.8979 10.5862 37.9457 10.527 38.0073C10.4086 38.1306 10.2404 38.3094 10.0319 38.5412C9.61486 39.0046 9.03514 39.6808 8.3674 40.5489C7.03392 42.2824 5.33828 44.7955 3.88895 47.9194C0.986871 54.1746 -0.954075 62.9533 3.07802 72.7651L5.85285 71.6248C2.23019 62.8093 3.94398 54.929 6.61032 49.182C7.94521 46.3048 9.5122 43.981 10.7453 42.378C11.3609 41.5777 11.8904 40.9607 12.2619 40.548C12.4475 40.3417 12.5934 40.1867 12.6904 40.0856C12.739 40.0351 12.7753 39.9981 12.7982 39.975C12.8097 39.9634 12.8178 39.9553 12.8224 39.9506C12.8247 39.9483 12.8262 39.9469 12.8268 39.9464C12.827 39.9461 12.8271 39.946 12.8269 39.9462C12.8268 39.9463 12.8265 39.9466 12.8265 39.9466C12.8261 39.9469 12.8257 39.9473 11.7749 38.877ZM3.07802 72.7651C7.13388 82.6347 15.6889 87.7339 23.0272 90.3595C26.7099 91.6771 30.1384 92.3923 32.645 92.7788C33.9001 92.9723 34.9287 93.0842 35.6484 93.1479C36.0084 93.1797 36.2915 93.1996 36.4874 93.2115C36.5853 93.2175 36.6615 93.2215 36.7146 93.2241C36.7412 93.2254 36.762 93.2263 36.7769 93.227C36.7843 93.2273 36.7903 93.2275 36.7948 93.2277C36.797 93.2278 36.7988 93.2279 36.8003 93.2279C36.8011 93.228 36.8019 93.228 36.8023 93.228C36.803 93.228 36.8036 93.2281 36.8586 91.7291C36.9135 90.2301 36.914 90.2301 36.9143 90.2301C36.9143 90.2301 36.9146 90.2301 36.9146 90.2301C36.9146 90.2301 36.9142 90.2301 36.9134 90.2301C36.9119 90.23 36.9088 90.2299 36.9044 90.2297C36.8954 90.2293 36.8806 90.2287 36.8601 90.2277C36.8192 90.2257 36.7555 90.2223 36.6704 90.2171C36.5002 90.2067 36.2443 90.1889 35.9129 90.1596C35.2498 90.1009 34.286 89.9964 33.1022 89.8138C30.7312 89.4482 27.4967 88.7724 24.0379 87.5349C17.0933 85.0502 9.45173 80.3823 5.85285 71.6248L3.07802 72.7651Z" fill="#FF4747"/>
<path d="M38.5963 145.318L39.9837 144.748L38.5963 145.318ZM72.0105 165.951C72.6174 165.387 72.6522 164.438 72.0883 163.831L62.8985 153.942C62.3345 153.335 61.3854 153.3 60.7786 153.864C60.1717 154.428 60.1369 155.377 60.7008 155.984L68.8695 164.774L60.0791 172.943C59.4722 173.507 59.4374 174.456 60.0014 175.063C60.5653 175.67 61.5144 175.705 62.1213 175.141L72.0105 165.951ZM45.9058 112C44.8549 110.93 44.8544 110.93 44.8538 110.931C44.8536 110.931 44.8529 110.932 44.8524 110.932C44.8513 110.933 44.85 110.934 44.8485 110.936C44.8454 110.939 44.8414 110.943 44.8366 110.948C44.8269 110.957 44.8137 110.971 44.7971 110.987C44.7638 111.021 44.7171 111.069 44.6578 111.13C44.5394 111.254 44.3713 111.432 44.1627 111.664C43.7457 112.128 43.166 112.804 42.4983 113.672C41.1648 115.405 39.4691 117.919 38.0198 121.042C35.1177 127.298 33.1768 136.076 37.2089 145.888L39.9837 144.748C36.3611 135.932 38.0748 128.052 40.7412 122.305C42.0761 119.428 43.6431 117.104 44.8762 115.501C45.4917 114.701 46.0213 114.084 46.3927 113.671C46.5784 113.465 46.7242 113.31 46.8213 113.209C46.8698 113.158 46.9061 113.121 46.9291 113.098C46.9405 113.086 46.9487 113.078 46.9533 113.074C46.9556 113.071 46.9571 113.07 46.9576 113.069C46.9579 113.069 46.9579 113.069 46.9578 113.069C46.9577 113.069 46.9574 113.07 46.9574 113.07C46.957 113.07 46.9566 113.07 45.9058 112ZM37.2089 145.888C41.2647 155.758 49.8198 160.857 57.1581 163.483C60.8407 164.8 64.2693 165.515 66.7759 165.902C68.0309 166.095 69.0596 166.207 69.7793 166.271C70.1393 166.303 70.4224 166.323 70.6182 166.335C70.7162 166.341 70.7924 166.345 70.8455 166.347C70.8721 166.348 70.8929 166.349 70.9077 166.35C70.9152 166.35 70.9212 166.351 70.9256 166.351C70.9278 166.351 70.9297 166.351 70.9312 166.351C70.9319 166.351 70.9328 166.351 70.9331 166.351C70.9339 166.351 70.9345 166.351 70.9894 164.852C71.0444 163.353 71.0448 163.353 71.0452 163.353C71.0452 163.353 71.0455 163.353 71.0454 163.353C71.0454 163.353 71.045 163.353 71.0443 163.353C71.0427 163.353 71.0397 163.353 71.0352 163.353C71.0263 163.352 71.0115 163.352 70.991 163.351C70.9501 163.349 70.8864 163.345 70.8013 163.34C70.631 163.33 70.3751 163.312 70.0437 163.283C69.3807 163.224 68.4168 163.119 67.2331 162.937C64.862 162.571 61.6275 161.895 58.1687 160.658C51.2241 158.173 43.5826 153.505 39.9837 144.748L37.2089 145.888Z" fill="#FF4747"/>
</svg>
