<svg width="422" height="202" viewBox="0 0 422 202" fill="none" xmlns="http://www.w3.org/2000/svg">
  <circle cx="317.5" cy="192.5" r="9.5" fill="#494949" />
  <path
    d="M118.598 15V0.454545H127.618V2.34375H120.793V6.77557H126.972V8.65767H120.793V15H118.598ZM134.047 15.2202C132.972 15.2202 132.047 14.9905 131.27 14.5312C130.498 14.0672 129.902 13.4162 129.48 12.5781C129.064 11.7353 128.855 10.7481 128.855 9.61648C128.855 8.49905 129.064 7.5142 129.48 6.66193C129.902 5.80966 130.489 5.14441 131.242 4.66619C131.999 4.18797 132.885 3.94886 133.898 3.94886C134.514 3.94886 135.11 4.05066 135.688 4.25426C136.266 4.45786 136.784 4.77746 137.243 5.21307C137.703 5.64867 138.065 6.21449 138.33 6.91051C138.595 7.6018 138.728 8.44223 138.728 9.43182V10.1847H130.056V8.59375H136.647C136.647 8.03504 136.533 7.54025 136.306 7.10938C136.078 6.67377 135.759 6.33049 135.347 6.07955C134.94 5.8286 134.462 5.70312 133.912 5.70312C133.316 5.70312 132.795 5.84991 132.35 6.14347C131.909 6.43229 131.569 6.81108 131.327 7.27983C131.09 7.74384 130.972 8.24811 130.972 8.79261V10.0355C130.972 10.7647 131.1 11.3849 131.355 11.8963C131.616 12.4077 131.978 12.7983 132.442 13.0682C132.906 13.3333 133.448 13.4659 134.069 13.4659C134.471 13.4659 134.838 13.4091 135.169 13.2955C135.501 13.1771 135.787 13.0019 136.029 12.7699C136.27 12.5379 136.455 12.2514 136.583 11.9105L138.593 12.2727C138.432 12.8646 138.143 13.383 137.726 13.8281C137.314 14.2685 136.796 14.6117 136.171 14.858C135.551 15.0994 134.843 15.2202 134.047 15.2202ZM141.254 15V0.454545H143.378V5.85938H143.506C143.629 5.6321 143.806 5.36932 144.038 5.07102C144.27 4.77273 144.592 4.51231 145.004 4.28977C145.416 4.0625 145.961 3.94886 146.638 3.94886C147.518 3.94886 148.304 4.1714 148.996 4.61648C149.687 5.06155 150.229 5.70312 150.622 6.54119C151.02 7.37926 151.219 8.38778 151.219 9.56676C151.219 10.7457 151.022 11.7566 150.629 12.5994C150.236 13.4375 149.696 14.0838 149.01 14.5384C148.323 14.9882 147.54 15.2131 146.659 15.2131C145.996 15.2131 145.454 15.1018 145.033 14.8793C144.616 14.6567 144.289 14.3963 144.053 14.098C143.816 13.7997 143.634 13.5346 143.506 13.3026H143.328V15H141.254ZM143.335 9.54545C143.335 10.3125 143.446 10.9848 143.669 11.5625C143.892 12.1402 144.214 12.5923 144.635 12.919C145.056 13.241 145.572 13.402 146.183 13.402C146.818 13.402 147.348 13.2339 147.774 12.8977C148.2 12.5568 148.522 12.0952 148.74 11.5128C148.963 10.9304 149.074 10.2746 149.074 9.54545C149.074 8.82576 148.965 8.17945 148.747 7.60653C148.534 7.03362 148.212 6.58144 147.781 6.25C147.355 5.91856 146.822 5.75284 146.183 5.75284C145.568 5.75284 145.047 5.91146 144.621 6.22869C144.199 6.54593 143.88 6.98864 143.662 7.55682C143.444 8.125 143.335 8.78788 143.335 9.54545ZM153.603 15V4.09091H155.656V5.82386H155.77C155.968 5.23674 156.319 4.77509 156.821 4.43892C157.327 4.09801 157.9 3.92756 158.539 3.92756C158.672 3.92756 158.828 3.93229 159.008 3.94176C159.193 3.95123 159.337 3.96307 159.441 3.97727V6.00852C159.356 5.98485 159.205 5.95881 158.987 5.9304C158.769 5.89725 158.551 5.88068 158.333 5.88068C157.832 5.88068 157.384 5.98722 156.991 6.20028C156.603 6.40862 156.295 6.69981 156.068 7.07386C155.841 7.44318 155.727 7.86458 155.727 8.33807V15H153.603ZM168.19 10.4759V4.09091H170.32V15H168.232V13.1108H168.119C167.868 13.6932 167.465 14.1785 166.911 14.5668C166.362 14.9503 165.678 15.142 164.859 15.142C164.158 15.142 163.538 14.9882 162.998 14.6804C162.463 14.3679 162.041 13.9062 161.734 13.2955C161.431 12.6847 161.279 11.9295 161.279 11.0298V4.09091H163.403V10.7741C163.403 11.5175 163.609 12.1094 164.021 12.5497C164.433 12.9901 164.968 13.2102 165.626 13.2102C166.023 13.2102 166.419 13.1108 166.812 12.9119C167.21 12.7131 167.539 12.4124 167.799 12.0099C168.064 11.6075 168.194 11.0961 168.19 10.4759ZM176.348 15.2415C175.657 15.2415 175.032 15.1136 174.473 14.858C173.915 14.5975 173.472 14.2211 173.145 13.7287C172.823 13.2363 172.662 12.6326 172.662 11.9176C172.662 11.3021 172.781 10.7955 173.017 10.3977C173.254 10 173.574 9.68513 173.976 9.45312C174.379 9.22112 174.828 9.04593 175.326 8.92756C175.823 8.80919 176.329 8.71922 176.846 8.65767C177.499 8.58191 178.029 8.52036 178.436 8.47301C178.844 8.42093 179.14 8.33807 179.324 8.22443C179.509 8.1108 179.601 7.92614 179.601 7.67045V7.62074C179.601 7.00047 179.426 6.51989 179.076 6.17898C178.73 5.83807 178.214 5.66761 177.527 5.66761C176.812 5.66761 176.249 5.82623 175.837 6.14347C175.43 6.45597 175.148 6.80398 174.992 7.1875L172.996 6.73295C173.233 6.07008 173.578 5.53504 174.033 5.12784C174.492 4.71591 175.02 4.41761 175.617 4.23295C176.213 4.04356 176.841 3.94886 177.499 3.94886C177.935 3.94886 178.396 4.00095 178.884 4.10511C179.376 4.20455 179.836 4.3892 180.262 4.65909C180.693 4.92898 181.045 5.31487 181.32 5.81676C181.595 6.31392 181.732 6.96023 181.732 7.75568V15H179.658V13.5085H179.573C179.435 13.7831 179.23 14.053 178.955 14.3182C178.68 14.5833 178.328 14.8035 177.897 14.9787C177.466 15.1539 176.95 15.2415 176.348 15.2415ZM176.81 13.5369C177.397 13.5369 177.899 13.4209 178.316 13.1889C178.737 12.9569 179.057 12.6539 179.275 12.2798C179.497 11.901 179.608 11.4962 179.608 11.0653V9.65909C179.533 9.73485 179.386 9.80587 179.168 9.87216C178.955 9.93371 178.711 9.98816 178.436 10.0355C178.162 10.0781 177.894 10.1184 177.634 10.1562C177.373 10.1894 177.156 10.2178 176.98 10.2415C176.569 10.2936 176.192 10.3812 175.851 10.5043C175.515 10.6274 175.245 10.8049 175.042 11.0369C174.843 11.2642 174.743 11.5672 174.743 11.946C174.743 12.4716 174.937 12.8693 175.326 13.1392C175.714 13.4044 176.209 13.5369 176.81 13.5369ZM184.56 15V4.09091H186.613V5.82386H186.727C186.925 5.23674 187.276 4.77509 187.778 4.43892C188.284 4.09801 188.857 3.92756 189.496 3.92756C189.629 3.92756 189.785 3.93229 189.965 3.94176C190.15 3.95123 190.294 3.96307 190.398 3.97727V6.00852C190.313 5.98485 190.162 5.95881 189.944 5.9304C189.726 5.89725 189.508 5.88068 189.29 5.88068C188.789 5.88068 188.341 5.98722 187.948 6.20028C187.56 6.40862 187.252 6.69981 187.025 7.07386C186.798 7.44318 186.684 7.86458 186.684 8.33807V15H184.56ZM193.911 19.0909C193.593 19.0909 193.304 19.0649 193.044 19.0128C192.784 18.9654 192.589 18.9134 192.462 18.8565L192.973 17.1165C193.361 17.2206 193.707 17.2656 194.01 17.2514C194.313 17.2372 194.58 17.1236 194.812 16.9105C195.049 16.6974 195.258 16.3494 195.438 15.8665L195.7 15.142L191.709 4.09091H193.982L196.744 12.5568H196.858L199.621 4.09091H201.901L197.405 16.456C197.196 17.0241 196.931 17.5047 196.609 17.8977C196.287 18.2955 195.904 18.5938 195.459 18.7926C195.014 18.9915 194.498 19.0909 193.911 19.0909Z"
    fill="#5E5E5E" />
  <path
    d="M20.2514 0.454545H22.4389V10.767C22.4389 11.6998 22.2543 12.4976 21.8849 13.1605C21.5204 13.8234 21.0066 14.33 20.3438 14.6804C19.6809 15.026 18.9044 15.1989 18.0142 15.1989C17.1951 15.1989 16.4588 15.0497 15.8054 14.7514C15.1567 14.4531 14.643 14.0199 14.2642 13.4517C13.8902 12.8788 13.7031 12.1828 13.7031 11.3636H15.8835C15.8835 11.7661 15.9759 12.1141 16.1605 12.4077C16.3499 12.7012 16.608 12.9309 16.9347 13.0966C17.2661 13.2576 17.6449 13.3381 18.071 13.3381C18.535 13.3381 18.928 13.241 19.25 13.0469C19.5767 12.848 19.8253 12.5568 19.9957 12.1733C20.1662 11.7898 20.2514 11.321 20.2514 10.767V0.454545ZM28.6374 15.2415C27.9461 15.2415 27.3211 15.1136 26.7624 14.858C26.2037 14.5975 25.761 14.2211 25.4343 13.7287C25.1123 13.2363 24.9513 12.6326 24.9513 11.9176C24.9513 11.3021 25.0697 10.7955 25.3065 10.3977C25.5432 10 25.8628 9.68513 26.2653 9.45312C26.6677 9.22112 27.1175 9.04593 27.6147 8.92756C28.1119 8.80919 28.6185 8.71922 29.1346 8.65767C29.788 8.58191 30.3183 8.52036 30.7255 8.47301C31.1327 8.42093 31.4286 8.33807 31.6133 8.22443C31.7979 8.1108 31.8903 7.92614 31.8903 7.67045V7.62074C31.8903 7.00047 31.7151 6.51989 31.3647 6.17898C31.0191 5.83807 30.503 5.66761 29.8164 5.66761C29.1014 5.66761 28.538 5.82623 28.1261 6.14347C27.7189 6.45597 27.4371 6.80398 27.2809 7.1875L25.2852 6.73295C25.5219 6.07008 25.8675 5.53504 26.3221 5.12784C26.7814 4.71591 27.3093 4.41761 27.9059 4.23295C28.5025 4.04356 29.1299 3.94886 29.788 3.94886C30.2236 3.94886 30.6853 4.00095 31.1729 4.10511C31.6654 4.20455 32.1246 4.3892 32.5508 4.65909C32.9817 4.92898 33.3344 5.31487 33.609 5.81676C33.8836 6.31392 34.021 6.96023 34.021 7.75568V15H31.9471V13.5085H31.8619C31.7246 13.7831 31.5186 14.053 31.244 14.3182C30.9693 14.5833 30.6166 14.8035 30.1857 14.9787C29.7549 15.1539 29.2388 15.2415 28.6374 15.2415ZM29.0991 13.5369C29.6862 13.5369 30.1881 13.4209 30.6048 13.1889C31.0262 12.9569 31.3458 12.6539 31.5636 12.2798C31.7861 11.901 31.8974 11.4962 31.8974 11.0653V9.65909C31.8216 9.73485 31.6748 9.80587 31.457 9.87216C31.244 9.93371 31.0001 9.98816 30.7255 10.0355C30.4509 10.0781 30.1834 10.1184 29.9229 10.1562C29.6625 10.1894 29.4447 10.2178 29.2695 10.2415C28.8576 10.2936 28.4812 10.3812 28.1403 10.5043C27.8041 10.6274 27.5342 10.8049 27.3306 11.0369C27.1317 11.2642 27.0323 11.5672 27.0323 11.946C27.0323 12.4716 27.2264 12.8693 27.6147 13.1392C28.003 13.4044 28.4978 13.5369 29.0991 13.5369ZM38.973 8.52273V15H36.8494V4.09091H38.8878V5.86648H39.0227C39.2737 5.28883 39.6667 4.82481 40.2017 4.47443C40.7415 4.12405 41.4209 3.94886 42.2401 3.94886C42.9834 3.94886 43.6345 4.10511 44.1932 4.41761C44.7519 4.72538 45.1851 5.18466 45.4929 5.79545C45.8007 6.40625 45.9545 7.16146 45.9545 8.06108V15H43.831V8.31676C43.831 7.52604 43.625 6.90814 43.2131 6.46307C42.8011 6.01326 42.2353 5.78835 41.5156 5.78835C41.0232 5.78835 40.5852 5.89489 40.2017 6.10795C39.8229 6.32102 39.5223 6.63352 39.2997 7.04545C39.0819 7.45265 38.973 7.94508 38.973 8.52273ZM55.7131 10.4759V4.09091H57.8438V15H55.7557V13.1108H55.642C55.3911 13.6932 54.9886 14.1785 54.4347 14.5668C53.8854 14.9503 53.2012 15.142 52.3821 15.142C51.6813 15.142 51.0611 14.9882 50.5213 14.6804C49.9863 14.3679 49.5649 13.9062 49.2571 13.2955C48.9541 12.6847 48.8026 11.9295 48.8026 11.0298V4.09091H50.9261V10.7741C50.9261 11.5175 51.1321 12.1094 51.544 12.5497C51.956 12.9901 52.491 13.2102 53.1491 13.2102C53.5469 13.2102 53.9422 13.1108 54.3352 12.9119C54.733 12.7131 55.062 12.4124 55.3224 12.0099C55.5876 11.6075 55.7178 11.0961 55.7131 10.4759ZM63.8718 15.2415C63.1805 15.2415 62.5555 15.1136 61.9968 14.858C61.4381 14.5975 60.9954 14.2211 60.6687 13.7287C60.3467 13.2363 60.1857 12.6326 60.1857 11.9176C60.1857 11.3021 60.3041 10.7955 60.5408 10.3977C60.7776 10 61.0972 9.68513 61.4996 9.45312C61.9021 9.22112 62.3519 9.04593 62.8491 8.92756C63.3462 8.80919 63.8529 8.71922 64.369 8.65767C65.0224 8.58191 65.5527 8.52036 65.9599 8.47301C66.3671 8.42093 66.663 8.33807 66.8477 8.22443C67.0323 8.1108 67.1246 7.92614 67.1246 7.67045V7.62074C67.1246 7.00047 66.9495 6.51989 66.5991 6.17898C66.2534 5.83807 65.7373 5.66761 65.0508 5.66761C64.3358 5.66761 63.7724 5.82623 63.3604 6.14347C62.9532 6.45597 62.6715 6.80398 62.5153 7.1875L60.5195 6.73295C60.7563 6.07008 61.1019 5.53504 61.5565 5.12784C62.0157 4.71591 62.5437 4.41761 63.1403 4.23295C63.7369 4.04356 64.3642 3.94886 65.0224 3.94886C65.458 3.94886 65.9196 4.00095 66.4073 4.10511C66.8997 4.20455 67.359 4.3892 67.7852 4.65909C68.216 4.92898 68.5688 5.31487 68.8434 5.81676C69.118 6.31392 69.2553 6.96023 69.2553 7.75568V15H67.1815V13.5085H67.0962C66.9589 13.7831 66.753 14.053 66.4783 14.3182C66.2037 14.5833 65.851 14.8035 65.4201 14.9787C64.9892 15.1539 64.4731 15.2415 63.8718 15.2415ZM64.3335 13.5369C64.9206 13.5369 65.4225 13.4209 65.8391 13.1889C66.2605 12.9569 66.5801 12.6539 66.7979 12.2798C67.0205 11.901 67.1317 11.4962 67.1317 11.0653V9.65909C67.056 9.73485 66.9092 9.80587 66.6914 9.87216C66.4783 9.93371 66.2345 9.98816 65.9599 10.0355C65.6853 10.0781 65.4177 10.1184 65.1573 10.1562C64.8969 10.1894 64.6791 10.2178 64.5039 10.2415C64.092 10.2936 63.7156 10.3812 63.3746 10.5043C63.0385 10.6274 62.7686 10.8049 62.565 11.0369C62.3661 11.2642 62.2667 11.5672 62.2667 11.946C62.2667 12.4716 62.4608 12.8693 62.8491 13.1392C63.2373 13.4044 63.7321 13.5369 64.3335 13.5369ZM72.0838 15V4.09091H74.1364V5.82386H74.25C74.4489 5.23674 74.7992 4.77509 75.3011 4.43892C75.8078 4.09801 76.3807 3.92756 77.0199 3.92756C77.1525 3.92756 77.3087 3.93229 77.4886 3.94176C77.6733 3.95123 77.8177 3.96307 77.9219 3.97727V6.00852C77.8366 5.98485 77.6851 5.95881 77.4673 5.9304C77.2495 5.89725 77.0317 5.88068 76.8139 5.88068C76.312 5.88068 75.8646 5.98722 75.4716 6.20028C75.0833 6.40862 74.7756 6.69981 74.5483 7.07386C74.321 7.44318 74.2074 7.86458 74.2074 8.33807V15H72.0838ZM81.4339 19.0909C81.1167 19.0909 80.8279 19.0649 80.5675 19.0128C80.3071 18.9654 80.1129 18.9134 79.9851 18.8565L80.4964 17.1165C80.8847 17.2206 81.2304 17.2656 81.5334 17.2514C81.8364 17.2372 82.1039 17.1236 82.3359 16.9105C82.5727 16.6974 82.781 16.3494 82.9609 15.8665L83.2237 15.142L79.2322 4.09091H81.505L84.2678 12.5568H84.3814L87.1442 4.09091H89.424L84.9283 16.456C84.7199 17.0241 84.4548 17.5047 84.1328 17.8977C83.8108 18.2955 83.4273 18.5938 82.9822 18.7926C82.5372 18.9915 82.0211 19.0909 81.4339 19.0909Z"
    fill="#A7A7A7" />
  <path d="M133.665 188.273V197H132.868V189.108H132.817L130.771 190.467V189.641L132.834 188.273H133.665Z"
    fill="#5D5D5D" />
  <path
    d="M110.805 197.119C110.268 197.119 109.788 197.023 109.365 196.83C108.942 196.634 108.607 196.362 108.359 196.016C108.112 195.669 107.982 195.27 107.967 194.818H108.773C108.787 195.136 108.885 195.415 109.067 195.653C109.249 195.889 109.49 196.074 109.791 196.207C110.092 196.338 110.428 196.403 110.797 196.403C111.2 196.403 111.555 196.328 111.862 196.178C112.172 196.027 112.413 195.821 112.587 195.56C112.763 195.295 112.851 194.997 112.851 194.665C112.851 194.312 112.761 194.001 112.582 193.732C112.403 193.462 112.146 193.251 111.811 193.101C111.479 192.95 111.081 192.875 110.618 192.875H110.107V192.159H110.618C110.996 192.159 111.33 192.091 111.619 191.955C111.912 191.815 112.142 191.621 112.31 191.371C112.477 191.121 112.561 190.827 112.561 190.489C112.561 190.168 112.489 189.885 112.344 189.641C112.199 189.396 111.994 189.205 111.73 189.065C111.469 188.926 111.163 188.857 110.814 188.857C110.476 188.857 110.166 188.922 109.885 189.053C109.604 189.183 109.376 189.368 109.203 189.607C109.033 189.845 108.942 190.128 108.93 190.455H108.159C108.17 190 108.295 189.601 108.534 189.257C108.776 188.911 109.095 188.641 109.493 188.447C109.893 188.251 110.337 188.153 110.822 188.153C111.337 188.153 111.781 188.259 112.156 188.469C112.531 188.679 112.821 188.959 113.026 189.308C113.233 189.655 113.337 190.037 113.337 190.455C113.337 190.952 113.202 191.378 112.932 191.733C112.662 192.085 112.298 192.33 111.841 192.466V192.521C112.398 192.632 112.835 192.879 113.153 193.263C113.474 193.643 113.635 194.111 113.635 194.665C113.635 195.131 113.513 195.55 113.268 195.922C113.024 196.291 112.689 196.584 112.263 196.8C111.839 197.013 111.354 197.119 110.805 197.119ZM118.212 188.273V197H117.415V189.108H117.364L115.318 190.467V189.641L117.381 188.273H118.212Z"
    fill="#5D5D5D" />
  <path
    d="M85.8054 197.119C85.2685 197.119 84.7884 197.023 84.3651 196.83C83.9418 196.634 83.6065 196.362 83.3594 196.016C83.1122 195.669 82.9815 195.27 82.9673 194.818H83.7727C83.7869 195.136 83.8849 195.415 84.0668 195.653C84.2486 195.889 84.4901 196.074 84.7912 196.207C85.0923 196.338 85.4276 196.403 85.7969 196.403C86.2003 196.403 86.5554 196.328 86.8622 196.178C87.1719 196.027 87.4134 195.821 87.5866 195.56C87.7628 195.295 87.8509 194.997 87.8509 194.665C87.8509 194.312 87.7614 194.001 87.5824 193.732C87.4034 193.462 87.1463 193.251 86.8111 193.101C86.4787 192.95 86.081 192.875 85.6179 192.875H85.1065V192.159H85.6179C85.9957 192.159 86.3295 192.091 86.6193 191.955C86.9119 191.815 87.142 191.621 87.3097 191.371C87.4773 191.121 87.5611 190.827 87.5611 190.489C87.5611 190.168 87.4886 189.885 87.3438 189.641C87.1989 189.396 86.9943 189.205 86.7301 189.065C86.4688 188.926 86.1634 188.857 85.8139 188.857C85.4759 188.857 85.1662 188.922 84.8849 189.053C84.6037 189.183 84.3764 189.368 84.2031 189.607C84.0327 189.845 83.9418 190.128 83.9304 190.455H83.1591C83.1705 190 83.2955 189.601 83.5341 189.257C83.7756 188.911 84.0952 188.641 84.4929 188.447C84.8935 188.251 85.3366 188.153 85.8224 188.153C86.3366 188.153 86.7812 188.259 87.1562 188.469C87.5312 188.679 87.821 188.959 88.0256 189.308C88.233 189.655 88.3366 190.037 88.3366 190.455C88.3366 190.952 88.2017 191.378 87.9318 191.733C87.6619 192.085 87.2983 192.33 86.8409 192.466V192.521C87.3977 192.632 87.8352 192.879 88.1534 193.263C88.4744 193.643 88.6349 194.111 88.6349 194.665C88.6349 195.131 88.5128 195.55 88.2685 195.922C88.0241 196.291 87.6889 196.584 87.2628 196.8C86.8395 197.013 86.3537 197.119 85.8054 197.119ZM93.2287 197.119C92.6151 197.119 92.0909 196.943 91.6562 196.591C91.2244 196.236 90.892 195.723 90.6591 195.053C90.429 194.382 90.3139 193.577 90.3139 192.636C90.3139 191.699 90.429 190.896 90.6591 190.229C90.892 189.558 91.2259 189.045 91.6605 188.69C92.098 188.332 92.6207 188.153 93.2287 188.153C93.8366 188.153 94.358 188.332 94.7926 188.69C95.2301 189.045 95.5639 189.558 95.794 190.229C96.027 190.896 96.1435 191.699 96.1435 192.636C96.1435 193.577 96.027 194.382 95.794 195.053C95.5639 195.723 95.2315 196.236 94.7969 196.591C94.3651 196.943 93.8423 197.119 93.2287 197.119ZM93.2287 196.403C93.902 196.403 94.4276 196.075 94.8054 195.419C95.1832 194.76 95.3722 193.832 95.3722 192.636C95.3722 191.841 95.2855 191.162 95.1122 190.599C94.9418 190.034 94.696 189.602 94.375 189.304C94.0568 189.006 93.6747 188.857 93.2287 188.857C92.5611 188.857 92.0369 189.189 91.6562 189.854C91.2756 190.516 91.0852 191.443 91.0852 192.636C91.0852 193.432 91.1705 194.111 91.3409 194.673C91.5142 195.236 91.7599 195.665 92.0781 195.96C92.3991 196.256 92.7827 196.403 93.2287 196.403Z"
    fill="#5D5D5D" />
  <path
    d="M57.9716 197V196.416L60.8224 193.212C61.1946 192.791 61.4943 192.432 61.7216 192.134C61.9489 191.835 62.1136 191.56 62.2159 191.307C62.321 191.054 62.3736 190.791 62.3736 190.518C62.3736 190.186 62.2955 189.896 62.1392 189.649C61.9858 189.399 61.7741 189.205 61.5043 189.065C61.2344 188.926 60.9304 188.857 60.5923 188.857C60.2344 188.857 59.9205 188.933 59.6506 189.087C59.3835 189.24 59.1761 189.45 59.0284 189.717C58.8807 189.984 58.8068 190.291 58.8068 190.638H58.044C58.044 190.155 58.1548 189.727 58.3764 189.355C58.6009 188.98 58.9063 188.686 59.2926 188.473C59.6818 188.26 60.1222 188.153 60.6136 188.153C61.0994 188.153 61.5313 188.259 61.9091 188.469C62.2869 188.676 62.5838 188.959 62.7997 189.317C63.0156 189.675 63.1236 190.075 63.1236 190.518C63.1236 190.839 63.0668 191.151 62.9531 191.452C62.8423 191.753 62.6506 192.088 62.3778 192.457C62.1051 192.827 61.7273 193.278 61.2443 193.812L59.0795 196.229V196.284H63.3963V197H57.9716ZM67.9208 188.153C68.2844 188.156 68.6367 188.23 68.9776 188.375C69.3214 188.517 69.631 188.747 69.9066 189.065C70.1822 189.381 70.4009 189.801 70.5629 190.327C70.7248 190.849 70.8058 191.493 70.8058 192.257C70.8058 192.97 70.7433 193.624 70.6183 194.217C70.4933 194.811 70.3058 195.325 70.0558 195.76C69.8086 196.192 69.4961 196.527 69.1183 196.766C68.7433 197.001 68.3043 197.119 67.8015 197.119C67.3327 197.119 66.9165 197.021 66.5529 196.825C66.1921 196.629 65.8995 196.358 65.6751 196.011C65.4506 195.662 65.3114 195.259 65.2575 194.801H66.0415C66.1183 195.267 66.3058 195.651 66.604 195.952C66.9052 196.253 67.3043 196.403 67.8015 196.403C68.5146 196.403 69.0685 196.071 69.4634 195.406C69.8583 194.741 70.0558 193.795 70.0558 192.568H70.0004C69.864 192.824 69.685 193.047 69.4634 193.237C69.2447 193.428 68.9947 193.577 68.7134 193.685C68.4322 193.79 68.1353 193.842 67.8228 193.842C67.337 193.842 66.8924 193.72 66.489 193.476C66.0856 193.229 65.7631 192.892 65.5217 192.466C65.2802 192.037 65.1594 191.548 65.1594 191C65.1594 190.483 65.2731 190.009 65.5004 189.577C65.7305 189.142 66.0515 188.795 66.4634 188.537C66.8782 188.276 67.364 188.148 67.9208 188.153ZM67.9208 188.869C67.543 188.869 67.2035 188.966 66.9023 189.159C66.604 189.349 66.3668 189.607 66.1907 189.93C66.0174 190.251 65.9308 190.608 65.9308 191C65.9308 191.395 66.0174 191.754 66.1907 192.078C66.3668 192.399 66.604 192.655 66.9023 192.845C67.2035 193.033 67.543 193.126 67.9208 193.126C68.2106 193.126 68.4805 193.068 68.7305 192.952C68.9805 192.832 69.1964 192.67 69.3782 192.466C69.5629 192.261 69.7021 192.03 69.7958 191.771C69.8924 191.51 69.9308 191.236 69.9109 190.949C69.8768 190.551 69.7702 190.196 69.5913 189.884C69.4151 189.568 69.1822 189.321 68.8924 189.142C68.6055 188.96 68.2816 188.869 67.9208 188.869Z"
    fill="#5D5D5D" />
  <path
    d="M4.05398 147.727V155H3.38991V148.423H3.3473L1.64276 149.556V148.867L3.36151 147.727H4.05398ZM6.91974 151.591V155H6.28764V147.727H6.91974V150.401H6.97656C7.1044 150.12 7.30208 149.895 7.5696 149.727C7.83949 149.558 8.1804 149.474 8.59233 149.474C8.96165 149.474 9.28598 149.55 9.56534 149.702C9.8447 149.853 10.0625 150.077 10.2188 150.373C10.375 150.669 10.4531 151.033 10.4531 151.467V155H9.81747V151.506C9.81747 151.056 9.692 150.702 9.44105 150.444C9.19247 150.183 8.8563 150.053 8.43253 150.053C8.14134 150.053 7.8821 150.115 7.65483 150.238C7.42756 150.361 7.24763 150.539 7.11506 150.771C6.98485 151 6.91974 151.274 6.91974 151.591Z"
    fill="#5D5D5D" />
  <path
    d="M2.80966 115V114.513L5.18537 111.843C5.4955 111.493 5.74527 111.193 5.93466 110.945C6.12405 110.696 6.26136 110.466 6.34659 110.256C6.43419 110.045 6.47798 109.826 6.47798 109.599C6.47798 109.322 6.41288 109.08 6.28267 108.874C6.15483 108.666 5.97846 108.504 5.75355 108.388C5.52865 108.272 5.27533 108.214 4.99361 108.214C4.69531 108.214 4.43371 108.278 4.20881 108.406C3.98627 108.533 3.81345 108.709 3.69034 108.931C3.56723 109.154 3.50568 109.409 3.50568 109.698H2.87003C2.87003 109.296 2.96236 108.939 3.14702 108.629C3.33404 108.317 3.58854 108.072 3.91051 107.894C4.23485 107.717 4.6018 107.628 5.01136 107.628C5.41619 107.628 5.77604 107.715 6.09091 107.891C6.40578 108.063 6.65317 108.299 6.8331 108.597C7.01302 108.896 7.10298 109.229 7.10298 109.599C7.10298 109.866 7.05563 110.125 6.96094 110.376C6.86861 110.627 6.70881 110.907 6.48153 111.214C6.25426 111.522 5.93939 111.899 5.53693 112.344L3.73295 114.357V114.403H7.33026V115H2.80966ZM9.57013 111.591V115H8.93803V107.727H9.57013V110.401H9.62695C9.75479 110.12 9.95247 109.895 10.22 109.727C10.4899 109.558 10.8308 109.474 11.2427 109.474C11.612 109.474 11.9364 109.55 12.2157 109.702C12.4951 109.853 12.7129 110.077 12.8691 110.373C13.0254 110.669 13.1035 111.033 13.1035 111.467V115H12.4679V111.506C12.4679 111.056 12.3424 110.702 12.0914 110.444C11.8429 110.183 11.5067 110.053 11.0829 110.053C10.7917 110.053 10.5325 110.115 10.3052 110.238C10.0779 110.361 9.89802 110.539 9.76545 110.771C9.63524 111 9.57013 111.274 9.57013 111.591Z"
    fill="#5D5D5D" />
  <path
    d="M5.17116 75.0994C4.72372 75.0994 4.32363 75.0189 3.97088 74.858C3.61813 74.6946 3.33878 74.4685 3.13281 74.1797C2.92685 73.8909 2.81795 73.5582 2.80611 73.1818H3.47727C3.48911 73.447 3.57079 73.679 3.7223 73.8778C3.87382 74.0743 4.07505 74.2282 4.32599 74.3395C4.57694 74.4484 4.8563 74.5028 5.16406 74.5028C5.50024 74.5028 5.79616 74.4401 6.05185 74.3146C6.3099 74.1892 6.51113 74.0175 6.65554 73.7997C6.80232 73.5795 6.87571 73.331 6.87571 73.054C6.87571 72.7604 6.80114 72.5012 6.65199 72.2763C6.50284 72.0514 6.28859 71.8762 6.00923 71.7507C5.73224 71.6252 5.4008 71.5625 5.01491 71.5625H4.58878V70.9659H5.01491C5.32978 70.9659 5.60795 70.9091 5.84943 70.7955C6.09328 70.6795 6.28504 70.5173 6.42472 70.3089C6.56439 70.1006 6.63423 69.8556 6.63423 69.5739C6.63423 69.3063 6.57386 69.0708 6.45312 68.8672C6.33239 68.6636 6.16193 68.5038 5.94176 68.3878C5.72396 68.2718 5.46946 68.2138 5.17827 68.2138C4.89654 68.2138 4.63849 68.2682 4.40412 68.3771C4.16974 68.486 3.98035 68.6399 3.83594 68.8388C3.69389 69.0376 3.61813 69.2732 3.60866 69.5455H2.96591C2.97538 69.1667 3.07955 68.834 3.27841 68.5476C3.47964 68.2588 3.74598 68.0339 4.07741 67.8729C4.41122 67.7095 4.78054 67.6278 5.18537 67.6278C5.61387 67.6278 5.98438 67.7154 6.29688 67.8906C6.60938 68.0658 6.85085 68.299 7.02131 68.5902C7.19413 68.879 7.28054 69.1974 7.28054 69.5455C7.28054 69.9598 7.16809 70.3149 6.94318 70.6108C6.71828 70.9044 6.41525 71.108 6.03409 71.2216V71.2678C6.49811 71.3601 6.86269 71.5661 7.12784 71.8857C7.39536 72.2029 7.52912 72.5923 7.52912 73.054C7.52912 73.4422 7.42732 73.7914 7.22372 74.1016C7.02012 74.4093 6.74077 74.6532 6.38565 74.8331C6.03291 75.0107 5.62808 75.0994 5.17116 75.0994ZM9.75568 71.5909V75H9.12358V67.7273H9.75568V70.4013H9.8125C9.94034 70.1196 10.138 69.8946 10.4055 69.7266C10.6754 69.5585 11.0163 69.4744 11.4283 69.4744C11.7976 69.4744 12.1219 69.5502 12.4013 69.7017C12.6806 69.8532 12.8984 70.0769 13.0547 70.3729C13.2109 70.6688 13.2891 71.0334 13.2891 71.4666V75H12.6534V71.5057C12.6534 71.0559 12.5279 70.7019 12.277 70.4439C12.0284 70.1835 11.6922 70.0533 11.2685 70.0533C10.9773 70.0533 10.718 70.1148 10.4908 70.2379C10.2635 70.361 10.0836 70.5386 9.95099 70.7706C9.82079 71.0002 9.75568 71.2737 9.75568 71.5909Z"
    fill="#5D5D5D" />
  <path
    d="M3.63565 35.4375V34.8977L6.87784 29.7273H7.27557V30.6328H6.98082L4.37784 34.7947V34.8409H8.62855V35.4375H3.63565ZM7.03054 37V35.267V35.0185V29.7273H7.66264V37H7.03054ZM10.7264 33.5909V37H10.0943V29.7273H10.7264V32.4013H10.7832C10.911 32.1196 11.1087 31.8946 11.3762 31.7266C11.6461 31.5585 11.987 31.4744 12.399 31.4744C12.7683 31.4744 13.0926 31.5502 13.372 31.7017C13.6513 31.8532 13.8691 32.0769 14.0254 32.3729C14.1816 32.6688 14.2598 33.0334 14.2598 33.4666V37H13.6241V33.5057C13.6241 33.0559 13.4986 32.7019 13.2477 32.4439C12.9991 32.1835 12.6629 32.0533 12.2392 32.0533C11.948 32.0533 11.6887 32.1148 11.4615 32.2379C11.2342 32.361 11.0543 32.5386 10.9217 32.7706C10.7915 33.0002 10.7264 33.2737 10.7264 33.5909Z"
    fill="#5D5D5D" />
  <path
    d="M32.9716 197V196.416L35.8224 193.212C36.1946 192.791 36.4943 192.432 36.7216 192.134C36.9489 191.835 37.1136 191.56 37.2159 191.307C37.321 191.054 37.3736 190.791 37.3736 190.518C37.3736 190.186 37.2955 189.896 37.1392 189.649C36.9858 189.399 36.7741 189.205 36.5043 189.065C36.2344 188.926 35.9304 188.857 35.5923 188.857C35.2344 188.857 34.9205 188.933 34.6506 189.087C34.3835 189.24 34.1761 189.45 34.0284 189.717C33.8807 189.984 33.8068 190.291 33.8068 190.638H33.044C33.044 190.155 33.1548 189.727 33.3764 189.355C33.6009 188.98 33.9063 188.686 34.2926 188.473C34.6818 188.26 35.1222 188.153 35.6136 188.153C36.0994 188.153 36.5313 188.259 36.9091 188.469C37.2869 188.676 37.5838 188.959 37.7997 189.317C38.0156 189.675 38.1236 190.075 38.1236 190.518C38.1236 190.839 38.0668 191.151 37.9531 191.452C37.8423 191.753 37.6506 192.088 37.3778 192.457C37.1051 192.827 36.7273 193.278 36.2443 193.812L34.0795 196.229V196.284H38.3963V197H32.9716ZM42.9933 197.119C42.4364 197.119 41.9407 197.014 41.506 196.804C41.0714 196.594 40.7305 196.307 40.4833 195.943C40.2362 195.577 40.1126 195.163 40.1126 194.703C40.1126 194.342 40.1879 194.006 40.3384 193.693C40.489 193.378 40.6964 193.114 40.9606 192.901C41.2248 192.685 41.5217 192.544 41.8512 192.479V192.432C41.4222 192.307 41.0771 192.061 40.8157 191.695C40.5543 191.325 40.4251 190.906 40.4279 190.438C40.4251 190.003 40.5359 189.614 40.7603 189.27C40.9847 188.926 41.2901 188.655 41.6765 188.456C42.0657 188.254 42.5046 188.153 42.9933 188.153C43.479 188.153 43.9151 188.254 44.3015 188.456C44.6879 188.655 44.9933 188.926 45.2177 189.27C45.445 189.614 45.56 190.003 45.5629 190.438C45.56 190.903 45.4279 191.322 45.1665 191.695C44.9052 192.064 44.5614 192.31 44.1353 192.432V192.479C44.4648 192.541 44.7603 192.68 45.0217 192.896C45.283 193.112 45.4904 193.378 45.6438 193.693C45.7972 194.006 45.8739 194.342 45.8739 194.703C45.8739 195.163 45.7489 195.577 45.4989 195.943C45.2518 196.307 44.9109 196.594 44.4762 196.804C44.0444 197.014 43.5501 197.119 42.9933 197.119ZM42.9933 196.403C43.408 196.403 43.7717 196.33 44.0842 196.182C44.3995 196.031 44.6452 195.825 44.8214 195.564C45.0004 195.303 45.0898 195.003 45.0898 194.665C45.0898 194.315 44.9975 194.004 44.8129 193.732C44.6282 193.456 44.3782 193.239 44.0629 193.08C43.7475 192.918 43.391 192.837 42.9933 192.837C42.5955 192.837 42.2376 192.918 41.9194 193.08C41.604 193.239 41.354 193.456 41.1694 193.732C40.9876 194.004 40.8967 194.315 40.8967 194.665C40.8967 195.003 40.9833 195.303 41.1566 195.564C41.3327 195.825 41.5785 196.031 41.8938 196.182C42.212 196.33 42.5785 196.403 42.9933 196.403ZM42.9933 192.155C43.3342 192.155 43.6396 192.082 43.9094 191.938C44.1793 191.793 44.3924 191.595 44.5487 191.345C44.7077 191.092 44.7887 190.805 44.7915 190.484C44.7887 190.166 44.7092 189.885 44.5529 189.641C44.3967 189.393 44.1836 189.202 43.9137 189.065C43.6467 188.926 43.3398 188.857 42.9933 188.857C42.6467 188.857 42.337 188.926 42.0643 189.065C41.7944 189.202 41.5813 189.393 41.4251 189.641C41.2717 189.885 41.1964 190.166 41.1992 190.484C41.1964 190.805 41.2731 191.092 41.4293 191.345C41.5884 191.595 41.8029 191.793 42.0728 191.938C42.3455 192.082 42.6523 192.155 42.9933 192.155Z"
    fill="#5D5D5D" />
  <path
    d="M7.97159 197V196.416L10.8224 193.212C11.1946 192.791 11.4943 192.432 11.7216 192.134C11.9489 191.835 12.1136 191.56 12.2159 191.307C12.321 191.054 12.3736 190.791 12.3736 190.518C12.3736 190.186 12.2955 189.896 12.1392 189.649C11.9858 189.399 11.7741 189.205 11.5043 189.065C11.2344 188.926 10.9304 188.857 10.5923 188.857C10.2344 188.857 9.92045 188.933 9.65057 189.087C9.38352 189.24 9.17614 189.45 9.02841 189.717C8.88068 189.984 8.80682 190.291 8.80682 190.638H8.04403C8.04403 190.155 8.15483 189.727 8.37642 189.355C8.60085 188.98 8.90625 188.686 9.29261 188.473C9.68182 188.26 10.1222 188.153 10.6136 188.153C11.0994 188.153 11.5313 188.259 11.9091 188.469C12.2869 188.676 12.5838 188.959 12.7997 189.317C13.0156 189.675 13.1236 190.075 13.1236 190.518C13.1236 190.839 13.0668 191.151 12.9531 191.452C12.8423 191.753 12.6506 192.088 12.3778 192.457C12.1051 192.827 11.7273 193.278 11.2443 193.812L9.07955 196.229V196.284H13.3963V197H7.97159ZM15.5472 197L19.5231 189.044V188.989H14.9421V188.273H20.3583V189.023L16.3867 197H15.5472Z"
    fill="#5D5D5D" />
  <path
    d="M146.972 197V196.416L149.822 193.212C150.195 192.791 150.494 192.432 150.722 192.134C150.949 191.835 151.114 191.56 151.216 191.307C151.321 191.054 151.374 190.791 151.374 190.518C151.374 190.186 151.295 189.896 151.139 189.649C150.986 189.399 150.774 189.205 150.504 189.065C150.234 188.926 149.93 188.857 149.592 188.857C149.234 188.857 148.92 188.933 148.651 189.087C148.384 189.24 148.176 189.45 148.028 189.717C147.881 189.984 147.807 190.291 147.807 190.638H147.044C147.044 190.155 147.155 189.727 147.376 189.355C147.601 188.98 147.906 188.686 148.293 188.473C148.682 188.26 149.122 188.153 149.614 188.153C150.099 188.153 150.531 188.259 150.909 188.469C151.287 188.676 151.584 188.959 151.8 189.317C152.016 189.675 152.124 190.075 152.124 190.518C152.124 190.839 152.067 191.151 151.953 191.452C151.842 191.753 151.651 192.088 151.378 192.457C151.105 192.827 150.727 193.278 150.244 193.812L148.08 196.229V196.284H152.396V197H146.972Z"
    fill="#5D5D5D" />
  <path
    d="M167.805 197.119C167.268 197.119 166.788 197.023 166.365 196.83C165.942 196.634 165.607 196.362 165.359 196.016C165.112 195.669 164.982 195.27 164.967 194.818H165.773C165.787 195.136 165.885 195.415 166.067 195.653C166.249 195.889 166.49 196.074 166.791 196.207C167.092 196.338 167.428 196.403 167.797 196.403C168.2 196.403 168.555 196.328 168.862 196.178C169.172 196.027 169.413 195.821 169.587 195.56C169.763 195.295 169.851 194.997 169.851 194.665C169.851 194.312 169.761 194.001 169.582 193.732C169.403 193.462 169.146 193.251 168.811 193.101C168.479 192.95 168.081 192.875 167.618 192.875H167.107V192.159H167.618C167.996 192.159 168.33 192.091 168.619 191.955C168.912 191.815 169.142 191.621 169.31 191.371C169.477 191.121 169.561 190.827 169.561 190.489C169.561 190.168 169.489 189.885 169.344 189.641C169.199 189.396 168.994 189.205 168.73 189.065C168.469 188.926 168.163 188.857 167.814 188.857C167.476 188.857 167.166 188.922 166.885 189.053C166.604 189.183 166.376 189.368 166.203 189.607C166.033 189.845 165.942 190.128 165.93 190.455H165.159C165.17 190 165.295 189.601 165.534 189.257C165.776 188.911 166.095 188.641 166.493 188.447C166.893 188.251 167.337 188.153 167.822 188.153C168.337 188.153 168.781 188.259 169.156 188.469C169.531 188.679 169.821 188.959 170.026 189.308C170.233 189.655 170.337 190.037 170.337 190.455C170.337 190.952 170.202 191.378 169.932 191.733C169.662 192.085 169.298 192.33 168.841 192.466V192.521C169.398 192.632 169.835 192.879 170.153 193.263C170.474 193.643 170.635 194.111 170.635 194.665C170.635 195.131 170.513 195.55 170.268 195.922C170.024 196.291 169.689 196.584 169.263 196.8C168.839 197.013 168.354 197.119 167.805 197.119Z"
    fill="#5D5D5D" />
  <path
    d="M182.763 195.125V194.477L186.653 188.273H187.131V189.359H186.777L183.653 194.354V194.409H188.754V195.125H182.763ZM186.837 197V194.92V194.622V188.273H187.595V197H186.837Z"
    fill="#5D5D5D" />
  <path
    d="M203.524 197.119C203.038 197.119 202.604 197.021 202.22 196.825C201.839 196.626 201.536 196.354 201.308 196.007C201.084 195.661 200.964 195.264 200.95 194.818H201.722C201.747 195.281 201.929 195.662 202.267 195.96C202.605 196.256 203.024 196.403 203.524 196.403C203.913 196.403 204.26 196.311 204.564 196.126C204.868 195.939 205.105 195.683 205.276 195.359C205.449 195.033 205.536 194.665 205.536 194.256C205.533 193.83 205.44 193.455 205.259 193.131C205.077 192.804 204.83 192.548 204.517 192.364C204.207 192.179 203.859 192.087 203.473 192.087C203.18 192.084 202.893 192.132 202.612 192.232C202.331 192.331 202.097 192.459 201.909 192.615L201.112 192.513L201.636 188.273H205.949V188.989H202.305L201.956 191.908H201.999C202.192 191.746 202.426 191.614 202.702 191.511C202.98 191.409 203.274 191.358 203.584 191.358C204.098 191.358 204.56 191.482 204.969 191.729C205.381 191.976 205.706 192.317 205.945 192.751C206.186 193.183 206.307 193.68 206.307 194.243C206.307 194.794 206.186 195.287 205.945 195.722C205.706 196.153 205.376 196.494 204.956 196.744C204.538 196.994 204.061 197.119 203.524 197.119Z"
    fill="#5D5D5D" />
  <path
    d="M221.72 197.119C221.359 197.116 221.007 197.044 220.663 196.902C220.32 196.757 220.01 196.526 219.734 196.207C219.459 195.886 219.24 195.463 219.078 194.938C218.916 194.412 218.835 193.766 218.835 192.999C218.835 192.288 218.898 191.638 219.023 191.047C219.148 190.456 219.335 189.945 219.585 189.513C219.835 189.081 220.148 188.747 220.523 188.511C220.898 188.273 221.337 188.153 221.839 188.153C222.311 188.153 222.727 188.251 223.088 188.447C223.449 188.641 223.741 188.911 223.966 189.257C224.19 189.604 224.331 190.003 224.388 190.455H223.604C223.524 189.994 223.335 189.615 223.037 189.317C222.739 189.018 222.339 188.869 221.839 188.869C221.124 188.869 220.57 189.202 220.178 189.866C219.786 190.528 219.588 191.469 219.585 192.688H219.641C219.78 192.429 219.959 192.206 220.178 192.018C220.399 191.828 220.651 191.68 220.932 191.575C221.213 191.467 221.509 191.413 221.818 191.413C222.304 191.413 222.749 191.537 223.152 191.784C223.555 192.028 223.878 192.365 224.119 192.794C224.361 193.22 224.482 193.707 224.482 194.256C224.482 194.776 224.366 195.254 224.136 195.692C223.909 196.129 223.588 196.477 223.173 196.736C222.761 196.994 222.277 197.122 221.72 197.119ZM221.72 196.403C222.101 196.403 222.44 196.307 222.739 196.114C223.04 195.92 223.277 195.662 223.45 195.338C223.624 195.011 223.71 194.651 223.71 194.256C223.71 193.861 223.624 193.503 223.45 193.182C223.277 192.861 223.04 192.605 222.739 192.415C222.44 192.224 222.101 192.129 221.72 192.129C221.43 192.129 221.161 192.189 220.911 192.308C220.661 192.425 220.443 192.585 220.259 192.79C220.077 192.991 219.938 193.223 219.841 193.484C219.747 193.746 219.712 194.02 219.734 194.307C219.766 194.707 219.869 195.067 220.045 195.385C220.224 195.7 220.457 195.949 220.744 196.131C221.034 196.312 221.359 196.403 221.72 196.403Z"
    fill="#5D5D5D" />
  <path d="M237.223 197L241.199 189.044V188.989H236.618V188.273H242.034V189.023L238.062 197H237.223Z" fill="#5D5D5D" />
  <path
    d="M256.669 197.119C256.112 197.119 255.616 197.014 255.182 196.804C254.747 196.594 254.406 196.307 254.159 195.943C253.912 195.577 253.788 195.163 253.788 194.703C253.788 194.342 253.864 194.006 254.014 193.693C254.165 193.378 254.372 193.114 254.636 192.901C254.901 192.685 255.197 192.544 255.527 192.479V192.432C255.098 192.307 254.753 192.061 254.491 191.695C254.23 191.325 254.101 190.906 254.104 190.438C254.101 190.003 254.212 189.614 254.436 189.27C254.661 188.926 254.966 188.655 255.352 188.456C255.741 188.254 256.18 188.153 256.669 188.153C257.155 188.153 257.591 188.254 257.977 188.456C258.364 188.655 258.669 188.926 258.893 189.27C259.121 189.614 259.236 190.003 259.239 190.438C259.236 190.903 259.104 191.322 258.842 191.695C258.581 192.064 258.237 192.31 257.811 192.432V192.479C258.141 192.541 258.436 192.68 258.697 192.896C258.959 193.112 259.166 193.378 259.32 193.693C259.473 194.006 259.55 194.342 259.55 194.703C259.55 195.163 259.425 195.577 259.175 195.943C258.928 196.307 258.587 196.594 258.152 196.804C257.72 197.014 257.226 197.119 256.669 197.119ZM256.669 196.403C257.084 196.403 257.447 196.33 257.76 196.182C258.075 196.031 258.321 195.825 258.497 195.564C258.676 195.303 258.766 195.003 258.766 194.665C258.766 194.315 258.673 194.004 258.489 193.732C258.304 193.456 258.054 193.239 257.739 193.08C257.423 192.918 257.067 192.837 256.669 192.837C256.271 192.837 255.913 192.918 255.595 193.08C255.28 193.239 255.03 193.456 254.845 193.732C254.663 194.004 254.572 194.315 254.572 194.665C254.572 195.003 254.659 195.303 254.832 195.564C255.009 195.825 255.254 196.031 255.57 196.182C255.888 196.33 256.254 196.403 256.669 196.403ZM256.669 192.155C257.01 192.155 257.315 192.082 257.585 191.938C257.855 191.793 258.068 191.595 258.224 191.345C258.384 191.092 258.464 190.805 258.467 190.484C258.464 190.166 258.385 189.885 258.229 189.641C258.072 189.393 257.859 189.202 257.589 189.065C257.322 188.926 257.016 188.857 256.669 188.857C256.322 188.857 256.013 188.926 255.74 189.065C255.47 189.202 255.257 189.393 255.101 189.641C254.947 189.885 254.872 190.166 254.875 190.484C254.872 190.805 254.949 191.092 255.105 191.345C255.264 191.595 255.479 191.793 255.749 191.938C256.021 192.082 256.328 192.155 256.669 192.155Z"
    fill="#5D5D5D" />
  <path
    d="M274.597 188.153C274.96 188.156 275.313 188.23 275.653 188.375C275.997 188.517 276.307 188.747 276.582 189.065C276.858 189.381 277.077 189.801 277.239 190.327C277.401 190.849 277.482 191.493 277.482 192.257C277.482 192.97 277.419 193.624 277.294 194.217C277.169 194.811 276.982 195.325 276.732 195.76C276.484 196.192 276.172 196.527 275.794 196.766C275.419 197.001 274.98 197.119 274.477 197.119C274.009 197.119 273.592 197.021 273.229 196.825C272.868 196.629 272.575 196.358 272.351 196.011C272.126 195.662 271.987 195.259 271.933 194.801H272.717C272.794 195.267 272.982 195.651 273.28 195.952C273.581 196.253 273.98 196.403 274.477 196.403C275.19 196.403 275.744 196.071 276.139 195.406C276.534 194.741 276.732 193.795 276.732 192.568H276.676C276.54 192.824 276.361 193.047 276.139 193.237C275.92 193.428 275.67 193.577 275.389 193.685C275.108 193.79 274.811 193.842 274.499 193.842C274.013 193.842 273.568 193.72 273.165 193.476C272.761 193.229 272.439 192.892 272.197 192.466C271.956 192.037 271.835 191.548 271.835 191C271.835 190.483 271.949 190.009 272.176 189.577C272.406 189.142 272.727 188.795 273.139 188.537C273.554 188.276 274.04 188.148 274.597 188.153ZM274.597 188.869C274.219 188.869 273.879 188.966 273.578 189.159C273.28 189.349 273.043 189.607 272.866 189.93C272.693 190.251 272.607 190.608 272.607 191C272.607 191.395 272.693 191.754 272.866 192.078C273.043 192.399 273.28 192.655 273.578 192.845C273.879 193.033 274.219 193.126 274.597 193.126C274.886 193.126 275.156 193.068 275.406 192.952C275.656 192.832 275.872 192.67 276.054 192.466C276.239 192.261 276.378 192.03 276.472 191.771C276.568 191.51 276.607 191.236 276.587 190.949C276.553 190.551 276.446 190.196 276.267 189.884C276.091 189.568 275.858 189.321 275.568 189.142C275.281 188.96 274.957 188.869 274.597 188.869Z"
    fill="#5D5D5D" />
  <path
    d="M292.665 188.273V197H291.868V189.108H291.817L289.771 190.467V189.641L291.834 188.273H292.665ZM298.026 197.119C297.412 197.119 296.888 196.943 296.453 196.591C296.021 196.236 295.689 195.723 295.456 195.053C295.226 194.382 295.111 193.577 295.111 192.636C295.111 191.699 295.226 190.896 295.456 190.229C295.689 189.558 296.023 189.045 296.457 188.69C296.895 188.332 297.418 188.153 298.026 188.153C298.634 188.153 299.155 188.332 299.589 188.69C300.027 189.045 300.361 189.558 300.591 190.229C300.824 190.896 300.94 191.699 300.94 192.636C300.94 193.577 300.824 194.382 300.591 195.053C300.361 195.723 300.028 196.236 299.594 196.591C299.162 196.943 298.639 197.119 298.026 197.119ZM298.026 196.403C298.699 196.403 299.224 196.075 299.602 195.419C299.98 194.76 300.169 193.832 300.169 192.636C300.169 191.841 300.082 191.162 299.909 190.599C299.739 190.034 299.493 189.602 299.172 189.304C298.854 189.006 298.472 188.857 298.026 188.857C297.358 188.857 296.834 189.189 296.453 189.854C296.072 190.516 295.882 191.443 295.882 192.636C295.882 193.432 295.967 194.111 296.138 194.673C296.311 195.236 296.557 195.665 296.875 195.96C297.196 196.256 297.58 196.403 298.026 196.403Z"
    fill="#5D5D5D" />
  <path
    d="M315.665 188.273V197H314.868V189.108H314.817L312.771 190.467V189.641L314.834 188.273H315.665ZM321.009 188.273V197H320.212V189.108H320.161L318.115 190.467V189.641L320.178 188.273H321.009Z"
    fill="#EFEFEF" />
  <path
    d="M336.665 188.273V197H335.868V189.108H335.817L333.771 190.467V189.641L335.834 188.273H336.665ZM339.315 197V196.416L342.166 193.212C342.538 192.791 342.838 192.432 343.065 192.134C343.293 191.835 343.457 191.56 343.56 191.307C343.665 191.054 343.717 190.791 343.717 190.518C343.717 190.186 343.639 189.896 343.483 189.649C343.33 189.399 343.118 189.205 342.848 189.065C342.578 188.926 342.274 188.857 341.936 188.857C341.578 188.857 341.264 188.933 340.994 189.087C340.727 189.24 340.52 189.45 340.372 189.717C340.224 189.984 340.151 190.291 340.151 190.638H339.388C339.388 190.155 339.499 189.727 339.72 189.355C339.945 188.98 340.25 188.686 340.636 188.473C341.026 188.26 341.466 188.153 341.957 188.153C342.443 188.153 342.875 188.259 343.253 188.469C343.631 188.676 343.928 188.959 344.143 189.317C344.359 189.675 344.467 190.075 344.467 190.518C344.467 190.839 344.411 191.151 344.297 191.452C344.186 191.753 343.994 192.088 343.722 192.457C343.449 192.827 343.071 193.278 342.588 193.812L340.423 196.229V196.284H344.74V197H339.315Z"
    fill="#ABABAB" />
  <path
    d="M359.665 188.273V197H358.868V189.108H358.817L356.771 190.467V189.641L358.834 188.273H359.665ZM365.149 197.119C364.612 197.119 364.132 197.023 363.709 196.83C363.286 196.634 362.95 196.362 362.703 196.016C362.456 195.669 362.325 195.27 362.311 194.818H363.116C363.131 195.136 363.229 195.415 363.411 195.653C363.592 195.889 363.834 196.074 364.135 196.207C364.436 196.338 364.771 196.403 365.141 196.403C365.544 196.403 365.899 196.328 366.206 196.178C366.516 196.027 366.757 195.821 366.93 195.56C367.107 195.295 367.195 194.997 367.195 194.665C367.195 194.312 367.105 194.001 366.926 193.732C366.747 193.462 366.49 193.251 366.155 193.101C365.822 192.95 365.425 192.875 364.962 192.875H364.45V192.159H364.962C365.339 192.159 365.673 192.091 365.963 191.955C366.256 191.815 366.486 191.621 366.653 191.371C366.821 191.121 366.905 190.827 366.905 190.489C366.905 190.168 366.832 189.885 366.688 189.641C366.543 189.396 366.338 189.205 366.074 189.065C365.813 188.926 365.507 188.857 365.158 188.857C364.82 188.857 364.51 188.922 364.229 189.053C363.947 189.183 363.72 189.368 363.547 189.607C363.376 189.845 363.286 190.128 363.274 190.455H362.503C362.514 190 362.639 189.601 362.878 189.257C363.119 188.911 363.439 188.641 363.837 188.447C364.237 188.251 364.68 188.153 365.166 188.153C365.68 188.153 366.125 188.259 366.5 188.469C366.875 188.679 367.165 188.959 367.369 189.308C367.577 189.655 367.68 190.037 367.68 190.455C367.68 190.952 367.545 191.378 367.276 191.733C367.006 192.085 366.642 192.33 366.185 192.466V192.521C366.741 192.632 367.179 192.879 367.497 193.263C367.818 193.643 367.979 194.111 367.979 194.665C367.979 195.131 367.857 195.55 367.612 195.922C367.368 196.291 367.033 196.584 366.607 196.8C366.183 197.013 365.697 197.119 365.149 197.119Z"
    fill="#ABABAB" />
  <path
    d="M382.665 188.273V197H381.868V189.108H381.817L379.771 190.467V189.641L381.834 188.273H382.665ZM385.107 195.125V194.477L388.997 188.273H389.474V189.359H389.121L385.997 194.354V194.409H391.098V195.125H385.107ZM389.18 197V194.92V194.622V188.273H389.939V197H389.18Z"
    fill="#ABABAB" />
  <path
    d="M405.665 188.273V197H404.868V189.108H404.817L402.771 190.467V189.641L404.834 188.273H405.665ZM410.868 197.119C410.382 197.119 409.947 197.021 409.564 196.825C409.183 196.626 408.879 196.354 408.652 196.007C408.428 195.661 408.308 195.264 408.294 194.818H409.065C409.091 195.281 409.273 195.662 409.611 195.96C409.949 196.256 410.368 196.403 410.868 196.403C411.257 196.403 411.604 196.311 411.908 196.126C412.212 195.939 412.449 195.683 412.619 195.359C412.793 195.033 412.879 194.665 412.879 194.256C412.876 193.83 412.784 193.455 412.602 193.131C412.42 192.804 412.173 192.548 411.861 192.364C411.551 192.179 411.203 192.087 410.817 192.087C410.524 192.084 410.237 192.132 409.956 192.232C409.675 192.331 409.44 192.459 409.253 192.615L408.456 192.513L408.98 188.273H413.293V188.989H409.649L409.3 191.908H409.342C409.536 191.746 409.77 191.614 410.045 191.511C410.324 191.409 410.618 191.358 410.928 191.358C411.442 191.358 411.903 191.482 412.312 191.729C412.724 191.976 413.05 192.317 413.288 192.751C413.53 193.183 413.651 193.68 413.651 194.243C413.651 194.794 413.53 195.287 413.288 195.722C413.05 196.153 412.72 196.494 412.3 196.744C411.882 196.994 411.405 197.119 410.868 197.119Z"
    fill="#ABABAB" />
  <rect x="130" y="126" width="6" height="54" rx="3" fill="#9D9D9D" />
  <rect x="146" y="36" width="6" height="144" rx="3" fill="#9D9D9D" />
  <rect x="165" y="151" width="6" height="29" rx="3" fill="#9D9D9D" />
  <rect x="201" y="166" width="6" height="14" rx="3" fill="#9D9D9D" />
  <rect x="218" y="151" width="6" height="29" rx="3" fill="#9D9D9D" />
  <rect x="237" y="126" width="6" height="54" rx="3" fill="#9D9D9D" />
  <rect x="253" y="109" width="6" height="71" rx="3" fill="#9D9D9D" />
  <rect x="272" y="168" width="6" height="12" rx="3" fill="#9D9D9D" />
  <rect x="293" y="151" width="6" height="29" rx="3" fill="#9D9D9D" />
  <rect x="315" y="151" width="6" height="29" rx="3" fill="#9D9D9D" />
  <rect x="87" y="151" width="6" height="29" rx="3" fill="#9D9D9D" />
  <rect x="62" y="166" width="6" height="14" rx="3" fill="#9D9D9D" />
  <rect x="37" y="115" width="6" height="65" rx="3" fill="#9D9D9D" />
  <circle cx="51.5" cy="193.5" r="1.5" fill="#D9D9D9" />
  <circle cx="27.5" cy="193.5" r="1.5" fill="#D9D9D9" />
  <circle cx="1.5" cy="193.5" r="1.5" fill="#D9D9D9" />
  <circle cx="77.5" cy="193.5" r="1.5" fill="#D9D9D9" />
  <circle cx="102.5" cy="193.5" r="1.5" fill="#D9D9D9" />
  <circle cx="125.5" cy="193.5" r="1.5" fill="#D9D9D9" />
  <circle cx="141.5" cy="193.5" r="1.5" fill="#D9D9D9" />
  <circle cx="159.5" cy="193.5" r="1.5" fill="#D9D9D9" />
  <circle cx="177.5" cy="193.5" r="1.5" fill="#D9D9D9" />
  <circle cx="195.5" cy="193.5" r="1.5" fill="#D9D9D9" />
  <circle cx="212.5" cy="193.5" r="1.5" fill="#D9D9D9" />
  <circle cx="231.5" cy="193.5" r="1.5" fill="#D9D9D9" />
  <circle cx="248.5" cy="193.5" r="1.5" fill="#D9D9D9" />
  <circle cx="265.5" cy="193.5" r="1.5" fill="#D9D9D9" />
  <circle cx="284.5" cy="193.5" r="1.5" fill="#D9D9D9" />
  <circle cx="304.5" cy="193.5" r="1.5" fill="#D9D9D9" />
  <circle cx="330.5" cy="193.5" r="1.5" fill="#D9D9D9" />
  <circle cx="351.5" cy="193.5" r="1.5" fill="#D9D9D9" />
  <circle cx="374.5" cy="193.5" r="1.5" fill="#D9D9D9" />
  <circle cx="397.5" cy="193.5" r="1.5" fill="#D9D9D9" />
  <circle cx="420.5" cy="193.5" r="1.5" fill="#D9D9D9" />
</svg>