<svg width="371" height="67" viewBox="0 0 371 67" fill="none" xmlns="http://www.w3.org/2000/svg">
  <path
    d="M69.8562 14V0.909091H77.9741V2.60938H71.8313V6.59801H77.3924V8.2919H71.8313V14H69.8562ZM83.6646 14.1982C82.7441 14.1982 81.9409 13.9872 81.2548 13.5653C80.5687 13.1435 80.036 12.5533 79.6568 11.7947C79.2775 11.0362 79.0879 10.1499 79.0879 9.13565C79.0879 8.11719 79.2775 7.22656 79.6568 6.46378C80.036 5.70099 80.5687 5.10866 81.2548 4.68679C81.9409 4.26491 82.7441 4.05398 83.6646 4.05398C84.585 4.05398 85.3883 4.26491 86.0744 4.68679C86.7605 5.10866 87.2931 5.70099 87.6724 6.46378C88.0517 7.22656 88.2413 8.11719 88.2413 9.13565C88.2413 10.1499 88.0517 11.0362 87.6724 11.7947C87.2931 12.5533 86.7605 13.1435 86.0744 13.5653C85.3883 13.9872 84.585 14.1982 83.6646 14.1982ZM83.671 12.5938C84.2676 12.5938 84.7619 12.4361 85.1539 12.1207C85.546 11.8054 85.8358 11.3857 86.0233 10.8615C86.215 10.3374 86.3109 9.75994 86.3109 9.12926C86.3109 8.50284 86.215 7.92756 86.0233 7.40341C85.8358 6.875 85.546 6.45099 85.1539 6.13139C84.7619 5.81179 84.2676 5.65199 83.671 5.65199C83.0701 5.65199 82.5716 5.81179 82.1752 6.13139C81.7832 6.45099 81.4913 6.875 81.2995 7.40341C81.112 7.92756 81.0183 8.50284 81.0183 9.12926C81.0183 9.75994 81.112 10.3374 81.2995 10.8615C81.4913 11.3857 81.7832 11.8054 82.1752 12.1207C82.5716 12.4361 83.0701 12.5938 83.671 12.5938ZM94.5103 14.1982C93.56 14.1982 92.7418 13.983 92.0558 13.5526C91.3739 13.1179 90.8498 12.5192 90.4833 11.7564C90.1168 10.9936 89.9336 10.12 89.9336 9.13565C89.9336 8.13849 90.1211 7.25852 90.4961 6.49574C90.8711 5.72869 91.3995 5.12997 92.0813 4.69957C92.7631 4.26918 93.5664 4.05398 94.4911 4.05398C95.2369 4.05398 95.9016 4.19247 96.4854 4.46946C97.0692 4.74219 97.5401 5.12571 97.8981 5.62003C98.2603 6.11435 98.4755 6.69176 98.5437 7.35227H96.6836C96.5813 6.89205 96.3469 6.49574 95.9805 6.16335C95.6183 5.83097 95.1325 5.66477 94.5231 5.66477C93.9904 5.66477 93.5238 5.8054 93.1232 6.08665C92.7269 6.36364 92.418 6.75994 92.1964 7.27557C91.9748 7.78693 91.864 8.39205 91.864 9.09091C91.864 9.80682 91.9727 10.4247 92.19 10.9446C92.4073 11.4645 92.7141 11.8672 93.1104 12.1527C93.511 12.4382 93.9819 12.581 94.5231 12.581C94.8853 12.581 95.2134 12.5149 95.5075 12.3828C95.8058 12.2464 96.055 12.0526 96.2553 11.8011C96.4599 11.5497 96.6026 11.2472 96.6836 10.8935H98.5437C98.4755 11.5284 98.2688 12.0952 97.9237 12.5938C97.5785 13.0923 97.1161 13.4844 96.5366 13.7699C95.9613 14.0554 95.2859 14.1982 94.5103 14.1982ZM106.807 9.92827V4.18182H108.725V14H106.845V12.2997H106.743C106.517 12.8239 106.155 13.2607 105.656 13.6101C105.162 13.9553 104.546 14.1278 103.809 14.1278C103.178 14.1278 102.62 13.9893 102.134 13.7124C101.653 13.4311 101.274 13.0156 100.997 12.4659C100.724 11.9162 100.588 11.2365 100.588 10.4268V4.18182H102.499V10.1967C102.499 10.8658 102.684 11.3984 103.055 11.7947C103.426 12.1911 103.907 12.3892 104.499 12.3892C104.857 12.3892 105.213 12.2997 105.567 12.1207C105.925 11.9418 106.221 11.6712 106.455 11.3089C106.694 10.9467 106.811 10.4865 106.807 9.92827ZM118.65 6.57884L116.918 6.88565C116.845 6.66406 116.73 6.45312 116.572 6.25284C116.419 6.05256 116.21 5.88849 115.946 5.76065C115.682 5.63281 115.352 5.56889 114.955 5.56889C114.414 5.56889 113.962 5.69034 113.6 5.93324C113.238 6.17187 113.057 6.48082 113.057 6.86009C113.057 7.18821 113.178 7.45241 113.421 7.6527C113.664 7.85298 114.056 8.01705 114.597 8.14489L116.157 8.50284C117.06 8.71165 117.734 9.03338 118.177 9.46804C118.62 9.9027 118.842 10.4673 118.842 11.1619C118.842 11.75 118.671 12.2741 118.33 12.7344C117.994 13.1903 117.523 13.5483 116.918 13.8082C116.317 14.0682 115.62 14.1982 114.827 14.1982C113.728 14.1982 112.831 13.9638 112.136 13.495C111.442 13.022 111.016 12.3509 110.858 11.4815L112.705 11.2003C112.82 11.6818 113.057 12.0462 113.415 12.2933C113.773 12.5362 114.239 12.6577 114.815 12.6577C115.441 12.6577 115.942 12.5277 116.317 12.2678C116.692 12.0036 116.879 11.6818 116.879 11.3026C116.879 10.9957 116.764 10.7379 116.534 10.5291C116.308 10.3203 115.961 10.1626 115.492 10.0561L113.83 9.69176C112.914 9.48295 112.237 9.15057 111.798 8.6946C111.363 8.23864 111.146 7.66122 111.146 6.96236C111.146 6.38281 111.308 5.87571 111.631 5.44105C111.955 5.00639 112.403 4.66761 112.974 4.42472C113.545 4.17756 114.199 4.05398 114.936 4.05398C115.997 4.05398 116.832 4.28409 117.442 4.74432C118.051 5.20028 118.454 5.81179 118.65 6.57884ZM125.175 14.1982C124.207 14.1982 123.374 13.9915 122.675 13.5781C121.981 13.1605 121.444 12.5746 121.064 11.8203C120.689 11.0618 120.502 10.1733 120.502 9.15483C120.502 8.14915 120.689 7.26278 121.064 6.49574C121.444 5.72869 121.972 5.12997 122.65 4.69957C123.331 4.26918 124.128 4.05398 125.04 4.05398C125.594 4.05398 126.131 4.1456 126.651 4.32884C127.171 4.51207 127.638 4.79972 128.051 5.19176C128.464 5.58381 128.79 6.09304 129.029 6.71946C129.268 7.34162 129.387 8.09801 129.387 8.98864V9.66619H121.582V8.23438H127.514C127.514 7.73153 127.412 7.28622 127.207 6.89844C127.003 6.50639 126.715 6.19744 126.344 5.97159C125.978 5.74574 125.547 5.63281 125.053 5.63281C124.516 5.63281 124.047 5.76491 123.647 6.02912C123.251 6.28906 122.944 6.62997 122.726 7.05185C122.513 7.46946 122.407 7.9233 122.407 8.41335V9.53196C122.407 10.1882 122.522 10.7464 122.752 11.2067C122.986 11.6669 123.312 12.0185 123.73 12.2614C124.148 12.5 124.635 12.6193 125.194 12.6193C125.556 12.6193 125.886 12.5682 126.184 12.4659C126.483 12.3594 126.741 12.2017 126.958 11.9929C127.175 11.7841 127.341 11.5263 127.456 11.2195L129.265 11.5455C129.121 12.0781 128.861 12.5447 128.486 12.9453C128.115 13.3416 127.648 13.6506 127.086 13.8722C126.528 14.0895 125.89 14.1982 125.175 14.1982ZM135.183 14.1918C134.39 14.1918 133.683 13.9893 133.061 13.5845C132.443 13.1754 131.957 12.5937 131.603 11.8395C131.254 11.081 131.079 10.1712 131.079 9.11009C131.079 8.04901 131.256 7.14133 131.61 6.38707C131.968 5.63281 132.458 5.0554 133.08 4.65483C133.702 4.25426 134.407 4.05398 135.196 4.05398C135.805 4.05398 136.295 4.15625 136.666 4.3608C137.041 4.56108 137.331 4.79545 137.535 5.06392C137.744 5.33239 137.906 5.56889 138.021 5.77344H138.136V0.909091H140.047V14H138.181V12.4723H138.021C137.906 12.6811 137.74 12.9197 137.522 13.1882C137.309 13.4567 137.015 13.6911 136.64 13.8913C136.265 14.0916 135.779 14.1918 135.183 14.1918ZM135.605 12.5618C136.154 12.5618 136.619 12.4169 136.998 12.1271C137.382 11.8331 137.672 11.4261 137.868 10.9062C138.068 10.3864 138.168 9.78125 138.168 9.09091C138.168 8.40909 138.07 7.8125 137.874 7.30114C137.678 6.78977 137.39 6.39133 137.011 6.10582C136.632 5.82031 136.163 5.67756 135.605 5.67756C135.029 5.67756 134.55 5.8267 134.167 6.125C133.783 6.4233 133.493 6.83026 133.297 7.34588C133.105 7.86151 133.01 8.44318 133.01 9.09091C133.01 9.74716 133.108 10.3374 133.304 10.8615C133.5 11.3857 133.789 11.8011 134.173 12.108C134.561 12.4105 135.038 12.5618 135.605 12.5618ZM149.667 14L146.778 4.18182H148.753L150.677 11.392H150.773L152.703 4.18182H154.679L156.596 11.3601H156.692L158.603 4.18182H160.578L157.696 14H155.746L153.752 6.91122H153.605L151.61 14H149.667ZM166.229 14.1982C165.309 14.1982 164.505 13.9872 163.819 13.5653C163.133 13.1435 162.6 12.5533 162.221 11.7947C161.842 11.0362 161.652 10.1499 161.652 9.13565C161.652 8.11719 161.842 7.22656 162.221 6.46378C162.6 5.70099 163.133 5.10866 163.819 4.68679C164.505 4.26491 165.309 4.05398 166.229 4.05398C167.15 4.05398 167.953 4.26491 168.639 4.68679C169.325 5.10866 169.858 5.70099 170.237 6.46378C170.616 7.22656 170.806 8.11719 170.806 9.13565C170.806 10.1499 170.616 11.0362 170.237 11.7947C169.858 12.5533 169.325 13.1435 168.639 13.5653C167.953 13.9872 167.15 14.1982 166.229 14.1982ZM166.235 12.5938C166.832 12.5938 167.326 12.4361 167.718 12.1207C168.11 11.8054 168.4 11.3857 168.588 10.8615C168.779 10.3374 168.875 9.75994 168.875 9.12926C168.875 8.50284 168.779 7.92756 168.588 7.40341C168.4 6.875 168.11 6.45099 167.718 6.13139C167.326 5.81179 166.832 5.65199 166.235 5.65199C165.635 5.65199 165.136 5.81179 164.74 6.13139C164.348 6.45099 164.056 6.875 163.864 7.40341C163.676 7.92756 163.583 8.50284 163.583 9.12926C163.583 9.75994 163.676 10.3374 163.864 10.8615C164.056 11.3857 164.348 11.8054 164.74 12.1207C165.136 12.4361 165.635 12.5938 166.235 12.5938ZM172.939 14V4.18182H174.786V5.74148H174.889C175.068 5.21307 175.383 4.79758 175.835 4.49503C176.291 4.18821 176.806 4.0348 177.382 4.0348C177.501 4.0348 177.642 4.03906 177.803 4.04759C177.97 4.05611 178.1 4.06676 178.193 4.07955V5.90767C178.117 5.88636 177.98 5.86293 177.784 5.83736C177.588 5.80753 177.392 5.79261 177.196 5.79261C176.744 5.79261 176.342 5.88849 175.988 6.08026C175.639 6.26776 175.362 6.52983 175.157 6.86648C174.953 7.19886 174.85 7.57812 174.85 8.00426V14H172.939ZM181.605 10.6697L181.592 8.33665H181.925L185.837 4.18182H188.125L183.663 8.91193H183.363L181.605 10.6697ZM179.847 14V0.909091H181.759V14H179.847ZM186.048 14L182.532 9.33381L183.849 7.99787L188.393 14H186.048Z"
    fill="#818181" />
  <path
    d="M297.855 14V0.909091H302.649C303.578 0.909091 304.347 1.0625 304.957 1.36932C305.566 1.67187 306.022 2.0831 306.325 2.60298C306.627 3.11861 306.778 3.70028 306.778 4.34801C306.778 4.89347 306.678 5.35369 306.478 5.72869C306.278 6.09943 306.009 6.39773 305.673 6.62358C305.34 6.84517 304.974 7.0071 304.573 7.10938V7.23722C305.008 7.25852 305.432 7.39915 305.845 7.65909C306.263 7.91477 306.608 8.27912 306.881 8.75213C307.153 9.22514 307.29 9.80043 307.29 10.478C307.29 11.147 307.132 11.7479 306.817 12.2805C306.506 12.8089 306.024 13.2287 305.372 13.5398C304.72 13.8466 303.887 14 302.873 14H297.855ZM299.83 12.3061H302.681C303.627 12.3061 304.305 12.1229 304.714 11.7564C305.123 11.3899 305.328 10.9318 305.328 10.3821C305.328 9.96875 305.223 9.58949 305.014 9.24432C304.805 8.89915 304.507 8.62429 304.119 8.41974C303.736 8.2152 303.28 8.11293 302.752 8.11293H299.83V12.3061ZM299.83 6.57244H302.477C302.92 6.57244 303.318 6.48722 303.672 6.31676C304.03 6.14631 304.313 5.90767 304.522 5.60085C304.735 5.28977 304.842 4.9233 304.842 4.50142C304.842 3.96023 304.652 3.50639 304.273 3.13991C303.894 2.77344 303.312 2.5902 302.528 2.5902H299.83V6.57244ZM309.479 14V4.18182H311.326V5.74148H311.429C311.608 5.21307 311.923 4.79758 312.375 4.49503C312.831 4.18821 313.346 4.0348 313.922 4.0348C314.041 4.0348 314.182 4.03906 314.343 4.04759C314.51 4.05611 314.64 4.06676 314.733 4.07955V5.90767C314.657 5.88636 314.52 5.86293 314.324 5.83736C314.128 5.80753 313.932 5.79261 313.736 5.79261C313.285 5.79261 312.882 5.88849 312.528 6.08026C312.179 6.26776 311.902 6.52983 311.697 6.86648C311.493 7.19886 311.39 7.57812 311.39 8.00426V14H309.479ZM320.267 14.1982C319.3 14.1982 318.467 13.9915 317.768 13.5781C317.073 13.1605 316.536 12.5746 316.157 11.8203C315.782 11.0618 315.595 10.1733 315.595 9.15483C315.595 8.14915 315.782 7.26278 316.157 6.49574C316.536 5.72869 317.065 5.12997 317.742 4.69957C318.424 4.26918 319.221 4.05398 320.133 4.05398C320.687 4.05398 321.224 4.1456 321.744 4.32884C322.264 4.51207 322.73 4.79972 323.144 5.19176C323.557 5.58381 323.883 6.09304 324.122 6.71946C324.36 7.34162 324.48 8.09801 324.48 8.98864V9.66619H316.675V8.23438H322.607C322.607 7.73153 322.505 7.28622 322.3 6.89844C322.095 6.50639 321.808 6.19744 321.437 5.97159C321.071 5.74574 320.64 5.63281 320.146 5.63281C319.609 5.63281 319.14 5.76491 318.74 6.02912C318.343 6.28906 318.036 6.62997 317.819 7.05185C317.606 7.46946 317.5 7.9233 317.5 8.41335V9.53196C317.5 10.1882 317.615 10.7464 317.845 11.2067C318.079 11.6669 318.405 12.0185 318.823 12.2614C319.24 12.5 319.728 12.6193 320.286 12.6193C320.649 12.6193 320.979 12.5682 321.277 12.4659C321.576 12.3594 321.833 12.2017 322.051 11.9929C322.268 11.7841 322.434 11.5263 322.549 11.2195L324.358 11.5455C324.213 12.0781 323.953 12.5447 323.578 12.9453C323.208 13.3416 322.741 13.6506 322.179 13.8722C321.62 14.0895 320.983 14.1982 320.267 14.1982ZM329.457 14.2173C328.835 14.2173 328.273 14.1023 327.77 13.8722C327.267 13.6378 326.869 13.299 326.575 12.8558C326.285 12.4126 326.14 11.8693 326.14 11.2259C326.14 10.6719 326.247 10.2159 326.46 9.85795C326.673 9.5 326.96 9.21662 327.323 9.00781C327.685 8.79901 328.09 8.64134 328.537 8.5348C328.984 8.42827 329.44 8.3473 329.905 8.2919C330.493 8.22372 330.97 8.16832 331.337 8.12571C331.703 8.07884 331.97 8.00426 332.136 7.90199C332.302 7.79972 332.385 7.63352 332.385 7.40341V7.35866C332.385 6.80043 332.227 6.3679 331.912 6.06108C331.601 5.75426 331.136 5.60085 330.519 5.60085C329.875 5.60085 329.368 5.74361 328.997 6.02912C328.631 6.31037 328.377 6.62358 328.237 6.96875L326.44 6.55966C326.653 5.96307 326.965 5.48153 327.374 5.11506C327.787 4.74432 328.262 4.47585 328.799 4.30966C329.336 4.1392 329.901 4.05398 330.493 4.05398C330.885 4.05398 331.301 4.10085 331.739 4.1946C332.183 4.28409 332.596 4.45028 332.979 4.69318C333.367 4.93608 333.685 5.28338 333.932 5.73509C334.179 6.18253 334.303 6.7642 334.303 7.48011V14H332.436V12.6577H332.359C332.236 12.9048 332.051 13.1477 331.803 13.3864C331.556 13.625 331.239 13.8232 330.851 13.9808C330.463 14.1385 329.999 14.2173 329.457 14.2173ZM329.873 12.6832C330.401 12.6832 330.853 12.5788 331.228 12.37C331.607 12.1612 331.895 11.8885 332.091 11.5518C332.291 11.2109 332.391 10.8466 332.391 10.4588V9.19318C332.323 9.26136 332.191 9.32528 331.995 9.38494C331.803 9.44034 331.584 9.48935 331.337 9.53196C331.09 9.57031 330.849 9.60653 330.614 9.64062C330.38 9.67045 330.184 9.69602 330.026 9.71733C329.656 9.7642 329.317 9.84304 329.01 9.95384C328.707 10.0646 328.465 10.2244 328.281 10.4332C328.102 10.6378 328.013 10.9105 328.013 11.2514C328.013 11.7244 328.188 12.0824 328.537 12.3253C328.886 12.5639 329.332 12.6832 329.873 12.6832ZM338.606 10.6697L338.593 8.33665H338.926L342.838 4.18182H345.126L340.664 8.91193H340.364L338.606 10.6697ZM336.848 14V0.909091H338.759V14H336.848ZM343.049 14L339.533 9.33381L340.85 7.99787L345.394 14H343.049Z"
    fill="#818181" />
  <path
    d="M103.551 46V43.7159L109.611 37.7756C110.19 37.1903 110.673 36.6705 111.06 36.2159C111.446 35.7614 111.736 35.321 111.929 34.8949C112.122 34.4687 112.219 34.0142 112.219 33.5312C112.219 32.9801 112.094 32.5085 111.844 32.1165C111.594 31.7188 111.25 31.4119 110.812 31.196C110.375 30.9801 109.878 30.8722 109.321 30.8722C108.747 30.8722 108.244 30.9915 107.812 31.2301C107.381 31.4631 107.045 31.7955 106.807 32.2273C106.574 32.6591 106.457 33.1733 106.457 33.7699H103.449C103.449 32.6619 103.702 31.6989 104.207 30.8807C104.713 30.0625 105.409 29.429 106.295 28.9801C107.188 28.5312 108.21 28.3068 109.364 28.3068C110.534 28.3068 111.563 28.5256 112.449 28.9631C113.335 29.4006 114.023 30 114.511 30.7614C115.006 31.5227 115.253 32.392 115.253 33.3693C115.253 34.0227 115.128 34.6648 114.878 35.2955C114.628 35.9261 114.188 36.625 113.557 37.392C112.932 38.1591 112.054 39.0881 110.923 40.179L107.915 43.2386V43.358H115.517V46H103.551ZM124.526 46.2386C123.389 46.2386 122.372 46.0256 121.474 45.5994C120.577 45.1676 119.864 44.5767 119.335 43.8267C118.813 43.0767 118.534 42.2187 118.5 41.2528H121.568C121.625 41.9687 121.935 42.554 122.497 43.0085C123.06 43.4574 123.736 43.6818 124.526 43.6818C125.145 43.6818 125.696 43.5398 126.179 43.2557C126.662 42.9716 127.043 42.5767 127.321 42.071C127.599 41.5653 127.736 40.9886 127.73 40.3409C127.736 39.6818 127.597 39.0966 127.312 38.5852C127.028 38.0739 126.639 37.6733 126.145 37.3835C125.651 37.0881 125.082 36.9403 124.44 36.9403C123.918 36.9347 123.403 37.0312 122.898 37.2301C122.392 37.429 121.991 37.6903 121.696 38.0142L118.841 37.5455L119.753 28.5455H129.878V31.1875H122.369L121.866 35.8153H121.969C122.293 35.4347 122.75 35.1193 123.341 34.8693C123.932 34.6136 124.58 34.4858 125.284 34.4858C126.341 34.4858 127.284 34.7358 128.114 35.2358C128.943 35.7301 129.597 36.4119 130.074 37.2812C130.551 38.1506 130.79 39.1449 130.79 40.2642C130.79 41.4176 130.523 42.446 129.989 43.3494C129.46 44.2472 128.724 44.9545 127.781 45.4716C126.844 45.983 125.759 46.2386 124.526 46.2386ZM139.632 46V32.9091H142.581V35.1335H142.734C143.007 34.3835 143.459 33.7983 144.089 33.3778C144.72 32.9517 145.473 32.7386 146.348 32.7386C147.234 32.7386 147.982 32.9545 148.589 33.3864C149.203 33.8125 149.635 34.3949 149.885 35.1335H150.021C150.311 34.4062 150.8 33.8267 151.487 33.3949C152.18 32.9574 153.001 32.7386 153.95 32.7386C155.155 32.7386 156.138 33.1193 156.899 33.8807C157.661 34.642 158.041 35.7528 158.041 37.2131V46H154.947V37.6903C154.947 36.8778 154.732 36.2841 154.3 35.9091C153.868 35.5284 153.339 35.3381 152.714 35.3381C151.97 35.3381 151.388 35.571 150.967 36.0369C150.553 36.4972 150.345 37.0966 150.345 37.8352V46H147.32V37.5625C147.32 36.8864 147.115 36.3466 146.706 35.9432C146.303 35.5398 145.774 35.3381 145.121 35.3381C144.678 35.3381 144.274 35.4517 143.911 35.679C143.547 35.9006 143.257 36.2159 143.041 36.625C142.825 37.0284 142.717 37.5 142.717 38.0398V46H139.632ZM161.171 46V32.9091H164.256V46H161.171ZM162.722 31.0511C162.234 31.0511 161.813 30.8892 161.461 30.5653C161.109 30.2358 160.933 29.8409 160.933 29.3807C160.933 28.9148 161.109 28.5199 161.461 28.196C161.813 27.8665 162.234 27.7017 162.722 27.7017C163.217 27.7017 163.637 27.8665 163.984 28.196C164.336 28.5199 164.512 28.9148 164.512 29.3807C164.512 29.8409 164.336 30.2358 163.984 30.5653C163.637 30.8892 163.217 31.0511 162.722 31.0511ZM170.514 38.3295V46H167.429V32.9091H170.378V35.1335H170.531C170.832 34.4006 171.313 33.8182 171.972 33.3864C172.636 32.9545 173.457 32.7386 174.435 32.7386C175.338 32.7386 176.125 32.9318 176.795 33.3182C177.472 33.7045 177.994 34.2642 178.364 34.9972C178.739 35.7301 178.923 36.6193 178.918 37.6648V46H175.832V38.142C175.832 37.267 175.605 36.5824 175.151 36.0881C174.702 35.5937 174.08 35.3466 173.284 35.3466C172.744 35.3466 172.264 35.4659 171.844 35.7045C171.429 35.9375 171.102 36.2756 170.864 36.7188C170.631 37.1619 170.514 37.6989 170.514 38.3295Z"
    fill="#494949" />
  <path
    d="M307.619 46.2386C306.483 46.2386 305.466 46.0256 304.568 45.5994C303.67 45.1676 302.957 44.5767 302.429 43.8267C301.906 43.0767 301.628 42.2187 301.594 41.2528H304.662C304.719 41.9687 305.028 42.554 305.591 43.0085C306.153 43.4574 306.83 43.6818 307.619 43.6818C308.239 43.6818 308.79 43.5398 309.273 43.2557C309.756 42.9716 310.136 42.5767 310.415 42.071C310.693 41.5653 310.83 40.9886 310.824 40.3409C310.83 39.6818 310.69 39.0966 310.406 38.5852C310.122 38.0739 309.733 37.6733 309.239 37.3835C308.744 37.0881 308.176 36.9403 307.534 36.9403C307.011 36.9347 306.497 37.0312 305.991 37.2301C305.486 37.429 305.085 37.6903 304.79 38.0142L301.935 37.5455L302.847 28.5455H312.972V31.1875H305.463L304.96 35.8153H305.062C305.386 35.4347 305.844 35.1193 306.435 34.8693C307.026 34.6136 307.673 34.4858 308.378 34.4858C309.435 34.4858 310.378 34.7358 311.207 35.2358C312.037 35.7301 312.69 36.4119 313.168 37.2812C313.645 38.1506 313.884 39.1449 313.884 40.2642C313.884 41.4176 313.616 42.446 313.082 43.3494C312.554 44.2472 311.818 44.9545 310.875 45.4716C309.938 45.983 308.852 46.2386 307.619 46.2386ZM322.726 46V32.9091H325.675V35.1335H325.828C326.101 34.3835 326.553 33.7983 327.183 33.3778C327.814 32.9517 328.567 32.7386 329.442 32.7386C330.328 32.7386 331.075 32.9545 331.683 33.3864C332.297 33.8125 332.729 34.3949 332.979 35.1335H333.115C333.405 34.4062 333.893 33.8267 334.581 33.3949C335.274 32.9574 336.095 32.7386 337.044 32.7386C338.249 32.7386 339.232 33.1193 339.993 33.8807C340.754 34.642 341.135 35.7528 341.135 37.2131V46H338.041V37.6903C338.041 36.8778 337.825 36.2841 337.393 35.9091C336.962 35.5284 336.433 35.3381 335.808 35.3381C335.064 35.3381 334.482 35.571 334.061 36.0369C333.646 36.4972 333.439 37.0966 333.439 37.8352V46H330.413V37.5625C330.413 36.8864 330.209 36.3466 329.8 35.9432C329.396 35.5398 328.868 35.3381 328.214 35.3381C327.771 35.3381 327.368 35.4517 327.004 35.679C326.641 35.9006 326.351 36.2159 326.135 36.625C325.919 37.0284 325.811 37.5 325.811 38.0398V46H322.726ZM344.265 46V32.9091H347.35V46H344.265ZM345.816 31.0511C345.327 31.0511 344.907 30.8892 344.555 30.5653C344.202 30.2358 344.026 29.8409 344.026 29.3807C344.026 28.9148 344.202 28.5199 344.555 28.196C344.907 27.8665 345.327 27.7017 345.816 27.7017C346.31 27.7017 346.731 27.8665 347.077 28.196C347.43 28.5199 347.606 28.9148 347.606 29.3807C347.606 29.8409 347.43 30.2358 347.077 30.5653C346.731 30.8892 346.31 31.0511 345.816 31.0511ZM353.608 38.3295V46H350.523V32.9091H353.472V35.1335H353.625C353.926 34.4006 354.406 33.8182 355.065 33.3864C355.73 32.9545 356.551 32.7386 357.528 32.7386C358.432 32.7386 359.219 32.9318 359.889 33.3182C360.565 33.7045 361.088 34.2642 361.457 34.9972C361.832 35.7301 362.017 36.6193 362.011 37.6648V46H358.926V38.142C358.926 37.267 358.699 36.5824 358.244 36.0881C357.795 35.5937 357.173 35.3466 356.378 35.3466C355.838 35.3466 355.358 35.4659 354.938 35.7045C354.523 35.9375 354.196 36.2756 353.957 36.7188C353.724 37.1619 353.608 37.6989 353.608 38.3295Z"
    fill="#494949" />
  <line x1="2" y1="60" x2="273" y2="60" stroke="#FF3030" stroke-opacity="0.4" stroke-width="4" />
  <line x1="273" y1="60" x2="369" y2="60" stroke="#84B5FF" stroke-opacity="0.4" stroke-width="4" />
  <path d="M83.5 23.5H88.5" stroke="#EE3636" stroke-width="2" stroke-linecap="round" stroke-linejoin="round" />
  <path d="M86 38.5L89.75 34.75" stroke="#EE3636" stroke-width="2" stroke-linecap="round" stroke-linejoin="round" />
  <path
    d="M86 48.5C91.5228 48.5 96 44.0228 96 38.5C96 32.9772 91.5228 28.5 86 28.5C80.4772 28.5 76 32.9772 76 38.5C76 44.0228 80.4772 48.5 86 48.5Z"
    stroke="#EE3636" stroke-width="2" stroke-linecap="round" stroke-linejoin="round" />
  <path d="M2 55L2 65" stroke="#616161" stroke-width="4" stroke-linecap="round" />
  <path d="M369 55L369 65" stroke="#616161" stroke-width="4" stroke-linecap="round" />
  <path fill-rule="evenodd" clip-rule="evenodd"
    d="M286 30C281.582 30 278 33.5817 278 38C278 42.4183 281.582 46.0001 286 46.0001C290.418 46.0001 294 42.4183 294 38C294 33.5817 290.418 30 286 30ZM279.148 38C279.148 34.2155 282.216 31.1475 286 31.1475C289.785 31.1475 292.852 34.2155 292.852 38C292.852 41.7844 289.785 44.8525 286 44.8525C282.216 44.8525 279.148 41.7844 279.148 38ZM286.604 34.3764C286.604 34.0428 286.333 33.7724 286 33.7724C285.666 33.7724 285.396 34.0428 285.396 34.3764V38.0002C285.396 38.1604 285.46 38.314 285.573 38.4273L287.989 40.8432C288.225 41.079 288.607 41.079 288.843 40.8432C289.079 40.6073 289.079 40.2249 288.843 39.989L286.604 37.75V34.3764Z"
    fill="#2B7DFF" />
</svg>