<svg width="472" height="312" viewBox="0 0 472 312" fill="none" xmlns="http://www.w3.org/2000/svg">
  <path
    d="M48.5133 41H33.4593V0.272726H48.4934C52.6431 0.272726 56.216 1.08807 59.2122 2.71875C62.2217 4.33617 64.5417 6.66951 66.1724 9.71875C67.8031 12.7547 68.6184 16.3873 68.6184 20.6165C68.6184 24.8589 67.8031 28.5047 66.1724 31.554C64.555 34.6032 62.2415 36.9432 59.2321 38.5739C56.2226 40.1913 52.6497 41 48.5133 41ZM43.3031 32.608H48.1355C50.4158 32.608 52.3448 32.2235 53.9224 31.4545C55.5133 30.6723 56.7131 29.4062 57.5218 27.6562C58.3438 25.893 58.7548 23.5464 58.7548 20.6165C58.7548 17.6866 58.3438 15.3532 57.5218 13.6165C56.6999 11.8665 55.4868 10.607 53.8826 9.83807C52.2917 9.05587 50.3296 8.66477 47.9963 8.66477H43.3031V32.608ZM74.3656 41V10.4545H83.8116V16.0227H84.1298C84.6866 14.0076 85.5948 12.5095 86.8542 11.5284C88.1137 10.5341 89.5787 10.0369 91.2491 10.0369C91.6999 10.0369 92.1639 10.0701 92.6412 10.1364C93.1184 10.1894 93.5626 10.2756 93.9735 10.3949V18.8466C93.5095 18.6875 92.8997 18.5616 92.144 18.4688C91.4016 18.3759 90.7387 18.3295 90.1554 18.3295C89.002 18.3295 87.9612 18.5881 87.0332 19.1051C86.1184 19.6089 85.3959 20.3182 84.8656 21.233C84.3485 22.1345 84.09 23.1951 84.09 24.4148V41H74.3656ZM110.628 41.5767C107.433 41.5767 104.676 40.947 102.356 39.6875C100.049 38.4148 98.2723 36.6051 97.0261 34.2585C95.7931 31.8987 95.1767 29.0947 95.1767 25.8466C95.1767 22.6913 95.7998 19.9337 97.046 17.5739C98.2922 15.2008 100.049 13.358 102.316 12.0455C104.583 10.7197 107.254 10.0568 110.33 10.0568C112.504 10.0568 114.493 10.3949 116.296 11.071C118.099 11.7472 119.657 12.7481 120.969 14.0739C122.282 15.3996 123.303 17.0369 124.032 18.9858C124.761 20.9214 125.126 23.142 125.126 25.6477V28.0739H98.5772V22.4261H116.077C116.064 21.392 115.819 20.4706 115.341 19.6619C114.864 18.8532 114.208 18.2235 113.373 17.7727C112.551 17.3087 111.603 17.0767 110.529 17.0767C109.442 17.0767 108.467 17.322 107.606 17.8125C106.744 18.2898 106.061 18.946 105.557 19.7812C105.054 20.6032 104.788 21.5379 104.762 22.5852V28.3324C104.762 29.5786 105.007 30.6723 105.498 31.6136C105.988 32.5417 106.684 33.2642 107.586 33.7812C108.487 34.2983 109.561 34.5568 110.807 34.5568C111.669 34.5568 112.451 34.4375 113.154 34.1989C113.857 33.9602 114.46 33.6089 114.964 33.1449C115.467 32.6809 115.845 32.1108 116.097 31.4347L125.026 31.6932C124.655 33.6951 123.84 35.4384 122.58 36.9233C121.334 38.3949 119.697 39.5417 117.668 40.3636C115.64 41.1723 113.293 41.5767 110.628 41.5767ZM138.703 41.517C136.754 41.517 135.024 41.1922 133.513 40.5426C132.015 39.8797 130.828 38.8854 129.953 37.5597C129.091 36.2206 128.66 34.5436 128.66 32.5284C128.66 30.8314 128.959 29.3996 129.555 28.233C130.152 27.0663 130.974 26.1184 132.021 25.3892C133.068 24.66 134.275 24.1098 135.64 23.7386C137.006 23.3542 138.464 23.0956 140.015 22.9631C141.752 22.804 143.151 22.6383 144.211 22.4659C145.272 22.2803 146.041 22.0218 146.518 21.6903C147.009 21.3456 147.254 20.8617 147.254 20.2386V20.1392C147.254 19.1184 146.903 18.3295 146.2 17.7727C145.497 17.2159 144.55 16.9375 143.356 16.9375C142.07 16.9375 141.036 17.2159 140.254 17.7727C139.472 18.3295 138.975 19.0985 138.763 20.0795L129.794 19.7614C130.059 17.9053 130.742 16.2481 131.842 14.7898C132.956 13.3182 134.48 12.1648 136.416 11.3295C138.365 10.4811 140.705 10.0568 143.436 10.0568C145.385 10.0568 147.181 10.2888 148.825 10.7528C150.469 11.2036 151.901 11.8665 153.121 12.7415C154.34 13.6032 155.282 14.6638 155.944 15.9233C156.621 17.1828 156.959 18.6212 156.959 20.2386V41H147.811V36.7443H147.572C147.029 37.7784 146.333 38.6534 145.484 39.3693C144.649 40.0852 143.661 40.6222 142.521 40.9801C141.394 41.3381 140.122 41.517 138.703 41.517ZM141.706 35.1534C142.753 35.1534 143.694 34.9413 144.53 34.517C145.378 34.0928 146.054 33.5095 146.558 32.767C147.062 32.0114 147.314 31.1364 147.314 30.142V27.2386C147.035 27.3845 146.697 27.517 146.3 27.6364C145.915 27.7557 145.491 27.8684 145.027 27.9744C144.563 28.0805 144.086 28.1733 143.595 28.2528C143.104 28.3324 142.634 28.4053 142.183 28.4716C141.268 28.6174 140.486 28.8428 139.836 29.1477C139.2 29.4527 138.71 29.8504 138.365 30.3409C138.033 30.8182 137.868 31.3883 137.868 32.0511C137.868 33.0587 138.226 33.8277 138.942 34.358C139.671 34.8883 140.592 35.1534 141.706 35.1534ZM162.905 41V10.4545H172.152V16.0625H172.49C173.126 14.2064 174.2 12.7415 175.711 11.6676C177.223 10.5938 179.026 10.0568 181.121 10.0568C183.242 10.0568 185.058 10.6004 186.569 11.6875C188.081 12.7746 189.042 14.233 189.453 16.0625H189.771C190.341 14.2462 191.455 12.7945 193.112 11.7074C194.769 10.607 196.725 10.0568 198.979 10.0568C201.869 10.0568 204.215 10.9848 206.018 12.8409C207.821 14.6837 208.723 17.2159 208.723 20.4375V41H198.998V22.6648C198.998 21.1402 198.607 19.9801 197.825 19.1847C197.043 18.3759 196.029 17.9716 194.782 17.9716C193.443 17.9716 192.39 18.4091 191.621 19.2841C190.865 20.1458 190.487 21.3059 190.487 22.7642V41H181.14V22.5653C181.14 21.1468 180.756 20.0265 179.987 19.2045C179.218 18.3826 178.204 17.9716 176.944 17.9716C176.096 17.9716 175.347 18.1771 174.697 18.5881C174.048 18.9858 173.537 19.5559 173.166 20.2983C172.808 21.0407 172.629 21.9157 172.629 22.9233V41H162.905Z"
    fill="#FF4747" />
  <rect x="70.0215" y="49" width="343" height="42" rx="14" fill="url(#paint0_linear_0_1)" />
  <path
    d="M86.2239 77V65.3636H88.3319V75.233H93.4569V77H86.2239ZM99.0591 77.1705C98.1841 77.1705 97.4284 76.9886 96.7921 76.625C96.1595 76.2576 95.6728 75.7386 95.3319 75.0682C94.9909 74.3939 94.8205 73.6004 94.8205 72.6875C94.8205 71.7898 94.9909 71.0019 95.3319 70.3239C95.6766 69.642 96.1576 69.1117 96.775 68.733C97.3925 68.3504 98.1178 68.1591 98.9512 68.1591C99.4891 68.1591 99.9966 68.2462 100.474 68.4205C100.955 68.5909 101.379 68.8561 101.747 69.2159C102.118 69.5758 102.41 70.0341 102.622 70.5909C102.834 71.1439 102.94 71.803 102.94 72.5682V73.1989H95.7864V71.8125H100.968C100.964 71.4186 100.879 71.0682 100.713 70.7614C100.546 70.4508 100.313 70.2064 100.014 70.0284C99.7182 69.8504 99.3735 69.7614 98.9796 69.7614C98.5591 69.7614 98.1898 69.8636 97.8716 70.0682C97.5534 70.2689 97.3053 70.5341 97.1273 70.8636C96.9531 71.1894 96.8641 71.5473 96.8603 71.9375V73.1477C96.8603 73.6553 96.9531 74.0909 97.1387 74.4545C97.3243 74.8144 97.5837 75.0909 97.9171 75.2841C98.2504 75.4735 98.6406 75.5682 99.0875 75.5682C99.3868 75.5682 99.6576 75.5265 99.9 75.4432C100.142 75.3561 100.353 75.2292 100.531 75.0625C100.709 74.8958 100.843 74.6894 100.934 74.4432L102.855 74.6591C102.733 75.1667 102.502 75.6098 102.161 75.9886C101.824 76.3636 101.392 76.6553 100.866 76.8636C100.339 77.0682 99.7372 77.1705 99.0591 77.1705ZM107.191 77.1761C106.638 77.1761 106.14 77.0777 105.697 76.8807C105.258 76.6799 104.909 76.3845 104.651 75.9943C104.398 75.6042 104.271 75.1231 104.271 74.5511C104.271 74.0587 104.362 73.6515 104.544 73.3295C104.725 73.0076 104.973 72.75 105.288 72.5568C105.602 72.3636 105.956 72.2178 106.35 72.1193C106.748 72.017 107.159 71.9432 107.583 71.8977C108.095 71.8447 108.509 71.7973 108.828 71.7557C109.146 71.7102 109.377 71.642 109.521 71.5511C109.669 71.4564 109.742 71.3106 109.742 71.1136V71.0795C109.742 70.6515 109.615 70.3201 109.362 70.0852C109.108 69.8504 108.742 69.733 108.265 69.733C107.761 69.733 107.362 69.8428 107.066 70.0625C106.775 70.2822 106.578 70.5417 106.475 70.8409L104.555 70.5682C104.706 70.0379 104.956 69.5947 105.305 69.2386C105.653 68.8788 106.079 68.6098 106.583 68.4318C107.087 68.25 107.644 68.1591 108.254 68.1591C108.674 68.1591 109.093 68.2083 109.509 68.3068C109.926 68.4053 110.307 68.5682 110.651 68.7955C110.996 69.0189 111.273 69.3239 111.481 69.7102C111.693 70.0966 111.799 70.5795 111.799 71.1591V77H109.822V75.8011H109.754C109.629 76.0436 109.453 76.2708 109.225 76.483C109.002 76.6913 108.72 76.8598 108.379 76.9886C108.042 77.1136 107.646 77.1761 107.191 77.1761ZM107.725 75.6648C108.138 75.6648 108.496 75.5833 108.799 75.4205C109.102 75.2538 109.335 75.0341 109.498 74.7614C109.665 74.4886 109.748 74.1913 109.748 73.8693V72.8409C109.684 72.8939 109.574 72.9432 109.419 72.9886C109.267 73.0341 109.097 73.0739 108.907 73.108C108.718 73.142 108.53 73.1723 108.345 73.1989C108.159 73.2254 107.998 73.2481 107.862 73.267C107.555 73.3087 107.28 73.3769 107.038 73.4716C106.795 73.5663 106.604 73.6989 106.464 73.8693C106.324 74.036 106.254 74.2519 106.254 74.517C106.254 74.8958 106.392 75.1818 106.669 75.375C106.945 75.5682 107.297 75.6648 107.725 75.6648ZM113.867 77V68.2727H115.862V69.7273H115.953C116.112 69.2235 116.384 68.8352 116.771 68.5625C117.161 68.286 117.606 68.1477 118.106 68.1477C118.22 68.1477 118.347 68.1534 118.487 68.1648C118.631 68.1723 118.75 68.1856 118.845 68.2045V70.0966C118.758 70.0663 118.619 70.0398 118.43 70.017C118.244 69.9905 118.064 69.9773 117.89 69.9773C117.515 69.9773 117.178 70.0587 116.879 70.2216C116.583 70.3807 116.35 70.6023 116.18 70.8864C116.009 71.1705 115.924 71.4981 115.924 71.8693V77H113.867ZM122.268 71.8864V77H120.211V68.2727H122.177V69.7557H122.279C122.48 69.267 122.8 68.8788 123.24 68.5909C123.683 68.303 124.23 68.1591 124.882 68.1591C125.484 68.1591 126.008 68.2879 126.455 68.5455C126.906 68.803 127.255 69.1761 127.501 69.6648C127.751 70.1534 127.874 70.7462 127.87 71.4432V77H125.813V71.7614C125.813 71.178 125.662 70.7216 125.359 70.392C125.06 70.0625 124.645 69.8977 124.115 69.8977C123.755 69.8977 123.435 69.9773 123.154 70.1364C122.878 70.2917 122.66 70.517 122.501 70.8125C122.346 71.108 122.268 71.4659 122.268 71.8864ZM140.345 68.5625C140.292 68.0663 140.068 67.6799 139.674 67.4034C139.284 67.1269 138.776 66.9886 138.151 66.9886C137.712 66.9886 137.335 67.0549 137.021 67.1875C136.706 67.3201 136.466 67.5 136.299 67.7273C136.133 67.9545 136.047 68.214 136.044 68.5057C136.044 68.7481 136.098 68.9583 136.208 69.1364C136.322 69.3144 136.475 69.4659 136.669 69.5909C136.862 69.7121 137.076 69.8144 137.311 69.8977C137.545 69.9811 137.782 70.0511 138.021 70.108L139.112 70.3807C139.551 70.483 139.973 70.6212 140.379 70.7955C140.788 70.9697 141.153 71.1894 141.475 71.4545C141.801 71.7197 142.059 72.0398 142.248 72.4148C142.437 72.7898 142.532 73.2292 142.532 73.733C142.532 74.4148 142.358 75.0152 142.009 75.5341C141.661 76.0492 141.157 76.4527 140.498 76.7443C139.843 77.0322 139.049 77.1761 138.117 77.1761C137.212 77.1761 136.426 77.036 135.759 76.7557C135.097 76.4754 134.578 76.0663 134.203 75.5284C133.831 74.9905 133.631 74.3352 133.6 73.5625H135.674C135.704 73.9678 135.829 74.3049 136.049 74.5739C136.269 74.8428 136.555 75.0436 136.907 75.1761C137.263 75.3087 137.661 75.375 138.1 75.375C138.559 75.375 138.96 75.3068 139.305 75.1705C139.653 75.0303 139.926 74.8371 140.123 74.5909C140.32 74.3409 140.42 74.0492 140.424 73.7159C140.42 73.4129 140.331 73.1629 140.157 72.9659C139.983 72.7652 139.739 72.5985 139.424 72.4659C139.114 72.3295 138.75 72.2083 138.333 72.1023L137.009 71.7614C136.051 71.5152 135.294 71.142 134.737 70.642C134.184 70.1383 133.907 69.4697 133.907 68.6364C133.907 67.9508 134.093 67.3504 134.464 66.8352C134.839 66.3201 135.348 65.9205 135.992 65.6364C136.636 65.3485 137.365 65.2045 138.18 65.2045C139.006 65.2045 139.729 65.3485 140.35 65.6364C140.975 65.9205 141.466 66.3163 141.822 66.8239C142.178 67.3277 142.362 67.9072 142.373 68.5625H140.345ZM144.32 80.2727V68.2727H146.343V69.7159H146.463C146.569 69.5038 146.718 69.2784 146.911 69.0398C147.105 68.7973 147.366 68.5909 147.695 68.4205C148.025 68.2462 148.445 68.1591 148.957 68.1591C149.631 68.1591 150.239 68.3314 150.781 68.6761C151.326 69.017 151.758 69.5227 152.076 70.1932C152.398 70.8598 152.559 71.678 152.559 72.6477C152.559 73.6061 152.402 74.4205 152.088 75.0909C151.773 75.7614 151.345 76.2727 150.803 76.625C150.262 76.9773 149.648 77.1534 148.963 77.1534C148.463 77.1534 148.048 77.0701 147.718 76.9034C147.389 76.7367 147.124 76.536 146.923 76.3011C146.726 76.0625 146.572 75.8371 146.463 75.625H146.377V80.2727H144.32ZM146.338 72.6364C146.338 73.2008 146.417 73.6951 146.576 74.1193C146.739 74.5436 146.972 74.875 147.275 75.1136C147.582 75.3485 147.953 75.4659 148.389 75.4659C148.843 75.4659 149.224 75.3447 149.531 75.1023C149.838 74.8561 150.069 74.5208 150.224 74.0966C150.383 73.6686 150.463 73.1818 150.463 72.6364C150.463 72.0947 150.385 71.6136 150.23 71.1932C150.074 70.7727 149.843 70.4432 149.536 70.2045C149.23 69.9659 148.847 69.8466 148.389 69.8466C147.949 69.8466 147.576 69.9621 147.269 70.1932C146.963 70.4242 146.73 70.7481 146.57 71.1648C146.415 71.5814 146.338 72.072 146.338 72.6364ZM156.832 77.1761C156.279 77.1761 155.781 77.0777 155.338 76.8807C154.898 76.6799 154.55 76.3845 154.292 75.9943C154.038 75.6042 153.911 75.1231 153.911 74.5511C153.911 74.0587 154.002 73.6515 154.184 73.3295C154.366 73.0076 154.614 72.75 154.928 72.5568C155.243 72.3636 155.597 72.2178 155.991 72.1193C156.389 72.017 156.8 71.9432 157.224 71.8977C157.735 71.8447 158.15 71.7973 158.468 71.7557C158.786 71.7102 159.017 71.642 159.161 71.5511C159.309 71.4564 159.383 71.3106 159.383 71.1136V71.0795C159.383 70.6515 159.256 70.3201 159.002 70.0852C158.749 69.8504 158.383 69.733 157.906 69.733C157.402 69.733 157.002 69.8428 156.707 70.0625C156.415 70.2822 156.218 70.5417 156.116 70.8409L154.195 70.5682C154.347 70.0379 154.597 69.5947 154.945 69.2386C155.294 68.8788 155.72 68.6098 156.224 68.4318C156.728 68.25 157.285 68.1591 157.894 68.1591C158.315 68.1591 158.733 68.2083 159.15 68.3068C159.567 68.4053 159.947 68.5682 160.292 68.7955C160.637 69.0189 160.913 69.3239 161.122 69.7102C161.334 70.0966 161.44 70.5795 161.44 71.1591V77H159.463V75.8011H159.394C159.269 76.0436 159.093 76.2708 158.866 76.483C158.642 76.6913 158.36 76.8598 158.019 76.9886C157.682 77.1136 157.286 77.1761 156.832 77.1761ZM157.366 75.6648C157.779 75.6648 158.137 75.5833 158.44 75.4205C158.743 75.2538 158.976 75.0341 159.139 74.7614C159.305 74.4886 159.389 74.1913 159.389 73.8693V72.8409C159.324 72.8939 159.214 72.9432 159.059 72.9886C158.908 73.0341 158.737 73.0739 158.548 73.108C158.358 73.142 158.171 73.1723 157.985 73.1989C157.8 73.2254 157.639 73.2481 157.502 73.267C157.195 73.3087 156.921 73.3769 156.678 73.4716C156.436 73.5663 156.245 73.6989 156.105 73.8693C155.964 74.036 155.894 74.2519 155.894 74.517C155.894 74.8958 156.033 75.1818 156.309 75.375C156.586 75.5682 156.938 75.6648 157.366 75.6648ZM165.565 71.8864V77H163.508V68.2727H165.474V69.7557H165.576C165.777 69.267 166.097 68.8788 166.536 68.5909C166.98 68.303 167.527 68.1591 168.178 68.1591C168.781 68.1591 169.305 68.2879 169.752 68.5455C170.203 68.803 170.552 69.1761 170.798 69.6648C171.048 70.1534 171.171 70.7462 171.167 71.4432V77H169.11V71.7614C169.11 71.178 168.959 70.7216 168.656 70.392C168.356 70.0625 167.942 69.8977 167.411 69.8977C167.052 69.8977 166.731 69.9773 166.451 70.1364C166.175 70.2917 165.957 70.517 165.798 70.8125C165.642 71.108 165.565 71.4659 165.565 71.8864ZM173.258 77V68.2727H175.315V77H173.258ZM174.292 67.0341C173.966 67.0341 173.686 66.9261 173.451 66.7102C173.216 66.4905 173.099 66.2273 173.099 65.9205C173.099 65.6098 173.216 65.3466 173.451 65.1307C173.686 64.911 173.966 64.8011 174.292 64.8011C174.622 64.8011 174.902 64.911 175.133 65.1307C175.368 65.3466 175.485 65.6098 175.485 65.9205C175.485 66.2273 175.368 66.4905 175.133 66.7102C174.902 66.9261 174.622 67.0341 174.292 67.0341ZM184.328 70.5795L182.453 70.7841C182.4 70.5947 182.307 70.4167 182.174 70.25C182.045 70.0833 181.871 69.9489 181.651 69.8466C181.432 69.7443 181.163 69.6932 180.845 69.6932C180.417 69.6932 180.057 69.786 179.765 69.9716C179.477 70.1572 179.335 70.3977 179.339 70.6932C179.335 70.947 179.428 71.1534 179.617 71.3125C179.811 71.4716 180.129 71.6023 180.572 71.7045L182.061 72.0227C182.886 72.2008 183.5 72.483 183.901 72.8693C184.307 73.2557 184.511 73.7614 184.515 74.3864C184.511 74.9356 184.35 75.4205 184.032 75.8409C183.718 76.2576 183.28 76.5833 182.72 76.8182C182.159 77.053 181.515 77.1705 180.788 77.1705C179.72 77.1705 178.86 76.947 178.208 76.5C177.557 76.0492 177.169 75.4223 177.044 74.6193L179.049 74.4261C179.14 74.8201 179.333 75.1174 179.629 75.3182C179.924 75.5189 180.309 75.6193 180.782 75.6193C181.271 75.6193 181.663 75.5189 181.958 75.3182C182.258 75.1174 182.407 74.8693 182.407 74.5739C182.407 74.3239 182.311 74.1174 182.117 73.9545C181.928 73.7917 181.633 73.6667 181.231 73.5795L179.742 73.267C178.905 73.0928 178.286 72.7992 177.884 72.3864C177.483 71.9697 177.284 71.4432 177.288 70.8068C177.284 70.2689 177.43 69.803 177.725 69.4091C178.025 69.0114 178.439 68.7045 178.97 68.4886C179.504 68.2689 180.119 68.1591 180.816 68.1591C181.839 68.1591 182.644 68.3769 183.231 68.8125C183.822 69.2481 184.187 69.8371 184.328 70.5795ZM188.268 71.8864V77H186.211V65.3636H188.222V69.7557H188.325C188.529 69.2633 188.846 68.875 189.274 68.5909C189.705 68.303 190.255 68.1591 190.921 68.1591C191.527 68.1591 192.056 68.286 192.507 68.5398C192.957 68.7936 193.306 69.1648 193.552 69.6534C193.802 70.142 193.927 70.7386 193.927 71.4432V77H191.87V71.7614C191.87 71.1742 191.719 70.7178 191.416 70.392C191.116 70.0625 190.696 69.8977 190.154 69.8977C189.791 69.8977 189.465 69.9773 189.177 70.1364C188.893 70.2917 188.669 70.517 188.507 70.8125C188.347 71.108 188.268 71.4659 188.268 71.8864Z"
    fill="#484848" />
  <path
    d="M82.1671 126.577C81.9417 125.741 81.6103 125.006 81.1728 124.369C80.7353 123.72 80.1983 123.17 79.562 122.719C78.9256 122.268 78.1964 121.93 77.3745 121.705C76.5525 121.466 75.651 121.347 74.6699 121.347C72.6945 121.347 70.9843 121.824 69.5392 122.778C68.1074 123.733 67.0004 125.125 66.2182 126.955C65.436 128.771 65.0449 130.978 65.0449 133.577C65.0449 136.188 65.4228 138.416 66.1784 140.259C66.9341 142.101 68.0279 143.507 69.4597 144.474C70.8915 145.442 72.6283 145.926 74.6699 145.926C76.473 145.926 77.9976 145.634 79.2438 145.051C80.5033 144.455 81.4578 143.613 82.1074 142.526C82.757 141.438 83.0819 140.159 83.0819 138.688L84.9114 138.906H75.008V131.727H92.5677V137.116C92.5677 140.762 91.7921 143.884 90.2409 146.483C88.7031 149.081 86.5819 151.077 83.8773 152.469C81.186 153.861 78.0904 154.557 74.5904 154.557C70.7059 154.557 67.2921 153.715 64.3489 152.031C61.4057 150.348 59.1122 147.948 57.4682 144.832C55.8243 141.704 55.0023 137.991 55.0023 133.696C55.0023 130.355 55.4995 127.392 56.4938 124.807C57.4881 122.208 58.8735 120.008 60.65 118.205C62.4398 116.402 64.508 115.036 66.8546 114.108C69.2144 113.18 71.7533 112.716 74.4711 112.716C76.8309 112.716 79.025 113.054 81.0534 113.73C83.0951 114.406 84.8981 115.361 86.4625 116.594C88.0402 117.827 89.3195 119.292 90.3006 120.989C91.2817 122.686 91.8915 124.548 92.1302 126.577H82.1671ZM112.628 154.577C109.42 154.577 106.662 153.92 104.355 152.608C102.062 151.282 100.292 149.439 99.0456 147.08C97.8127 144.706 97.1962 141.955 97.1962 138.827C97.1962 135.685 97.8127 132.934 99.0456 130.574C100.292 128.201 102.062 126.358 104.355 125.045C106.662 123.72 109.42 123.057 112.628 123.057C115.836 123.057 118.587 123.72 120.881 125.045C123.188 126.358 124.958 128.201 126.191 130.574C127.437 132.934 128.06 135.685 128.06 138.827C128.06 141.955 127.437 144.706 126.191 147.08C124.958 149.439 123.188 151.282 120.881 152.608C118.587 153.92 115.836 154.577 112.628 154.577ZM112.688 147.239C113.854 147.239 114.842 146.881 115.651 146.165C116.459 145.449 117.076 144.455 117.5 143.182C117.938 141.909 118.156 140.437 118.156 138.767C118.156 137.07 117.938 135.585 117.5 134.312C117.076 133.04 116.459 132.045 115.651 131.33C114.842 130.614 113.854 130.256 112.688 130.256C111.481 130.256 110.46 130.614 109.625 131.33C108.803 132.045 108.173 133.04 107.736 134.312C107.312 135.585 107.1 137.07 107.1 138.767C107.1 140.437 107.312 141.909 107.736 143.182C108.173 144.455 108.803 145.449 109.625 146.165C110.46 146.881 111.481 147.239 112.688 147.239ZM141.652 154.517C139.703 154.517 137.973 154.192 136.462 153.543C134.964 152.88 133.777 151.885 132.902 150.56C132.04 149.221 131.61 147.544 131.61 145.528C131.61 143.831 131.908 142.4 132.504 141.233C133.101 140.066 133.923 139.118 134.97 138.389C136.018 137.66 137.224 137.11 138.59 136.739C139.955 136.354 141.414 136.096 142.965 135.963C144.701 135.804 146.1 135.638 147.161 135.466C148.221 135.28 148.99 135.022 149.468 134.69C149.958 134.346 150.203 133.862 150.203 133.239V133.139C150.203 132.118 149.852 131.33 149.149 130.773C148.447 130.216 147.499 129.938 146.306 129.938C145.02 129.938 143.986 130.216 143.203 130.773C142.421 131.33 141.924 132.098 141.712 133.08L132.743 132.761C133.008 130.905 133.691 129.248 134.791 127.79C135.905 126.318 137.43 125.165 139.365 124.33C141.314 123.481 143.654 123.057 146.385 123.057C148.334 123.057 150.13 123.289 151.774 123.753C153.418 124.204 154.85 124.866 156.07 125.741C157.289 126.603 158.231 127.664 158.894 128.923C159.57 130.183 159.908 131.621 159.908 133.239V154H150.76V149.744H150.521C149.978 150.778 149.282 151.653 148.433 152.369C147.598 153.085 146.61 153.622 145.47 153.98C144.343 154.338 143.071 154.517 141.652 154.517ZM144.655 148.153C145.702 148.153 146.644 147.941 147.479 147.517C148.327 147.093 149.003 146.509 149.507 145.767C150.011 145.011 150.263 144.136 150.263 143.142V140.239C149.985 140.384 149.646 140.517 149.249 140.636C148.864 140.756 148.44 140.868 147.976 140.974C147.512 141.08 147.035 141.173 146.544 141.253C146.054 141.332 145.583 141.405 145.132 141.472C144.218 141.617 143.435 141.843 142.786 142.148C142.149 142.453 141.659 142.85 141.314 143.341C140.983 143.818 140.817 144.388 140.817 145.051C140.817 146.059 141.175 146.828 141.891 147.358C142.62 147.888 143.541 148.153 144.655 148.153ZM175.578 113.273V154H165.854V113.273H175.578Z"
    fill="#FF4747" />
  <rect x="95.0215" y="162" width="343" height="42" rx="14" fill="url(#paint1_linear_0_1)" />
  <path
    d="M109.177 190V178.364H113.541C114.435 178.364 115.185 178.53 115.791 178.864C116.401 179.197 116.861 179.655 117.171 180.239C117.486 180.818 117.643 181.477 117.643 182.216C117.643 182.962 117.486 183.625 117.171 184.205C116.857 184.784 116.393 185.241 115.779 185.574C115.166 185.903 114.41 186.068 113.512 186.068H110.62V184.335H113.228C113.751 184.335 114.179 184.244 114.512 184.062C114.846 183.881 115.092 183.631 115.251 183.312C115.414 182.994 115.495 182.629 115.495 182.216C115.495 181.803 115.414 181.439 115.251 181.125C115.092 180.811 114.844 180.566 114.507 180.392C114.173 180.214 113.743 180.125 113.217 180.125H111.285V190H109.177ZM119.383 190V181.273H121.377V182.727H121.468C121.627 182.223 121.9 181.835 122.286 181.562C122.677 181.286 123.122 181.148 123.622 181.148C123.735 181.148 123.862 181.153 124.002 181.165C124.146 181.172 124.266 181.186 124.36 181.205V183.097C124.273 183.066 124.135 183.04 123.945 183.017C123.76 182.991 123.58 182.977 123.406 182.977C123.031 182.977 122.694 183.059 122.394 183.222C122.099 183.381 121.866 183.602 121.695 183.886C121.525 184.17 121.44 184.498 121.44 184.869V190H119.383ZM128.082 190.176C127.529 190.176 127.031 190.078 126.588 189.881C126.148 189.68 125.8 189.384 125.542 188.994C125.288 188.604 125.161 188.123 125.161 187.551C125.161 187.059 125.252 186.652 125.434 186.33C125.616 186.008 125.864 185.75 126.178 185.557C126.493 185.364 126.847 185.218 127.241 185.119C127.639 185.017 128.05 184.943 128.474 184.898C128.985 184.845 129.4 184.797 129.718 184.756C130.036 184.71 130.267 184.642 130.411 184.551C130.559 184.456 130.633 184.311 130.633 184.114V184.08C130.633 183.652 130.506 183.32 130.252 183.085C129.999 182.85 129.633 182.733 129.156 182.733C128.652 182.733 128.252 182.843 127.957 183.062C127.665 183.282 127.468 183.542 127.366 183.841L125.445 183.568C125.597 183.038 125.847 182.595 126.195 182.239C126.544 181.879 126.97 181.61 127.474 181.432C127.978 181.25 128.535 181.159 129.144 181.159C129.565 181.159 129.983 181.208 130.4 181.307C130.817 181.405 131.197 181.568 131.542 181.795C131.887 182.019 132.163 182.324 132.372 182.71C132.584 183.097 132.69 183.58 132.69 184.159V190H130.713V188.801H130.644C130.519 189.044 130.343 189.271 130.116 189.483C129.892 189.691 129.61 189.86 129.269 189.989C128.932 190.114 128.536 190.176 128.082 190.176ZM128.616 188.665C129.029 188.665 129.387 188.583 129.69 188.42C129.993 188.254 130.226 188.034 130.389 187.761C130.555 187.489 130.639 187.191 130.639 186.869V185.841C130.574 185.894 130.464 185.943 130.309 185.989C130.158 186.034 129.987 186.074 129.798 186.108C129.608 186.142 129.421 186.172 129.235 186.199C129.05 186.225 128.889 186.248 128.752 186.267C128.445 186.309 128.171 186.377 127.928 186.472C127.686 186.566 127.495 186.699 127.355 186.869C127.214 187.036 127.144 187.252 127.144 187.517C127.144 187.896 127.283 188.182 127.559 188.375C127.836 188.568 128.188 188.665 128.616 188.665ZM138.565 190.17C137.694 190.17 136.945 189.979 136.32 189.597C135.699 189.214 135.22 188.686 134.883 188.011C134.55 187.333 134.383 186.553 134.383 185.67C134.383 184.784 134.553 184.002 134.894 183.324C135.235 182.642 135.716 182.112 136.338 181.733C136.963 181.35 137.701 181.159 138.553 181.159C139.262 181.159 139.889 181.29 140.434 181.551C140.983 181.809 141.421 182.174 141.747 182.648C142.072 183.117 142.258 183.667 142.303 184.295H140.338C140.258 183.875 140.069 183.525 139.769 183.244C139.474 182.96 139.078 182.818 138.582 182.818C138.161 182.818 137.792 182.932 137.474 183.159C137.156 183.383 136.908 183.705 136.73 184.125C136.555 184.545 136.468 185.049 136.468 185.636C136.468 186.231 136.555 186.742 136.73 187.17C136.904 187.595 137.148 187.922 137.463 188.153C137.781 188.381 138.154 188.494 138.582 188.494C138.885 188.494 139.156 188.437 139.394 188.324C139.637 188.206 139.839 188.038 140.002 187.818C140.165 187.598 140.277 187.331 140.338 187.017H142.303C142.254 187.634 142.072 188.182 141.758 188.659C141.444 189.133 141.016 189.504 140.474 189.773C139.932 190.038 139.296 190.17 138.565 190.17ZM148.35 181.273V182.864H143.333V181.273H148.35ZM144.572 179.182H146.629V187.375C146.629 187.652 146.67 187.864 146.754 188.011C146.841 188.155 146.954 188.254 147.095 188.307C147.235 188.36 147.39 188.386 147.561 188.386C147.689 188.386 147.807 188.377 147.913 188.358C148.023 188.339 148.106 188.322 148.163 188.307L148.509 189.915C148.4 189.953 148.242 189.994 148.038 190.04C147.837 190.085 147.591 190.112 147.299 190.119C146.784 190.134 146.32 190.057 145.907 189.886C145.494 189.712 145.167 189.443 144.924 189.08C144.686 188.716 144.568 188.261 144.572 187.716V179.182ZM150.07 190V181.273H152.127V190H150.07ZM151.105 180.034C150.779 180.034 150.499 179.926 150.264 179.71C150.029 179.491 149.911 179.227 149.911 178.92C149.911 178.61 150.029 178.347 150.264 178.131C150.499 177.911 150.779 177.801 151.105 177.801C151.434 177.801 151.714 177.911 151.945 178.131C152.18 178.347 152.298 178.61 152.298 178.92C152.298 179.227 152.18 179.491 151.945 179.71C151.714 179.926 151.434 180.034 151.105 180.034ZM158.049 190.17C157.178 190.17 156.43 189.979 155.805 189.597C155.184 189.214 154.704 188.686 154.367 188.011C154.034 187.333 153.867 186.553 153.867 185.67C153.867 184.784 154.038 184.002 154.379 183.324C154.72 182.642 155.201 182.112 155.822 181.733C156.447 181.35 157.186 181.159 158.038 181.159C158.746 181.159 159.373 181.29 159.919 181.551C160.468 181.809 160.905 182.174 161.231 182.648C161.557 183.117 161.742 183.667 161.788 184.295H159.822C159.742 183.875 159.553 183.525 159.254 183.244C158.958 182.96 158.562 182.818 158.066 182.818C157.646 182.818 157.276 182.932 156.958 183.159C156.64 183.383 156.392 183.705 156.214 184.125C156.04 184.545 155.953 185.049 155.953 185.636C155.953 186.231 156.04 186.742 156.214 187.17C156.388 187.595 156.633 187.922 156.947 188.153C157.265 188.381 157.638 188.494 158.066 188.494C158.369 188.494 158.64 188.437 158.879 188.324C159.121 188.206 159.324 188.038 159.487 187.818C159.65 187.598 159.761 187.331 159.822 187.017H161.788C161.739 187.634 161.557 188.182 161.242 188.659C160.928 189.133 160.5 189.504 159.958 189.773C159.417 190.038 158.78 190.17 158.049 190.17ZM167.34 190.17C166.465 190.17 165.71 189.989 165.073 189.625C164.441 189.258 163.954 188.739 163.613 188.068C163.272 187.394 163.102 186.6 163.102 185.688C163.102 184.79 163.272 184.002 163.613 183.324C163.958 182.642 164.439 182.112 165.056 181.733C165.674 181.35 166.399 181.159 167.232 181.159C167.77 181.159 168.278 181.246 168.755 181.42C169.236 181.591 169.66 181.856 170.028 182.216C170.399 182.576 170.691 183.034 170.903 183.591C171.115 184.144 171.221 184.803 171.221 185.568V186.199H164.068V184.812H169.249C169.246 184.419 169.16 184.068 168.994 183.761C168.827 183.451 168.594 183.206 168.295 183.028C167.999 182.85 167.655 182.761 167.261 182.761C166.84 182.761 166.471 182.864 166.153 183.068C165.835 183.269 165.587 183.534 165.409 183.864C165.234 184.189 165.145 184.547 165.142 184.938V186.148C165.142 186.655 165.234 187.091 165.42 187.455C165.606 187.814 165.865 188.091 166.198 188.284C166.532 188.473 166.922 188.568 167.369 188.568C167.668 188.568 167.939 188.527 168.181 188.443C168.424 188.356 168.634 188.229 168.812 188.062C168.99 187.896 169.124 187.689 169.215 187.443L171.136 187.659C171.015 188.167 170.784 188.61 170.443 188.989C170.106 189.364 169.674 189.655 169.147 189.864C168.621 190.068 168.018 190.17 167.34 190.17ZM183.345 181.562C183.292 181.066 183.068 180.68 182.674 180.403C182.284 180.127 181.776 179.989 181.151 179.989C180.712 179.989 180.335 180.055 180.021 180.188C179.706 180.32 179.466 180.5 179.299 180.727C179.133 180.955 179.047 181.214 179.044 181.506C179.044 181.748 179.098 181.958 179.208 182.136C179.322 182.314 179.475 182.466 179.669 182.591C179.862 182.712 180.076 182.814 180.311 182.898C180.545 182.981 180.782 183.051 181.021 183.108L182.112 183.381C182.551 183.483 182.973 183.621 183.379 183.795C183.788 183.97 184.153 184.189 184.475 184.455C184.801 184.72 185.059 185.04 185.248 185.415C185.437 185.79 185.532 186.229 185.532 186.733C185.532 187.415 185.358 188.015 185.009 188.534C184.661 189.049 184.157 189.453 183.498 189.744C182.843 190.032 182.049 190.176 181.117 190.176C180.212 190.176 179.426 190.036 178.759 189.756C178.097 189.475 177.578 189.066 177.203 188.528C176.831 187.991 176.631 187.335 176.6 186.562H178.674C178.704 186.968 178.829 187.305 179.049 187.574C179.269 187.843 179.555 188.044 179.907 188.176C180.263 188.309 180.661 188.375 181.1 188.375C181.559 188.375 181.96 188.307 182.305 188.17C182.653 188.03 182.926 187.837 183.123 187.591C183.32 187.341 183.42 187.049 183.424 186.716C183.42 186.413 183.331 186.163 183.157 185.966C182.983 185.765 182.739 185.598 182.424 185.466C182.114 185.33 181.75 185.208 181.333 185.102L180.009 184.761C179.051 184.515 178.294 184.142 177.737 183.642C177.184 183.138 176.907 182.47 176.907 181.636C176.907 180.951 177.093 180.35 177.464 179.835C177.839 179.32 178.348 178.92 178.992 178.636C179.636 178.348 180.365 178.205 181.18 178.205C182.006 178.205 182.729 178.348 183.35 178.636C183.975 178.92 184.466 179.316 184.822 179.824C185.178 180.328 185.362 180.907 185.373 181.562H183.345ZM187.32 193.273V181.273H189.343V182.716H189.463C189.569 182.504 189.718 182.278 189.911 182.04C190.105 181.797 190.366 181.591 190.695 181.42C191.025 181.246 191.445 181.159 191.957 181.159C192.631 181.159 193.239 181.331 193.781 181.676C194.326 182.017 194.758 182.523 195.076 183.193C195.398 183.86 195.559 184.678 195.559 185.648C195.559 186.606 195.402 187.42 195.088 188.091C194.773 188.761 194.345 189.273 193.803 189.625C193.262 189.977 192.648 190.153 191.963 190.153C191.463 190.153 191.048 190.07 190.718 189.903C190.389 189.737 190.124 189.536 189.923 189.301C189.726 189.062 189.572 188.837 189.463 188.625H189.377V193.273H187.32ZM189.338 185.636C189.338 186.201 189.417 186.695 189.576 187.119C189.739 187.544 189.972 187.875 190.275 188.114C190.582 188.348 190.953 188.466 191.389 188.466C191.843 188.466 192.224 188.345 192.531 188.102C192.838 187.856 193.069 187.521 193.224 187.097C193.383 186.669 193.463 186.182 193.463 185.636C193.463 185.095 193.385 184.614 193.23 184.193C193.074 183.773 192.843 183.443 192.536 183.205C192.23 182.966 191.847 182.847 191.389 182.847C190.949 182.847 190.576 182.962 190.269 183.193C189.963 183.424 189.73 183.748 189.57 184.165C189.415 184.581 189.338 185.072 189.338 185.636ZM199.832 190.176C199.279 190.176 198.781 190.078 198.338 189.881C197.898 189.68 197.55 189.384 197.292 188.994C197.038 188.604 196.911 188.123 196.911 187.551C196.911 187.059 197.002 186.652 197.184 186.33C197.366 186.008 197.614 185.75 197.928 185.557C198.243 185.364 198.597 185.218 198.991 185.119C199.389 185.017 199.8 184.943 200.224 184.898C200.735 184.845 201.15 184.797 201.468 184.756C201.786 184.71 202.017 184.642 202.161 184.551C202.309 184.456 202.383 184.311 202.383 184.114V184.08C202.383 183.652 202.256 183.32 202.002 183.085C201.749 182.85 201.383 182.733 200.906 182.733C200.402 182.733 200.002 182.843 199.707 183.062C199.415 183.282 199.218 183.542 199.116 183.841L197.195 183.568C197.347 183.038 197.597 182.595 197.945 182.239C198.294 181.879 198.72 181.61 199.224 181.432C199.728 181.25 200.285 181.159 200.894 181.159C201.315 181.159 201.733 181.208 202.15 181.307C202.567 181.405 202.947 181.568 203.292 181.795C203.637 182.019 203.913 182.324 204.122 182.71C204.334 183.097 204.44 183.58 204.44 184.159V190H202.463V188.801H202.394C202.269 189.044 202.093 189.271 201.866 189.483C201.642 189.691 201.36 189.86 201.019 189.989C200.682 190.114 200.286 190.176 199.832 190.176ZM200.366 188.665C200.779 188.665 201.137 188.583 201.44 188.42C201.743 188.254 201.976 188.034 202.139 187.761C202.305 187.489 202.389 187.191 202.389 186.869V185.841C202.324 185.894 202.214 185.943 202.059 185.989C201.908 186.034 201.737 186.074 201.548 186.108C201.358 186.142 201.171 186.172 200.985 186.199C200.8 186.225 200.639 186.248 200.502 186.267C200.195 186.309 199.921 186.377 199.678 186.472C199.436 186.566 199.245 186.699 199.105 186.869C198.964 187.036 198.894 187.252 198.894 187.517C198.894 187.896 199.033 188.182 199.309 188.375C199.586 188.568 199.938 188.665 200.366 188.665ZM208.565 184.886V190H206.508V181.273H208.474V182.756H208.576C208.777 182.267 209.097 181.879 209.536 181.591C209.98 181.303 210.527 181.159 211.178 181.159C211.781 181.159 212.305 181.288 212.752 181.545C213.203 181.803 213.552 182.176 213.798 182.665C214.048 183.153 214.171 183.746 214.167 184.443V190H212.11V184.761C212.11 184.178 211.959 183.722 211.656 183.392C211.356 183.062 210.942 182.898 210.411 182.898C210.052 182.898 209.731 182.977 209.451 183.136C209.175 183.292 208.957 183.517 208.798 183.812C208.642 184.108 208.565 184.466 208.565 184.886ZM216.258 190V181.273H218.315V190H216.258ZM217.292 180.034C216.966 180.034 216.686 179.926 216.451 179.71C216.216 179.491 216.099 179.227 216.099 178.92C216.099 178.61 216.216 178.347 216.451 178.131C216.686 177.911 216.966 177.801 217.292 177.801C217.622 177.801 217.902 177.911 218.133 178.131C218.368 178.347 218.485 178.61 218.485 178.92C218.485 179.227 218.368 179.491 218.133 179.71C217.902 179.926 217.622 180.034 217.292 180.034ZM227.328 183.58L225.453 183.784C225.4 183.595 225.307 183.417 225.174 183.25C225.045 183.083 224.871 182.949 224.651 182.847C224.432 182.744 224.163 182.693 223.845 182.693C223.417 182.693 223.057 182.786 222.765 182.972C222.477 183.157 222.335 183.398 222.339 183.693C222.335 183.947 222.428 184.153 222.617 184.312C222.811 184.472 223.129 184.602 223.572 184.705L225.061 185.023C225.886 185.201 226.5 185.483 226.901 185.869C227.307 186.256 227.511 186.761 227.515 187.386C227.511 187.936 227.35 188.42 227.032 188.841C226.718 189.258 226.28 189.583 225.72 189.818C225.159 190.053 224.515 190.17 223.788 190.17C222.72 190.17 221.86 189.947 221.208 189.5C220.557 189.049 220.169 188.422 220.044 187.619L222.049 187.426C222.14 187.82 222.333 188.117 222.629 188.318C222.924 188.519 223.309 188.619 223.782 188.619C224.271 188.619 224.663 188.519 224.958 188.318C225.258 188.117 225.407 187.869 225.407 187.574C225.407 187.324 225.311 187.117 225.117 186.955C224.928 186.792 224.633 186.667 224.231 186.58L222.742 186.267C221.905 186.093 221.286 185.799 220.884 185.386C220.483 184.97 220.284 184.443 220.288 183.807C220.284 183.269 220.43 182.803 220.725 182.409C221.025 182.011 221.439 181.705 221.97 181.489C222.504 181.269 223.119 181.159 223.816 181.159C224.839 181.159 225.644 181.377 226.231 181.812C226.822 182.248 227.187 182.837 227.328 183.58ZM231.268 184.886V190H229.211V178.364H231.222V182.756H231.325C231.529 182.263 231.846 181.875 232.274 181.591C232.705 181.303 233.255 181.159 233.921 181.159C234.527 181.159 235.056 181.286 235.507 181.54C235.957 181.794 236.306 182.165 236.552 182.653C236.802 183.142 236.927 183.739 236.927 184.443V190H234.87V184.761C234.87 184.174 234.719 183.718 234.416 183.392C234.116 183.062 233.696 182.898 233.154 182.898C232.791 182.898 232.465 182.977 232.177 183.136C231.893 183.292 231.669 183.517 231.507 183.812C231.347 184.108 231.268 184.466 231.268 184.886ZM250.788 181.273L247.68 190H245.407L242.299 181.273H244.492L246.498 187.756H246.589L248.6 181.273H250.788ZM255.721 190.17C254.869 190.17 254.13 189.983 253.505 189.608C252.88 189.233 252.395 188.708 252.051 188.034C251.71 187.36 251.539 186.572 251.539 185.67C251.539 184.769 251.71 183.979 252.051 183.301C252.395 182.623 252.88 182.097 253.505 181.722C254.13 181.347 254.869 181.159 255.721 181.159C256.573 181.159 257.312 181.347 257.937 181.722C258.562 182.097 259.045 182.623 259.386 183.301C259.731 183.979 259.903 184.769 259.903 185.67C259.903 186.572 259.731 187.36 259.386 188.034C259.045 188.708 258.562 189.233 257.937 189.608C257.312 189.983 256.573 190.17 255.721 190.17ZM255.732 188.523C256.195 188.523 256.581 188.396 256.892 188.142C257.202 187.884 257.433 187.54 257.585 187.108C257.74 186.676 257.818 186.195 257.818 185.665C257.818 185.131 257.74 184.648 257.585 184.216C257.433 183.78 257.202 183.434 256.892 183.176C256.581 182.919 256.195 182.79 255.732 182.79C255.259 182.79 254.865 182.919 254.551 183.176C254.24 183.434 254.007 183.78 253.852 184.216C253.7 184.648 253.624 185.131 253.624 185.665C253.624 186.195 253.7 186.676 253.852 187.108C254.007 187.54 254.24 187.884 254.551 188.142C254.865 188.396 255.259 188.523 255.732 188.523ZM265.455 190.17C264.584 190.17 263.836 189.979 263.211 189.597C262.59 189.214 262.111 188.686 261.774 188.011C261.44 187.333 261.274 186.553 261.274 185.67C261.274 184.784 261.444 184.002 261.785 183.324C262.126 182.642 262.607 182.112 263.228 181.733C263.853 181.35 264.592 181.159 265.444 181.159C266.152 181.159 266.779 181.29 267.325 181.551C267.874 181.809 268.311 182.174 268.637 182.648C268.963 183.117 269.149 183.667 269.194 184.295H267.228C267.149 183.875 266.959 183.525 266.66 183.244C266.365 182.96 265.969 182.818 265.472 182.818C265.052 182.818 264.683 182.932 264.365 183.159C264.046 183.383 263.798 183.705 263.62 184.125C263.446 184.545 263.359 185.049 263.359 185.636C263.359 186.231 263.446 186.742 263.62 187.17C263.794 187.595 264.039 187.922 264.353 188.153C264.671 188.381 265.044 188.494 265.472 188.494C265.776 188.494 266.046 188.437 266.285 188.324C266.527 188.206 266.73 188.038 266.893 187.818C267.056 187.598 267.168 187.331 267.228 187.017H269.194C269.145 187.634 268.963 188.182 268.649 188.659C268.334 189.133 267.906 189.504 267.365 189.773C266.823 190.038 266.186 190.17 265.455 190.17ZM273.394 190.176C272.841 190.176 272.343 190.078 271.9 189.881C271.461 189.68 271.112 189.384 270.855 188.994C270.601 188.604 270.474 188.123 270.474 187.551C270.474 187.059 270.565 186.652 270.747 186.33C270.928 186.008 271.177 185.75 271.491 185.557C271.805 185.364 272.16 185.218 272.553 185.119C272.951 185.017 273.362 184.943 273.786 184.898C274.298 184.845 274.713 184.797 275.031 184.756C275.349 184.71 275.58 184.642 275.724 184.551C275.872 184.456 275.945 184.311 275.945 184.114V184.08C275.945 183.652 275.819 183.32 275.565 183.085C275.311 182.85 274.945 182.733 274.468 182.733C273.964 182.733 273.565 182.843 273.269 183.062C272.978 183.282 272.781 183.542 272.678 183.841L270.758 183.568C270.91 183.038 271.16 182.595 271.508 182.239C271.856 181.879 272.283 181.61 272.786 181.432C273.29 181.25 273.847 181.159 274.457 181.159C274.877 181.159 275.296 181.208 275.713 181.307C276.129 181.405 276.51 181.568 276.855 181.795C277.199 182.019 277.476 182.324 277.684 182.71C277.896 183.097 278.002 183.58 278.002 184.159V190H276.025V188.801H275.957C275.832 189.044 275.656 189.271 275.428 189.483C275.205 189.691 274.923 189.86 274.582 189.989C274.245 190.114 273.849 190.176 273.394 190.176ZM273.928 188.665C274.341 188.665 274.699 188.583 275.002 188.42C275.305 188.254 275.538 188.034 275.701 187.761C275.868 187.489 275.951 187.191 275.951 186.869V185.841C275.887 185.894 275.777 185.943 275.622 185.989C275.47 186.034 275.3 186.074 275.11 186.108C274.921 186.142 274.733 186.172 274.548 186.199C274.362 186.225 274.201 186.248 274.065 186.267C273.758 186.309 273.483 186.377 273.241 186.472C272.999 186.566 272.807 186.699 272.667 186.869C272.527 187.036 272.457 187.252 272.457 187.517C272.457 187.896 272.595 188.182 272.872 188.375C273.148 188.568 273.5 188.665 273.928 188.665ZM280.161 190V178.364H282.218V182.716H282.303C282.41 182.504 282.559 182.278 282.752 182.04C282.945 181.797 283.207 181.591 283.536 181.42C283.866 181.246 284.286 181.159 284.798 181.159C285.472 181.159 286.08 181.331 286.622 181.676C287.167 182.017 287.599 182.523 287.917 183.193C288.239 183.86 288.4 184.678 288.4 185.648C288.4 186.606 288.243 187.42 287.928 188.091C287.614 188.761 287.186 189.273 286.644 189.625C286.103 189.977 285.489 190.153 284.803 190.153C284.303 190.153 283.889 190.07 283.559 189.903C283.23 189.737 282.964 189.536 282.764 189.301C282.567 189.062 282.413 188.837 282.303 188.625H282.184V190H280.161ZM282.178 185.636C282.178 186.201 282.258 186.695 282.417 187.119C282.58 187.544 282.813 187.875 283.116 188.114C283.423 188.348 283.794 188.466 284.23 188.466C284.684 188.466 285.065 188.345 285.372 188.102C285.678 187.856 285.91 187.521 286.065 187.097C286.224 186.669 286.303 186.182 286.303 185.636C286.303 185.095 286.226 184.614 286.07 184.193C285.915 183.773 285.684 183.443 285.377 183.205C285.07 182.966 284.688 182.847 284.23 182.847C283.79 182.847 283.417 182.962 283.11 183.193C282.803 183.424 282.57 183.748 282.411 184.165C282.256 184.581 282.178 185.072 282.178 185.636ZM295.711 186.33V181.273H297.768V190H295.774V188.449H295.683C295.486 188.937 295.162 189.337 294.711 189.648C294.264 189.958 293.713 190.114 293.058 190.114C292.486 190.114 291.98 189.987 291.541 189.733C291.105 189.475 290.764 189.102 290.518 188.614C290.272 188.121 290.149 187.527 290.149 186.83V181.273H292.205V186.511C292.205 187.064 292.357 187.504 292.66 187.83C292.963 188.155 293.361 188.318 293.853 188.318C294.156 188.318 294.45 188.244 294.734 188.097C295.018 187.949 295.251 187.729 295.433 187.438C295.618 187.142 295.711 186.773 295.711 186.33ZM301.94 178.364V190H299.883V178.364H301.94ZM306.566 190.176C306.013 190.176 305.515 190.078 305.072 189.881C304.633 189.68 304.284 189.384 304.026 188.994C303.773 188.604 303.646 188.123 303.646 187.551C303.646 187.059 303.737 186.652 303.919 186.33C304.1 186.008 304.348 185.75 304.663 185.557C304.977 185.364 305.331 185.218 305.725 185.119C306.123 185.017 306.534 184.943 306.958 184.898C307.47 184.845 307.884 184.797 308.203 184.756C308.521 184.71 308.752 184.642 308.896 184.551C309.044 184.456 309.117 184.311 309.117 184.114V184.08C309.117 183.652 308.99 183.32 308.737 183.085C308.483 182.85 308.117 182.733 307.64 182.733C307.136 182.733 306.737 182.843 306.441 183.062C306.15 183.282 305.953 183.542 305.85 183.841L303.93 183.568C304.081 183.038 304.331 182.595 304.68 182.239C305.028 181.879 305.454 181.61 305.958 181.432C306.462 181.25 307.019 181.159 307.629 181.159C308.049 181.159 308.468 181.208 308.884 181.307C309.301 181.405 309.682 181.568 310.026 181.795C310.371 182.019 310.648 182.324 310.856 182.71C311.068 183.097 311.174 183.58 311.174 184.159V190H309.197V188.801H309.129C309.004 189.044 308.828 189.271 308.6 189.483C308.377 189.691 308.095 189.86 307.754 189.989C307.417 190.114 307.021 190.176 306.566 190.176ZM307.1 188.665C307.513 188.665 307.871 188.583 308.174 188.42C308.477 188.254 308.71 188.034 308.873 187.761C309.04 187.489 309.123 187.191 309.123 186.869V185.841C309.059 185.894 308.949 185.943 308.794 185.989C308.642 186.034 308.472 186.074 308.282 186.108C308.093 186.142 307.905 186.172 307.72 186.199C307.534 186.225 307.373 186.248 307.237 186.267C306.93 186.309 306.655 186.377 306.413 186.472C306.17 186.566 305.979 186.699 305.839 186.869C305.699 187.036 305.629 187.252 305.629 187.517C305.629 187.896 305.767 188.182 306.044 188.375C306.32 188.568 306.672 188.665 307.1 188.665ZM313.242 190V181.273H315.237V182.727H315.328C315.487 182.223 315.759 181.835 316.146 181.562C316.536 181.286 316.981 181.148 317.481 181.148C317.595 181.148 317.722 181.153 317.862 181.165C318.006 181.172 318.125 181.186 318.22 181.205V183.097C318.133 183.066 317.994 183.04 317.805 183.017C317.619 182.991 317.439 182.977 317.265 182.977C316.89 182.977 316.553 183.059 316.254 183.222C315.958 183.381 315.725 183.602 315.555 183.886C315.384 184.17 315.299 184.498 315.299 184.869V190H313.242ZM321.13 193.273C320.85 193.273 320.59 193.25 320.352 193.205C320.117 193.163 319.929 193.114 319.789 193.057L320.267 191.455C320.566 191.542 320.833 191.583 321.068 191.58C321.302 191.576 321.509 191.502 321.687 191.358C321.869 191.218 322.022 190.983 322.147 190.653L322.323 190.182L319.159 181.273H321.34L323.352 187.864H323.443L325.46 181.273H327.647L324.153 191.057C323.99 191.519 323.774 191.915 323.505 192.244C323.236 192.578 322.907 192.831 322.517 193.006C322.13 193.184 321.668 193.273 321.13 193.273Z"
    fill="#484848" />
  <path
    d="M88.2637 230.267V222.273H122.687V230.267H110.338V263H100.633V230.267H88.2637ZM131.949 263.517C130 263.517 128.27 263.192 126.759 262.543C125.261 261.88 124.074 260.885 123.199 259.56C122.337 258.221 121.906 256.544 121.906 254.528C121.906 252.831 122.205 251.4 122.801 250.233C123.398 249.066 124.22 248.118 125.267 247.389C126.315 246.66 127.521 246.11 128.887 245.739C130.252 245.354 131.71 245.096 133.262 244.963C134.998 244.804 136.397 244.638 137.458 244.466C138.518 244.28 139.287 244.022 139.764 243.69C140.255 243.346 140.5 242.862 140.5 242.239V242.139C140.5 241.118 140.149 240.33 139.446 239.773C138.744 239.216 137.796 238.938 136.602 238.938C135.316 238.938 134.282 239.216 133.5 239.773C132.718 240.33 132.221 241.098 132.009 242.08L123.04 241.761C123.305 239.905 123.988 238.248 125.088 236.79C126.202 235.318 127.727 234.165 129.662 233.33C131.611 232.481 133.951 232.057 136.682 232.057C138.631 232.057 140.427 232.289 142.071 232.753C143.715 233.204 145.147 233.866 146.367 234.741C147.586 235.603 148.528 236.664 149.191 237.923C149.867 239.183 150.205 240.621 150.205 242.239V263H141.057V258.744H140.818C140.275 259.778 139.579 260.653 138.73 261.369C137.895 262.085 136.907 262.622 135.767 262.98C134.64 263.338 133.368 263.517 131.949 263.517ZM134.952 257.153C135.999 257.153 136.941 256.941 137.776 256.517C138.624 256.093 139.3 255.509 139.804 254.767C140.308 254.011 140.56 253.136 140.56 252.142V249.239C140.281 249.384 139.943 249.517 139.546 249.636C139.161 249.756 138.737 249.868 138.273 249.974C137.809 250.08 137.332 250.173 136.841 250.253C136.351 250.332 135.88 250.405 135.429 250.472C134.514 250.617 133.732 250.843 133.083 251.148C132.446 251.453 131.956 251.85 131.611 252.341C131.28 252.818 131.114 253.388 131.114 254.051C131.114 255.059 131.472 255.828 132.188 256.358C132.917 256.888 133.838 257.153 134.952 257.153ZM182.818 241.781L173.889 242.02C173.797 241.384 173.545 240.82 173.134 240.33C172.723 239.826 172.186 239.435 171.523 239.156C170.873 238.865 170.118 238.719 169.256 238.719C168.129 238.719 167.168 238.944 166.372 239.395C165.59 239.846 165.206 240.455 165.219 241.224C165.206 241.821 165.444 242.338 165.935 242.776C166.439 243.213 167.334 243.564 168.619 243.83L174.506 244.943C177.555 245.527 179.822 246.494 181.307 247.847C182.805 249.199 183.561 250.989 183.574 253.216C183.561 255.311 182.938 257.134 181.705 258.685C180.485 260.236 178.815 261.442 176.693 262.304C174.572 263.152 172.146 263.577 169.415 263.577C165.053 263.577 161.613 262.682 159.094 260.892C156.588 259.089 155.156 256.676 154.798 253.653L164.404 253.415C164.616 254.528 165.166 255.377 166.054 255.96C166.942 256.544 168.076 256.835 169.455 256.835C170.701 256.835 171.715 256.603 172.497 256.139C173.28 255.675 173.677 255.059 173.691 254.29C173.677 253.6 173.372 253.05 172.776 252.639C172.179 252.215 171.244 251.884 169.972 251.645L164.642 250.631C161.58 250.074 159.299 249.046 157.801 247.548C156.303 246.037 155.561 244.115 155.574 241.781C155.561 239.74 156.104 237.996 157.205 236.551C158.305 235.093 159.869 233.979 161.898 233.21C163.926 232.441 166.319 232.057 169.077 232.057C173.213 232.057 176.475 232.925 178.861 234.662C181.247 236.385 182.566 238.759 182.818 241.781ZM197.132 254.986L197.171 243.392H198.524L207.115 232.455H218.132L205.365 248.125H202.799L197.132 254.986ZM188.362 263V222.273H198.086V263H188.362ZM207.333 263L199.339 250.312L205.742 243.412L218.569 263H207.333Z"
    fill="#FF4747" />
  <rect x="128.021" y="270" width="343" height="42" rx="14" fill="url(#paint2_linear_0_1)" />
  <path
    d="M141.591 297V285.364H143.699V295.233H148.824V297H141.591ZM154.426 297.17C153.551 297.17 152.796 296.989 152.159 296.625C151.527 296.258 151.04 295.739 150.699 295.068C150.358 294.394 150.188 293.6 150.188 292.688C150.188 291.79 150.358 291.002 150.699 290.324C151.044 289.642 151.525 289.112 152.142 288.733C152.76 288.35 153.485 288.159 154.318 288.159C154.856 288.159 155.364 288.246 155.841 288.42C156.322 288.591 156.746 288.856 157.114 289.216C157.485 289.576 157.777 290.034 157.989 290.591C158.201 291.144 158.307 291.803 158.307 292.568V293.199H151.154V291.812H156.335C156.332 291.419 156.246 291.068 156.08 290.761C155.913 290.451 155.68 290.206 155.381 290.028C155.085 289.85 154.741 289.761 154.347 289.761C153.926 289.761 153.557 289.864 153.239 290.068C152.921 290.269 152.673 290.534 152.494 290.864C152.32 291.189 152.231 291.547 152.227 291.938V293.148C152.227 293.655 152.32 294.091 152.506 294.455C152.691 294.814 152.951 295.091 153.284 295.284C153.618 295.473 154.008 295.568 154.455 295.568C154.754 295.568 155.025 295.527 155.267 295.443C155.51 295.356 155.72 295.229 155.898 295.062C156.076 294.896 156.21 294.689 156.301 294.443L158.222 294.659C158.101 295.167 157.869 295.61 157.529 295.989C157.191 296.364 156.76 296.655 156.233 296.864C155.707 297.068 155.104 297.17 154.426 297.17ZM162.558 297.176C162.005 297.176 161.507 297.078 161.064 296.881C160.625 296.68 160.276 296.384 160.019 295.994C159.765 295.604 159.638 295.123 159.638 294.551C159.638 294.059 159.729 293.652 159.911 293.33C160.093 293.008 160.341 292.75 160.655 292.557C160.969 292.364 161.324 292.218 161.718 292.119C162.115 292.017 162.526 291.943 162.95 291.898C163.462 291.845 163.877 291.797 164.195 291.756C164.513 291.71 164.744 291.642 164.888 291.551C165.036 291.456 165.11 291.311 165.11 291.114V291.08C165.11 290.652 164.983 290.32 164.729 290.085C164.475 289.85 164.11 289.733 163.632 289.733C163.128 289.733 162.729 289.843 162.433 290.062C162.142 290.282 161.945 290.542 161.843 290.841L159.922 290.568C160.074 290.038 160.324 289.595 160.672 289.239C161.021 288.879 161.447 288.61 161.95 288.432C162.454 288.25 163.011 288.159 163.621 288.159C164.041 288.159 164.46 288.208 164.877 288.307C165.293 288.405 165.674 288.568 166.019 288.795C166.363 289.019 166.64 289.324 166.848 289.71C167.06 290.097 167.166 290.58 167.166 291.159V297H165.189V295.801H165.121C164.996 296.044 164.82 296.271 164.593 296.483C164.369 296.691 164.087 296.86 163.746 296.989C163.409 297.114 163.013 297.176 162.558 297.176ZM163.093 295.665C163.505 295.665 163.863 295.583 164.166 295.42C164.469 295.254 164.702 295.034 164.865 294.761C165.032 294.489 165.115 294.191 165.115 293.869V292.841C165.051 292.894 164.941 292.943 164.786 292.989C164.634 293.034 164.464 293.074 164.274 293.108C164.085 293.142 163.897 293.172 163.712 293.199C163.526 293.225 163.365 293.248 163.229 293.267C162.922 293.309 162.647 293.377 162.405 293.472C162.163 293.566 161.971 293.699 161.831 293.869C161.691 294.036 161.621 294.252 161.621 294.517C161.621 294.896 161.759 295.182 162.036 295.375C162.312 295.568 162.664 295.665 163.093 295.665ZM169.235 297V288.273H171.229V289.727H171.32C171.479 289.223 171.752 288.835 172.138 288.562C172.528 288.286 172.973 288.148 173.473 288.148C173.587 288.148 173.714 288.153 173.854 288.165C173.998 288.172 174.117 288.186 174.212 288.205V290.097C174.125 290.066 173.986 290.04 173.797 290.017C173.611 289.991 173.432 289.977 173.257 289.977C172.882 289.977 172.545 290.059 172.246 290.222C171.95 290.381 171.718 290.602 171.547 290.886C171.377 291.17 171.291 291.498 171.291 291.869V297H169.235ZM177.635 291.886V297H175.578V288.273H177.544V289.756H177.646C177.847 289.267 178.167 288.879 178.607 288.591C179.05 288.303 179.597 288.159 180.249 288.159C180.851 288.159 181.376 288.288 181.823 288.545C182.273 288.803 182.622 289.176 182.868 289.665C183.118 290.153 183.241 290.746 183.237 291.443V297H181.181V291.761C181.181 291.178 181.029 290.722 180.726 290.392C180.427 290.062 180.012 289.898 179.482 289.898C179.122 289.898 178.802 289.977 178.521 290.136C178.245 290.292 178.027 290.517 177.868 290.812C177.713 291.108 177.635 291.466 177.635 291.886ZM193.104 297.17C192.233 297.17 191.485 296.979 190.86 296.597C190.238 296.214 189.759 295.686 189.422 295.011C189.089 294.333 188.922 293.553 188.922 292.67C188.922 291.784 189.093 291.002 189.433 290.324C189.774 289.642 190.255 289.112 190.877 288.733C191.502 288.35 192.24 288.159 193.093 288.159C193.801 288.159 194.428 288.29 194.973 288.551C195.522 288.809 195.96 289.174 196.286 289.648C196.611 290.117 196.797 290.667 196.843 291.295H194.877C194.797 290.875 194.608 290.525 194.308 290.244C194.013 289.96 193.617 289.818 193.121 289.818C192.7 289.818 192.331 289.932 192.013 290.159C191.695 290.383 191.447 290.705 191.269 291.125C191.094 291.545 191.007 292.049 191.007 292.636C191.007 293.231 191.094 293.742 191.269 294.17C191.443 294.595 191.687 294.922 192.002 295.153C192.32 295.381 192.693 295.494 193.121 295.494C193.424 295.494 193.695 295.437 193.933 295.324C194.176 295.206 194.378 295.038 194.541 294.818C194.704 294.598 194.816 294.331 194.877 294.017H196.843C196.793 294.634 196.611 295.182 196.297 295.659C195.983 296.133 195.555 296.504 195.013 296.773C194.471 297.038 193.835 297.17 193.104 297.17ZM202.338 297.17C201.486 297.17 200.747 296.983 200.122 296.608C199.497 296.233 199.012 295.708 198.668 295.034C198.327 294.36 198.156 293.572 198.156 292.67C198.156 291.769 198.327 290.979 198.668 290.301C199.012 289.623 199.497 289.097 200.122 288.722C200.747 288.347 201.486 288.159 202.338 288.159C203.191 288.159 203.929 288.347 204.554 288.722C205.179 289.097 205.662 289.623 206.003 290.301C206.348 290.979 206.52 291.769 206.52 292.67C206.52 293.572 206.348 294.36 206.003 295.034C205.662 295.708 205.179 296.233 204.554 296.608C203.929 296.983 203.191 297.17 202.338 297.17ZM202.35 295.523C202.812 295.523 203.198 295.396 203.509 295.142C203.819 294.884 204.05 294.54 204.202 294.108C204.357 293.676 204.435 293.195 204.435 292.665C204.435 292.131 204.357 291.648 204.202 291.216C204.05 290.78 203.819 290.434 203.509 290.176C203.198 289.919 202.812 289.79 202.35 289.79C201.876 289.79 201.482 289.919 201.168 290.176C200.857 290.434 200.624 290.78 200.469 291.216C200.317 291.648 200.242 292.131 200.242 292.665C200.242 293.195 200.317 293.676 200.469 294.108C200.624 294.54 200.857 294.884 201.168 295.142C201.482 295.396 201.876 295.523 202.35 295.523ZM208.266 297V288.273H210.232V289.756H210.334C210.516 289.256 210.817 288.866 211.237 288.585C211.658 288.301 212.16 288.159 212.743 288.159C213.334 288.159 213.832 288.303 214.237 288.591C214.646 288.875 214.934 289.263 215.101 289.756H215.192C215.385 289.271 215.711 288.884 216.169 288.597C216.631 288.305 217.179 288.159 217.811 288.159C218.614 288.159 219.27 288.413 219.777 288.92C220.285 289.428 220.539 290.169 220.539 291.142V297H218.476V291.46C218.476 290.919 218.332 290.523 218.044 290.273C217.756 290.019 217.404 289.892 216.987 289.892C216.491 289.892 216.103 290.047 215.823 290.358C215.546 290.665 215.408 291.064 215.408 291.557V297H213.391V291.375C213.391 290.924 213.254 290.564 212.982 290.295C212.713 290.027 212.36 289.892 211.925 289.892C211.629 289.892 211.36 289.968 211.118 290.119C210.876 290.267 210.682 290.477 210.539 290.75C210.395 291.019 210.323 291.333 210.323 291.693V297H208.266ZM222.625 297V288.273H224.591V289.756H224.693C224.875 289.256 225.176 288.866 225.597 288.585C226.017 288.301 226.519 288.159 227.102 288.159C227.693 288.159 228.191 288.303 228.597 288.591C229.006 288.875 229.294 289.263 229.46 289.756H229.551C229.744 289.271 230.07 288.884 230.529 288.597C230.991 288.305 231.538 288.159 232.171 288.159C232.974 288.159 233.629 288.413 234.137 288.92C234.644 289.428 234.898 290.169 234.898 291.142V297H232.835V291.46C232.835 290.919 232.691 290.523 232.404 290.273C232.116 290.019 231.763 289.892 231.347 289.892C230.851 289.892 230.462 290.047 230.182 290.358C229.905 290.665 229.767 291.064 229.767 291.557V297H227.75V291.375C227.75 290.924 227.614 290.564 227.341 290.295C227.072 290.027 226.72 289.892 226.284 289.892C225.989 289.892 225.72 289.968 225.477 290.119C225.235 290.267 225.042 290.477 224.898 290.75C224.754 291.019 224.682 291.333 224.682 291.693V297H222.625ZM240.791 297.17C239.939 297.17 239.2 296.983 238.575 296.608C237.95 296.233 237.466 295.708 237.121 295.034C236.78 294.36 236.61 293.572 236.61 292.67C236.61 291.769 236.78 290.979 237.121 290.301C237.466 289.623 237.95 289.097 238.575 288.722C239.2 288.347 239.939 288.159 240.791 288.159C241.644 288.159 242.382 288.347 243.007 288.722C243.632 289.097 244.115 289.623 244.456 290.301C244.801 290.979 244.973 291.769 244.973 292.67C244.973 293.572 244.801 294.36 244.456 295.034C244.115 295.708 243.632 296.233 243.007 296.608C242.382 296.983 241.644 297.17 240.791 297.17ZM240.803 295.523C241.265 295.523 241.651 295.396 241.962 295.142C242.272 294.884 242.503 294.54 242.655 294.108C242.81 293.676 242.888 293.195 242.888 292.665C242.888 292.131 242.81 291.648 242.655 291.216C242.503 290.78 242.272 290.434 241.962 290.176C241.651 289.919 241.265 289.79 240.803 289.79C240.329 289.79 239.935 289.919 239.621 290.176C239.31 290.434 239.077 290.78 238.922 291.216C238.771 291.648 238.695 292.131 238.695 292.665C238.695 293.195 238.771 293.676 238.922 294.108C239.077 294.54 239.31 294.884 239.621 295.142C239.935 295.396 240.329 295.523 240.803 295.523ZM248.776 291.886V297H246.719V288.273H248.685V289.756H248.787C248.988 289.267 249.308 288.879 249.747 288.591C250.191 288.303 250.738 288.159 251.389 288.159C251.992 288.159 252.516 288.288 252.963 288.545C253.414 288.803 253.762 289.176 254.009 289.665C254.259 290.153 254.382 290.746 254.378 291.443V297H252.321V291.761C252.321 291.178 252.17 290.722 251.867 290.392C251.567 290.062 251.153 289.898 250.622 289.898C250.262 289.898 249.942 289.977 249.662 290.136C249.386 290.292 249.168 290.517 249.009 290.812C248.853 291.108 248.776 291.466 248.776 291.886ZM266.852 288.562C266.799 288.066 266.576 287.68 266.182 287.403C265.792 287.127 265.284 286.989 264.659 286.989C264.22 286.989 263.843 287.055 263.529 287.188C263.214 287.32 262.974 287.5 262.807 287.727C262.64 287.955 262.555 288.214 262.551 288.506C262.551 288.748 262.606 288.958 262.716 289.136C262.83 289.314 262.983 289.466 263.176 289.591C263.369 289.712 263.584 289.814 263.818 289.898C264.053 289.981 264.29 290.051 264.529 290.108L265.619 290.381C266.059 290.483 266.481 290.621 266.887 290.795C267.296 290.97 267.661 291.189 267.983 291.455C268.309 291.72 268.566 292.04 268.756 292.415C268.945 292.79 269.04 293.229 269.04 293.733C269.04 294.415 268.866 295.015 268.517 295.534C268.169 296.049 267.665 296.453 267.006 296.744C266.351 297.032 265.557 297.176 264.625 297.176C263.72 297.176 262.934 297.036 262.267 296.756C261.604 296.475 261.085 296.066 260.71 295.528C260.339 294.991 260.138 294.335 260.108 293.562H262.182C262.212 293.968 262.337 294.305 262.557 294.574C262.777 294.843 263.063 295.044 263.415 295.176C263.771 295.309 264.169 295.375 264.608 295.375C265.066 295.375 265.468 295.307 265.813 295.17C266.161 295.03 266.434 294.837 266.631 294.591C266.828 294.341 266.928 294.049 266.932 293.716C266.928 293.413 266.839 293.163 266.665 292.966C266.491 292.765 266.246 292.598 265.932 292.466C265.621 292.33 265.258 292.208 264.841 292.102L263.517 291.761C262.559 291.515 261.801 291.142 261.244 290.642C260.691 290.138 260.415 289.47 260.415 288.636C260.415 287.951 260.601 287.35 260.972 286.835C261.347 286.32 261.856 285.92 262.5 285.636C263.144 285.348 263.873 285.205 264.688 285.205C265.513 285.205 266.237 285.348 266.858 285.636C267.483 285.92 267.974 286.316 268.33 286.824C268.686 287.328 268.869 287.907 268.881 288.562H266.852ZM270.828 300.273V288.273H272.851V289.716H272.97C273.076 289.504 273.226 289.278 273.419 289.04C273.612 288.797 273.874 288.591 274.203 288.42C274.533 288.246 274.953 288.159 275.465 288.159C276.139 288.159 276.747 288.331 277.289 288.676C277.834 289.017 278.266 289.523 278.584 290.193C278.906 290.86 279.067 291.678 279.067 292.648C279.067 293.606 278.91 294.42 278.595 295.091C278.281 295.761 277.853 296.273 277.311 296.625C276.77 296.977 276.156 297.153 275.47 297.153C274.97 297.153 274.556 297.07 274.226 296.903C273.896 296.737 273.631 296.536 273.431 296.301C273.234 296.062 273.08 295.837 272.97 295.625H272.885V300.273H270.828ZM272.845 292.636C272.845 293.201 272.925 293.695 273.084 294.119C273.247 294.544 273.48 294.875 273.783 295.114C274.09 295.348 274.461 295.466 274.896 295.466C275.351 295.466 275.732 295.345 276.039 295.102C276.345 294.856 276.576 294.521 276.732 294.097C276.891 293.669 276.97 293.182 276.97 292.636C276.97 292.095 276.893 291.614 276.737 291.193C276.582 290.773 276.351 290.443 276.044 290.205C275.737 289.966 275.355 289.847 274.896 289.847C274.457 289.847 274.084 289.962 273.777 290.193C273.47 290.424 273.237 290.748 273.078 291.165C272.923 291.581 272.845 292.072 272.845 292.636ZM283.34 297.176C282.787 297.176 282.289 297.078 281.845 296.881C281.406 296.68 281.057 296.384 280.8 295.994C280.546 295.604 280.419 295.123 280.419 294.551C280.419 294.059 280.51 293.652 280.692 293.33C280.874 293.008 281.122 292.75 281.436 292.557C281.751 292.364 282.105 292.218 282.499 292.119C282.896 292.017 283.307 291.943 283.732 291.898C284.243 291.845 284.658 291.797 284.976 291.756C285.294 291.71 285.525 291.642 285.669 291.551C285.817 291.456 285.891 291.311 285.891 291.114V291.08C285.891 290.652 285.764 290.32 285.51 290.085C285.256 289.85 284.891 289.733 284.414 289.733C283.91 289.733 283.51 289.843 283.215 290.062C282.923 290.282 282.726 290.542 282.624 290.841L280.703 290.568C280.855 290.038 281.105 289.595 281.453 289.239C281.802 288.879 282.228 288.61 282.732 288.432C283.235 288.25 283.792 288.159 284.402 288.159C284.823 288.159 285.241 288.208 285.658 288.307C286.075 288.405 286.455 288.568 286.8 288.795C287.145 289.019 287.421 289.324 287.629 289.71C287.842 290.097 287.948 290.58 287.948 291.159V297H285.97V295.801H285.902C285.777 296.044 285.601 296.271 285.374 296.483C285.15 296.691 284.868 296.86 284.527 296.989C284.19 297.114 283.794 297.176 283.34 297.176ZM283.874 295.665C284.287 295.665 284.645 295.583 284.948 295.42C285.251 295.254 285.484 295.034 285.646 294.761C285.813 294.489 285.896 294.191 285.896 293.869V292.841C285.832 292.894 285.722 292.943 285.567 292.989C285.415 293.034 285.245 293.074 285.056 293.108C284.866 293.142 284.679 293.172 284.493 293.199C284.307 293.225 284.146 293.248 284.01 293.267C283.703 293.309 283.429 293.377 283.186 293.472C282.944 293.566 282.753 293.699 282.612 293.869C282.472 294.036 282.402 294.252 282.402 294.517C282.402 294.896 282.54 295.182 282.817 295.375C283.093 295.568 283.446 295.665 283.874 295.665ZM292.073 291.886V297H290.016V288.273H291.982V289.756H292.084C292.285 289.267 292.605 288.879 293.044 288.591C293.487 288.303 294.035 288.159 294.686 288.159C295.289 288.159 295.813 288.288 296.26 288.545C296.711 288.803 297.059 289.176 297.306 289.665C297.556 290.153 297.679 290.746 297.675 291.443V297H295.618V291.761C295.618 291.178 295.467 290.722 295.164 290.392C294.864 290.062 294.45 289.898 293.919 289.898C293.559 289.898 293.239 289.977 292.959 290.136C292.682 290.292 292.465 290.517 292.306 290.812C292.15 291.108 292.073 291.466 292.073 291.886ZM299.766 297V288.273H301.823V297H299.766ZM300.8 287.034C300.474 287.034 300.194 286.926 299.959 286.71C299.724 286.491 299.607 286.227 299.607 285.92C299.607 285.61 299.724 285.347 299.959 285.131C300.194 284.911 300.474 284.801 300.8 284.801C301.129 284.801 301.41 284.911 301.641 285.131C301.876 285.347 301.993 285.61 301.993 285.92C301.993 286.227 301.876 286.491 301.641 286.71C301.41 286.926 301.129 287.034 300.8 287.034ZM310.835 290.58L308.96 290.784C308.907 290.595 308.815 290.417 308.682 290.25C308.553 290.083 308.379 289.949 308.159 289.847C307.94 289.744 307.671 289.693 307.352 289.693C306.924 289.693 306.565 289.786 306.273 289.972C305.985 290.157 305.843 290.398 305.847 290.693C305.843 290.947 305.936 291.153 306.125 291.312C306.318 291.472 306.637 291.602 307.08 291.705L308.568 292.023C309.394 292.201 310.008 292.483 310.409 292.869C310.815 293.256 311.019 293.761 311.023 294.386C311.019 294.936 310.858 295.42 310.54 295.841C310.226 296.258 309.788 296.583 309.227 296.818C308.667 297.053 308.023 297.17 307.296 297.17C306.227 297.17 305.368 296.947 304.716 296.5C304.065 296.049 303.676 295.422 303.551 294.619L305.557 294.426C305.648 294.82 305.841 295.117 306.137 295.318C306.432 295.519 306.816 295.619 307.29 295.619C307.779 295.619 308.171 295.519 308.466 295.318C308.765 295.117 308.915 294.869 308.915 294.574C308.915 294.324 308.818 294.117 308.625 293.955C308.436 293.792 308.14 293.667 307.739 293.58L306.25 293.267C305.413 293.093 304.794 292.799 304.392 292.386C303.991 291.97 303.792 291.443 303.796 290.807C303.792 290.269 303.938 289.803 304.233 289.409C304.532 289.011 304.947 288.705 305.477 288.489C306.012 288.269 306.627 288.159 307.324 288.159C308.347 288.159 309.152 288.377 309.739 288.812C310.33 289.248 310.695 289.837 310.835 290.58ZM314.776 291.886V297H312.719V285.364H314.73V289.756H314.833C315.037 289.263 315.353 288.875 315.781 288.591C316.213 288.303 316.762 288.159 317.429 288.159C318.035 288.159 318.564 288.286 319.014 288.54C319.465 288.794 319.814 289.165 320.06 289.653C320.31 290.142 320.435 290.739 320.435 291.443V297H318.378V291.761C318.378 291.174 318.227 290.718 317.923 290.392C317.624 290.062 317.204 289.898 316.662 289.898C316.298 289.898 315.973 289.977 315.685 290.136C315.401 290.292 315.177 290.517 315.014 290.812C314.855 291.108 314.776 291.466 314.776 291.886ZM330.296 300.455C329.557 300.455 328.923 300.354 328.392 300.153C327.862 299.956 327.436 299.691 327.114 299.358C326.792 299.025 326.568 298.655 326.443 298.25L328.296 297.801C328.379 297.972 328.5 298.14 328.659 298.307C328.818 298.477 329.032 298.617 329.301 298.727C329.574 298.841 329.917 298.898 330.33 298.898C330.913 298.898 331.396 298.756 331.779 298.472C332.161 298.191 332.352 297.729 332.352 297.085V295.432H332.25C332.144 295.644 331.989 295.862 331.784 296.085C331.584 296.309 331.316 296.496 330.983 296.648C330.654 296.799 330.239 296.875 329.739 296.875C329.068 296.875 328.46 296.718 327.915 296.403C327.373 296.085 326.941 295.612 326.619 294.983C326.301 294.35 326.142 293.559 326.142 292.608C326.142 291.65 326.301 290.841 326.619 290.182C326.941 289.519 327.375 289.017 327.921 288.676C328.466 288.331 329.074 288.159 329.744 288.159C330.256 288.159 330.676 288.246 331.006 288.42C331.339 288.591 331.604 288.797 331.801 289.04C331.998 289.278 332.148 289.504 332.25 289.716H332.364V288.273H334.392V297.142C334.392 297.888 334.214 298.506 333.858 298.994C333.502 299.483 333.015 299.848 332.398 300.091C331.78 300.333 331.08 300.455 330.296 300.455ZM330.313 295.261C330.748 295.261 331.119 295.155 331.426 294.943C331.733 294.731 331.966 294.426 332.125 294.028C332.284 293.631 332.364 293.153 332.364 292.597C332.364 292.047 332.284 291.566 332.125 291.153C331.97 290.741 331.739 290.42 331.432 290.193C331.129 289.962 330.756 289.847 330.313 289.847C329.854 289.847 329.472 289.966 329.165 290.205C328.858 290.443 328.627 290.771 328.472 291.188C328.316 291.6 328.239 292.07 328.239 292.597C328.239 293.131 328.316 293.598 328.472 294C328.631 294.398 328.864 294.708 329.171 294.932C329.481 295.152 329.862 295.261 330.313 295.261ZM336.5 297V288.273H338.494V289.727H338.585C338.744 289.223 339.017 288.835 339.404 288.562C339.794 288.286 340.239 288.148 340.739 288.148C340.852 288.148 340.979 288.153 341.119 288.165C341.263 288.172 341.383 288.186 341.477 288.205V290.097C341.39 290.066 341.252 290.04 341.063 290.017C340.877 289.991 340.697 289.977 340.523 289.977C340.148 289.977 339.811 290.059 339.512 290.222C339.216 290.381 338.983 290.602 338.813 290.886C338.642 291.17 338.557 291.498 338.557 291.869V297H336.5ZM346.348 297.17C345.473 297.17 344.718 296.989 344.081 296.625C343.449 296.258 342.962 295.739 342.621 295.068C342.28 294.394 342.11 293.6 342.11 292.688C342.11 291.79 342.28 291.002 342.621 290.324C342.966 289.642 343.447 289.112 344.064 288.733C344.682 288.35 345.407 288.159 346.24 288.159C346.778 288.159 347.286 288.246 347.763 288.42C348.244 288.591 348.668 288.856 349.036 289.216C349.407 289.576 349.699 290.034 349.911 290.591C350.123 291.144 350.229 291.803 350.229 292.568V293.199H343.075V291.812H348.257C348.253 291.419 348.168 291.068 348.002 290.761C347.835 290.451 347.602 290.206 347.303 290.028C347.007 289.85 346.663 289.761 346.269 289.761C345.848 289.761 345.479 289.864 345.161 290.068C344.843 290.269 344.594 290.534 344.416 290.864C344.242 291.189 344.153 291.547 344.149 291.938V293.148C344.149 293.655 344.242 294.091 344.428 294.455C344.613 294.814 344.873 295.091 345.206 295.284C345.539 295.473 345.93 295.568 346.377 295.568C346.676 295.568 346.947 295.527 347.189 295.443C347.432 295.356 347.642 295.229 347.82 295.062C347.998 294.896 348.132 294.689 348.223 294.443L350.144 294.659C350.022 295.167 349.791 295.61 349.45 295.989C349.113 296.364 348.682 296.655 348.155 296.864C347.628 297.068 347.026 297.17 346.348 297.17ZM355.833 297.17C354.958 297.17 354.202 296.989 353.566 296.625C352.933 296.258 352.446 295.739 352.105 295.068C351.764 294.394 351.594 293.6 351.594 292.688C351.594 291.79 351.764 291.002 352.105 290.324C352.45 289.642 352.931 289.112 353.548 288.733C354.166 288.35 354.891 288.159 355.725 288.159C356.262 288.159 356.77 288.246 357.247 288.42C357.728 288.591 358.153 288.856 358.52 289.216C358.891 289.576 359.183 290.034 359.395 290.591C359.607 291.144 359.713 291.803 359.713 292.568V293.199H352.56V291.812H357.742C357.738 291.419 357.653 291.068 357.486 290.761C357.319 290.451 357.086 290.206 356.787 290.028C356.492 289.85 356.147 289.761 355.753 289.761C355.333 289.761 354.963 289.864 354.645 290.068C354.327 290.269 354.079 290.534 353.901 290.864C353.727 291.189 353.637 291.547 353.634 291.938V293.148C353.634 293.655 353.727 294.091 353.912 294.455C354.098 294.814 354.357 295.091 354.691 295.284C355.024 295.473 355.414 295.568 355.861 295.568C356.16 295.568 356.431 295.527 356.673 295.443C356.916 295.356 357.126 295.229 357.304 295.062C357.482 294.896 357.617 294.689 357.708 294.443L359.628 294.659C359.507 295.167 359.276 295.61 358.935 295.989C358.598 296.364 358.166 296.655 357.639 296.864C357.113 297.068 356.511 297.17 355.833 297.17ZM365.811 288.273V289.864H360.794V288.273H365.811ZM362.033 286.182H364.09V294.375C364.09 294.652 364.131 294.864 364.215 295.011C364.302 295.155 364.415 295.254 364.556 295.307C364.696 295.36 364.851 295.386 365.021 295.386C365.15 295.386 365.268 295.377 365.374 295.358C365.484 295.339 365.567 295.322 365.624 295.307L365.97 296.915C365.86 296.953 365.703 296.994 365.499 297.04C365.298 297.085 365.052 297.112 364.76 297.119C364.245 297.134 363.781 297.057 363.368 296.886C362.955 296.712 362.628 296.443 362.385 296.08C362.146 295.716 362.029 295.261 362.033 294.716V286.182ZM367.531 297V288.273H369.588V297H367.531ZM368.566 287.034C368.24 287.034 367.959 286.926 367.725 286.71C367.49 286.491 367.372 286.227 367.372 285.92C367.372 285.61 367.49 285.347 367.725 285.131C367.959 284.911 368.24 284.801 368.566 284.801C368.895 284.801 369.175 284.911 369.406 285.131C369.641 285.347 369.759 285.61 369.759 285.92C369.759 286.227 369.641 286.491 369.406 286.71C369.175 286.926 368.895 287.034 368.566 287.034ZM373.76 291.886V297H371.703V288.273H373.669V289.756H373.771C373.972 289.267 374.292 288.879 374.732 288.591C375.175 288.303 375.722 288.159 376.374 288.159C376.976 288.159 377.501 288.288 377.948 288.545C378.398 288.803 378.747 289.176 378.993 289.665C379.243 290.153 379.366 290.746 379.362 291.443V297H377.306V291.761C377.306 291.178 377.154 290.722 376.851 290.392C376.552 290.062 376.137 289.898 375.607 289.898C375.247 289.898 374.927 289.977 374.646 290.136C374.37 290.292 374.152 290.517 373.993 290.812C373.838 291.108 373.76 291.466 373.76 291.886ZM385.249 300.455C384.51 300.455 383.876 300.354 383.345 300.153C382.815 299.956 382.389 299.691 382.067 299.358C381.745 299.025 381.521 298.655 381.396 298.25L383.249 297.801C383.332 297.972 383.453 298.14 383.612 298.307C383.771 298.477 383.985 298.617 384.254 298.727C384.527 298.841 384.87 298.898 385.283 298.898C385.866 298.898 386.349 298.756 386.732 298.472C387.114 298.191 387.306 297.729 387.306 297.085V295.432H387.203C387.097 295.644 386.942 295.862 386.737 296.085C386.537 296.309 386.27 296.496 385.936 296.648C385.607 296.799 385.192 296.875 384.692 296.875C384.021 296.875 383.414 296.718 382.868 296.403C382.326 296.085 381.895 295.612 381.573 294.983C381.254 294.35 381.095 293.559 381.095 292.608C381.095 291.65 381.254 290.841 381.573 290.182C381.895 289.519 382.328 289.017 382.874 288.676C383.419 288.331 384.027 288.159 384.698 288.159C385.209 288.159 385.629 288.246 385.959 288.42C386.292 288.591 386.557 288.797 386.754 289.04C386.951 289.278 387.101 289.504 387.203 289.716H387.317V288.273H389.345V297.142C389.345 297.888 389.167 298.506 388.811 298.994C388.455 299.483 387.968 299.848 387.351 300.091C386.734 300.333 386.033 300.455 385.249 300.455ZM385.266 295.261C385.701 295.261 386.073 295.155 386.379 294.943C386.686 294.731 386.919 294.426 387.078 294.028C387.237 293.631 387.317 293.153 387.317 292.597C387.317 292.047 387.237 291.566 387.078 291.153C386.923 290.741 386.692 290.42 386.385 290.193C386.082 289.962 385.709 289.847 385.266 289.847C384.807 289.847 384.425 289.966 384.118 290.205C383.811 290.443 383.58 290.771 383.425 291.188C383.27 291.6 383.192 292.07 383.192 292.597C383.192 293.131 383.27 293.598 383.425 294C383.584 294.398 383.817 294.708 384.124 294.932C384.434 295.152 384.815 295.261 385.266 295.261ZM395.422 300.273V288.273H397.445V289.716H397.564C397.67 289.504 397.82 289.278 398.013 289.04C398.206 288.797 398.468 288.591 398.797 288.42C399.127 288.246 399.547 288.159 400.058 288.159C400.733 288.159 401.341 288.331 401.882 288.676C402.428 289.017 402.86 289.523 403.178 290.193C403.5 290.86 403.661 291.678 403.661 292.648C403.661 293.606 403.503 294.42 403.189 295.091C402.875 295.761 402.447 296.273 401.905 296.625C401.363 296.977 400.75 297.153 400.064 297.153C399.564 297.153 399.149 297.07 398.82 296.903C398.49 296.737 398.225 296.536 398.024 296.301C397.827 296.062 397.674 295.837 397.564 295.625H397.479V300.273H395.422ZM397.439 292.636C397.439 293.201 397.519 293.695 397.678 294.119C397.841 294.544 398.074 294.875 398.377 295.114C398.683 295.348 399.055 295.466 399.49 295.466C399.945 295.466 400.325 295.345 400.632 295.102C400.939 294.856 401.17 294.521 401.325 294.097C401.485 293.669 401.564 293.182 401.564 292.636C401.564 292.095 401.486 291.614 401.331 291.193C401.176 290.773 400.945 290.443 400.638 290.205C400.331 289.966 399.949 289.847 399.49 289.847C399.051 289.847 398.678 289.962 398.371 290.193C398.064 290.424 397.831 290.748 397.672 291.165C397.517 291.581 397.439 292.072 397.439 292.636ZM407.479 291.886V297H405.422V285.364H407.433V289.756H407.536C407.74 289.263 408.057 288.875 408.485 288.591C408.916 288.303 409.466 288.159 410.132 288.159C410.738 288.159 411.267 288.286 411.718 288.54C412.168 288.794 412.517 289.165 412.763 289.653C413.013 290.142 413.138 290.739 413.138 291.443V297H411.081V291.761C411.081 291.174 410.93 290.718 410.627 290.392C410.327 290.062 409.907 289.898 409.365 289.898C409.002 289.898 408.676 289.977 408.388 290.136C408.104 290.292 407.88 290.517 407.718 290.812C407.558 291.108 407.479 291.466 407.479 291.886ZM415.235 297V288.273H417.229V289.727H417.32C417.479 289.223 417.752 288.835 418.138 288.562C418.528 288.286 418.973 288.148 419.473 288.148C419.587 288.148 419.714 288.153 419.854 288.165C419.998 288.172 420.117 288.186 420.212 288.205V290.097C420.125 290.066 419.986 290.04 419.797 290.017C419.611 289.991 419.432 289.977 419.257 289.977C418.882 289.977 418.545 290.059 418.246 290.222C417.95 290.381 417.718 290.602 417.547 290.886C417.377 291.17 417.291 291.498 417.291 291.869V297H415.235ZM423.933 297.176C423.38 297.176 422.882 297.078 422.439 296.881C422 296.68 421.651 296.384 421.394 295.994C421.14 295.604 421.013 295.123 421.013 294.551C421.013 294.059 421.104 293.652 421.286 293.33C421.468 293.008 421.716 292.75 422.03 292.557C422.344 292.364 422.699 292.218 423.093 292.119C423.49 292.017 423.901 291.943 424.325 291.898C424.837 291.845 425.252 291.797 425.57 291.756C425.888 291.71 426.119 291.642 426.263 291.551C426.411 291.456 426.485 291.311 426.485 291.114V291.08C426.485 290.652 426.358 290.32 426.104 290.085C425.85 289.85 425.485 289.733 425.007 289.733C424.503 289.733 424.104 289.843 423.808 290.062C423.517 290.282 423.32 290.542 423.218 290.841L421.297 290.568C421.449 290.038 421.699 289.595 422.047 289.239C422.396 288.879 422.822 288.61 423.325 288.432C423.829 288.25 424.386 288.159 424.996 288.159C425.416 288.159 425.835 288.208 426.252 288.307C426.668 288.405 427.049 288.568 427.394 288.795C427.738 289.019 428.015 289.324 428.223 289.71C428.435 290.097 428.541 290.58 428.541 291.159V297H426.564V295.801H426.496C426.371 296.044 426.195 296.271 425.968 296.483C425.744 296.691 425.462 296.86 425.121 296.989C424.784 297.114 424.388 297.176 423.933 297.176ZM424.468 295.665C424.88 295.665 425.238 295.583 425.541 295.42C425.844 295.254 426.077 295.034 426.24 294.761C426.407 294.489 426.49 294.191 426.49 293.869V292.841C426.426 292.894 426.316 292.943 426.161 292.989C426.009 293.034 425.839 293.074 425.649 293.108C425.46 293.142 425.272 293.172 425.087 293.199C424.901 293.225 424.74 293.248 424.604 293.267C424.297 293.309 424.022 293.377 423.78 293.472C423.538 293.566 423.346 293.699 423.206 293.869C423.066 294.036 422.996 294.252 422.996 294.517C422.996 294.896 423.134 295.182 423.411 295.375C423.687 295.568 424.039 295.665 424.468 295.665ZM437.507 290.58L435.632 290.784C435.579 290.595 435.486 290.417 435.354 290.25C435.225 290.083 435.051 289.949 434.831 289.847C434.611 289.744 434.343 289.693 434.024 289.693C433.596 289.693 433.236 289.786 432.945 289.972C432.657 290.157 432.515 290.398 432.519 290.693C432.515 290.947 432.608 291.153 432.797 291.312C432.99 291.472 433.308 291.602 433.752 291.705L435.24 292.023C436.066 292.201 436.68 292.483 437.081 292.869C437.486 293.256 437.691 293.761 437.695 294.386C437.691 294.936 437.53 295.42 437.212 295.841C436.897 296.258 436.46 296.583 435.899 296.818C435.339 297.053 434.695 297.17 433.968 297.17C432.899 297.17 432.039 296.947 431.388 296.5C430.736 296.049 430.348 295.422 430.223 294.619L432.229 294.426C432.32 294.82 432.513 295.117 432.808 295.318C433.104 295.519 433.488 295.619 433.962 295.619C434.45 295.619 434.843 295.519 435.138 295.318C435.437 295.117 435.587 294.869 435.587 294.574C435.587 294.324 435.49 294.117 435.297 293.955C435.108 293.792 434.812 293.667 434.411 293.58L432.922 293.267C432.085 293.093 431.466 292.799 431.064 292.386C430.663 291.97 430.464 291.443 430.468 290.807C430.464 290.269 430.61 289.803 430.905 289.409C431.204 289.011 431.619 288.705 432.149 288.489C432.683 288.269 433.299 288.159 433.996 288.159C435.019 288.159 435.824 288.377 436.411 288.812C437.002 289.248 437.367 289.837 437.507 290.58ZM443.254 297.17C442.379 297.17 441.624 296.989 440.987 296.625C440.355 296.258 439.868 295.739 439.527 295.068C439.186 294.394 439.016 293.6 439.016 292.688C439.016 291.79 439.186 291.002 439.527 290.324C439.872 289.642 440.353 289.112 440.97 288.733C441.588 288.35 442.313 288.159 443.146 288.159C443.684 288.159 444.192 288.246 444.669 288.42C445.15 288.591 445.575 288.856 445.942 289.216C446.313 289.576 446.605 290.034 446.817 290.591C447.029 291.144 447.135 291.803 447.135 292.568V293.199H439.982V291.812H445.164C445.16 291.419 445.075 291.068 444.908 290.761C444.741 290.451 444.508 290.206 444.209 290.028C443.914 289.85 443.569 289.761 443.175 289.761C442.754 289.761 442.385 289.864 442.067 290.068C441.749 290.269 441.501 290.534 441.323 290.864C441.148 291.189 441.059 291.547 441.056 291.938V293.148C441.056 293.655 441.148 294.091 441.334 294.455C441.52 294.814 441.779 295.091 442.112 295.284C442.446 295.473 442.836 295.568 443.283 295.568C443.582 295.568 443.853 295.527 444.095 295.443C444.338 295.356 444.548 295.229 444.726 295.062C444.904 294.896 445.039 294.689 445.129 294.443L447.05 294.659C446.929 295.167 446.698 295.61 446.357 295.989C446.02 296.364 445.588 296.655 445.061 296.864C444.535 297.068 443.932 297.17 443.254 297.17ZM455.773 290.58L453.898 290.784C453.845 290.595 453.752 290.417 453.619 290.25C453.491 290.083 453.316 289.949 453.097 289.847C452.877 289.744 452.608 289.693 452.29 289.693C451.862 289.693 451.502 289.786 451.21 289.972C450.923 290.157 450.78 290.398 450.784 290.693C450.78 290.947 450.873 291.153 451.063 291.312C451.256 291.472 451.574 291.602 452.017 291.705L453.506 292.023C454.332 292.201 454.945 292.483 455.347 292.869C455.752 293.256 455.957 293.761 455.96 294.386C455.957 294.936 455.796 295.42 455.477 295.841C455.163 296.258 454.726 296.583 454.165 296.818C453.604 297.053 452.96 297.17 452.233 297.17C451.165 297.17 450.305 296.947 449.654 296.5C449.002 296.049 448.614 295.422 448.489 294.619L450.494 294.426C450.585 294.82 450.779 295.117 451.074 295.318C451.369 295.519 451.754 295.619 452.227 295.619C452.716 295.619 453.108 295.519 453.404 295.318C453.703 295.117 453.852 294.869 453.852 294.574C453.852 294.324 453.756 294.117 453.563 293.955C453.373 293.792 453.078 293.667 452.676 293.58L451.188 293.267C450.351 293.093 449.731 292.799 449.33 292.386C448.928 291.97 448.729 291.443 448.733 290.807C448.729 290.269 448.875 289.803 449.171 289.409C449.47 289.011 449.885 288.705 450.415 288.489C450.949 288.269 451.565 288.159 452.262 288.159C453.284 288.159 454.089 288.377 454.676 288.812C455.267 289.248 455.633 289.837 455.773 290.58Z"
    fill="#484848" />
  <path
    d="M2.75238 81.6838L4.22034 81.3754L4.22034 81.3754L2.75238 81.6838ZM45.6325 122.801C46.3447 122.377 46.5788 121.457 46.1555 120.745L39.2578 109.14C38.8345 108.428 37.9141 108.194 37.202 108.617C36.4898 109.04 36.2557 109.961 36.6789 110.673L42.8103 120.988L32.4949 127.119C31.7828 127.543 31.5486 128.463 31.9719 129.175C32.3952 129.887 33.3156 130.122 34.0277 129.698L45.6325 122.801ZM21.6553 33.1963C20.7959 31.9669 20.7952 31.9674 20.7945 31.9679C20.7941 31.9681 20.7932 31.9687 20.7925 31.9693C20.7909 31.9703 20.789 31.9717 20.7867 31.9733C20.7822 31.9765 20.7761 31.9808 20.7684 31.9862C20.7532 31.997 20.732 32.0122 20.705 32.0317C20.651 32.0707 20.5738 32.127 20.4752 32.2005C20.2781 32.3475 19.9953 32.5634 19.6408 32.847C18.9321 33.4142 17.9359 34.2531 16.7652 35.3549C14.4257 37.5566 11.3773 40.8192 8.53405 45.0725C2.8397 53.5906 -2.04966 66.1197 1.28442 81.9921L4.22034 81.3754C1.09373 66.4907 5.65581 54.7761 11.0281 46.7397C13.7181 42.7157 16.6068 39.6235 18.8212 37.5396C19.9273 36.4986 20.8621 35.712 21.5153 35.1894C21.8417 34.9281 22.0975 34.7331 22.2688 34.6053C22.3544 34.5415 22.4189 34.4945 22.4604 34.4645C22.4812 34.4495 22.4963 34.4387 22.5054 34.4323C22.5099 34.429 22.513 34.4269 22.5146 34.4258C22.5154 34.4252 22.5158 34.4249 22.5158 34.4249C22.5158 34.4249 22.5155 34.4251 22.5155 34.4251C22.5151 34.4254 22.5147 34.4257 21.6553 33.1963ZM1.28442 81.9921C4.63046 97.9215 15.5279 108.173 25.4336 114.401C30.3948 117.521 35.1444 119.656 38.6536 121.012C40.4097 121.691 41.8593 122.176 42.8748 122.493C43.3826 122.652 43.7823 122.768 44.0577 122.846C44.1955 122.884 44.3022 122.913 44.376 122.933C44.4128 122.943 44.4415 122.951 44.4616 122.956C44.4717 122.958 44.4796 122.961 44.4854 122.962C44.4883 122.963 44.4907 122.963 44.4925 122.964C44.4934 122.964 44.4943 122.964 44.4948 122.964C44.4956 122.965 44.4963 122.965 44.8661 121.511C45.2359 120.057 45.2363 120.058 45.2366 120.058C45.2365 120.058 45.2367 120.058 45.2365 120.058C45.2361 120.057 45.2352 120.057 45.2338 120.057C45.231 120.056 45.226 120.055 45.2189 120.053C45.2047 120.049 45.1821 120.043 45.1513 120.035C45.0897 120.019 44.9955 119.993 44.8705 119.958C44.6206 119.887 44.2479 119.779 43.7683 119.629C42.8087 119.33 41.4225 118.866 39.7351 118.214C36.3575 116.909 31.7901 114.854 27.0304 111.862C17.4944 105.866 7.33499 96.2032 4.22034 81.3754L1.28442 81.9921Z"
    fill="#FF4747" />
  <path
    d="M31.4154 201.266L29.9925 201.741L31.4154 201.266ZM80.9189 236.344C81.5622 235.822 81.6606 234.877 81.1386 234.234L72.6324 223.751C72.1104 223.108 71.1658 223.009 70.5225 223.531C69.8792 224.053 69.7808 224.998 70.3028 225.641L77.8639 234.959L68.5456 242.52C67.9023 243.042 67.8039 243.987 68.3259 244.63C68.8479 245.274 69.7925 245.372 70.4358 244.85L80.9189 236.344ZM46.4136 150C45.4383 148.86 45.4377 148.861 45.437 148.861C45.4367 148.862 45.4359 148.862 45.4352 148.863C45.4337 148.864 45.4319 148.866 45.4298 148.868C45.4254 148.871 45.4196 148.876 45.4122 148.883C45.3976 148.896 45.377 148.913 45.3508 148.937C45.2984 148.983 45.2233 149.05 45.1274 149.137C44.9355 149.311 44.6602 149.566 44.3162 149.899C43.6285 150.566 42.6649 151.545 41.544 152.812C39.3042 155.345 36.4238 159.04 33.8601 163.699C28.7289 173.024 24.8348 186.281 29.9925 201.741L32.8383 200.792C28.0221 186.355 31.627 173.98 36.4884 165.145C38.9211 160.725 41.6603 157.209 43.7911 154.8C44.8554 153.597 45.7649 152.673 46.4038 152.054C46.7232 151.744 46.9747 151.511 47.1438 151.358C47.2283 151.281 47.2922 151.224 47.3337 151.188C47.3544 151.17 47.3695 151.156 47.3788 151.148C47.3834 151.144 47.3866 151.142 47.3883 151.14C47.3891 151.139 47.3896 151.139 47.3897 151.139C47.3897 151.139 47.3895 151.139 47.3896 151.139C47.3893 151.139 47.3889 151.14 46.4136 150ZM29.9925 201.741C35.17 217.26 47.7519 225.984 58.8361 230.809C64.3916 233.227 69.6218 234.689 73.4618 235.548C75.3835 235.978 76.9618 236.257 78.0644 236.43C78.6158 236.516 79.0486 236.576 79.3464 236.614C79.4953 236.634 79.6104 236.647 79.6898 236.657C79.7295 236.661 79.7602 236.665 79.7817 236.667C79.7925 236.668 79.801 236.669 79.8071 236.67C79.8102 236.67 79.8126 236.67 79.8145 236.671C79.8155 236.671 79.8165 236.671 79.8169 236.671C79.8178 236.671 79.8185 236.671 79.9738 235.179C80.1291 233.687 80.1295 233.687 80.1297 233.687C80.1296 233.687 80.1297 233.687 80.1295 233.687C80.1291 233.687 80.128 233.687 80.1264 233.687C80.1232 233.686 80.1177 233.686 80.1098 233.685C80.0942 233.683 80.0694 233.681 80.0358 233.677C79.9686 233.669 79.8658 233.656 79.7297 233.639C79.4574 233.604 79.0515 233.548 78.5284 233.466C77.4819 233.302 75.9678 233.034 74.1164 232.62C70.4102 231.792 65.3709 230.381 60.0334 228.058C49.332 223.4 37.6346 215.168 32.8383 200.792L29.9925 201.741Z"
    fill="#FF4747" />
  <defs>
    <linearGradient id="paint0_linear_0_1" x1="241.521" y1="49" x2="241.521" y2="91" gradientUnits="userSpaceOnUse">
      <stop stop-color="#EDEDED" />
      <stop offset="1" stop-color="#BEBEBE" />
    </linearGradient>
    <linearGradient id="paint1_linear_0_1" x1="266.521" y1="162" x2="266.521" y2="204" gradientUnits="userSpaceOnUse">
      <stop stop-color="#EDEDED" />
      <stop offset="1" stop-color="#BEBEBE" />
    </linearGradient>
    <linearGradient id="paint2_linear_0_1" x1="299.521" y1="270" x2="299.521" y2="312" gradientUnits="userSpaceOnUse">
      <stop stop-color="#EDEDED" />
      <stop offset="1" stop-color="#BEBEBE" />
    </linearGradient>
  </defs>
</svg>