<svg width="369" height="61" viewBox="0 0 369 61" fill="none" xmlns="http://www.w3.org/2000/svg">
  <path
    d="M328.754 14.7273V22H327.216V16.1868H327.173L325.508 17.2308V15.8672L327.308 14.7273H328.754ZM333.138 22.0994C332.636 22.0994 332.189 22.0071 331.796 21.8224C331.405 21.6378 331.095 21.3833 330.866 21.0589C330.636 20.7346 330.516 20.3629 330.507 19.9439H331.998C332.015 20.2256 332.133 20.4541 332.354 20.6293C332.574 20.8045 332.835 20.892 333.138 20.892C333.38 20.892 333.593 20.8388 333.778 20.7322C333.965 20.6233 334.11 20.473 334.214 20.2812C334.321 20.0871 334.374 19.8646 334.374 19.6136C334.374 19.358 334.32 19.133 334.211 18.9389C334.104 18.7448 333.956 18.5933 333.767 18.4844C333.577 18.3755 333.361 18.3198 333.117 18.3175C332.904 18.3175 332.697 18.3613 332.496 18.4489C332.297 18.5365 332.142 18.656 332.03 18.8075L330.663 18.5625L331.008 14.7273H335.454V15.9844H332.275L332.087 17.8061H332.13C332.258 17.6262 332.451 17.477 332.709 17.3587C332.967 17.2403 333.256 17.1811 333.575 17.1811C334.013 17.1811 334.404 17.2841 334.747 17.4901C335.09 17.696 335.361 17.9789 335.56 18.3388C335.759 18.6963 335.857 19.1082 335.855 19.5746C335.857 20.0646 335.744 20.5002 335.514 20.8814C335.287 21.2602 334.968 21.5585 334.559 21.7763C334.152 21.9917 333.678 22.0994 333.138 22.0994ZM336.942 22V16.5455H338.383V17.5078H338.447C338.561 17.1882 338.75 16.9361 339.015 16.7514C339.281 16.5668 339.598 16.4744 339.967 16.4744C340.341 16.4744 340.66 16.5679 340.922 16.755C341.185 16.9396 341.36 17.1906 341.448 17.5078H341.505C341.616 17.1953 341.817 16.9455 342.108 16.7585C342.402 16.5691 342.749 16.4744 343.149 16.4744C343.658 16.4744 344.071 16.6366 344.388 16.9609C344.708 17.2829 344.868 17.7398 344.868 18.3317V22H343.358V18.63C343.358 18.3269 343.278 18.0997 343.117 17.9482C342.956 17.7966 342.755 17.7209 342.513 17.7209C342.239 17.7209 342.024 17.8085 341.871 17.9837C341.717 18.1565 341.64 18.3849 341.64 18.669V22H340.173V18.598C340.173 18.3305 340.096 18.1174 339.942 17.9588C339.791 17.8002 339.591 17.7209 339.342 17.7209C339.174 17.7209 339.023 17.7635 338.888 17.8487C338.755 17.9316 338.65 18.0488 338.572 18.2003C338.493 18.3494 338.454 18.5246 338.454 18.7259V22H336.942ZM346.063 22V16.5455H347.575V22H346.063ZM346.823 15.8423C346.598 15.8423 346.405 15.7678 346.244 15.6186C346.085 15.4671 346.006 15.286 346.006 15.0753C346.006 14.867 346.085 14.6882 346.244 14.5391C346.405 14.3875 346.598 14.3118 346.823 14.3118C347.048 14.3118 347.239 14.3875 347.398 14.5391C347.559 14.6882 347.639 14.867 347.639 15.0753C347.639 15.286 347.559 15.4671 347.398 15.6186C347.239 15.7678 347.048 15.8423 346.823 15.8423ZM350.3 18.8466V22H348.787V16.5455H350.229V17.5078H350.293C350.414 17.1906 350.616 16.9396 350.9 16.755C351.184 16.5679 351.529 16.4744 351.934 16.4744C352.312 16.4744 352.643 16.5573 352.924 16.723C353.206 16.8887 353.425 17.1255 353.581 17.4332C353.738 17.7386 353.816 18.1032 353.816 18.527V22H352.303V18.7969C352.305 18.4631 352.22 18.2027 352.047 18.0156C351.874 17.8262 351.636 17.7315 351.333 17.7315C351.13 17.7315 350.95 17.7753 350.794 17.8629C350.64 17.9505 350.519 18.0784 350.431 18.2464C350.346 18.4122 350.302 18.6122 350.3 18.8466Z"
    fill="#898989" />
  <path
    d="M313.799 8V0.727273H314.896V7.0554H318.192V8H313.799ZM321.656 8.11009C321.145 8.11009 320.698 7.9929 320.317 7.75852C319.936 7.52415 319.64 7.19626 319.429 6.77486C319.219 6.35346 319.113 5.86103 319.113 5.29759C319.113 4.73177 319.219 4.23698 319.429 3.81321C319.64 3.38944 319.936 3.06037 320.317 2.82599C320.698 2.59162 321.145 2.47443 321.656 2.47443C322.167 2.47443 322.614 2.59162 322.995 2.82599C323.376 3.06037 323.672 3.38944 323.882 3.81321C324.093 4.23698 324.199 4.73177 324.199 5.29759C324.199 5.86103 324.093 6.35346 323.882 6.77486C323.672 7.19626 323.376 7.52415 322.995 7.75852C322.614 7.9929 322.167 8.11009 321.656 8.11009ZM321.659 7.21875C321.991 7.21875 322.266 7.13116 322.483 6.95597C322.701 6.78078 322.862 6.54759 322.966 6.25639C323.073 5.9652 323.126 5.64441 323.126 5.29403C323.126 4.94602 323.073 4.62642 322.966 4.33523C322.862 4.04167 322.701 3.80611 322.483 3.62855C322.266 3.45099 321.991 3.36222 321.659 3.36222C321.326 3.36222 321.049 3.45099 320.828 3.62855C320.611 3.80611 320.449 4.04167 320.342 4.33523C320.238 4.62642 320.186 4.94602 320.186 5.29403C320.186 5.64441 320.238 5.9652 320.342 6.25639C320.449 6.54759 320.611 6.78078 320.828 6.95597C321.049 7.13116 321.326 7.21875 321.659 7.21875ZM326.445 4.76136V8H325.384V2.54545H326.403V3.43324H326.47C326.596 3.14441 326.792 2.91241 327.06 2.73722C327.33 2.56203 327.669 2.47443 328.079 2.47443C328.451 2.47443 328.776 2.55256 329.056 2.70881C329.335 2.86269 329.552 3.09233 329.705 3.39773C329.859 3.70312 329.936 4.08073 329.936 4.53054V8H328.874V4.65838C328.874 4.26302 328.771 3.95407 328.566 3.73153C328.36 3.50663 328.077 3.39418 327.717 3.39418C327.471 3.39418 327.252 3.44744 327.06 3.55398C326.87 3.66051 326.72 3.81676 326.609 4.02273C326.5 4.22633 326.445 4.47254 326.445 4.76136ZM333.647 10.1591C333.214 10.1591 332.841 10.1023 332.529 9.98864C332.218 9.875 331.965 9.72467 331.769 9.53764C331.572 9.35062 331.425 9.14583 331.328 8.9233L332.241 8.54688C332.305 8.65104 332.39 8.76113 332.497 8.87713C332.606 8.9955 332.752 9.09612 332.937 9.17898C333.124 9.26184 333.364 9.30327 333.658 9.30327C334.06 9.30327 334.393 9.20502 334.656 9.00852C334.919 8.81439 335.05 8.50426 335.05 8.07812V7.00568H334.982C334.919 7.12169 334.826 7.25071 334.705 7.39276C334.587 7.5348 334.424 7.65791 334.215 7.76207C334.007 7.86624 333.736 7.91832 333.402 7.91832C332.971 7.91832 332.583 7.81771 332.237 7.61648C331.894 7.41288 331.622 7.1134 331.421 6.71804C331.222 6.32031 331.122 5.83144 331.122 5.25142C331.122 4.6714 331.221 4.17424 331.417 3.75994C331.616 3.34564 331.888 3.02841 332.234 2.80824C332.579 2.5857 332.971 2.47443 333.409 2.47443C333.748 2.47443 334.021 2.53125 334.23 2.64489C334.438 2.75616 334.6 2.88636 334.716 3.03551C334.834 3.18466 334.926 3.31605 334.99 3.42969H335.068V2.54545H336.108V8.12074C336.108 8.58949 335.999 8.9742 335.781 9.27486C335.564 9.57552 335.269 9.79806 334.897 9.94247C334.528 10.0869 334.111 10.1591 333.647 10.1591ZM333.637 7.03764C333.942 7.03764 334.2 6.96662 334.411 6.82457C334.624 6.68016 334.785 6.4742 334.894 6.20668C335.005 5.93679 335.061 5.61364 335.061 5.23722C335.061 4.87027 335.006 4.54711 334.897 4.26776C334.788 3.9884 334.628 3.7706 334.418 3.61435C334.207 3.45573 333.947 3.37642 333.637 3.37642C333.317 3.37642 333.051 3.45928 332.838 3.625C332.624 3.78835 332.463 4.01089 332.355 4.29261C332.248 4.57434 332.195 4.8892 332.195 5.23722C332.195 5.5947 332.249 5.90838 332.358 6.17827C332.467 6.44815 332.628 6.65885 332.841 6.81037C333.057 6.96188 333.322 7.03764 333.637 7.03764ZM340.264 8V0.727273H341.326V3.42969H341.39C341.451 3.31605 341.54 3.18466 341.656 3.03551C341.772 2.88636 341.933 2.75616 342.139 2.64489C342.345 2.53125 342.617 2.47443 342.956 2.47443C343.396 2.47443 343.789 2.5857 344.135 2.80824C344.48 3.03078 344.751 3.35156 344.948 3.7706C345.147 4.18963 345.246 4.69389 345.246 5.28338C345.246 5.87287 345.148 6.37831 344.951 6.79972C344.755 7.21875 344.485 7.5419 344.142 7.76918C343.798 7.99408 343.407 8.10653 342.966 8.10653C342.635 8.10653 342.364 8.0509 342.153 7.93963C341.945 7.82836 341.781 7.69815 341.663 7.54901C341.545 7.39986 341.453 7.26728 341.39 7.15128H341.301V8H340.264ZM341.304 5.27273C341.304 5.65625 341.36 5.99242 341.471 6.28125C341.583 6.57008 341.743 6.79616 341.954 6.95952C342.165 7.1205 342.423 7.20099 342.728 7.20099C343.046 7.20099 343.311 7.11695 343.524 6.94886C343.737 6.77841 343.898 6.54759 344.007 6.25639C344.118 5.9652 344.174 5.63731 344.174 5.27273C344.174 4.91288 344.119 4.58973 344.01 4.30327C343.904 4.01681 343.743 3.79072 343.527 3.625C343.314 3.45928 343.048 3.37642 342.728 3.37642C342.421 3.37642 342.16 3.45573 341.947 3.61435C341.736 3.77296 341.577 3.99432 341.468 4.27841C341.359 4.5625 341.304 4.89394 341.304 5.27273ZM346.438 8V2.54545H347.465V3.41193H347.521C347.621 3.11837 347.796 2.88755 348.047 2.71946C348.3 2.54901 348.587 2.46378 348.906 2.46378C348.973 2.46378 349.051 2.46615 349.141 2.47088C349.233 2.47562 349.305 2.48153 349.357 2.48864V3.50426C349.315 3.49242 349.239 3.4794 349.13 3.4652C349.021 3.44863 348.912 3.44034 348.803 3.44034C348.552 3.44034 348.329 3.49361 348.132 3.60014C347.938 3.70431 347.784 3.84991 347.671 4.03693C347.557 4.22159 347.5 4.43229 347.5 4.66903V8H346.438ZM352.432 8.11009C351.894 8.11009 351.432 7.99527 351.043 7.76562C350.657 7.53362 350.359 7.2081 350.148 6.78906C349.94 6.36766 349.836 5.87405 349.836 5.30824C349.836 4.74953 349.94 4.2571 350.148 3.83097C350.359 3.40483 350.653 3.07221 351.029 2.8331C351.408 2.59399 351.851 2.47443 352.357 2.47443C352.665 2.47443 352.963 2.52533 353.252 2.62713C353.541 2.72893 353.8 2.88873 354.03 3.10653C354.259 3.32434 354.441 3.60724 354.573 3.95526C354.706 4.3009 354.772 4.72112 354.772 5.21591V5.59233H350.436V4.79688H353.732C353.732 4.51752 353.675 4.27012 353.561 4.05469C353.447 3.83688 353.288 3.66525 353.082 3.53977C352.878 3.4143 352.639 3.35156 352.364 3.35156C352.066 3.35156 351.806 3.42495 351.583 3.57173C351.363 3.71615 351.192 3.90554 351.072 4.13991C350.953 4.37192 350.894 4.62405 350.894 4.89631V5.51776C350.894 5.88234 350.958 6.19247 351.086 6.44815C351.216 6.70384 351.397 6.89915 351.629 7.03409C351.861 7.16667 352.132 7.23295 352.442 7.23295C352.644 7.23295 352.827 7.20455 352.993 7.14773C353.159 7.08854 353.302 7.00095 353.423 6.88494C353.543 6.76894 353.636 6.62571 353.7 6.45526L354.705 6.63636C354.624 6.93229 354.48 7.19152 354.271 7.41406C354.065 7.63423 353.806 7.80587 353.494 7.92898C353.183 8.04972 352.83 8.11009 352.432 8.11009ZM357.537 8.12074C357.192 8.12074 356.879 8.05682 356.6 7.92898C356.321 7.79877 356.099 7.61056 355.936 7.36435C355.775 7.11813 355.694 6.81629 355.694 6.45881C355.694 6.15104 355.754 5.89773 355.872 5.69886C355.99 5.5 356.15 5.34257 356.351 5.22656C356.553 5.11056 356.778 5.02296 357.026 4.96378C357.275 4.90459 357.528 4.85961 357.786 4.82884C358.113 4.79096 358.378 4.76018 358.581 4.73651C358.785 4.71046 358.933 4.66903 359.025 4.61222C359.118 4.5554 359.164 4.46307 359.164 4.33523V4.31037C359.164 4.00024 359.076 3.75994 358.901 3.58949C358.728 3.41903 358.47 3.33381 358.127 3.33381C357.769 3.33381 357.488 3.41312 357.282 3.57173C357.078 3.72798 356.937 3.90199 356.859 4.09375L355.861 3.86648C355.98 3.53504 356.153 3.26752 356.38 3.06392C356.609 2.85795 356.873 2.70881 357.172 2.61648C357.47 2.52178 357.784 2.47443 358.113 2.47443C358.331 2.47443 358.561 2.50047 358.805 2.55256C359.051 2.60227 359.281 2.6946 359.494 2.82955C359.71 2.96449 359.886 3.15743 360.023 3.40838C360.161 3.65696 360.229 3.98011 360.229 4.37784V8H359.192V7.25426H359.15C359.081 7.39157 358.978 7.52652 358.841 7.65909C358.703 7.79167 358.527 7.90175 358.312 7.98935C358.096 8.07694 357.838 8.12074 357.537 8.12074ZM357.768 7.26847C358.062 7.26847 358.313 7.21046 358.521 7.09446C358.732 6.97846 358.892 6.82694 359.001 6.63991C359.112 6.45052 359.167 6.24811 359.167 6.03267V5.32955C359.13 5.36742 359.056 5.40294 358.947 5.43608C358.841 5.46686 358.719 5.49408 358.581 5.51776C358.444 5.53906 358.31 5.55919 358.18 5.57812C358.05 5.5947 357.941 5.6089 357.854 5.62074C357.648 5.64678 357.459 5.69058 357.289 5.75213C357.121 5.81368 356.986 5.90246 356.884 6.01847C356.785 6.1321 356.735 6.28362 356.735 6.47301C356.735 6.7358 356.832 6.93466 357.026 7.0696C357.22 7.20218 357.468 7.26847 357.768 7.26847ZM362.62 6.14986L362.613 4.85369H362.798L364.971 2.54545H366.242L363.763 5.1733H363.597L362.62 6.14986ZM361.643 8V0.727273H362.705V8H361.643ZM365.088 8L363.135 5.40767L363.866 4.66548L366.391 8H365.088Z"
    fill="#898989" />
  <line x1="1" y1="54" x2="63" y2="54" stroke="#FF3030" stroke-opacity="0.4" stroke-width="4" />
  <line x1="84" y1="54" x2="146" y2="54" stroke="#FF3030" stroke-opacity="0.4" stroke-width="4" />
  <line x1="167" y1="54" x2="229" y2="54" stroke="#FF3030" stroke-opacity="0.4" stroke-width="4" />
  <line x1="250" y1="54" x2="312" y2="54" stroke="#FF3030" stroke-opacity="0.4" stroke-width="4" />
  <line x1="63" y1="54" x2="84" y2="54" stroke="#84B5FF" stroke-opacity="0.4" stroke-width="4" />
  <line x1="146" y1="54" x2="167" y2="54" stroke="#84B5FF" stroke-opacity="0.4" stroke-width="4" />
  <line x1="229" y1="54" x2="250" y2="54" stroke="#84B5FF" stroke-opacity="0.4" stroke-width="4" />
  <line x1="312" y1="54" x2="368" y2="54" stroke="#84B5FF" stroke-opacity="0.4" stroke-width="4" />
  <path d="M29.5 20.5H34.5" stroke="#EE3636" stroke-width="2" stroke-linecap="round" stroke-linejoin="round" />
  <path d="M32 35.5L35.75 31.75" stroke="#EE3636" stroke-width="2" stroke-linecap="round" stroke-linejoin="round" />
  <path
    d="M32 45.5C37.5228 45.5 42 41.0228 42 35.5C42 29.9772 37.5228 25.5 32 25.5C26.4772 25.5 22 29.9772 22 35.5C22 41.0228 26.4772 45.5 32 45.5Z"
    stroke="#EE3636" stroke-width="2" stroke-linecap="round" stroke-linejoin="round" />
  <path d="M113.5 20.5H118.5" stroke="#EE3636" stroke-width="2" stroke-linecap="round" stroke-linejoin="round" />
  <path d="M116 35.5L119.75 31.75" stroke="#EE3636" stroke-width="2" stroke-linecap="round" stroke-linejoin="round" />
  <path
    d="M116 45.5C121.523 45.5 126 41.0228 126 35.5C126 29.9772 121.523 25.5 116 25.5C110.477 25.5 106 29.9772 106 35.5C106 41.0228 110.477 45.5 116 45.5Z"
    stroke="#EE3636" stroke-width="2" stroke-linecap="round" stroke-linejoin="round" />
  <path d="M195.5 20.5H200.5" stroke="#EE3636" stroke-width="2" stroke-linecap="round" stroke-linejoin="round" />
  <path d="M198 35.5L201.75 31.75" stroke="#EE3636" stroke-width="2" stroke-linecap="round" stroke-linejoin="round" />
  <path
    d="M198 45.5C203.523 45.5 208 41.0228 208 35.5C208 29.9772 203.523 25.5 198 25.5C192.477 25.5 188 29.9772 188 35.5C188 41.0228 192.477 45.5 198 45.5Z"
    stroke="#EE3636" stroke-width="2" stroke-linecap="round" stroke-linejoin="round" />
  <path d="M277.5 20.5H282.5" stroke="#EE3636" stroke-width="2" stroke-linecap="round" stroke-linejoin="round" />
  <path d="M280 35.5L283.75 31.75" stroke="#EE3636" stroke-width="2" stroke-linecap="round" stroke-linejoin="round" />
  <path
    d="M280 45.5C285.523 45.5 290 41.0228 290 35.5C290 29.9772 285.523 25.5 280 25.5C274.477 25.5 270 29.9772 270 35.5C270 41.0228 274.477 45.5 280 45.5Z"
    stroke="#EE3636" stroke-width="2" stroke-linecap="round" stroke-linejoin="round" />
  <path d="M367 49L367 59" stroke="#616161" stroke-width="4" stroke-linecap="round" />
  <path d="M250 49L250 59" stroke="#616161" stroke-width="4" stroke-linecap="round" />
  <path d="M167 49L167 59" stroke="#616161" stroke-width="4" stroke-linecap="round" />
  <path d="M84 49L84 59" stroke="#616161" stroke-width="4" stroke-linecap="round" />
  <path d="M2 49L2 59" stroke="#616161" stroke-width="4" stroke-linecap="round" />
  <path fill-rule="evenodd" clip-rule="evenodd"
    d="M239 28C234.582 28 231 31.5817 231 36C231 40.4183 234.582 44.0001 239 44.0001C243.418 44.0001 247 40.4183 247 36C247 31.5817 243.418 28 239 28ZM232.148 36C232.148 32.2155 235.216 29.1475 239 29.1475C242.785 29.1475 245.852 32.2155 245.852 36C245.852 39.7844 242.785 42.8525 239 42.8525C235.216 42.8525 232.148 39.7844 232.148 36ZM239.604 32.3764C239.604 32.0428 239.333 31.7724 239 31.7724C238.666 31.7724 238.396 32.0428 238.396 32.3764V36.0002C238.396 36.1604 238.46 36.314 238.573 36.4273L240.989 38.8432C241.225 39.079 241.607 39.079 241.843 38.8432C242.079 38.6073 242.079 38.2249 241.843 37.989L239.604 35.75V32.3764Z"
    fill="#2B7DFF" />
  <path fill-rule="evenodd" clip-rule="evenodd"
    d="M340 28C335.582 28 332 31.5817 332 36C332 40.4183 335.582 44.0001 340 44.0001C344.418 44.0001 348 40.4183 348 36C348 31.5817 344.418 28 340 28ZM333.148 36C333.148 32.2155 336.216 29.1475 340 29.1475C343.785 29.1475 346.852 32.2155 346.852 36C346.852 39.7844 343.785 42.8525 340 42.8525C336.216 42.8525 333.148 39.7844 333.148 36ZM340.604 32.3764C340.604 32.0428 340.333 31.7724 340 31.7724C339.666 31.7724 339.396 32.0428 339.396 32.3764V36.0002C339.396 36.1604 339.46 36.314 339.573 36.4273L341.989 38.8432C342.225 39.079 342.607 39.079 342.843 38.8432C343.079 38.6073 343.079 38.2249 342.843 37.989L340.604 35.75V32.3764Z"
    fill="#2B7DFF" />
  <path fill-rule="evenodd" clip-rule="evenodd"
    d="M157 28C152.582 28 149 31.5817 149 36C149 40.4183 152.582 44.0001 157 44.0001C161.418 44.0001 165 40.4183 165 36C165 31.5817 161.418 28 157 28ZM150.148 36C150.148 32.2155 153.216 29.1475 157 29.1475C160.785 29.1475 163.852 32.2155 163.852 36C163.852 39.7844 160.785 42.8525 157 42.8525C153.216 42.8525 150.148 39.7844 150.148 36ZM157.604 32.3764C157.604 32.0428 157.333 31.7724 157 31.7724C156.666 31.7724 156.396 32.0428 156.396 32.3764V36.0002C156.396 36.1604 156.46 36.314 156.573 36.4273L158.989 38.8432C159.225 39.079 159.607 39.079 159.843 38.8432C160.079 38.6073 160.079 38.2249 159.843 37.989L157.604 35.75V32.3764Z"
    fill="#2B7DFF" />
  <path fill-rule="evenodd" clip-rule="evenodd"
    d="M74 28C69.5817 28 66 31.5817 66 36C66 40.4183 69.5817 44.0001 74 44.0001C78.4183 44.0001 82 40.4183 82 36C82 31.5817 78.4182 28 74 28ZM67.1475 36C67.1475 32.2155 70.2155 29.1475 74 29.1475C77.7845 29.1475 80.8525 32.2155 80.8525 36C80.8525 39.7844 77.7845 42.8525 74 42.8525C70.2155 42.8525 67.1475 39.7844 67.1475 36ZM74.6039 32.3764C74.6039 32.0428 74.3335 31.7724 73.9999 31.7724C73.6663 31.7724 73.3959 32.0428 73.3959 32.3764V36.0002C73.3959 36.1604 73.4596 36.314 73.5728 36.4273L75.9887 38.8432C76.2246 39.079 76.607 39.079 76.8429 38.8432C77.0787 38.6073 77.0787 38.2249 76.8429 37.989L74.6039 35.75V32.3764Z"
    fill="#2B7DFF" />
</svg>