<svg width="354" height="50" viewBox="0 0 354 50" fill="none" xmlns="http://www.w3.org/2000/svg">
  <path
    d="M7.65057 29.5455V47H4.48864V32.6222H4.38636L0.303977 35.2301V32.3324L4.64205 29.5455H7.65057ZM15.2017 39.3295V47H12.1165V29.5455H15.1335V36.1335H15.2869C15.5938 35.3949 16.0682 34.8125 16.7102 34.3864C17.358 33.9545 18.1818 33.7386 19.1818 33.7386C20.0909 33.7386 20.8835 33.929 21.5597 34.3097C22.2358 34.6903 22.7585 35.2472 23.1278 35.9801C23.5028 36.7131 23.6903 37.608 23.6903 38.6648V47H20.6051V39.142C20.6051 38.2614 20.3778 37.5767 19.9233 37.0881C19.4744 36.5937 18.8438 36.3466 18.0312 36.3466C17.4858 36.3466 16.9972 36.4659 16.5653 36.7045C16.1392 36.9375 15.804 37.2756 15.5597 37.7188C15.321 38.1619 15.2017 38.6989 15.2017 39.3295ZM39.0185 47.2386C37.7912 47.2386 36.7003 47.0284 35.7457 46.608C34.7969 46.1875 34.0469 45.6023 33.4957 44.8523C32.9446 44.1023 32.652 43.2358 32.6179 42.2528H35.8224C35.8509 42.7244 36.0071 43.1364 36.2912 43.4886C36.5753 43.8352 36.9531 44.1051 37.4247 44.2983C37.8963 44.4915 38.4247 44.5881 39.0099 44.5881C39.6349 44.5881 40.1889 44.4801 40.6719 44.2642C41.1548 44.0426 41.5327 43.7358 41.8054 43.3438C42.0781 42.9517 42.2116 42.5 42.206 41.9886C42.2116 41.4602 42.0753 40.9943 41.7969 40.5909C41.5185 40.1875 41.1151 39.8722 40.5866 39.6449C40.0639 39.4176 39.4332 39.304 38.6946 39.304H37.152V36.8665H38.6946C39.3026 36.8665 39.8338 36.7614 40.2884 36.5511C40.7486 36.3409 41.1094 36.0455 41.3707 35.6648C41.6321 35.2784 41.7599 34.8324 41.7543 34.3267C41.7599 33.8324 41.6491 33.4034 41.4219 33.0398C41.2003 32.6705 40.8849 32.3835 40.4759 32.179C40.0724 31.9744 39.598 31.8722 39.0526 31.8722C38.5185 31.8722 38.0241 31.9687 37.5696 32.1619C37.1151 32.3551 36.7486 32.6307 36.4702 32.9886C36.1918 33.3409 36.044 33.7614 36.027 34.25H32.9844C33.0071 33.2727 33.2884 32.4148 33.8281 31.6761C34.3736 30.9318 35.1009 30.3523 36.0099 29.9375C36.919 29.517 37.9389 29.3068 39.0696 29.3068C40.2344 29.3068 41.2457 29.5256 42.1037 29.9631C42.9673 30.3949 43.6349 30.9773 44.1065 31.7102C44.5781 32.4432 44.8139 33.2528 44.8139 34.1392C44.8196 35.1222 44.5298 35.946 43.9446 36.6108C43.3651 37.2756 42.6037 37.7102 41.6605 37.9148V38.0511C42.8878 38.2216 43.8281 38.6761 44.4815 39.4148C45.1406 40.1477 45.4673 41.0597 45.4616 42.1506C45.4616 43.1278 45.1832 44.0028 44.6264 44.7756C44.0753 45.5426 43.3139 46.1449 42.3423 46.5824C41.3764 47.0199 40.2685 47.2386 39.0185 47.2386ZM54.8388 47.3324C53.4354 47.3324 52.2308 46.9773 51.2251 46.267C50.2251 45.5511 49.4553 44.5199 48.9155 43.1733C48.3814 41.821 48.1143 40.1932 48.1143 38.2898C48.12 36.3864 48.3899 34.767 48.924 33.4318C49.4638 32.0909 50.2337 31.0682 51.2337 30.3636C52.2393 29.6591 53.4411 29.3068 54.8388 29.3068C56.2365 29.3068 57.4382 29.6591 58.4439 30.3636C59.4496 31.0682 60.2195 32.0909 60.7536 33.4318C61.2933 34.7727 61.5632 36.392 61.5632 38.2898C61.5632 40.1989 61.2933 41.8295 60.7536 43.1818C60.2195 44.5284 59.4496 45.5568 58.4439 46.267C57.4439 46.9773 56.2422 47.3324 54.8388 47.3324ZM54.8388 44.6648C55.9297 44.6648 56.7905 44.1278 57.4212 43.054C58.0575 41.9744 58.3757 40.3864 58.3757 38.2898C58.3757 36.9034 58.2308 35.7386 57.9411 34.7955C57.6513 33.8523 57.2422 33.142 56.7138 32.6648C56.1854 32.1818 55.5604 31.9403 54.8388 31.9403C53.7536 31.9403 52.8956 32.4801 52.2649 33.5597C51.6342 34.6335 51.3161 36.2102 51.3104 38.2898C51.3047 39.6818 51.4439 40.8523 51.728 41.8011C52.0178 42.75 52.4268 43.4659 52.9553 43.9489C53.4837 44.4261 54.1115 44.6648 54.8388 44.6648ZM70.3821 47V33.9091H73.331V36.1335H73.4844C73.7571 35.3835 74.2088 34.7983 74.8395 34.3778C75.4702 33.9517 76.223 33.7386 77.098 33.7386C77.9844 33.7386 78.7315 33.9545 79.3395 34.3864C79.9531 34.8125 80.3849 35.3949 80.6349 36.1335H80.7713C81.0611 35.4062 81.5497 34.8267 82.2372 34.3949C82.9304 33.9574 83.7514 33.7386 84.7003 33.7386C85.9048 33.7386 86.8878 34.1193 87.6491 34.8807C88.4105 35.642 88.7912 36.7528 88.7912 38.2131V47H85.6974V38.6903C85.6974 37.8778 85.4815 37.2841 85.0497 36.9091C84.6179 36.5284 84.0895 36.3381 83.4645 36.3381C82.7202 36.3381 82.1378 36.571 81.7173 37.0369C81.3026 37.4972 81.0952 38.0966 81.0952 38.8352V47H78.0696V38.5625C78.0696 37.8864 77.8651 37.3466 77.456 36.9432C77.0526 36.5398 76.5241 36.3381 75.8707 36.3381C75.4276 36.3381 75.0241 36.4517 74.6605 36.679C74.2969 36.9006 74.0071 37.2159 73.7912 37.625C73.5753 38.0284 73.4673 38.5 73.4673 39.0398V47H70.3821ZM91.9212 47V33.9091H95.0064V47H91.9212ZM93.4723 32.0511C92.9837 32.0511 92.5632 31.8892 92.2109 31.5653C91.8587 31.2358 91.6825 30.8409 91.6825 30.3807C91.6825 29.9148 91.8587 29.5199 92.2109 29.196C92.5632 28.8665 92.9837 28.7017 93.4723 28.7017C93.9666 28.7017 94.3871 28.8665 94.7337 29.196C95.0859 29.5199 95.2621 29.9148 95.2621 30.3807C95.2621 30.8409 95.0859 31.2358 94.7337 31.5653C94.3871 31.8892 93.9666 32.0511 93.4723 32.0511ZM101.264 39.3295V47H98.179V33.9091H101.128V36.1335H101.281C101.582 35.4006 102.063 34.8182 102.722 34.3864C103.386 33.9545 104.207 33.7386 105.185 33.7386C106.088 33.7386 106.875 33.9318 107.545 34.3182C108.222 34.7045 108.744 35.2642 109.114 35.9972C109.489 36.7301 109.673 37.6193 109.668 38.6648V47H106.582V39.142C106.582 38.267 106.355 37.5824 105.901 37.0881C105.452 36.5937 104.83 36.3466 104.034 36.3466C103.494 36.3466 103.014 36.4659 102.594 36.7045C102.179 36.9375 101.852 37.2756 101.614 37.7188C101.381 38.1619 101.264 38.6989 101.264 39.3295Z"
    fill="#656565" />
  <path
    d="M152.619 48.2386C151.483 48.2386 150.466 48.0256 149.568 47.5994C148.67 47.1676 147.957 46.5767 147.429 45.8267C146.906 45.0767 146.628 44.2187 146.594 43.2528H149.662C149.719 43.9687 150.028 44.554 150.591 45.0085C151.153 45.4574 151.83 45.6818 152.619 45.6818C153.239 45.6818 153.79 45.5398 154.273 45.2557C154.756 44.9716 155.136 44.5767 155.415 44.071C155.693 43.5653 155.83 42.9886 155.824 42.3409C155.83 41.6818 155.69 41.0966 155.406 40.5852C155.122 40.0739 154.733 39.6733 154.239 39.3835C153.744 39.0881 153.176 38.9403 152.534 38.9403C152.011 38.9347 151.497 39.0312 150.991 39.2301C150.486 39.429 150.085 39.6903 149.79 40.0142L146.935 39.5455L147.847 30.5455H157.972V33.1875H150.463L149.96 37.8153H150.062C150.386 37.4347 150.844 37.1193 151.435 36.8693C152.026 36.6136 152.673 36.4858 153.378 36.4858C154.435 36.4858 155.378 36.7358 156.207 37.2358C157.037 37.7301 157.69 38.4119 158.168 39.2812C158.645 40.1506 158.884 41.1449 158.884 42.2642C158.884 43.4176 158.616 44.446 158.082 45.3494C157.554 46.2472 156.818 46.9545 155.875 47.4716C154.938 47.983 153.852 48.2386 152.619 48.2386ZM167.726 48V34.9091H170.675V37.1335H170.828C171.101 36.3835 171.553 35.7983 172.183 35.3778C172.814 34.9517 173.567 34.7386 174.442 34.7386C175.328 34.7386 176.075 34.9545 176.683 35.3864C177.297 35.8125 177.729 36.3949 177.979 37.1335H178.115C178.405 36.4062 178.893 35.8267 179.581 35.3949C180.274 34.9574 181.095 34.7386 182.044 34.7386C183.249 34.7386 184.232 35.1193 184.993 35.8807C185.754 36.642 186.135 37.7528 186.135 39.2131V48H183.041V39.6903C183.041 38.8778 182.825 38.2841 182.393 37.9091C181.962 37.5284 181.433 37.3381 180.808 37.3381C180.064 37.3381 179.482 37.571 179.061 38.0369C178.646 38.4972 178.439 39.0966 178.439 39.8352V48H175.413V39.5625C175.413 38.8864 175.209 38.3466 174.8 37.9432C174.396 37.5398 173.868 37.3381 173.214 37.3381C172.771 37.3381 172.368 37.4517 172.004 37.679C171.641 37.9006 171.351 38.2159 171.135 38.625C170.919 39.0284 170.811 39.5 170.811 40.0398V48H167.726ZM189.265 48V34.9091H192.35V48H189.265ZM190.816 33.0511C190.327 33.0511 189.907 32.8892 189.555 32.5653C189.202 32.2358 189.026 31.8409 189.026 31.3807C189.026 30.9148 189.202 30.5199 189.555 30.196C189.907 29.8665 190.327 29.7017 190.816 29.7017C191.31 29.7017 191.731 29.8665 192.077 30.196C192.43 30.5199 192.606 30.9148 192.606 31.3807C192.606 31.8409 192.43 32.2358 192.077 32.5653C191.731 32.8892 191.31 33.0511 190.816 33.0511ZM198.608 40.3295V48H195.523V34.9091H198.472V37.1335H198.625C198.926 36.4006 199.406 35.8182 200.065 35.3864C200.73 34.9545 201.551 34.7386 202.528 34.7386C203.432 34.7386 204.219 34.9318 204.889 35.3182C205.565 35.7045 206.088 36.2642 206.457 36.9972C206.832 37.7301 207.017 38.6193 207.011 39.6648V48H203.926V40.142C203.926 39.267 203.699 38.5824 203.244 38.0881C202.795 37.5937 202.173 37.3466 201.378 37.3466C200.838 37.3466 200.358 37.4659 199.938 37.7045C199.523 37.9375 199.196 38.2756 198.957 38.7188C198.724 39.1619 198.608 39.6989 198.608 40.3295Z"
    fill="#656565" />
  <path
    d="M263.551 47V44.7159L269.611 38.7756C270.19 38.1903 270.673 37.6705 271.06 37.2159C271.446 36.7614 271.736 36.321 271.929 35.8949C272.122 35.4687 272.219 35.0142 272.219 34.5312C272.219 33.9801 272.094 33.5085 271.844 33.1165C271.594 32.7188 271.25 32.4119 270.812 32.196C270.375 31.9801 269.878 31.8722 269.321 31.8722C268.747 31.8722 268.244 31.9915 267.812 32.2301C267.381 32.4631 267.045 32.7955 266.807 33.2273C266.574 33.6591 266.457 34.1733 266.457 34.7699H263.449C263.449 33.6619 263.702 32.6989 264.207 31.8807C264.713 31.0625 265.409 30.429 266.295 29.9801C267.188 29.5312 268.21 29.3068 269.364 29.3068C270.534 29.3068 271.563 29.5256 272.449 29.9631C273.335 30.4006 274.023 31 274.511 31.7614C275.006 32.5227 275.253 33.392 275.253 34.3693C275.253 35.0227 275.128 35.6648 274.878 36.2955C274.628 36.9261 274.188 37.625 273.557 38.392C272.932 39.1591 272.054 40.0881 270.923 41.179L267.915 44.2386V44.358H275.517V47H263.551ZM284.526 47.2386C283.389 47.2386 282.372 47.0256 281.474 46.5994C280.577 46.1676 279.864 45.5767 279.335 44.8267C278.813 44.0767 278.534 43.2187 278.5 42.2528H281.568C281.625 42.9687 281.935 43.554 282.497 44.0085C283.06 44.4574 283.736 44.6818 284.526 44.6818C285.145 44.6818 285.696 44.5398 286.179 44.2557C286.662 43.9716 287.043 43.5767 287.321 43.071C287.599 42.5653 287.736 41.9886 287.73 41.3409C287.736 40.6818 287.597 40.0966 287.312 39.5852C287.028 39.0739 286.639 38.6733 286.145 38.3835C285.651 38.0881 285.082 37.9403 284.44 37.9403C283.918 37.9347 283.403 38.0312 282.898 38.2301C282.392 38.429 281.991 38.6903 281.696 39.0142L278.841 38.5455L279.753 29.5455H289.878V32.1875H282.369L281.866 36.8153H281.969C282.293 36.4347 282.75 36.1193 283.341 35.8693C283.932 35.6136 284.58 35.4858 285.284 35.4858C286.341 35.4858 287.284 35.7358 288.114 36.2358C288.943 36.7301 289.597 37.4119 290.074 38.2812C290.551 39.1506 290.79 40.1449 290.79 41.2642C290.79 42.4176 290.523 43.446 289.989 44.3494C289.46 45.2472 288.724 45.9545 287.781 46.4716C286.844 46.983 285.759 47.2386 284.526 47.2386ZM299.632 47V33.9091H302.581V36.1335H302.734C303.007 35.3835 303.459 34.7983 304.089 34.3778C304.72 33.9517 305.473 33.7386 306.348 33.7386C307.234 33.7386 307.982 33.9545 308.589 34.3864C309.203 34.8125 309.635 35.3949 309.885 36.1335H310.021C310.311 35.4062 310.8 34.8267 311.487 34.3949C312.18 33.9574 313.001 33.7386 313.95 33.7386C315.155 33.7386 316.138 34.1193 316.899 34.8807C317.661 35.642 318.041 36.7528 318.041 38.2131V47H314.947V38.6903C314.947 37.8778 314.732 37.2841 314.3 36.9091C313.868 36.5284 313.339 36.3381 312.714 36.3381C311.97 36.3381 311.388 36.571 310.967 37.0369C310.553 37.4972 310.345 38.0966 310.345 38.8352V47H307.32V38.5625C307.32 37.8864 307.115 37.3466 306.706 36.9432C306.303 36.5398 305.774 36.3381 305.121 36.3381C304.678 36.3381 304.274 36.4517 303.911 36.679C303.547 36.9006 303.257 37.2159 303.041 37.625C302.825 38.0284 302.717 38.5 302.717 39.0398V47H299.632ZM321.171 47V33.9091H324.256V47H321.171ZM322.722 32.0511C322.234 32.0511 321.813 31.8892 321.461 31.5653C321.109 31.2358 320.933 30.8409 320.933 30.3807C320.933 29.9148 321.109 29.5199 321.461 29.196C321.813 28.8665 322.234 28.7017 322.722 28.7017C323.217 28.7017 323.637 28.8665 323.984 29.196C324.336 29.5199 324.512 29.9148 324.512 30.3807C324.512 30.8409 324.336 31.2358 323.984 31.5653C323.637 31.8892 323.217 32.0511 322.722 32.0511ZM330.514 39.3295V47H327.429V33.9091H330.378V36.1335H330.531C330.832 35.4006 331.313 34.8182 331.972 34.3864C332.636 33.9545 333.457 33.7386 334.435 33.7386C335.338 33.7386 336.125 33.9318 336.795 34.3182C337.472 34.7045 337.994 35.2642 338.364 35.9972C338.739 36.7301 338.923 37.6193 338.918 38.6648V47H335.832V39.142C335.832 38.267 335.605 37.5824 335.151 37.0881C334.702 36.5937 334.08 36.3466 333.284 36.3466C332.744 36.3466 332.264 36.4659 331.844 36.7045C331.429 36.9375 331.102 37.2756 330.864 37.7188C330.631 38.1619 330.514 38.6989 330.514 39.3295Z"
    fill="#656565" />
  <path
    d="M24.4347 15V0.454545H33.7528V2.66335H27.0696V6.61222H33.1136V8.82102H27.0696V15H24.4347ZM39.9975 15.2131C38.9322 15.2131 38.0089 14.9787 37.2276 14.5099C36.4464 14.0412 35.8403 13.3854 35.4094 12.5426C34.9833 11.6998 34.7702 10.715 34.7702 9.58807C34.7702 8.46117 34.9833 7.47396 35.4094 6.62642C35.8403 5.77888 36.4464 5.12074 37.2276 4.65199C38.0089 4.18324 38.9322 3.94886 39.9975 3.94886C41.0629 3.94886 41.9862 4.18324 42.7674 4.65199C43.5487 5.12074 44.1523 5.77888 44.5785 6.62642C45.0094 7.47396 45.2248 8.46117 45.2248 9.58807C45.2248 10.715 45.0094 11.6998 44.5785 12.5426C44.1523 13.3854 43.5487 14.0412 42.7674 14.5099C41.9862 14.9787 41.0629 15.2131 39.9975 15.2131ZM40.0117 13.1534C40.5894 13.1534 41.0723 12.9948 41.4606 12.6776C41.8488 12.3556 42.1377 11.9247 42.3271 11.3849C42.5212 10.8452 42.6183 10.2438 42.6183 9.58097C42.6183 8.91335 42.5212 8.30966 42.3271 7.76989C42.1377 7.22538 41.8488 6.79214 41.4606 6.47017C41.0723 6.1482 40.5894 5.98722 40.0117 5.98722C39.4199 5.98722 38.9274 6.1482 38.5344 6.47017C38.1462 6.79214 37.855 7.22538 37.6609 7.76989C37.4715 8.30966 37.3768 8.91335 37.3768 9.58097C37.3768 10.2438 37.4715 10.8452 37.6609 11.3849C37.855 11.9247 38.1462 12.3556 38.5344 12.6776C38.9274 12.9948 39.4199 13.1534 40.0117 13.1534ZM52.1655 15.2131C51.0765 15.2131 50.1413 14.974 49.3601 14.4957C48.5836 14.0175 47.9846 13.357 47.5632 12.5142C47.1465 11.6667 46.9382 10.6913 46.9382 9.58807C46.9382 8.48011 47.1513 7.50237 47.5774 6.65483C48.0036 5.80256 48.6049 5.13968 49.3814 4.66619C50.1626 4.18797 51.0859 3.94886 52.1513 3.94886C53.0367 3.94886 53.8203 4.11222 54.5021 4.43892C55.1887 4.76089 55.7356 5.2178 56.1428 5.80966C56.55 6.39678 56.782 7.08333 56.8388 7.86932H54.3814C54.282 7.34375 54.0452 6.90578 53.6712 6.5554C53.3018 6.20028 52.8071 6.02273 52.1868 6.02273C51.6612 6.02273 51.1996 6.16477 50.8018 6.44886C50.4041 6.72822 50.094 7.13068 49.8714 7.65625C49.6536 8.18182 49.5447 8.81155 49.5447 9.54545C49.5447 10.2888 49.6536 10.928 49.8714 11.4631C50.0893 11.9934 50.3946 12.4029 50.7876 12.6918C51.1854 12.9759 51.6518 13.1179 52.1868 13.1179C52.5656 13.1179 52.9041 13.0469 53.2024 12.9048C53.5054 12.758 53.7588 12.5473 53.9624 12.2727C54.166 11.9981 54.3056 11.6643 54.3814 11.2713H56.8388C56.7772 12.0431 56.55 12.7273 56.157 13.3239C55.764 13.9157 55.2289 14.3797 54.5518 14.7159C53.8748 15.0473 53.0793 15.2131 52.1655 15.2131ZM65.9031 10.4119V4.09091H68.4741V15H65.9812V13.0611H65.8675C65.6213 13.6719 65.2165 14.1714 64.6531 14.5597C64.0943 14.9479 63.4054 15.142 62.5863 15.142C61.8713 15.142 61.2392 14.9834 60.69 14.6662C60.1455 14.3442 59.7193 13.8778 59.4116 13.267C59.1038 12.6515 58.9499 11.9081 58.9499 11.0369V4.09091H61.521V10.6392C61.521 11.3305 61.7103 11.8797 62.0891 12.2869C62.4679 12.6941 62.9651 12.8977 63.5806 12.8977C63.9594 12.8977 64.3263 12.8054 64.6815 12.6207C65.0366 12.4361 65.3278 12.1615 65.555 11.7969C65.7871 11.4276 65.9031 10.9659 65.9031 10.4119ZM79.7401 6.97443L77.3963 7.23011C77.33 6.99337 77.214 6.77083 77.0483 6.5625C76.8873 6.35417 76.6695 6.18608 76.3949 6.05824C76.1203 5.9304 75.7841 5.86648 75.3864 5.86648C74.8513 5.86648 74.4015 5.98248 74.0369 6.21449C73.6771 6.4465 73.4995 6.74716 73.5043 7.11648C73.4995 7.43371 73.6155 7.69176 73.8523 7.89062C74.0938 8.08949 74.4915 8.25284 75.0455 8.38068L76.9062 8.77841C77.9384 9.00095 78.7055 9.35369 79.2074 9.83665C79.714 10.3196 79.9697 10.9517 79.9744 11.733C79.9697 12.4195 79.7685 13.0256 79.3707 13.5511C78.9777 14.072 78.4309 14.4792 77.7301 14.7727C77.0294 15.0663 76.2244 15.2131 75.3153 15.2131C73.9801 15.2131 72.9053 14.9337 72.0909 14.375C71.2765 13.8116 70.7912 13.0279 70.6349 12.0241L73.142 11.7827C73.2557 12.2751 73.4972 12.6468 73.8665 12.8977C74.2358 13.1487 74.7164 13.2741 75.3082 13.2741C75.919 13.2741 76.4091 13.1487 76.7784 12.8977C77.1525 12.6468 77.3395 12.3366 77.3395 11.9673C77.3395 11.6548 77.2188 11.3968 76.9773 11.1932C76.7405 10.9896 76.3712 10.8333 75.8693 10.7244L74.0085 10.3338C72.9621 10.116 72.188 9.74905 71.6861 9.23295C71.1842 8.71212 70.9356 8.05398 70.9403 7.25852C70.9356 6.58617 71.1179 6.00379 71.4872 5.51136C71.8613 5.0142 72.3797 4.63068 73.0426 4.3608C73.7102 4.08617 74.4796 3.94886 75.3509 3.94886C76.6293 3.94886 77.6354 4.22112 78.3693 4.76562C79.108 5.31013 79.5649 6.0464 79.7401 6.97443Z"
    fill="#9E9E9E" />
  <path
    d="M148.435 16V1.45455H154.003C155.054 1.45455 155.928 1.62026 156.624 1.9517C157.324 2.27841 157.848 2.72585 158.193 3.29403C158.544 3.86222 158.719 4.50616 158.719 5.22585C158.719 5.81771 158.605 6.32434 158.378 6.74574C158.151 7.1624 157.845 7.50095 157.462 7.76136C157.078 8.02178 156.65 8.20881 156.176 8.32244V8.46449C156.692 8.4929 157.187 8.65151 157.661 8.94034C158.139 9.22443 158.529 9.62689 158.832 10.1477C159.135 10.6686 159.287 11.2983 159.287 12.0369C159.287 12.7898 159.105 13.4669 158.74 14.0682C158.375 14.6648 157.826 15.1359 157.092 15.4815C156.358 15.8272 155.435 16 154.322 16H148.435ZM151.07 13.7983H153.903C154.86 13.7983 155.549 13.616 155.97 13.2514C156.396 12.8821 156.609 12.4086 156.609 11.831C156.609 11.4001 156.503 11.0118 156.29 10.6662C156.077 10.3158 155.774 10.0412 155.381 9.84233C154.988 9.63873 154.519 9.53693 153.974 9.53693H151.07V13.7983ZM151.07 7.64062H153.676C154.131 7.64062 154.54 7.55777 154.905 7.39205C155.269 7.22159 155.556 6.98248 155.764 6.67472C155.977 6.36222 156.084 5.9929 156.084 5.56676C156.084 5.00331 155.885 4.5393 155.487 4.17472C155.094 3.81013 154.509 3.62784 153.733 3.62784H151.07V7.64062ZM161.466 16V5.09091H163.958V6.90909H164.072C164.271 6.27936 164.612 5.79403 165.095 5.45312C165.583 5.10748 166.139 4.93466 166.764 4.93466C166.906 4.93466 167.065 4.94176 167.24 4.95597C167.42 4.96544 167.569 4.98201 167.687 5.00568V7.37074C167.578 7.33286 167.405 7.29972 167.169 7.27131C166.937 7.23816 166.712 7.22159 166.494 7.22159C166.025 7.22159 165.604 7.32339 165.23 7.52699C164.86 7.72585 164.569 8.00284 164.356 8.35795C164.143 8.71307 164.037 9.12263 164.037 9.58665V16H161.466ZM173.776 16.2131C172.682 16.2131 171.737 15.9858 170.942 15.5312C170.151 15.072 169.543 14.4233 169.116 13.5852C168.69 12.7424 168.477 11.7505 168.477 10.6094C168.477 9.48722 168.69 8.50237 169.116 7.65483C169.547 6.80256 170.149 6.13968 170.92 5.66619C171.692 5.18797 172.599 4.94886 173.641 4.94886C174.313 4.94886 174.947 5.05777 175.544 5.27557C176.145 5.48864 176.676 5.82008 177.135 6.26989C177.599 6.7197 177.964 7.29261 178.229 7.98864C178.494 8.67992 178.626 9.50379 178.626 10.4602V11.2486H169.685V9.51562H176.162C176.157 9.0232 176.051 8.58523 175.842 8.2017C175.634 7.81345 175.343 7.50805 174.969 7.28551C174.599 7.06297 174.169 6.9517 173.676 6.9517C173.151 6.9517 172.689 7.07955 172.291 7.33523C171.893 7.58617 171.583 7.91761 171.361 8.32955C171.143 8.73674 171.032 9.18419 171.027 9.67188V11.1847C171.027 11.8191 171.143 12.3636 171.375 12.8182C171.607 13.268 171.931 13.6136 172.348 13.8551C172.765 14.0919 173.252 14.2102 173.811 14.2102C174.185 14.2102 174.524 14.1581 174.827 14.054C175.13 13.9451 175.393 13.7865 175.615 13.5781C175.838 13.3698 176.006 13.1117 176.119 12.804L178.52 13.0739C178.368 13.7083 178.08 14.2623 177.653 14.7358C177.232 15.2045 176.692 15.5691 176.034 15.8295C175.376 16.0852 174.623 16.2131 173.776 16.2131ZM183.941 16.2202C183.249 16.2202 182.627 16.0971 182.073 15.8509C181.524 15.5999 181.088 15.2306 180.766 14.7429C180.449 14.2552 180.29 13.6539 180.29 12.9389C180.29 12.3234 180.404 11.8144 180.631 11.4119C180.858 11.0095 181.168 10.6875 181.561 10.446C181.954 10.2045 182.397 10.0223 182.89 9.89915C183.387 9.77131 183.9 9.67898 184.431 9.62216C185.07 9.55587 185.588 9.49669 185.986 9.4446C186.384 9.38778 186.673 9.30256 186.853 9.18892C187.037 9.07055 187.13 8.88826 187.13 8.64205V8.59943C187.13 8.06439 186.971 7.65009 186.654 7.35653C186.337 7.06297 185.88 6.91619 185.283 6.91619C184.653 6.91619 184.154 7.0535 183.784 7.32812C183.42 7.60275 183.174 7.92708 183.046 8.30114L180.645 7.96023C180.835 7.29735 181.147 6.74337 181.583 6.2983C182.018 5.84848 182.551 5.51231 183.181 5.28977C183.81 5.0625 184.507 4.94886 185.269 4.94886C185.794 4.94886 186.318 5.01042 186.838 5.13352C187.359 5.25663 187.835 5.46023 188.266 5.74432C188.697 6.02367 189.042 6.40483 189.303 6.88778C189.568 7.37074 189.701 7.97443 189.701 8.69886V16H187.229V14.5014H187.144C186.988 14.8045 186.767 15.0885 186.483 15.3537C186.204 15.6141 185.851 15.8248 185.425 15.9858C185.004 16.142 184.509 16.2202 183.941 16.2202ZM184.608 14.331C185.124 14.331 185.572 14.2292 185.951 14.0256C186.329 13.8172 186.621 13.5426 186.824 13.2017C187.033 12.8608 187.137 12.4891 187.137 12.0866V10.8011C187.056 10.8674 186.919 10.929 186.725 10.9858C186.535 11.0426 186.322 11.0923 186.086 11.1349C185.849 11.1776 185.614 11.2154 185.382 11.2486C185.15 11.2817 184.949 11.3101 184.779 11.3338C184.395 11.3859 184.052 11.4711 183.749 11.5895C183.446 11.7079 183.207 11.8736 183.032 12.0866C182.856 12.295 182.769 12.5649 182.769 12.8963C182.769 13.3698 182.942 13.7273 183.287 13.9688C183.633 14.2102 184.073 14.331 184.608 14.331ZM194.63 12.5767L194.623 9.47301H195.034L198.955 5.09091H201.959L197.137 10.4602H196.604L194.63 12.5767ZM192.286 16V1.45455H194.857V16H192.286ZM199.132 16L195.581 11.0355L197.314 9.22443L202.208 16H199.132Z"
    fill="#9E9E9E" />
  <path
    d="M247.435 15V0.454545H250.07V12.7912H256.476V15H247.435ZM263.408 15.2131C262.342 15.2131 261.419 14.9787 260.638 14.5099C259.857 14.0412 259.25 13.3854 258.82 12.5426C258.393 11.6998 258.18 10.715 258.18 9.58807C258.18 8.46117 258.393 7.47396 258.82 6.62642C259.25 5.77888 259.857 5.12074 260.638 4.65199C261.419 4.18324 262.342 3.94886 263.408 3.94886C264.473 3.94886 265.396 4.18324 266.178 4.65199C266.959 5.12074 267.563 5.77888 267.989 6.62642C268.42 7.47396 268.635 8.46117 268.635 9.58807C268.635 10.715 268.42 11.6998 267.989 12.5426C267.563 13.3854 266.959 14.0412 266.178 14.5099C265.396 14.9787 264.473 15.2131 263.408 15.2131ZM263.422 13.1534C264 13.1534 264.482 12.9948 264.871 12.6776C265.259 12.3556 265.548 11.9247 265.737 11.3849C265.931 10.8452 266.028 10.2438 266.028 9.58097C266.028 8.91335 265.931 8.30966 265.737 7.76989C265.548 7.22538 265.259 6.79214 264.871 6.47017C264.482 6.1482 264 5.98722 263.422 5.98722C262.83 5.98722 262.338 6.1482 261.945 6.47017C261.556 6.79214 261.265 7.22538 261.071 7.76989C260.882 8.30966 260.787 8.91335 260.787 9.58097C260.787 10.2438 260.882 10.8452 261.071 11.3849C261.265 11.9247 261.556 12.3556 261.945 12.6776C262.338 12.9948 262.83 13.1534 263.422 13.1534ZM273.388 8.60795V15H270.817V4.09091H273.275V5.9446H273.402C273.653 5.33381 274.053 4.84848 274.603 4.48864C275.157 4.12879 275.841 3.94886 276.655 3.94886C277.408 3.94886 278.064 4.10985 278.623 4.43182C279.186 4.75379 279.622 5.22017 279.929 5.83097C280.242 6.44176 280.396 7.18276 280.391 8.05398V15H277.82V8.4517C277.82 7.72254 277.631 7.15199 277.252 6.74006C276.878 6.32812 276.359 6.12216 275.696 6.12216C275.247 6.12216 274.846 6.22159 274.496 6.42045C274.15 6.61458 273.878 6.89631 273.679 7.26562C273.485 7.63494 273.388 8.08239 273.388 8.60795ZM287.749 19.3182C286.826 19.3182 286.033 19.1927 285.37 18.9418C284.707 18.6955 284.174 18.3641 283.772 17.9474C283.369 17.5308 283.09 17.0691 282.934 16.5625L285.249 16.0014C285.353 16.2145 285.505 16.4252 285.703 16.6335C285.902 16.8466 286.17 17.0218 286.506 17.1591C286.847 17.3011 287.275 17.3722 287.792 17.3722C288.521 17.3722 289.124 17.1946 289.603 16.8395C290.081 16.4891 290.32 15.9115 290.32 15.1065V13.0398H290.192C290.06 13.3049 289.865 13.5772 289.61 13.8565C289.359 14.1359 289.025 14.3703 288.608 14.5597C288.196 14.7491 287.678 14.8438 287.053 14.8438C286.215 14.8438 285.455 14.6473 284.773 14.2543C284.096 13.8565 283.556 13.2647 283.154 12.4787C282.756 11.688 282.557 10.6984 282.557 9.50994C282.557 8.31203 282.756 7.30114 283.154 6.47727C283.556 5.64867 284.098 5.02131 284.78 4.59517C285.462 4.1643 286.222 3.94886 287.06 3.94886C287.699 3.94886 288.225 4.05777 288.637 4.27557C289.053 4.48864 289.385 4.74669 289.631 5.04972C289.877 5.34801 290.064 5.62973 290.192 5.89489H290.334V4.09091H292.87V15.1776C292.87 16.1103 292.647 16.8821 292.202 17.4929C291.757 18.1037 291.149 18.5606 290.377 18.8636C289.605 19.1667 288.729 19.3182 287.749 19.3182ZM287.77 12.8267C288.315 12.8267 288.779 12.6941 289.162 12.429C289.546 12.1638 289.837 11.7827 290.036 11.2855C290.235 10.7884 290.334 10.1918 290.334 9.49574C290.334 8.80919 290.235 8.20786 290.036 7.69176C289.842 7.17566 289.553 6.77557 289.169 6.49148C288.791 6.20265 288.324 6.05824 287.77 6.05824C287.197 6.05824 286.719 6.20739 286.336 6.50568C285.952 6.80398 285.663 7.21354 285.469 7.73438C285.275 8.25047 285.178 8.83759 285.178 9.49574C285.178 10.1634 285.275 10.7481 285.469 11.25C285.668 11.7472 285.959 12.1354 286.343 12.4148C286.731 12.6894 287.207 12.8267 287.77 12.8267ZM300.579 15V0.454545H303.15V5.89489H303.257C303.389 5.62973 303.576 5.34801 303.818 5.04972C304.059 4.74669 304.386 4.48864 304.798 4.27557C305.21 4.05777 305.735 3.94886 306.375 3.94886C307.217 3.94886 307.977 4.1643 308.654 4.59517C309.336 5.02131 309.876 5.65341 310.274 6.49148C310.676 7.32481 310.877 8.34754 310.877 9.55966C310.877 10.7576 310.681 11.7756 310.288 12.6136C309.895 13.4517 309.36 14.0909 308.683 14.5312C308.006 14.9716 307.239 15.1918 306.382 15.1918C305.757 15.1918 305.238 15.0876 304.826 14.8793C304.414 14.6709 304.083 14.42 303.832 14.1264C303.586 13.8281 303.394 13.5464 303.257 13.2812H303.108V15H300.579ZM303.1 9.54545C303.1 10.2509 303.2 10.8688 303.399 11.3991C303.602 11.9295 303.894 12.3437 304.272 12.642C304.656 12.9356 305.12 13.0824 305.664 13.0824C306.233 13.0824 306.708 12.9309 307.092 12.6278C307.475 12.3201 307.764 11.901 307.958 11.3707C308.157 10.8357 308.257 10.2273 308.257 9.54545C308.257 8.86837 308.16 8.26705 307.966 7.74148C307.771 7.21591 307.483 6.80398 307.099 6.50568C306.716 6.20739 306.237 6.05824 305.664 6.05824C305.115 6.05824 304.649 6.20265 304.265 6.49148C303.882 6.7803 303.591 7.18513 303.392 7.70597C303.198 8.2268 303.1 8.83996 303.1 9.54545ZM313.063 15V4.09091H315.556V5.90909H315.67C315.869 5.27936 316.21 4.79403 316.692 4.45312C317.18 4.10748 317.737 3.93466 318.362 3.93466C318.504 3.93466 318.662 3.94176 318.837 3.95597C319.017 3.96544 319.166 3.98201 319.285 4.00568V6.37074C319.176 6.33286 319.003 6.29972 318.766 6.27131C318.534 6.23816 318.309 6.22159 318.092 6.22159C317.623 6.22159 317.201 6.32339 316.827 6.52699C316.458 6.72585 316.167 7.00284 315.954 7.35795C315.741 7.71307 315.634 8.12263 315.634 8.58665V15H313.063ZM325.373 15.2131C324.279 15.2131 323.335 14.9858 322.539 14.5312C321.749 14.072 321.14 13.4233 320.714 12.5852C320.288 11.7424 320.075 10.7505 320.075 9.60938C320.075 8.48722 320.288 7.50237 320.714 6.65483C321.145 5.80256 321.746 5.13968 322.518 4.66619C323.29 4.18797 324.197 3.94886 325.238 3.94886C325.911 3.94886 326.545 4.05777 327.142 4.27557C327.743 4.48864 328.273 4.82008 328.733 5.26989C329.197 5.7197 329.561 6.29261 329.826 6.98864C330.092 7.67992 330.224 8.50379 330.224 9.46023V10.2486H321.282V8.51562H327.76C327.755 8.0232 327.648 7.58523 327.44 7.2017C327.232 6.81345 326.94 6.50805 326.566 6.28551C326.197 6.06297 325.766 5.9517 325.274 5.9517C324.748 5.9517 324.287 6.07955 323.889 6.33523C323.491 6.58617 323.181 6.91761 322.958 7.32955C322.741 7.73674 322.629 8.18419 322.625 8.67188V10.1847C322.625 10.8191 322.741 11.3636 322.973 11.8182C323.205 12.268 323.529 12.6136 323.946 12.8551C324.362 13.0919 324.85 13.2102 325.409 13.2102C325.783 13.2102 326.121 13.1581 326.424 13.054C326.727 12.9451 326.99 12.7865 327.213 12.5781C327.435 12.3698 327.603 12.1117 327.717 11.804L330.118 12.0739C329.966 12.7083 329.677 13.2623 329.251 13.7358C328.83 14.2045 328.29 14.5691 327.632 14.8295C326.974 15.0852 326.221 15.2131 325.373 15.2131ZM335.538 15.2202C334.847 15.2202 334.224 15.0971 333.67 14.8509C333.121 14.5999 332.686 14.2306 332.364 13.7429C332.046 13.2552 331.888 12.6539 331.888 11.9389C331.888 11.3234 332.001 10.8144 332.229 10.4119C332.456 10.0095 332.766 9.6875 333.159 9.44602C333.552 9.20455 333.995 9.02225 334.487 8.89915C334.984 8.77131 335.498 8.67898 336.028 8.62216C336.668 8.55587 337.186 8.49669 337.584 8.4446C337.982 8.38778 338.27 8.30256 338.45 8.18892C338.635 8.07055 338.727 7.88826 338.727 7.64205V7.59943C338.727 7.06439 338.569 6.65009 338.251 6.35653C337.934 6.06297 337.477 5.91619 336.881 5.91619C336.251 5.91619 335.751 6.0535 335.382 6.32812C335.018 6.60275 334.771 6.92708 334.643 7.30114L332.243 6.96023C332.432 6.29735 332.745 5.74337 333.18 5.2983C333.616 4.84848 334.149 4.51231 334.778 4.28977C335.408 4.0625 336.104 3.94886 336.866 3.94886C337.392 3.94886 337.915 4.01042 338.436 4.13352C338.957 4.25663 339.433 4.46023 339.864 4.74432C340.295 5.02367 340.64 5.40483 340.901 5.88778C341.166 6.37074 341.298 6.97443 341.298 7.69886V15H338.827V13.5014H338.741C338.585 13.8045 338.365 14.0885 338.081 14.3537C337.802 14.6141 337.449 14.8248 337.023 14.9858C336.601 15.142 336.107 15.2202 335.538 15.2202ZM336.206 13.331C336.722 13.331 337.17 13.2292 337.548 13.0256C337.927 12.8172 338.218 12.5426 338.422 12.2017C338.63 11.8608 338.734 11.4891 338.734 11.0866V9.80114C338.654 9.86742 338.517 9.92898 338.322 9.9858C338.133 10.0426 337.92 10.0923 337.683 10.1349C337.446 10.1776 337.212 10.2154 336.98 10.2486C336.748 10.2817 336.547 10.3101 336.376 10.3338C335.993 10.3859 335.65 10.4711 335.347 10.5895C335.044 10.7079 334.804 10.8736 334.629 11.0866C334.454 11.295 334.366 11.5649 334.366 11.8963C334.366 12.3698 334.539 12.7273 334.885 12.9688C335.231 13.2102 335.671 13.331 336.206 13.331ZM346.227 11.5767L346.22 8.47301H346.632L350.553 4.09091H353.557L348.734 9.46023H348.202L346.227 11.5767ZM343.884 15V0.454545H346.455V15H343.884ZM350.73 15L347.179 10.0355L348.912 8.22443L353.805 15H350.73Z"
    fill="#9E9E9E" />
  <line x1="63.5" y1="25" x2="63.5" y2="50" stroke="#FF4444" stroke-width="3" />
</svg>