<svg width="392" height="165" viewBox="0 0 392 165" fill="none" xmlns="http://www.w3.org/2000/svg">
  <path
    d="M0.880682 3.34375V1.45455H12.1378V3.34375H7.59943V16H5.41193V3.34375H0.880682ZM14.4549 16V5.09091H16.5785V16H14.4549ZM15.5273 3.40767C15.158 3.40767 14.8408 3.28456 14.5756 3.03835C14.3152 2.7874 14.185 2.48911 14.185 2.14347C14.185 1.79309 14.3152 1.49479 14.5756 1.24858C14.8408 0.997632 15.158 0.872159 15.5273 0.872159C15.8967 0.872159 16.2115 0.997632 16.4719 1.24858C16.7371 1.49479 16.8697 1.79309 16.8697 2.14347C16.8697 2.48911 16.7371 2.7874 16.4719 3.03835C16.2115 3.28456 15.8967 3.40767 15.5273 3.40767ZM19.4354 16V5.09091H21.4737V6.86648H21.6087C21.8359 6.26515 22.2076 5.7964 22.7237 5.46023C23.2398 5.11932 23.8577 4.94886 24.5774 4.94886C25.3066 4.94886 25.9174 5.11932 26.4098 5.46023C26.907 5.80114 27.2739 6.26989 27.5107 6.86648H27.6243C27.8847 6.28409 28.299 5.82008 28.8672 5.47443C29.4354 5.12405 30.1125 4.94886 30.8984 4.94886C31.888 4.94886 32.6953 5.259 33.3203 5.87926C33.95 6.49953 34.2649 7.43466 34.2649 8.68466V16H32.1413V8.88352C32.1413 8.14489 31.9401 7.60985 31.5376 7.27841C31.1352 6.94697 30.6546 6.78125 30.0959 6.78125C29.4046 6.78125 28.8672 6.99432 28.4837 7.42045C28.1001 7.84186 27.9084 8.384 27.9084 9.04688V16H25.7919V8.74858C25.7919 8.15672 25.6072 7.68087 25.2379 7.32102C24.8686 6.96117 24.388 6.78125 23.7962 6.78125C23.3937 6.78125 23.022 6.88778 22.6811 7.10085C22.3449 7.30919 22.0727 7.60038 21.8643 7.97443C21.6607 8.34848 21.5589 8.78172 21.5589 9.27415V16H19.4354ZM41.8129 16.2202C40.738 16.2202 39.8124 15.9905 39.0359 15.5312C38.2641 15.0672 37.6675 14.4162 37.2461 13.5781C36.8294 12.7353 36.6211 11.7481 36.6211 10.6165C36.6211 9.49905 36.8294 8.5142 37.2461 7.66193C37.6675 6.80966 38.2546 6.14441 39.0075 5.66619C39.765 5.18797 40.6504 4.94886 41.6637 4.94886C42.2792 4.94886 42.8758 5.05066 43.4535 5.25426C44.0311 5.45786 44.5496 5.77746 45.0089 6.21307C45.4682 6.64867 45.8304 7.21449 46.0955 7.91051C46.3607 8.6018 46.4933 9.44223 46.4933 10.4318V11.1847H37.8214V9.59375H44.4123C44.4123 9.03504 44.2987 8.54025 44.0714 8.10938C43.8441 7.67377 43.5245 7.33049 43.1126 7.07955C42.7054 6.8286 42.2272 6.70312 41.6779 6.70312C41.0813 6.70312 40.5605 6.84991 40.1154 7.14347C39.6751 7.43229 39.3342 7.81108 39.0927 8.27983C38.8559 8.74384 38.7376 9.24811 38.7376 9.79261V11.0355C38.7376 11.7647 38.8654 12.3849 39.1211 12.8963C39.3815 13.4077 39.7437 13.7983 40.2077 14.0682C40.6718 14.3333 41.2139 14.4659 41.8342 14.4659C42.2366 14.4659 42.6036 14.4091 42.935 14.2955C43.2665 14.1771 43.5529 14.0019 43.7944 13.7699C44.0359 13.5379 44.2205 13.2514 44.3484 12.9105L46.3583 13.2727C46.1973 13.8646 45.9085 14.383 45.4918 14.8281C45.0799 15.2685 44.5614 15.6117 43.9364 15.858C43.3162 16.0994 42.6083 16.2202 41.8129 16.2202ZM62.3171 7.75426L60.3924 8.09517C60.3119 7.84896 60.1841 7.61458 60.0089 7.39205C59.8384 7.16951 59.6064 6.98722 59.3129 6.84517C59.0193 6.70312 58.6523 6.6321 58.212 6.6321C57.6107 6.6321 57.1088 6.76705 56.7063 7.03693C56.3039 7.30208 56.1026 7.64536 56.1026 8.06676C56.1026 8.43134 56.2376 8.72491 56.5075 8.94744C56.7773 9.16998 57.2129 9.35227 57.8143 9.49432L59.5472 9.89205C60.551 10.1241 61.2991 10.4815 61.7915 10.9645C62.284 11.4474 62.5302 12.0748 62.5302 12.8466C62.5302 13.5 62.3408 14.0824 61.962 14.5938C61.588 15.1004 61.0647 15.4981 60.3924 15.7869C59.7248 16.0758 58.9506 16.2202 58.07 16.2202C56.8484 16.2202 55.8517 15.9598 55.0799 15.4389C54.3081 14.9134 53.8346 14.1676 53.6594 13.2017L55.712 12.8892C55.8398 13.4242 56.1026 13.8291 56.5004 14.1037C56.8981 14.3736 57.4165 14.5085 58.0558 14.5085C58.7518 14.5085 59.3081 14.3641 59.7248 14.0753C60.1415 13.7817 60.3498 13.4242 60.3498 13.0028C60.3498 12.6619 60.2219 12.3755 59.9663 12.1435C59.7153 11.9115 59.3294 11.7363 58.8086 11.6179L56.962 11.2131C55.944 10.9811 55.1912 10.6117 54.7035 10.1051C54.2205 9.59848 53.979 8.95691 53.979 8.1804C53.979 7.53646 54.159 6.97301 54.5188 6.49006C54.8787 6.0071 55.3758 5.63068 56.0103 5.3608C56.6448 5.08617 57.3716 4.94886 58.1907 4.94886C59.3697 4.94886 60.2977 5.20455 60.9748 5.71591C61.6519 6.22254 62.0993 6.90199 62.3171 7.75426ZM64.8651 20.0909V5.09091H66.9389V6.85938H67.1165C67.2396 6.6321 67.4171 6.36932 67.6491 6.07102C67.8812 5.77273 68.2031 5.51231 68.6151 5.28977C69.027 5.0625 69.5715 4.94886 70.2486 4.94886C71.1293 4.94886 71.9152 5.1714 72.6065 5.61648C73.2978 6.06155 73.84 6.70312 74.233 7.54119C74.6307 8.37926 74.8295 9.38778 74.8295 10.5668C74.8295 11.7457 74.633 12.7566 74.2401 13.5994C73.8471 14.4375 73.3073 15.0838 72.6207 15.5384C71.9342 15.9882 71.1506 16.2131 70.2699 16.2131C69.607 16.2131 69.0649 16.1018 68.6435 15.8793C68.2268 15.6567 67.9001 15.3963 67.6634 15.098C67.4266 14.7997 67.2443 14.5346 67.1165 14.3026H66.9886V20.0909H64.8651ZM66.946 10.5455C66.946 11.3125 67.0573 11.9848 67.2798 12.5625C67.5024 13.1402 67.8243 13.5923 68.2457 13.919C68.6671 14.241 69.1832 14.402 69.794 14.402C70.4285 14.402 70.9588 14.2339 71.3849 13.8977C71.8111 13.5568 72.133 13.0952 72.3509 12.5128C72.5734 11.9304 72.6847 11.2746 72.6847 10.5455C72.6847 9.82576 72.5758 9.17945 72.358 8.60653C72.1449 8.03362 71.8229 7.58144 71.392 7.25C70.9659 6.91856 70.4332 6.75284 69.794 6.75284C69.1785 6.75284 68.6577 6.91146 68.2315 7.22869C67.8101 7.54593 67.4905 7.98864 67.2727 8.55682C67.0549 9.125 66.946 9.78788 66.946 10.5455ZM81.9105 16.2202C80.8357 16.2202 79.91 15.9905 79.1335 15.5312C78.3617 15.0672 77.7652 14.4162 77.3438 13.5781C76.9271 12.7353 76.7188 11.7481 76.7188 10.6165C76.7188 9.49905 76.9271 8.5142 77.3438 7.66193C77.7652 6.80966 78.3523 6.14441 79.1051 5.66619C79.8627 5.18797 80.7481 4.94886 81.7614 4.94886C82.3769 4.94886 82.9735 5.05066 83.5511 5.25426C84.1288 5.45786 84.6473 5.77746 85.1065 6.21307C85.5658 6.64867 85.928 7.21449 86.1932 7.91051C86.4583 8.6018 86.5909 9.44223 86.5909 10.4318V11.1847H77.919V9.59375H84.5099C84.5099 9.03504 84.3963 8.54025 84.169 8.10938C83.9418 7.67377 83.6222 7.33049 83.2102 7.07955C82.803 6.8286 82.3248 6.70312 81.7756 6.70312C81.179 6.70312 80.6581 6.84991 80.2131 7.14347C79.7727 7.43229 79.4318 7.81108 79.1903 8.27983C78.9536 8.74384 78.8352 9.24811 78.8352 9.79261V11.0355C78.8352 11.7647 78.9631 12.3849 79.2188 12.8963C79.4792 13.4077 79.8414 13.7983 80.3054 14.0682C80.7694 14.3333 81.3116 14.4659 81.9318 14.4659C82.3343 14.4659 82.7012 14.4091 83.0327 14.2955C83.3641 14.1771 83.6506 14.0019 83.892 13.7699C84.1335 13.5379 84.3182 13.2514 84.446 12.9105L86.456 13.2727C86.295 13.8646 86.0062 14.383 85.5895 14.8281C85.1776 15.2685 84.6591 15.6117 84.0341 15.858C83.4138 16.0994 82.706 16.2202 81.9105 16.2202ZM91.0707 9.52273V16H88.9471V5.09091H90.9854V6.86648H91.1204C91.3713 6.28883 91.7643 5.82481 92.2994 5.47443C92.8391 5.12405 93.5186 4.94886 94.3377 4.94886C95.0811 4.94886 95.7321 5.10511 96.2908 5.41761C96.8496 5.72538 97.2828 6.18466 97.5906 6.79545C97.8983 7.40625 98.0522 8.16146 98.0522 9.06108V16H95.9286V9.31676C95.9286 8.52604 95.7227 7.90814 95.3107 7.46307C94.8988 7.01326 94.333 6.78835 93.6133 6.78835C93.1209 6.78835 92.6829 6.89489 92.2994 7.10795C91.9206 7.32102 91.6199 7.63352 91.3974 8.04545C91.1796 8.45265 91.0707 8.94508 91.0707 9.52273ZM105.993 5.09091V6.79545H100.034V5.09091H105.993ZM101.632 2.47727H103.755V12.7969C103.755 13.2088 103.817 13.5189 103.94 13.7273C104.063 13.9309 104.222 14.0705 104.416 14.1463C104.615 14.2173 104.83 14.2528 105.062 14.2528C105.233 14.2528 105.382 14.241 105.51 14.2173C105.637 14.1937 105.737 14.1747 105.808 14.1605L106.191 15.9148C106.068 15.9621 105.893 16.0095 105.666 16.0568C105.439 16.1089 105.154 16.1373 104.814 16.142C104.255 16.1515 103.734 16.0521 103.251 15.8438C102.768 15.6354 102.377 15.3134 102.079 14.8778C101.781 14.4422 101.632 13.8954 101.632 13.2372V2.47727ZM113.805 16V1.45455H115.929V6.85938H116.056C116.18 6.6321 116.357 6.36932 116.589 6.07102C116.821 5.77273 117.143 5.51231 117.555 5.28977C117.967 5.0625 118.511 4.94886 119.189 4.94886C120.069 4.94886 120.855 5.1714 121.547 5.61648C122.238 6.06155 122.78 6.70312 123.173 7.54119C123.571 8.37926 123.77 9.38778 123.77 10.5668C123.77 11.7457 123.573 12.7566 123.18 13.5994C122.787 14.4375 122.247 15.0838 121.561 15.5384C120.874 15.9882 120.091 16.2131 119.21 16.2131C118.547 16.2131 118.005 16.1018 117.583 15.8793C117.167 15.6567 116.84 15.3963 116.603 15.098C116.367 14.7997 116.184 14.5346 116.056 14.3026H115.879V16H113.805ZM115.886 10.5455C115.886 11.3125 115.997 11.9848 116.22 12.5625C116.442 13.1402 116.764 13.5923 117.186 13.919C117.607 14.241 118.123 14.402 118.734 14.402C119.368 14.402 119.899 14.2339 120.325 13.8977C120.751 13.5568 121.073 13.0952 121.291 12.5128C121.513 11.9304 121.625 11.2746 121.625 10.5455C121.625 9.82576 121.516 9.17945 121.298 8.60653C121.085 8.03362 120.763 7.58144 120.332 7.25C119.906 6.91856 119.373 6.75284 118.734 6.75284C118.118 6.75284 117.598 6.91146 117.172 7.22869C116.75 7.54593 116.431 7.98864 116.213 8.55682C115.995 9.125 115.886 9.78788 115.886 10.5455ZM127.125 20.0909C126.808 20.0909 126.519 20.0649 126.259 20.0128C125.998 19.9654 125.804 19.9134 125.676 19.8565L126.188 18.1165C126.576 18.2206 126.922 18.2656 127.225 18.2514C127.528 18.2372 127.795 18.1236 128.027 17.9105C128.264 17.6974 128.472 17.3494 128.652 16.8665L128.915 16.142L124.924 5.09091H127.196L129.959 13.5568H130.073L132.836 5.09091H135.115L130.62 17.456C130.411 18.0241 130.146 18.5047 129.824 18.8977C129.502 19.2955 129.119 19.5938 128.674 19.7926C128.229 19.9915 127.712 20.0909 127.125 20.0909ZM147.496 5.09091V6.79545H141.538V5.09091H147.496ZM143.136 2.47727H145.259V12.7969C145.259 13.2088 145.321 13.5189 145.444 13.7273C145.567 13.9309 145.726 14.0705 145.92 14.1463C146.119 14.2173 146.334 14.2528 146.566 14.2528C146.737 14.2528 146.886 14.241 147.013 14.2173C147.141 14.1937 147.241 14.1747 147.312 14.1605L147.695 15.9148C147.572 15.9621 147.397 16.0095 147.17 16.0568C146.942 16.1089 146.658 16.1373 146.317 16.142C145.759 16.1515 145.238 16.0521 144.755 15.8438C144.272 15.6354 143.881 15.3134 143.583 14.8778C143.285 14.4422 143.136 13.8954 143.136 13.2372V2.47727ZM153.02 16.2415C152.329 16.2415 151.704 16.1136 151.145 15.858C150.587 15.5975 150.144 15.2211 149.817 14.7287C149.495 14.2363 149.334 13.6326 149.334 12.9176C149.334 12.3021 149.453 11.7955 149.689 11.3977C149.926 11 150.246 10.6851 150.648 10.4531C151.051 10.2211 151.5 10.0459 151.998 9.92756C152.495 9.80919 153.001 9.71922 153.517 9.65767C154.171 9.58191 154.701 9.52036 155.108 9.47301C155.516 9.42093 155.811 9.33807 155.996 9.22443C156.181 9.1108 156.273 8.92614 156.273 8.67045V8.62074C156.273 8.00047 156.098 7.51989 155.748 7.17898C155.402 6.83807 154.886 6.66761 154.199 6.66761C153.484 6.66761 152.921 6.82623 152.509 7.14347C152.102 7.45597 151.82 7.80398 151.664 8.1875L149.668 7.73295C149.905 7.07008 150.25 6.53504 150.705 6.12784C151.164 5.71591 151.692 5.41761 152.289 5.23295C152.885 5.04356 153.513 4.94886 154.171 4.94886C154.606 4.94886 155.068 5.00095 155.556 5.10511C156.048 5.20455 156.507 5.3892 156.934 5.65909C157.364 5.92898 157.717 6.31487 157.992 6.81676C158.266 7.31392 158.404 7.96023 158.404 8.75568V16H156.33V14.5085H156.245C156.107 14.7831 155.901 15.053 155.627 15.3182C155.352 15.5833 154.999 15.8035 154.569 15.9787C154.138 16.1539 153.622 16.2415 153.02 16.2415ZM153.482 14.5369C154.069 14.5369 154.571 14.4209 154.988 14.1889C155.409 13.9569 155.729 13.6539 155.946 13.2798C156.169 12.901 156.28 12.4962 156.28 12.0653V10.6591C156.204 10.7348 156.058 10.8059 155.84 10.8722C155.627 10.9337 155.383 10.9882 155.108 11.0355C154.834 11.0781 154.566 11.1184 154.306 11.1562C154.045 11.1894 153.828 11.2178 153.652 11.2415C153.24 11.2936 152.864 11.3812 152.523 11.5043C152.187 11.6274 151.917 11.8049 151.713 12.0369C151.515 12.2642 151.415 12.5672 151.415 12.946C151.415 13.4716 151.609 13.8693 151.998 14.1392C152.386 14.4044 152.881 14.5369 153.482 14.5369ZM169.407 7.75426L167.482 8.09517C167.402 7.84896 167.274 7.61458 167.099 7.39205C166.928 7.16951 166.696 6.98722 166.403 6.84517C166.109 6.70312 165.742 6.6321 165.302 6.6321C164.701 6.6321 164.199 6.76705 163.796 7.03693C163.394 7.30208 163.192 7.64536 163.192 8.06676C163.192 8.43134 163.327 8.72491 163.597 8.94744C163.867 9.16998 164.303 9.35227 164.904 9.49432L166.637 9.89205C167.641 10.1241 168.389 10.4815 168.881 10.9645C169.374 11.4474 169.62 12.0748 169.62 12.8466C169.62 13.5 169.431 14.0824 169.052 14.5938C168.678 15.1004 168.155 15.4981 167.482 15.7869C166.815 16.0758 166.04 16.2202 165.16 16.2202C163.938 16.2202 162.942 15.9598 162.17 15.4389C161.398 14.9134 160.924 14.1676 160.749 13.2017L162.802 12.8892C162.93 13.4242 163.192 13.8291 163.59 14.1037C163.988 14.3736 164.506 14.5085 165.146 14.5085C165.842 14.5085 166.398 14.3641 166.815 14.0753C167.231 13.7817 167.44 13.4242 167.44 13.0028C167.44 12.6619 167.312 12.3755 167.056 12.1435C166.805 11.9115 166.419 11.7363 165.898 11.6179L164.052 11.2131C163.034 10.9811 162.281 10.6117 161.793 10.1051C161.31 9.59848 161.069 8.95691 161.069 8.1804C161.069 7.53646 161.249 6.97301 161.609 6.49006C161.969 6.0071 162.466 5.63068 163.1 5.3608C163.735 5.08617 164.461 4.94886 165.281 4.94886C166.46 4.94886 167.388 5.20455 168.065 5.71591C168.742 6.22254 169.189 6.90199 169.407 7.75426ZM173.908 12.2997L173.894 9.70739H174.263L178.61 5.09091H181.152L176.195 10.3466H175.861L173.908 12.2997ZM171.955 16V1.45455H174.078V16H171.955ZM178.844 16L174.938 10.8153L176.401 9.33097L181.451 16H178.844Z"
    fill="#5E5E5E" />
  <rect x="3" y="39" width="273" height="28" rx="5" fill="#313131" />
  <rect x="2" y="72" width="164" height="28" rx="5" fill="#606060" />
  <rect x="2" y="105" width="158" height="28" rx="5" fill="#9D9D9D" />
  <rect x="2" y="137" width="21" height="28" rx="5" fill="#D4D4D4" />
  <path
    d="M11.9847 59V45.9091H13.18V57.9261H19.4187V59H11.9847ZM25.8427 59.2045C24.9265 59.2045 24.1339 58.9915 23.4648 58.5653C22.7958 58.1349 22.2781 57.5405 21.9116 56.782C21.5494 56.0192 21.3683 55.1413 21.3683 54.1484C21.3683 53.1598 21.5494 52.282 21.9116 51.5149C22.2781 50.7436 22.783 50.1406 23.4265 49.706C24.0742 49.267 24.8221 49.0476 25.6701 49.0476C26.2028 49.0476 26.7163 49.1456 27.2106 49.3416C27.7049 49.5334 28.1481 49.8295 28.5401 50.2301C28.9364 50.6264 29.2496 51.1271 29.4798 51.7322C29.7099 52.3331 29.8249 53.0447 29.8249 53.8672V54.4297H22.1545V53.4261H28.6616C28.6616 52.7955 28.5337 52.2287 28.2781 51.7259C28.0266 51.2187 27.6751 50.8182 27.2234 50.5241C26.7759 50.2301 26.2582 50.0831 25.6701 50.0831C25.0479 50.0831 24.5004 50.2493 24.0273 50.5817C23.5543 50.9141 23.1836 51.353 22.9151 51.8984C22.6509 52.4439 22.5167 53.0405 22.5124 53.6882V54.2891C22.5124 55.0689 22.6467 55.7507 22.9151 56.3345C23.1879 56.9141 23.5735 57.3636 24.0721 57.6832C24.5707 58.0028 25.1609 58.1626 25.8427 58.1626C26.3072 58.1626 26.7141 58.0902 27.0636 57.9453C27.4173 57.8004 27.7134 57.6065 27.9521 57.3636C28.195 57.1165 28.3782 56.8459 28.5018 56.5518L29.582 56.9034C29.4329 57.3168 29.1879 57.6982 28.8469 58.0476C28.5103 58.397 28.0884 58.6783 27.5813 58.8913C27.0785 59.1001 26.4989 59.2045 25.8427 59.2045ZM35.0744 59.2237C34.4821 59.2237 33.9409 59.1087 33.4508 58.8786C32.9608 58.6442 32.5708 58.3075 32.2811 57.8686C31.9913 57.4254 31.8464 56.8885 31.8464 56.2578C31.8464 55.772 31.938 55.3629 32.1213 55.0305C32.3045 54.6982 32.5645 54.4254 32.9011 54.2124C33.2377 53.9993 33.6362 53.831 34.0964 53.7074C34.5566 53.5838 35.0637 53.4879 35.6177 53.4197C36.1674 53.3516 36.6319 53.2919 37.0112 53.2408C37.3947 53.1896 37.6866 53.1087 37.8869 52.9979C38.0872 52.8871 38.1873 52.7081 38.1873 52.4609V52.2308C38.1873 51.5618 37.987 51.0355 37.5865 50.652C37.1902 50.2642 36.6191 50.0703 35.8734 50.0703C35.166 50.0703 34.5886 50.2259 34.1412 50.5369C33.698 50.848 33.3869 51.2145 33.2079 51.6364L32.1277 51.2464C32.3493 50.7095 32.6561 50.2812 33.0481 49.9616C33.4402 49.6378 33.8791 49.4055 34.3649 49.2649C34.8507 49.12 35.3429 49.0476 35.8414 49.0476C36.2164 49.0476 36.6064 49.0966 37.0112 49.1946C37.4203 49.2926 37.7995 49.4631 38.149 49.706C38.4984 49.9446 38.7818 50.2791 38.9991 50.7095C39.2164 51.1357 39.3251 51.6768 39.3251 52.3331V59H38.1873V57.4467H38.117C37.9806 57.7365 37.7782 58.0178 37.5098 58.2905C37.2413 58.5632 36.9047 58.7869 36.4998 58.9616C36.095 59.1364 35.6199 59.2237 35.0744 59.2237ZM35.2278 58.1818C35.8329 58.1818 36.3571 58.0476 36.8002 57.7791C37.2434 57.5107 37.5843 57.1548 37.823 56.7116C38.0659 56.2642 38.1873 55.772 38.1873 55.2351V53.8161C38.1021 53.897 37.9593 53.9695 37.7591 54.0334C37.563 54.0973 37.335 54.1548 37.0751 54.206C36.8194 54.2528 36.5637 54.2933 36.3081 54.3274C36.0524 54.3615 35.8223 54.3913 35.6177 54.4169C35.0637 54.4851 34.5907 54.5916 34.1987 54.7365C33.8066 54.8814 33.5062 55.0817 33.2974 55.3374C33.0886 55.5888 32.9842 55.9126 32.9842 56.3089C32.9842 56.9055 33.1973 57.3679 33.6234 57.696C34.0495 58.0199 34.5843 58.1818 35.2278 58.1818ZM42.3517 59V49.1818H43.4576V50.6903H43.5407C43.7367 50.196 44.0776 49.7976 44.5634 49.495C45.0534 49.1882 45.6074 49.0348 46.2253 49.0348C46.3191 49.0348 46.4235 49.0369 46.5385 49.0412C46.6536 49.0455 46.7495 49.0497 46.8262 49.054V50.2109C46.775 50.2024 46.6855 50.1896 46.5577 50.1726C46.4299 50.1555 46.2914 50.147 46.1422 50.147C45.6309 50.147 45.1749 50.2557 44.7743 50.473C44.378 50.6861 44.0648 50.9822 43.8347 51.3615C43.6046 51.7408 43.4895 52.1733 43.4895 52.6591V59H42.3517ZM49.9055 52.8636V59H48.7678V49.1818H49.8736V50.7223H49.9759C50.206 50.2195 50.5639 49.8168 51.0497 49.5142C51.5398 49.2074 52.1449 49.054 52.8651 49.054C53.5256 49.054 54.1051 49.1925 54.6037 49.4695C55.1065 49.7422 55.4964 50.1449 55.7734 50.6776C56.0547 51.2102 56.1953 51.8643 56.1953 52.6399V59H55.0575V52.7102C55.0575 51.9048 54.8317 51.2678 54.38 50.799C53.9325 50.3303 53.3317 50.0959 52.5774 50.0959C52.0618 50.0959 51.6037 50.2067 51.2031 50.4283C50.8026 50.6499 50.4851 50.9695 50.2507 51.3871C50.0206 51.8004 49.9055 52.2926 49.9055 52.8636ZM68.1213 49.1818V50.1726H63.4359V49.1818H68.1213ZM64.8997 46.8295H66.0439V56.4368C66.0439 56.8459 66.1142 57.1676 66.2548 57.402C66.3954 57.6321 66.5787 57.7962 66.8045 57.8942C67.0304 57.9879 67.2711 58.0348 67.5268 58.0348C67.676 58.0348 67.8038 58.0263 67.9103 58.0092C68.0169 57.9879 68.1106 57.9666 68.1916 57.9453L68.4345 58.9744C68.3237 59.017 68.1873 59.0554 68.0254 59.0895C67.8635 59.1278 67.6632 59.147 67.4245 59.147C67.0069 59.147 66.6042 59.0554 66.2164 58.8722C65.8329 58.6889 65.5176 58.4162 65.2704 58.054C65.0233 57.6918 64.8997 57.2422 64.8997 56.7053V46.8295ZM74.4158 59.2045C73.5678 59.2045 72.8178 58.9893 72.1658 58.5589C71.5181 58.1286 71.011 57.5341 70.6445 56.7756C70.2781 56.0128 70.0948 55.1328 70.0948 54.1357C70.0948 53.13 70.2781 52.2457 70.6445 51.483C71.011 50.7159 71.5181 50.1193 72.1658 49.6932C72.8178 49.2628 73.5678 49.0476 74.4158 49.0476C75.2638 49.0476 76.0117 49.2628 76.6594 49.6932C77.3072 50.1236 77.8143 50.7202 78.1808 51.483C78.5515 52.2457 78.7369 53.13 78.7369 54.1357C78.7369 55.1328 78.5536 56.0128 78.1871 56.7756C77.8207 57.5341 77.3114 58.1286 76.6594 58.5589C76.0117 58.9893 75.2638 59.2045 74.4158 59.2045ZM74.4158 58.1626C75.0977 58.1626 75.6751 57.9794 76.1481 57.6129C76.6211 57.2464 76.979 56.7585 77.2219 56.1491C77.4691 55.5398 77.5927 54.8686 77.5927 54.1357C77.5927 53.4027 77.4691 52.7294 77.2219 52.1158C76.979 51.5021 76.6211 51.0099 76.1481 50.6392C75.6751 50.2685 75.0977 50.0831 74.4158 50.0831C73.7383 50.0831 73.1609 50.2685 72.6836 50.6392C72.2106 51.0099 71.8505 51.5021 71.6033 52.1158C71.3604 52.7294 71.239 53.4027 71.239 54.1357C71.239 54.8686 71.3604 55.5398 71.6033 56.1491C71.8505 56.7585 72.2106 57.2464 72.6836 57.6129C73.1566 57.9794 73.734 58.1626 74.4158 58.1626ZM89.8319 59.2045C89.0265 59.2045 88.3212 58.9915 87.7161 58.5653C87.111 58.1392 86.638 57.5447 86.2971 56.782C85.9604 56.0192 85.7921 55.1307 85.7921 54.1165C85.7921 53.1065 85.9604 52.2223 86.2971 51.4638C86.638 50.701 87.1131 50.1087 87.7225 49.6868C88.3319 49.2607 89.0414 49.0476 89.851 49.0476C90.4476 49.0476 90.9441 49.1541 91.3404 49.3672C91.7367 49.576 92.0542 49.8359 92.2928 50.147C92.5314 50.4581 92.7168 50.7607 92.8489 51.0547H92.9512V45.9091H94.0953V59H92.9831V57.1783H92.8489C92.7168 57.4766 92.5293 57.7834 92.2864 58.0987C92.0435 58.4098 91.7218 58.6719 91.3212 58.8849C90.9249 59.098 90.4284 59.2045 89.8319 59.2045ZM89.9661 58.1626C90.601 58.1626 91.1422 57.9901 91.5897 57.6449C92.0371 57.2955 92.378 56.8161 92.6124 56.2067C92.851 55.593 92.9703 54.8899 92.9703 54.0973C92.9703 53.3132 92.8532 52.6207 92.6188 52.0199C92.3844 51.4148 92.0435 50.9418 91.5961 50.6009C91.1486 50.2557 90.6053 50.0831 89.9661 50.0831C89.3098 50.0831 88.7559 50.2621 88.3042 50.62C87.8567 50.9737 87.5158 51.4531 87.2814 52.0582C87.0513 52.6634 86.9363 53.343 86.9363 54.0973C86.9363 54.8601 87.0534 55.5483 87.2878 56.1619C87.5222 56.7756 87.8631 57.2635 88.3105 57.6257C88.7623 57.9837 89.3141 58.1626 89.9661 58.1626ZM97.3361 59V49.1818H98.4419V50.6903H98.525C98.7211 50.196 99.062 49.7976 99.5478 49.495C100.038 49.1882 100.592 49.0348 101.21 49.0348C101.303 49.0348 101.408 49.0369 101.523 49.0412C101.638 49.0455 101.734 49.0497 101.811 49.054V50.2109C101.759 50.2024 101.67 50.1896 101.542 50.1726C101.414 50.1555 101.276 50.147 101.127 50.147C100.615 50.147 100.159 50.2557 99.7587 50.473C99.3624 50.6861 99.0492 50.9822 98.8191 51.3615C98.589 51.7408 98.4739 52.1733 98.4739 52.6591V59H97.3361ZM106.494 59.2237C105.902 59.2237 105.361 59.1087 104.871 58.8786C104.381 58.6442 103.991 58.3075 103.701 57.8686C103.411 57.4254 103.266 56.8885 103.266 56.2578C103.266 55.772 103.358 55.3629 103.541 55.0305C103.724 54.6982 103.984 54.4254 104.321 54.2124C104.658 53.9993 105.056 53.831 105.516 53.7074C105.977 53.5838 106.484 53.4879 107.038 53.4197C107.587 53.3516 108.052 53.2919 108.431 53.2408C108.815 53.1896 109.107 53.1087 109.307 52.9979C109.507 52.8871 109.607 52.7081 109.607 52.4609V52.2308C109.607 51.5618 109.407 51.0355 109.006 50.652C108.61 50.2642 108.039 50.0703 107.293 50.0703C106.586 50.0703 106.009 50.2259 105.561 50.5369C105.118 50.848 104.807 51.2145 104.628 51.6364L103.548 51.2464C103.769 50.7095 104.076 50.2812 104.468 49.9616C104.86 49.6378 105.299 49.4055 105.785 49.2649C106.271 49.12 106.763 49.0476 107.261 49.0476C107.636 49.0476 108.026 49.0966 108.431 49.1946C108.84 49.2926 109.219 49.4631 109.569 49.706C109.918 49.9446 110.202 50.2791 110.419 50.7095C110.636 51.1357 110.745 51.6768 110.745 52.3331V59H109.607V57.4467H109.537C109.401 57.7365 109.198 58.0178 108.93 58.2905C108.661 58.5632 108.325 58.7869 107.92 58.9616C107.515 59.1364 107.04 59.2237 106.494 59.2237ZM106.648 58.1818C107.253 58.1818 107.777 58.0476 108.22 57.7791C108.663 57.5107 109.004 57.1548 109.243 56.7116C109.486 56.2642 109.607 55.772 109.607 55.2351V53.8161C109.522 53.897 109.379 53.9695 109.179 54.0334C108.983 54.0973 108.755 54.1548 108.495 54.206C108.239 54.2528 107.984 54.2933 107.728 54.3274C107.472 54.3615 107.242 54.3913 107.038 54.4169C106.484 54.4851 106.011 54.5916 105.619 54.7365C105.227 54.8814 104.926 55.0817 104.717 55.3374C104.509 55.5888 104.404 55.9126 104.404 56.3089C104.404 56.9055 104.617 57.3679 105.043 57.696C105.469 58.0199 106.004 58.1818 106.648 58.1818ZM115.951 59L112.985 49.1818H114.187L116.514 57.2805H116.597L118.917 49.1818H120.125L122.426 57.2614H122.516L124.843 49.1818H126.044L123.078 59H121.902L119.576 50.9524H119.454L117.127 59H115.951Z"
    fill="#E9E9E9" />
  <path
    d="M304.923 59V58.1243L309.199 53.3175C309.758 52.6868 310.207 52.1477 310.548 51.7003C310.889 51.2528 311.136 50.8395 311.29 50.4602C311.447 50.081 311.526 49.6868 311.526 49.2777C311.526 48.7791 311.409 48.3445 311.175 47.9737C310.945 47.5987 310.627 47.3068 310.222 47.098C309.817 46.8892 309.361 46.7848 308.854 46.7848C308.317 46.7848 307.847 46.8999 307.442 47.13C307.041 47.3601 306.73 47.6754 306.508 48.076C306.287 48.4766 306.176 48.9368 306.176 49.4567H305.032C305.032 48.7322 305.198 48.0909 305.53 47.5327C305.867 46.9702 306.325 46.5291 306.905 46.2095C307.489 45.8899 308.149 45.7301 308.886 45.7301C309.615 45.7301 310.263 45.8878 310.829 46.2031C311.396 46.5142 311.842 46.9382 312.165 47.4751C312.489 48.0121 312.651 48.6129 312.651 49.2777C312.651 49.7592 312.566 50.2259 312.396 50.6776C312.229 51.1293 311.942 51.6321 311.533 52.1861C311.123 52.7401 310.557 53.4176 309.832 54.2188L306.585 57.843V57.9261H313.06V59H304.923ZM322.155 52.8636V59H321.017V45.9091H322.155V50.7223H322.257C322.487 50.2152 322.843 49.8104 323.324 49.5078C323.81 49.2053 324.424 49.054 325.165 49.054C325.83 49.054 326.414 49.1903 326.917 49.4631C327.419 49.7358 327.812 50.1385 328.093 50.6712C328.374 51.2038 328.515 51.8601 328.515 52.6399V59H327.37V52.7102C327.37 51.9006 327.145 51.2635 326.693 50.799C326.245 50.3303 325.64 50.0959 324.878 50.0959C324.353 50.0959 323.887 50.2067 323.478 50.4283C323.069 50.6499 322.745 50.9695 322.506 51.3871C322.272 51.8004 322.155 52.2926 322.155 52.8636ZM340.779 59.179C339.974 59.179 339.254 59.0341 338.619 58.7443C337.984 58.4503 337.481 58.0433 337.11 57.5234C336.74 57.0036 336.544 56.4048 336.522 55.7273H337.73C337.752 56.2045 337.899 56.6222 338.171 56.9801C338.444 57.3338 338.806 57.6108 339.258 57.8111C339.71 58.0071 340.213 58.1051 340.767 58.1051C341.372 58.1051 341.904 57.9922 342.365 57.7663C342.829 57.5405 343.191 57.2315 343.451 56.8395C343.715 56.4432 343.848 55.9957 343.848 55.4972C343.848 54.9687 343.713 54.5021 343.445 54.0973C343.176 53.6925 342.791 53.3771 342.288 53.1513C341.789 52.9254 341.193 52.8125 340.498 52.8125H339.731V51.7386H340.498C341.065 51.7386 341.566 51.6364 342 51.4318C342.439 51.223 342.784 50.9311 343.036 50.5561C343.287 50.1811 343.413 49.7401 343.413 49.233C343.413 48.7514 343.304 48.3274 343.087 47.9609C342.87 47.5945 342.563 47.3068 342.166 47.098C341.774 46.8892 341.316 46.7848 340.792 46.7848C340.285 46.7848 339.821 46.8828 339.399 47.0788C338.977 47.2749 338.636 47.5518 338.376 47.9098C338.12 48.2678 337.984 48.6918 337.967 49.1818H336.81C336.827 48.5 337.014 47.9013 337.372 47.3857C337.735 46.8658 338.214 46.4609 338.811 46.1712C339.411 45.8771 340.076 45.7301 340.805 45.7301C341.576 45.7301 342.243 45.8878 342.806 46.2031C343.368 46.5185 343.803 46.9382 344.11 47.4624C344.421 47.9822 344.576 48.5554 344.576 49.1818C344.576 49.9276 344.374 50.5668 343.969 51.0994C343.564 51.6278 343.019 51.9943 342.333 52.1989V52.282C343.168 52.4482 343.824 52.8189 344.301 53.3942C344.783 53.9652 345.024 54.6662 345.024 55.4972C345.024 56.196 344.84 56.8246 344.474 57.3828C344.108 57.9368 343.605 58.3757 342.965 58.6996C342.331 59.0192 341.602 59.179 340.779 59.179ZM351.914 59.179C350.994 59.179 350.208 58.9148 349.556 58.3864C348.908 57.8537 348.409 57.0845 348.06 56.0788C347.715 55.0732 347.542 53.8651 347.542 52.4545C347.542 51.0483 347.715 49.8445 348.06 48.843C348.409 47.8374 348.91 47.0682 349.562 46.5355C350.218 45.9986 351.002 45.7301 351.914 45.7301C352.826 45.7301 353.608 45.9986 354.26 46.5355C354.916 47.0682 355.417 47.8374 355.762 48.843C356.112 49.8445 356.286 51.0483 356.286 52.4545C356.286 53.8651 356.112 55.0732 355.762 56.0788C355.417 57.0845 354.919 57.8537 354.267 58.3864C353.619 58.9148 352.835 59.179 351.914 59.179ZM351.914 58.1051C352.924 58.1051 353.713 57.6129 354.279 56.6286C354.846 55.6399 355.13 54.2486 355.13 52.4545C355.13 51.2614 355 50.2429 354.74 49.3991C354.484 48.5511 354.115 47.9034 353.634 47.456C353.157 47.0085 352.583 46.7848 351.914 46.7848C350.913 46.7848 350.127 47.2834 349.556 48.2805C348.985 49.2734 348.699 50.6648 348.699 52.4545C348.699 53.6477 348.827 54.6662 349.083 55.5099C349.343 56.3537 349.711 56.9972 350.188 57.4403C350.67 57.8835 351.245 58.1051 351.914 58.1051ZM363.995 59V49.1818H365.101V50.6903H365.203C365.399 50.1832 365.725 49.7848 366.181 49.495C366.642 49.201 367.193 49.054 367.837 49.054C368.514 49.054 369.071 49.2138 369.505 49.5334C369.944 49.8487 370.272 50.2834 370.49 50.8374H370.573C370.794 50.2919 371.154 49.8594 371.653 49.5398C372.156 49.2159 372.765 49.054 373.481 49.054C374.393 49.054 375.113 49.3416 375.642 49.9169C376.17 50.4879 376.434 51.3232 376.434 52.4226V59H375.296V52.4226C375.296 51.647 375.098 51.0653 374.702 50.6776C374.306 50.2898 373.784 50.0959 373.136 50.0959C372.386 50.0959 371.809 50.326 371.404 50.7862C370.999 51.2464 370.796 51.8303 370.796 52.5376V59H369.633V52.3203C369.633 51.6555 369.448 51.1186 369.077 50.7095C368.706 50.3004 368.184 50.0959 367.511 50.0959C367.059 50.0959 366.652 50.2067 366.29 50.4283C365.932 50.6499 365.649 50.9588 365.44 51.3551C365.235 51.7472 365.133 52.1989 365.133 52.7102V59H363.995ZM379.459 59V49.1818H380.603V59H379.459ZM380.041 47.4943C379.807 47.4943 379.606 47.4155 379.44 47.2578C379.274 47.0959 379.191 46.902 379.191 46.6761C379.191 46.4503 379.274 46.2585 379.44 46.1009C379.606 45.9389 379.807 45.858 380.041 45.858C380.275 45.858 380.476 45.9389 380.642 46.1009C380.808 46.2585 380.891 46.4503 380.891 46.6761C380.891 46.902 380.808 47.0959 380.642 47.2578C380.476 47.4155 380.275 47.4943 380.041 47.4943ZM384.75 52.8636V59H383.612V49.1818H384.718V50.7223H384.821C385.051 50.2195 385.409 49.8168 385.894 49.5142C386.384 49.2074 386.99 49.054 387.71 49.054C388.37 49.054 388.95 49.1925 389.448 49.4695C389.951 49.7422 390.341 50.1449 390.618 50.6776C390.899 51.2102 391.04 51.8643 391.04 52.6399V59H389.902V52.7102C389.902 51.9048 389.676 51.2678 389.225 50.799C388.777 50.3303 388.176 50.0959 387.422 50.0959C386.907 50.0959 386.448 50.2067 386.048 50.4283C385.647 50.6499 385.33 50.9695 385.095 51.3871C384.865 51.8004 384.75 52.2926 384.75 52.8636Z"
    fill="#353535" />
  <path
    d="M338.977 92.179C338.171 92.179 337.451 92.0341 336.816 91.7443C336.181 91.4503 335.678 91.0433 335.308 90.5234C334.937 90.0036 334.741 89.4048 334.72 88.7273H335.928C335.949 89.2045 336.096 89.6222 336.369 89.9801C336.641 90.3338 337.004 90.6108 337.455 90.8111C337.907 91.0071 338.41 91.1051 338.964 91.1051C339.569 91.1051 340.102 90.9922 340.562 90.7663C341.026 90.5405 341.389 90.2315 341.649 89.8395C341.913 89.4432 342.045 88.9957 342.045 88.4972C342.045 87.9687 341.911 87.5021 341.642 87.0973C341.374 86.6925 340.988 86.3771 340.485 86.1513C339.987 85.9254 339.39 85.8125 338.695 85.8125H337.928V84.7386H338.695C339.262 84.7386 339.763 84.6364 340.198 84.4318C340.636 84.223 340.982 83.9311 341.233 83.5561C341.484 83.1811 341.61 82.7401 341.61 82.233C341.61 81.7514 341.502 81.3274 341.284 80.9609C341.067 80.5945 340.76 80.3068 340.364 80.098C339.972 79.8892 339.514 79.7848 338.989 79.7848C338.482 79.7848 338.018 79.8828 337.596 80.0788C337.174 80.2749 336.833 80.5518 336.573 80.9098C336.318 81.2678 336.181 81.6918 336.164 82.1818H335.007C335.024 81.5 335.212 80.9013 335.57 80.3857C335.932 79.8658 336.411 79.4609 337.008 79.1712C337.609 78.8771 338.274 78.7301 339.002 78.7301C339.774 78.7301 340.44 78.8878 341.003 79.2031C341.565 79.5185 342 79.9382 342.307 80.4624C342.618 80.9822 342.774 81.5554 342.774 82.1818C342.774 82.9276 342.571 83.5668 342.166 84.0994C341.761 84.6278 341.216 84.9943 340.53 85.1989V85.282C341.365 85.4482 342.021 85.8189 342.499 86.3942C342.98 86.9652 343.221 87.6662 343.221 88.4972C343.221 89.196 343.038 89.8246 342.671 90.3828C342.305 90.9368 341.802 91.3757 341.163 91.6996C340.528 92.0192 339.799 92.179 338.977 92.179ZM350.112 92.179C349.191 92.179 348.405 91.9148 347.753 91.3864C347.105 90.8537 346.607 90.0845 346.257 89.0788C345.912 88.0732 345.739 86.8651 345.739 85.4545C345.739 84.0483 345.912 82.8445 346.257 81.843C346.607 80.8374 347.107 80.0682 347.759 79.5355C348.416 78.9986 349.2 78.7301 350.112 78.7301C351.024 78.7301 351.805 78.9986 352.457 79.5355C353.114 80.0682 353.614 80.8374 353.96 81.843C354.309 82.8445 354.484 84.0483 354.484 85.4545C354.484 86.8651 354.309 88.0732 353.96 89.0788C353.614 90.0845 353.116 90.8537 352.464 91.3864C351.816 91.9148 351.032 92.179 350.112 92.179ZM350.112 91.1051C351.122 91.1051 351.91 90.6129 352.477 89.6286C353.043 88.6399 353.327 87.2486 353.327 85.4545C353.327 84.2614 353.197 83.2429 352.937 82.3991C352.681 81.5511 352.313 80.9034 351.831 80.456C351.354 80.0085 350.781 79.7848 350.112 79.7848C349.11 79.7848 348.324 80.2834 347.753 81.2805C347.182 82.2734 346.896 83.6648 346.896 85.4545C346.896 86.6477 347.024 87.6662 347.28 88.5099C347.54 89.3537 347.908 89.9972 348.386 90.4403C348.867 90.8835 349.443 91.1051 350.112 91.1051ZM362.193 92V82.1818H363.298V83.6903H363.401C363.597 83.1832 363.923 82.7848 364.379 82.495C364.839 82.201 365.391 82.054 366.034 82.054C366.712 82.054 367.268 82.2138 367.703 82.5334C368.141 82.8487 368.47 83.2834 368.687 83.8374H368.77C368.992 83.2919 369.352 82.8594 369.85 82.5398C370.353 82.2159 370.962 82.054 371.678 82.054C372.59 82.054 373.31 82.3416 373.839 82.9169C374.367 83.4879 374.631 84.3232 374.631 85.4226V92H373.494V85.4226C373.494 84.647 373.296 84.0653 372.899 83.6776C372.503 83.2898 371.981 83.0959 371.333 83.0959C370.583 83.0959 370.006 83.326 369.601 83.7862C369.196 84.2464 368.994 84.8303 368.994 85.5376V92H367.83V85.3203C367.83 84.6555 367.645 84.1186 367.274 83.7095C366.903 83.3004 366.381 83.0959 365.708 83.0959C365.256 83.0959 364.85 83.2067 364.487 83.4283C364.129 83.6499 363.846 83.9588 363.637 84.3551C363.433 84.7472 363.33 85.1989 363.33 85.7102V92H362.193ZM377.657 92V82.1818H378.801V92H377.657ZM378.238 80.4943C378.004 80.4943 377.804 80.4155 377.637 80.2578C377.471 80.0959 377.388 79.902 377.388 79.6761C377.388 79.4503 377.471 79.2585 377.637 79.1009C377.804 78.9389 378.004 78.858 378.238 78.858C378.473 78.858 378.673 78.9389 378.839 79.1009C379.005 79.2585 379.088 79.4503 379.088 79.6761C379.088 79.902 379.005 80.0959 378.839 80.2578C378.673 80.4155 378.473 80.4943 378.238 80.4943ZM382.948 85.8636V92H381.81V82.1818H382.916V83.7223H383.018C383.248 83.2195 383.606 82.8168 384.092 82.5142C384.582 82.2074 385.187 82.054 385.907 82.054C386.568 82.054 387.147 82.1925 387.646 82.4695C388.149 82.7422 388.538 83.1449 388.815 83.6776C389.097 84.2102 389.237 84.8643 389.237 85.6399V92H388.1V85.7102C388.1 84.9048 387.874 84.2678 387.422 83.799C386.975 83.3303 386.374 83.0959 385.619 83.0959C385.104 83.0959 384.646 83.2067 384.245 83.4283C383.845 83.6499 383.527 83.9695 383.293 84.3871C383.063 84.8004 382.948 85.2926 382.948 85.8636Z"
    fill="#353535" />
  <path
    d="M338.977 126.179C338.171 126.179 337.451 126.034 336.816 125.744C336.181 125.45 335.678 125.043 335.308 124.523C334.937 124.004 334.741 123.405 334.72 122.727H335.928C335.949 123.205 336.096 123.622 336.369 123.98C336.641 124.334 337.004 124.611 337.455 124.811C337.907 125.007 338.41 125.105 338.964 125.105C339.569 125.105 340.102 124.992 340.562 124.766C341.026 124.54 341.389 124.232 341.649 123.839C341.913 123.443 342.045 122.996 342.045 122.497C342.045 121.969 341.911 121.502 341.642 121.097C341.374 120.692 340.988 120.377 340.485 120.151C339.987 119.925 339.39 119.812 338.695 119.812H337.928V118.739H338.695C339.262 118.739 339.763 118.636 340.198 118.432C340.636 118.223 340.982 117.931 341.233 117.556C341.484 117.181 341.61 116.74 341.61 116.233C341.61 115.751 341.502 115.327 341.284 114.961C341.067 114.594 340.76 114.307 340.364 114.098C339.972 113.889 339.514 113.785 338.989 113.785C338.482 113.785 338.018 113.883 337.596 114.079C337.174 114.275 336.833 114.552 336.573 114.91C336.318 115.268 336.181 115.692 336.164 116.182H335.007C335.024 115.5 335.212 114.901 335.57 114.386C335.932 113.866 336.411 113.461 337.008 113.171C337.609 112.877 338.274 112.73 339.002 112.73C339.774 112.73 340.44 112.888 341.003 113.203C341.565 113.518 342 113.938 342.307 114.462C342.618 114.982 342.774 115.555 342.774 116.182C342.774 116.928 342.571 117.567 342.166 118.099C341.761 118.628 341.216 118.994 340.53 119.199V119.282C341.365 119.448 342.021 119.819 342.499 120.394C342.98 120.965 343.221 121.666 343.221 122.497C343.221 123.196 343.038 123.825 342.671 124.383C342.305 124.937 341.802 125.376 341.163 125.7C340.528 126.019 339.799 126.179 338.977 126.179ZM350.112 126.179C349.191 126.179 348.405 125.915 347.753 125.386C347.105 124.854 346.607 124.085 346.257 123.079C345.912 122.073 345.739 120.865 345.739 119.455C345.739 118.048 345.912 116.844 346.257 115.843C346.607 114.837 347.107 114.068 347.759 113.536C348.416 112.999 349.2 112.73 350.112 112.73C351.024 112.73 351.805 112.999 352.457 113.536C353.114 114.068 353.614 114.837 353.96 115.843C354.309 116.844 354.484 118.048 354.484 119.455C354.484 120.865 354.309 122.073 353.96 123.079C353.614 124.085 353.116 124.854 352.464 125.386C351.816 125.915 351.032 126.179 350.112 126.179ZM350.112 125.105C351.122 125.105 351.91 124.613 352.477 123.629C353.043 122.64 353.327 121.249 353.327 119.455C353.327 118.261 353.197 117.243 352.937 116.399C352.681 115.551 352.313 114.903 351.831 114.456C351.354 114.009 350.781 113.785 350.112 113.785C349.11 113.785 348.324 114.283 347.753 115.281C347.182 116.273 346.896 117.665 346.896 119.455C346.896 120.648 347.024 121.666 347.28 122.51C347.54 123.354 347.908 123.997 348.386 124.44C348.867 124.884 349.443 125.105 350.112 125.105ZM362.193 126V116.182H363.298V117.69H363.401C363.597 117.183 363.923 116.785 364.379 116.495C364.839 116.201 365.391 116.054 366.034 116.054C366.712 116.054 367.268 116.214 367.703 116.533C368.141 116.849 368.47 117.283 368.687 117.837H368.77C368.992 117.292 369.352 116.859 369.85 116.54C370.353 116.216 370.962 116.054 371.678 116.054C372.59 116.054 373.31 116.342 373.839 116.917C374.367 117.488 374.631 118.323 374.631 119.423V126H373.494V119.423C373.494 118.647 373.296 118.065 372.899 117.678C372.503 117.29 371.981 117.096 371.333 117.096C370.583 117.096 370.006 117.326 369.601 117.786C369.196 118.246 368.994 118.83 368.994 119.538V126H367.83V119.32C367.83 118.656 367.645 118.119 367.274 117.71C366.903 117.3 366.381 117.096 365.708 117.096C365.256 117.096 364.85 117.207 364.487 117.428C364.129 117.65 363.846 117.959 363.637 118.355C363.433 118.747 363.33 119.199 363.33 119.71V126H362.193ZM377.657 126V116.182H378.801V126H377.657ZM378.238 114.494C378.004 114.494 377.804 114.415 377.637 114.258C377.471 114.096 377.388 113.902 377.388 113.676C377.388 113.45 377.471 113.259 377.637 113.101C377.804 112.939 378.004 112.858 378.238 112.858C378.473 112.858 378.673 112.939 378.839 113.101C379.005 113.259 379.088 113.45 379.088 113.676C379.088 113.902 379.005 114.096 378.839 114.258C378.673 114.415 378.473 114.494 378.238 114.494ZM382.948 119.864V126H381.81V116.182H382.916V117.722H383.018C383.248 117.219 383.606 116.817 384.092 116.514C384.582 116.207 385.187 116.054 385.907 116.054C386.568 116.054 387.147 116.192 387.646 116.469C388.149 116.742 388.538 117.145 388.815 117.678C389.097 118.21 389.237 118.864 389.237 119.64V126H388.1V119.71C388.1 118.905 387.874 118.268 387.422 117.799C386.975 117.33 386.374 117.096 385.619 117.096C385.104 117.096 384.646 117.207 384.245 117.428C383.845 117.65 383.527 117.969 383.293 118.387C383.063 118.8 382.948 119.293 382.948 119.864Z"
    fill="#353535" />
  <path
    d="M350.373 158.179C349.644 158.179 348.992 158.032 348.417 157.738C347.846 157.44 347.39 157.031 347.049 156.511C346.713 155.991 346.534 155.396 346.512 154.727H347.669C347.708 155.422 347.98 155.993 348.487 156.44C348.995 156.884 349.623 157.105 350.373 157.105C350.957 157.105 351.477 156.967 351.933 156.69C352.389 156.408 352.745 156.025 353 155.539C353.26 155.049 353.39 154.497 353.39 153.884C353.386 153.244 353.247 152.682 352.975 152.196C352.702 151.706 352.331 151.322 351.862 151.045C351.398 150.768 350.876 150.63 350.296 150.63C349.858 150.626 349.427 150.698 349.005 150.847C348.583 150.996 348.232 151.188 347.951 151.423L346.755 151.269L347.541 144.909H354.01V145.983H348.545L348.021 150.362H348.085C348.375 150.119 348.726 149.92 349.139 149.767C349.557 149.614 349.998 149.537 350.463 149.537C351.234 149.537 351.926 149.722 352.54 150.093C353.158 150.464 353.646 150.975 354.004 151.627C354.366 152.275 354.547 153.021 354.547 153.864C354.547 154.691 354.366 155.43 354.004 156.082C353.646 156.73 353.152 157.241 352.521 157.616C351.894 157.991 351.179 158.179 350.373 158.179ZM362.374 158V148.182H363.48V149.69H363.582C363.778 149.183 364.104 148.785 364.56 148.495C365.021 148.201 365.572 148.054 366.216 148.054C366.893 148.054 367.449 148.214 367.884 148.533C368.323 148.849 368.651 149.283 368.869 149.837H368.952C369.173 149.292 369.533 148.859 370.032 148.54C370.535 148.216 371.144 148.054 371.86 148.054C372.772 148.054 373.492 148.342 374.021 148.917C374.549 149.488 374.813 150.323 374.813 151.423V158H373.675V151.423C373.675 150.647 373.477 150.065 373.081 149.678C372.685 149.29 372.163 149.096 371.515 149.096C370.765 149.096 370.187 149.326 369.783 149.786C369.378 150.246 369.175 150.83 369.175 151.538V158H368.012V151.32C368.012 150.656 367.827 150.119 367.456 149.71C367.085 149.3 366.563 149.096 365.89 149.096C365.438 149.096 365.031 149.207 364.669 149.428C364.311 149.65 364.028 149.959 363.819 150.355C363.614 150.747 363.512 151.199 363.512 151.71V158H362.374ZM377.838 158V148.182H378.982V158H377.838ZM378.42 146.494C378.185 146.494 377.985 146.415 377.819 146.258C377.653 146.096 377.57 145.902 377.57 145.676C377.57 145.45 377.653 145.259 377.819 145.101C377.985 144.939 378.185 144.858 378.42 144.858C378.654 144.858 378.854 144.939 379.021 145.101C379.187 145.259 379.27 145.45 379.27 145.676C379.27 145.902 379.187 146.096 379.021 146.258C378.854 146.415 378.654 146.494 378.42 146.494ZM383.129 151.864V158H381.991V148.182H383.097V149.722H383.199C383.43 149.219 383.788 148.817 384.273 148.514C384.763 148.207 385.369 148.054 386.089 148.054C386.749 148.054 387.329 148.192 387.827 148.469C388.33 148.742 388.72 149.145 388.997 149.678C389.278 150.21 389.419 150.864 389.419 151.64V158H388.281V151.71C388.281 150.905 388.055 150.268 387.604 149.799C387.156 149.33 386.555 149.096 385.801 149.096C385.285 149.096 384.827 149.207 384.427 149.428C384.026 149.65 383.709 149.969 383.474 150.387C383.244 150.8 383.129 151.293 383.129 151.864Z"
    fill="#353535" />
  <path
    d="M10.7631 92V78.9091H11.9584V90.9261H18.197V92H10.7631ZM24.621 92.2045C23.7048 92.2045 22.9122 91.9915 22.2432 91.5653C21.5741 91.1349 21.0564 90.5405 20.6899 89.782C20.3277 89.0192 20.1466 88.1413 20.1466 87.1484C20.1466 86.1598 20.3277 85.282 20.6899 84.5149C21.0564 83.7436 21.5613 83.1406 22.2048 82.706C22.8525 82.267 23.6004 82.0476 24.4484 82.0476C24.9811 82.0476 25.4946 82.1456 25.9889 82.3416C26.4832 82.5334 26.9264 82.8295 27.3184 83.2301C27.7148 83.6264 28.028 84.1271 28.2581 84.7322C28.4882 85.3331 28.6032 86.0447 28.6032 86.8672V87.4297H20.9328V86.4261H27.4399C27.4399 85.7955 27.3121 85.2287 27.0564 84.7259C26.805 84.2187 26.4534 83.8182 26.0017 83.5241C25.5542 83.2301 25.0365 83.0831 24.4484 83.0831C23.8263 83.0831 23.2787 83.2493 22.8057 83.5817C22.3327 83.9141 21.9619 84.353 21.6934 84.8984C21.4292 85.4439 21.295 86.0405 21.2907 86.6882V87.2891C21.2907 88.0689 21.425 88.7507 21.6934 89.3345C21.9662 89.9141 22.3518 90.3636 22.8504 90.6832C23.349 91.0028 23.9392 91.1626 24.621 91.1626C25.0855 91.1626 25.4925 91.0902 25.8419 90.9453C26.1956 90.8004 26.4917 90.6065 26.7304 90.3636C26.9733 90.1165 27.1565 89.8459 27.2801 89.5518L28.3604 89.9034C28.2112 90.3168 27.9662 90.6982 27.6253 91.0476C27.2886 91.397 26.8667 91.6783 26.3596 91.8913C25.8568 92.1001 25.2773 92.2045 24.621 92.2045ZM33.8527 92.2237C33.2604 92.2237 32.7192 92.1087 32.2291 91.8786C31.7391 91.6442 31.3492 91.3075 31.0594 90.8686C30.7696 90.4254 30.6247 89.8885 30.6247 89.2578C30.6247 88.772 30.7164 88.3629 30.8996 88.0305C31.0828 87.6982 31.3428 87.4254 31.6794 87.2124C32.0161 86.9993 32.4145 86.831 32.8747 86.7074C33.335 86.5838 33.8421 86.4879 34.396 86.4197C34.9458 86.3516 35.4102 86.2919 35.7895 86.2408C36.173 86.1896 36.4649 86.1087 36.6652 85.9979C36.8655 85.8871 36.9656 85.7081 36.9656 85.4609V85.2308C36.9656 84.5618 36.7654 84.0355 36.3648 83.652C35.9685 83.2642 35.3975 83.0703 34.6517 83.0703C33.9443 83.0703 33.3669 83.2259 32.9195 83.5369C32.4763 83.848 32.1652 84.2145 31.9862 84.6364L30.906 84.2464C31.1276 83.7095 31.4344 83.2812 31.8264 82.9616C32.2185 82.6378 32.6574 82.4055 33.1432 82.2649C33.629 82.12 34.1212 82.0476 34.6198 82.0476C34.9948 82.0476 35.3847 82.0966 35.7895 82.1946C36.1986 82.2926 36.5779 82.4631 36.9273 82.706C37.2767 82.9446 37.5601 83.2791 37.7774 83.7095C37.9948 84.1357 38.1034 84.6768 38.1034 85.3331V92H36.9656V90.4467H36.8953C36.759 90.7365 36.5566 91.0178 36.2881 91.2905C36.0196 91.5632 35.683 91.7869 35.2781 91.9616C34.8733 92.1364 34.3982 92.2237 33.8527 92.2237ZM34.0061 91.1818C34.6112 91.1818 35.1354 91.0476 35.5786 90.7791C36.0218 90.5107 36.3627 90.1548 36.6013 89.7116C36.8442 89.2642 36.9656 88.772 36.9656 88.2351V86.8161C36.8804 86.897 36.7377 86.9695 36.5374 87.0334C36.3414 87.0973 36.1134 87.1548 35.8534 87.206C35.5977 87.2528 35.3421 87.2933 35.0864 87.3274C34.8307 87.3615 34.6006 87.3913 34.396 87.4169C33.8421 87.4851 33.3691 87.5916 32.977 87.7365C32.585 87.8814 32.2845 88.0817 32.0757 88.3374C31.8669 88.5888 31.7625 88.9126 31.7625 89.3089C31.7625 89.9055 31.9756 90.3679 32.4017 90.696C32.8279 91.0199 33.3627 91.1818 34.0061 91.1818ZM41.1301 92V82.1818H42.2359V83.6903H42.319C42.515 83.196 42.8559 82.7976 43.3417 82.495C43.8318 82.1882 44.3857 82.0348 45.0036 82.0348C45.0974 82.0348 45.2018 82.0369 45.3169 82.0412C45.4319 82.0455 45.5278 82.0497 45.6045 82.054V83.2109C45.5534 83.2024 45.4639 83.1896 45.336 83.1726C45.2082 83.1555 45.0697 83.147 44.9205 83.147C44.4092 83.147 43.9532 83.2557 43.5526 83.473C43.1563 83.6861 42.8431 83.9822 42.613 84.3615C42.3829 84.7408 42.2678 85.1733 42.2678 85.6591V92H41.1301ZM48.6839 85.8636V92H47.5461V82.1818H48.6519V83.7223H48.7542C48.9843 83.2195 49.3422 82.8168 49.828 82.5142C50.3181 82.2074 50.9232 82.054 51.6434 82.054C52.3039 82.054 52.8834 82.1925 53.382 82.4695C53.8849 82.7422 54.2748 83.1449 54.5518 83.6776C54.833 84.2102 54.9736 84.8643 54.9736 85.6399V92H53.8358V85.7102C53.8358 84.9048 53.61 84.2678 53.1583 83.799C52.7108 83.3303 52.11 83.0959 51.3557 83.0959C50.8401 83.0959 50.382 83.2067 49.9814 83.4283C49.5809 83.6499 49.2634 83.9695 49.029 84.3871C48.7989 84.8004 48.6839 85.2926 48.6839 85.8636ZM70.3769 82.1818C70.3044 81.4531 69.9827 80.8736 69.4117 80.4432C68.8406 80.0128 68.1226 79.7976 67.2575 79.7976C66.6482 79.7976 66.1112 79.902 65.6468 80.1108C65.1865 80.3196 64.8243 80.6094 64.5601 80.9801C64.3002 81.3466 64.1702 81.7642 64.1702 82.233C64.1702 82.5781 64.2448 82.8807 64.3939 83.1406C64.5431 83.4006 64.7433 83.6243 64.9948 83.8118C65.2504 83.995 65.5317 84.1527 65.8385 84.2848C66.1496 84.4169 66.4628 84.5277 66.7781 84.6172L68.1588 85.0135C68.5764 85.1286 68.9941 85.2756 69.4117 85.4545C69.8293 85.6335 70.2107 85.8594 70.5558 86.1321C70.9053 86.4006 71.1844 86.7308 71.3932 87.1229C71.6063 87.5107 71.7128 87.9773 71.7128 88.5227C71.7128 89.2216 71.5317 89.8501 71.1695 90.4084C70.8073 90.9666 70.2874 91.4098 69.6098 91.7379C68.9323 92.0618 68.1205 92.2237 67.1744 92.2237C66.2838 92.2237 65.5104 92.0767 64.8541 91.7827C64.1979 91.4844 63.6823 91.0732 63.3073 90.549C62.9323 90.0249 62.7213 89.4176 62.6744 88.7273H63.9017C63.9443 89.2429 64.1148 89.6797 64.4131 90.0376C64.7114 90.3956 65.0992 90.6683 65.5764 90.8558C66.0537 91.0391 66.5864 91.1307 67.1744 91.1307C67.8264 91.1307 68.406 91.022 68.9131 90.8047C69.4244 90.5831 69.825 90.2763 70.1148 89.8842C70.4088 89.4879 70.5558 89.0277 70.5558 88.5036C70.5558 88.0604 70.4408 87.6896 70.2107 87.3913C69.9806 87.0888 69.6588 86.8352 69.2455 86.6307C68.8364 86.4261 68.3612 86.245 67.82 86.0874L66.254 85.6271C65.227 85.3203 64.4301 84.8963 63.8634 84.3551C63.2966 83.8139 63.0132 83.1236 63.0132 82.2841C63.0132 81.581 63.2007 80.9631 63.5757 80.4304C63.955 79.8935 64.4664 79.4759 65.1098 79.1776C65.7575 78.875 66.4841 78.7237 67.2895 78.7237C68.1034 78.7237 68.8236 78.8729 69.45 79.1712C70.0764 79.4695 70.5729 79.8807 70.9394 80.4048C71.3101 80.9247 71.5083 81.517 71.5338 82.1818H70.3769ZM74.3527 95.6818V82.1818H75.4585V84.0547H75.5928C75.7291 83.7607 75.9166 83.4602 76.1553 83.1534C76.3939 82.8423 76.7093 82.5803 77.1013 82.3672C77.4976 82.1541 77.9962 82.0476 78.597 82.0476C79.4067 82.0476 80.1141 82.2607 80.7192 82.6868C81.3286 83.1087 81.8016 83.701 82.1382 84.4638C82.4791 85.2223 82.6496 86.1065 82.6496 87.1165C82.6496 88.1307 82.4791 89.0192 82.1382 89.782C81.8016 90.5447 81.3286 91.1392 80.7192 91.5653C80.1141 91.9915 79.411 92.2045 78.6098 92.2045C78.0175 92.2045 77.521 92.098 77.1205 91.8849C76.7242 91.6719 76.4024 91.4098 76.1553 91.0987C75.9124 90.7834 75.7249 90.4766 75.5928 90.1783H75.4905V95.6818H74.3527ZM75.4777 87.0973C75.4777 87.8899 75.5949 88.593 75.8293 89.2067C76.0679 89.8161 76.4088 90.2955 76.852 90.6449C77.2994 90.9901 77.8406 91.1626 78.4756 91.1626C79.1276 91.1626 79.6773 90.9837 80.1247 90.6257C80.5764 90.2635 80.9195 89.7756 81.1539 89.1619C81.3925 88.5483 81.5118 87.8601 81.5118 87.0973C81.5118 86.343 81.3946 85.6634 81.1602 85.0582C80.9301 84.4531 80.5892 83.9737 80.1375 83.62C79.6858 83.2621 79.1318 83.0831 78.4756 83.0831C77.8364 83.0831 77.2931 83.2557 76.8456 83.6009C76.3982 83.9418 76.0573 84.4148 75.8229 85.0199C75.5928 85.6207 75.4777 86.3132 75.4777 87.0973ZM87.8879 92.2237C87.2955 92.2237 86.7544 92.1087 86.2643 91.8786C85.7742 91.6442 85.3843 91.3075 85.0945 90.8686C84.8048 90.4254 84.6599 89.8885 84.6599 89.2578C84.6599 88.772 84.7515 88.3629 84.9347 88.0305C85.118 87.6982 85.3779 87.4254 85.7146 87.2124C86.0512 86.9993 86.4497 86.831 86.9099 86.7074C87.3701 86.5838 87.8772 86.4879 88.4312 86.4197C88.9809 86.3516 89.4454 86.2919 89.8247 86.2408C90.2082 86.1896 90.5001 86.1087 90.7004 85.9979C90.9007 85.8871 91.0008 85.7081 91.0008 85.4609V85.2308C91.0008 84.5618 90.8005 84.0355 90.3999 83.652C90.0036 83.2642 89.4326 83.0703 88.6869 83.0703C87.9795 83.0703 87.4021 83.2259 86.9546 83.5369C86.5115 83.848 86.2004 84.2145 86.0214 84.6364L84.9411 84.2464C85.1627 83.7095 85.4695 83.2812 85.8616 82.9616C86.2536 82.6378 86.6926 82.4055 87.1784 82.2649C87.6642 82.12 88.1563 82.0476 88.6549 82.0476C89.0299 82.0476 89.4198 82.0966 89.8247 82.1946C90.2338 82.2926 90.613 82.4631 90.9624 82.706C91.3119 82.9446 91.5953 83.2791 91.8126 83.7095C92.0299 84.1357 92.1386 84.6768 92.1386 85.3331V92H91.0008V90.4467H90.9305C90.7941 90.7365 90.5917 91.0178 90.3232 91.2905C90.0548 91.5632 89.7181 91.7869 89.3133 91.9616C88.9085 92.1364 88.4333 92.2237 87.8879 92.2237ZM88.0413 91.1818C88.6464 91.1818 89.1705 91.0476 89.6137 90.7791C90.0569 90.5107 90.3978 90.1548 90.6365 89.7116C90.8794 89.2642 91.0008 88.772 91.0008 88.2351V86.8161C90.9156 86.897 90.7728 86.9695 90.5725 87.0334C90.3765 87.0973 90.1485 87.1548 89.8886 87.206C89.6329 87.2528 89.3772 87.2933 89.1215 87.3274C88.8659 87.3615 88.6357 87.3913 88.4312 87.4169C87.8772 87.4851 87.4042 87.5916 87.0122 87.7365C86.6201 87.8814 86.3197 88.0817 86.1109 88.3374C85.9021 88.5888 85.7977 88.9126 85.7977 89.3089C85.7977 89.9055 86.0107 90.3679 86.4369 90.696C86.863 91.0199 87.3978 91.1818 88.0413 91.1818ZM96.303 85.8636V92H95.1652V82.1818H96.271V83.7223H96.3733C96.6034 83.2195 96.9614 82.8168 97.4472 82.5142C97.9372 82.2074 98.5423 82.054 99.2625 82.054C99.923 82.054 100.503 82.1925 101.001 82.4695C101.504 82.7422 101.894 83.1449 102.171 83.6776C102.452 84.2102 102.593 84.8643 102.593 85.6399V92H101.455V85.7102C101.455 84.9048 101.229 84.2678 100.777 83.799C100.33 83.3303 99.7291 83.0959 98.9749 83.0959C98.4593 83.0959 98.0012 83.2067 97.6006 83.4283C97.2 83.6499 96.8825 83.9695 96.6482 84.3871C96.4181 84.8004 96.303 85.2926 96.303 85.8636ZM105.602 92V82.1818H106.746V92H105.602ZM106.184 80.4943C105.949 80.4943 105.749 80.4155 105.583 80.2578C105.416 80.0959 105.333 79.902 105.333 79.6761C105.333 79.4503 105.416 79.2585 105.583 79.1009C105.749 78.9389 105.949 78.858 106.184 78.858C106.418 78.858 106.618 78.9389 106.784 79.1009C106.951 79.2585 107.034 79.4503 107.034 79.6761C107.034 79.902 106.951 80.0959 106.784 80.2578C106.618 80.4155 106.418 80.4943 106.184 80.4943ZM116.352 84.3359L115.31 84.63C115.207 84.3359 115.063 84.0696 114.875 83.831C114.688 83.5923 114.443 83.4027 114.14 83.2621C113.842 83.1214 113.471 83.0511 113.028 83.0511C112.363 83.0511 111.818 83.2088 111.391 83.5241C110.965 83.8395 110.752 84.2464 110.752 84.745C110.752 85.1669 110.897 85.5099 111.187 85.7741C111.481 86.0341 111.933 86.2408 112.542 86.3942L114.025 86.7585C114.847 86.9588 115.463 87.2763 115.872 87.7109C116.286 88.1456 116.492 88.6911 116.492 89.3473C116.492 89.9013 116.339 90.3935 116.032 90.8239C115.725 91.2543 115.297 91.593 114.747 91.8402C114.202 92.0831 113.569 92.2045 112.849 92.2045C111.89 92.2045 111.1 91.9893 110.477 91.5589C109.855 91.1243 109.457 90.4979 109.282 89.6797L110.375 89.4112C110.516 89.995 110.791 90.4361 111.2 90.7344C111.613 91.0327 112.156 91.1818 112.83 91.1818C113.584 91.1818 114.187 91.0135 114.639 90.6768C115.09 90.3359 115.316 89.9098 115.316 89.3984C115.316 89.0021 115.184 88.6697 114.92 88.4013C114.656 88.1286 114.255 87.9283 113.718 87.8004L112.114 87.4169C111.261 87.2124 110.631 86.8885 110.222 86.4453C109.813 86.0021 109.608 85.4524 109.608 84.7962C109.608 84.255 109.755 83.7798 110.049 83.3707C110.343 82.9574 110.748 82.6335 111.264 82.3991C111.779 82.1648 112.367 82.0476 113.028 82.0476C113.927 82.0476 114.645 82.2521 115.182 82.6612C115.723 83.0661 116.113 83.6243 116.352 84.3359ZM120.121 85.8636V92H118.984V78.9091H120.121V83.7223H120.224C120.454 83.2152 120.81 82.8104 121.291 82.5078C121.777 82.2053 122.391 82.054 123.132 82.054C123.797 82.054 124.381 82.1903 124.883 82.4631C125.386 82.7358 125.778 83.1385 126.06 83.6712C126.341 84.2038 126.481 84.8601 126.481 85.6399V92H125.337V85.7102C125.337 84.9006 125.111 84.2635 124.66 83.799C124.212 83.3303 123.607 83.0959 122.844 83.0959C122.32 83.0959 121.854 83.2067 121.445 83.4283C121.035 83.6499 120.712 83.9695 120.473 84.3871C120.239 84.8004 120.121 85.2926 120.121 85.8636Z"
    fill="#F5F5F5" />
  <path
    d="M11.1966 126V112.909H12.392V124.926H18.6306V126H11.1966ZM25.0546 126.205C24.1384 126.205 23.3458 125.991 22.6768 125.565C22.0077 125.135 21.49 124.54 21.1235 123.782C20.7613 123.019 20.5802 122.141 20.5802 121.148C20.5802 120.16 20.7613 119.282 21.1235 118.515C21.49 117.744 21.9949 117.141 22.6384 116.706C23.2861 116.267 24.034 116.048 24.882 116.048C25.4147 116.048 25.9282 116.146 26.4225 116.342C26.9168 116.533 27.36 116.83 27.752 117.23C28.1483 117.626 28.4616 118.127 28.6917 118.732C28.9218 119.333 29.0368 120.045 29.0368 120.867V121.43H21.3664V120.426H27.8735C27.8735 119.795 27.7457 119.229 27.49 118.726C27.2385 118.219 26.887 117.818 26.4353 117.524C25.9878 117.23 25.4701 117.083 24.882 117.083C24.2599 117.083 23.7123 117.249 23.2393 117.582C22.7662 117.914 22.3955 118.353 22.127 118.898C21.8628 119.444 21.7286 120.04 21.7243 120.688V121.289C21.7243 122.069 21.8586 122.751 22.127 123.335C22.3998 123.914 22.7854 124.364 23.284 124.683C23.7826 125.003 24.3728 125.163 25.0546 125.163C25.5191 125.163 25.926 125.09 26.2755 124.945C26.6292 124.8 26.9253 124.607 27.164 124.364C27.4069 124.116 27.5901 123.846 27.7137 123.552L28.7939 123.903C28.6448 124.317 28.3998 124.698 28.0589 125.048C27.7222 125.397 27.3003 125.678 26.7932 125.891C26.2904 126.1 25.7108 126.205 25.0546 126.205ZM34.2863 126.224C33.694 126.224 33.1528 126.109 32.6627 125.879C32.1727 125.644 31.7828 125.308 31.493 124.869C31.2032 124.425 31.0583 123.888 31.0583 123.258C31.0583 122.772 31.1499 122.363 31.3332 122.031C31.5164 121.698 31.7764 121.425 32.113 121.212C32.4497 120.999 32.8481 120.831 33.3083 120.707C33.7686 120.584 34.2757 120.488 34.8296 120.42C35.3794 120.352 35.8438 120.292 36.2231 120.241C36.6066 120.19 36.8985 120.109 37.0988 119.998C37.2991 119.887 37.3992 119.708 37.3992 119.461V119.231C37.3992 118.562 37.199 118.036 36.7984 117.652C36.4021 117.264 35.8311 117.07 35.0853 117.07C34.3779 117.07 33.8005 117.226 33.3531 117.537C32.9099 117.848 32.5988 118.214 32.4198 118.636L31.3396 118.246C31.5612 117.71 31.868 117.281 32.26 116.962C32.6521 116.638 33.091 116.406 33.5768 116.265C34.0626 116.12 34.5548 116.048 35.0534 116.048C35.4284 116.048 35.8183 116.097 36.2231 116.195C36.6322 116.293 37.0115 116.463 37.3609 116.706C37.7103 116.945 37.9937 117.279 38.211 117.71C38.4284 118.136 38.537 118.677 38.537 119.333V126H37.3992V124.447H37.3289C37.1926 124.737 36.9901 125.018 36.7217 125.29C36.4532 125.563 36.1166 125.787 35.7117 125.962C35.3069 126.136 34.8318 126.224 34.2863 126.224ZM34.4397 125.182C35.0448 125.182 35.569 125.048 36.0122 124.779C36.4553 124.511 36.7963 124.155 37.0349 123.712C37.2778 123.264 37.3992 122.772 37.3992 122.235V120.816C37.314 120.897 37.1713 120.969 36.971 121.033C36.7749 121.097 36.547 121.155 36.287 121.206C36.0313 121.253 35.7757 121.293 35.52 121.327C35.2643 121.362 35.0342 121.391 34.8296 121.417C34.2757 121.485 33.8026 121.592 33.4106 121.737C33.0186 121.881 32.7181 122.082 32.5093 122.337C32.3005 122.589 32.1961 122.913 32.1961 123.309C32.1961 123.906 32.4092 124.368 32.8353 124.696C33.2615 125.02 33.7963 125.182 34.4397 125.182ZM41.5637 126V116.182H42.6695V117.69H42.7526C42.9486 117.196 43.2895 116.798 43.7753 116.495C44.2654 116.188 44.8193 116.035 45.4372 116.035C45.531 116.035 45.6354 116.037 45.7504 116.041C45.8655 116.045 45.9614 116.05 46.0381 116.054V117.211C45.9869 117.202 45.8975 117.19 45.7696 117.173C45.6418 117.156 45.5033 117.147 45.3541 117.147C44.8428 117.147 44.3868 117.256 43.9862 117.473C43.5899 117.686 43.2767 117.982 43.0466 118.362C42.8165 118.741 42.7014 119.173 42.7014 119.659V126H41.5637ZM49.1175 119.864V126H47.9797V116.182H49.0855V117.722H49.1878C49.4179 117.219 49.7758 116.817 50.2616 116.514C50.7517 116.207 51.3568 116.054 52.077 116.054C52.7375 116.054 53.317 116.192 53.8156 116.469C54.3184 116.742 54.7084 117.145 54.9854 117.678C55.2666 118.21 55.4072 118.864 55.4072 119.64V126H54.2694V119.71C54.2694 118.905 54.0436 118.268 53.5919 117.799C53.1444 117.33 52.5436 117.096 51.7893 117.096C51.2737 117.096 50.8156 117.207 50.415 117.428C50.0145 117.65 49.697 117.969 49.4626 118.387C49.2325 118.8 49.1175 119.293 49.1175 119.864ZM67.3332 116.182V117.173H62.6478V116.182H67.3332ZM64.1116 113.83H65.2558V123.437C65.2558 123.846 65.3261 124.168 65.4667 124.402C65.6073 124.632 65.7906 124.796 66.0164 124.894C66.2423 124.988 66.483 125.035 66.7387 125.035C66.8879 125.035 67.0157 125.026 67.1222 125.009C67.2288 124.988 67.3225 124.967 67.4035 124.945L67.6464 125.974C67.5356 126.017 67.3992 126.055 67.2373 126.089C67.0754 126.128 66.8751 126.147 66.6365 126.147C66.2188 126.147 65.8161 126.055 65.4284 125.872C65.0448 125.689 64.7295 125.416 64.4823 125.054C64.2352 124.692 64.1116 124.242 64.1116 123.705V113.83ZM73.6278 126.205C72.7797 126.205 72.0297 125.989 71.3778 125.559C70.73 125.129 70.2229 124.534 69.8564 123.776C69.49 123.013 69.3067 122.133 69.3067 121.136C69.3067 120.13 69.49 119.246 69.8564 118.483C70.2229 117.716 70.73 117.119 71.3778 116.693C72.0297 116.263 72.7797 116.048 73.6278 116.048C74.4758 116.048 75.2236 116.263 75.8714 116.693C76.5191 117.124 77.0262 117.72 77.3927 118.483C77.7634 119.246 77.9488 120.13 77.9488 121.136C77.9488 122.133 77.7655 123.013 77.3991 123.776C77.0326 124.534 76.5233 125.129 75.8714 125.559C75.2236 125.989 74.4758 126.205 73.6278 126.205ZM73.6278 125.163C74.3096 125.163 74.887 124.979 75.36 124.613C75.833 124.246 76.191 123.759 76.4339 123.149C76.681 122.54 76.8046 121.869 76.8046 121.136C76.8046 120.403 76.681 119.729 76.4339 119.116C76.191 118.502 75.833 118.01 75.36 117.639C74.887 117.268 74.3096 117.083 73.6278 117.083C72.9502 117.083 72.3728 117.268 71.8955 117.639C71.4225 118.01 71.0624 118.502 70.8153 119.116C70.5724 119.729 70.4509 120.403 70.4509 121.136C70.4509 121.869 70.5724 122.54 70.8153 123.149C71.0624 123.759 71.4225 124.246 71.8955 124.613C72.3685 124.979 72.9459 125.163 73.6278 125.163ZM85.509 129.682V116.182H86.6148V118.055H86.749C86.8854 117.761 87.0729 117.46 87.3115 117.153C87.5502 116.842 87.8655 116.58 88.2575 116.367C88.6539 116.154 89.1524 116.048 89.7533 116.048C90.5629 116.048 91.2703 116.261 91.8754 116.687C92.4848 117.109 92.9578 117.701 93.2945 118.464C93.6354 119.222 93.8058 120.107 93.8058 121.116C93.8058 122.131 93.6354 123.019 93.2945 123.782C92.9578 124.545 92.4848 125.139 91.8754 125.565C91.2703 125.991 90.5672 126.205 89.7661 126.205C89.1737 126.205 88.6773 126.098 88.2767 125.885C87.8804 125.672 87.5587 125.41 87.3115 125.099C87.0686 124.783 86.8811 124.477 86.749 124.178H86.6468V129.682H85.509ZM86.634 121.097C86.634 121.89 86.7512 122.593 86.9855 123.207C87.2242 123.816 87.5651 124.295 88.0083 124.645C88.4557 124.99 88.9969 125.163 89.6318 125.163C90.2838 125.163 90.8335 124.984 91.281 124.626C91.7327 124.263 92.0757 123.776 92.3101 123.162C92.5487 122.548 92.6681 121.86 92.6681 121.097C92.6681 120.343 92.5509 119.663 92.3165 119.058C92.0864 118.453 91.7455 117.974 91.2938 117.62C90.8421 117.262 90.2881 117.083 89.6318 117.083C88.9926 117.083 88.4493 117.256 88.0019 117.601C87.5544 117.942 87.2135 118.415 86.9791 119.02C86.749 119.621 86.634 120.313 86.634 121.097ZM97.4397 112.909V126H96.3019V112.909H97.4397ZM103.193 126.224C102.6 126.224 102.059 126.109 101.569 125.879C101.079 125.644 100.689 125.308 100.399 124.869C100.109 124.425 99.9646 123.888 99.9646 123.258C99.9646 122.772 100.056 122.363 100.239 122.031C100.423 121.698 100.683 121.425 101.019 121.212C101.356 120.999 101.754 120.831 102.215 120.707C102.675 120.584 103.182 120.488 103.736 120.42C104.286 120.352 104.75 120.292 105.129 120.241C105.513 120.19 105.805 120.109 106.005 119.998C106.205 119.887 106.305 119.708 106.305 119.461V119.231C106.305 118.562 106.105 118.036 105.705 117.652C105.308 117.264 104.737 117.07 103.992 117.07C103.284 117.07 102.707 117.226 102.259 117.537C101.816 117.848 101.505 118.214 101.326 118.636L100.246 118.246C100.467 117.71 100.774 117.281 101.166 116.962C101.558 116.638 101.997 116.406 102.483 116.265C102.969 116.12 103.461 116.048 103.96 116.048C104.335 116.048 104.725 116.097 105.129 116.195C105.538 116.293 105.918 116.463 106.267 116.706C106.617 116.945 106.9 117.279 107.117 117.71C107.335 118.136 107.443 118.677 107.443 119.333V126H106.305V124.447H106.235C106.099 124.737 105.896 125.018 105.628 125.29C105.359 125.563 105.023 125.787 104.618 125.962C104.213 126.136 103.738 126.224 103.193 126.224ZM103.346 125.182C103.951 125.182 104.475 125.048 104.918 124.779C105.362 124.511 105.703 124.155 105.941 123.712C106.184 123.264 106.305 122.772 106.305 122.235V120.816C106.22 120.897 106.078 120.969 105.877 121.033C105.681 121.097 105.453 121.155 105.193 121.206C104.938 121.253 104.682 121.293 104.426 121.327C104.171 121.362 103.94 121.391 103.736 121.417C103.182 121.485 102.709 121.592 102.317 121.737C101.925 121.881 101.624 122.082 101.416 122.337C101.207 122.589 101.102 122.913 101.102 123.309C101.102 123.906 101.315 124.368 101.742 124.696C102.168 125.02 102.703 125.182 103.346 125.182ZM110.911 129.682C110.685 129.682 110.474 129.661 110.278 129.618C110.082 129.575 109.927 129.528 109.812 129.477L110.118 128.474C110.506 128.593 110.851 128.636 111.154 128.602C111.456 128.572 111.725 128.435 111.959 128.192C112.194 127.954 112.402 127.587 112.586 127.093L112.944 126.096L109.332 116.182H110.566L113.481 124.498H113.57L116.485 116.182H117.718L113.564 127.553C113.389 128.026 113.174 128.42 112.918 128.736C112.662 129.055 112.366 129.292 112.03 129.445C111.697 129.603 111.324 129.682 110.911 129.682ZM125.007 129.682V116.182H126.113V118.055H126.247C126.383 117.761 126.571 117.46 126.81 117.153C127.048 116.842 127.364 116.58 127.756 116.367C128.152 116.154 128.65 116.048 129.251 116.048C130.061 116.048 130.768 116.261 131.373 116.687C131.983 117.109 132.456 117.701 132.793 118.464C133.133 119.222 133.304 120.107 133.304 121.116C133.304 122.131 133.133 123.019 132.793 123.782C132.456 124.545 131.983 125.139 131.373 125.565C130.768 125.991 130.065 126.205 129.264 126.205C128.672 126.205 128.175 126.098 127.775 125.885C127.378 125.672 127.057 125.41 126.81 125.099C126.567 124.783 126.379 124.477 126.247 124.178H126.145V129.682H125.007ZM126.132 121.097C126.132 121.89 126.249 122.593 126.484 123.207C126.722 123.816 127.063 124.295 127.506 124.645C127.954 124.99 128.495 125.163 129.13 125.163C129.782 125.163 130.332 124.984 130.779 124.626C131.231 124.263 131.574 123.776 131.808 123.162C132.047 122.548 132.166 121.86 132.166 121.097C132.166 120.343 132.049 119.663 131.815 119.058C131.584 118.453 131.244 117.974 130.792 117.62C130.34 117.262 129.786 117.083 129.13 117.083C128.491 117.083 127.947 117.256 127.5 117.601C127.052 117.942 126.712 118.415 126.477 119.02C126.247 119.621 126.132 120.313 126.132 121.097ZM135.813 126V116.182H136.957V126H135.813ZM136.394 114.494C136.16 114.494 135.96 114.415 135.794 114.258C135.627 114.096 135.544 113.902 135.544 113.676C135.544 113.45 135.627 113.259 135.794 113.101C135.96 112.939 136.16 112.858 136.394 112.858C136.629 112.858 136.829 112.939 136.995 113.101C137.161 113.259 137.245 113.45 137.245 113.676C137.245 113.902 137.161 114.096 136.995 114.258C136.829 114.415 136.629 114.494 136.394 114.494ZM142.708 126.224C142.116 126.224 141.575 126.109 141.085 125.879C140.595 125.644 140.205 125.308 139.915 124.869C139.625 124.425 139.48 123.888 139.48 123.258C139.48 122.772 139.572 122.363 139.755 122.031C139.938 121.698 140.198 121.425 140.535 121.212C140.872 120.999 141.27 120.831 141.73 120.707C142.19 120.584 142.698 120.488 143.252 120.42C143.801 120.352 144.266 120.292 144.645 120.241C145.028 120.19 145.32 120.109 145.521 119.998C145.721 119.887 145.821 119.708 145.821 119.461V119.231C145.821 118.562 145.621 118.036 145.22 117.652C144.824 117.264 144.253 117.07 143.507 117.07C142.8 117.07 142.222 117.226 141.775 117.537C141.332 117.848 141.021 118.214 140.842 118.636L139.761 118.246C139.983 117.71 140.29 117.281 140.682 116.962C141.074 116.638 141.513 116.406 141.999 116.265C142.484 116.12 142.977 116.048 143.475 116.048C143.85 116.048 144.24 116.097 144.645 116.195C145.054 116.293 145.433 116.463 145.783 116.706C146.132 116.945 146.416 117.279 146.633 117.71C146.85 118.136 146.959 118.677 146.959 119.333V126H145.821V124.447H145.751C145.614 124.737 145.412 125.018 145.144 125.29C144.875 125.563 144.538 125.787 144.134 125.962C143.729 126.136 143.254 126.224 142.708 126.224ZM142.862 125.182C143.467 125.182 143.991 125.048 144.434 124.779C144.877 124.511 145.218 124.155 145.457 123.712C145.7 123.264 145.821 122.772 145.821 122.235V120.816C145.736 120.897 145.593 120.969 145.393 121.033C145.197 121.097 144.969 121.155 144.709 121.206C144.453 121.253 144.198 121.293 143.942 121.327C143.686 121.362 143.456 121.391 143.252 121.417C142.698 121.485 142.225 121.592 141.832 121.737C141.44 121.881 141.14 122.082 140.931 122.337C140.722 122.589 140.618 122.913 140.618 123.309C140.618 123.906 140.831 124.368 141.257 124.696C141.683 125.02 142.218 125.182 142.862 125.182ZM151.123 119.864V126H149.986V116.182H151.091V117.722H151.194C151.424 117.219 151.782 116.817 152.267 116.514C152.758 116.207 153.363 116.054 154.083 116.054C154.743 116.054 155.323 116.192 155.821 116.469C156.324 116.742 156.714 117.145 156.991 117.678C157.272 118.21 157.413 118.864 157.413 119.64V126H156.275V119.71C156.275 118.905 156.049 118.268 155.598 117.799C155.15 117.33 154.549 117.096 153.795 117.096C153.28 117.096 152.821 117.207 152.421 117.428C152.02 117.65 151.703 117.969 151.468 118.387C151.238 118.8 151.123 119.293 151.123 119.864ZM164.225 126.205C163.377 126.205 162.627 125.989 161.975 125.559C161.328 125.129 160.821 124.534 160.454 123.776C160.088 123.013 159.904 122.133 159.904 121.136C159.904 120.13 160.088 119.246 160.454 118.483C160.821 117.716 161.328 117.119 161.975 116.693C162.627 116.263 163.377 116.048 164.225 116.048C165.073 116.048 165.821 116.263 166.469 116.693C167.117 117.124 167.624 117.72 167.99 118.483C168.361 119.246 168.546 120.13 168.546 121.136C168.546 122.133 168.363 123.013 167.997 123.776C167.63 124.534 167.121 125.129 166.469 125.559C165.821 125.989 165.073 126.205 164.225 126.205ZM164.225 125.163C164.907 125.163 165.485 124.979 165.958 124.613C166.431 124.246 166.789 123.759 167.032 123.149C167.279 122.54 167.402 121.869 167.402 121.136C167.402 120.403 167.279 119.729 167.032 119.116C166.789 118.502 166.431 118.01 165.958 117.639C165.485 117.268 164.907 117.083 164.225 117.083C163.548 117.083 162.97 117.268 162.493 117.639C162.02 118.01 161.66 118.502 161.413 119.116C161.17 119.729 161.049 120.403 161.049 121.136C161.049 121.869 161.17 122.54 161.413 123.149C161.66 123.759 162.02 124.246 162.493 124.613C162.966 124.979 163.544 125.163 164.225 125.163Z"
    fill="#353535" />
  <path
    d="M10.9789 158V144.909H12.1742V156.926H18.4128V158H10.9789ZM24.8368 158.205C23.9206 158.205 23.128 157.991 22.459 157.565C21.79 157.135 21.2722 156.54 20.9057 155.782C20.5435 155.019 20.3624 154.141 20.3624 153.148C20.3624 152.16 20.5435 151.282 20.9057 150.515C21.2722 149.744 21.7772 149.141 22.4206 148.706C23.0684 148.267 23.8162 148.048 24.6642 148.048C25.1969 148.048 25.7104 148.146 26.2047 148.342C26.699 148.533 27.1422 148.83 27.5343 149.23C27.9306 149.626 28.2438 150.127 28.4739 150.732C28.704 151.333 28.8191 152.045 28.8191 152.867V153.43H21.1486V152.426H27.6557C27.6557 151.795 27.5279 151.229 27.2722 150.726C27.0208 150.219 26.6692 149.818 26.2175 149.524C25.7701 149.23 25.2523 149.083 24.6642 149.083C24.0421 149.083 23.4945 149.249 23.0215 149.582C22.5485 149.914 22.1777 150.353 21.9093 150.898C21.6451 151.444 21.5108 152.04 21.5066 152.688V153.289C21.5066 154.069 21.6408 154.751 21.9093 155.335C22.182 155.914 22.5676 156.364 23.0662 156.683C23.5648 157.003 24.155 157.163 24.8368 157.163C25.3013 157.163 25.7083 157.09 26.0577 156.945C26.4114 156.8 26.7076 156.607 26.9462 156.364C27.1891 156.116 27.3723 155.846 27.4959 155.552L28.5762 155.903C28.427 156.317 28.182 156.698 27.8411 157.048C27.5044 157.397 27.0826 157.678 26.5755 157.891C26.0726 158.1 25.4931 158.205 24.8368 158.205ZM34.0685 158.224C33.4762 158.224 32.935 158.109 32.445 157.879C31.9549 157.644 31.565 157.308 31.2752 156.869C30.9854 156.425 30.8406 155.888 30.8406 155.258C30.8406 154.772 30.9322 154.363 31.1154 154.031C31.2987 153.698 31.5586 153.425 31.8952 153.212C32.2319 152.999 32.6303 152.831 33.0906 152.707C33.5508 152.584 34.0579 152.488 34.6119 152.42C35.1616 152.352 35.6261 152.292 36.0053 152.241C36.3888 152.19 36.6808 152.109 36.881 151.998C37.0813 151.887 37.1815 151.708 37.1815 151.461V151.231C37.1815 150.562 36.9812 150.036 36.5806 149.652C36.1843 149.264 35.6133 149.07 34.8675 149.07C34.1602 149.07 33.5827 149.226 33.1353 149.537C32.6921 149.848 32.381 150.214 32.2021 150.636L31.1218 150.246C31.3434 149.71 31.6502 149.281 32.0423 148.962C32.4343 148.638 32.8732 148.406 33.359 148.265C33.8448 148.12 34.337 148.048 34.8356 148.048C35.2106 148.048 35.6005 148.097 36.0053 148.195C36.4144 148.293 36.7937 148.463 37.1431 148.706C37.4925 148.945 37.7759 149.279 37.9933 149.71C38.2106 150.136 38.3192 150.677 38.3192 151.333V158H37.1815V156.447H37.1112C36.9748 156.737 36.7724 157.018 36.5039 157.29C36.2354 157.563 35.8988 157.787 35.494 157.962C35.0891 158.136 34.614 158.224 34.0685 158.224ZM34.2219 157.182C34.8271 157.182 35.3512 157.048 35.7944 156.779C36.2376 156.511 36.5785 156.155 36.8171 155.712C37.06 155.264 37.1815 154.772 37.1815 154.235V152.816C37.0962 152.897 36.9535 152.969 36.7532 153.033C36.5572 153.097 36.3292 153.155 36.0692 153.206C35.8136 153.253 35.5579 153.293 35.3022 153.327C35.0465 153.362 34.8164 153.391 34.6119 153.417C34.0579 153.485 33.5849 153.592 33.1928 153.737C32.8008 153.881 32.5004 154.082 32.2915 154.337C32.0827 154.589 31.9783 154.913 31.9783 155.309C31.9783 155.906 32.1914 156.368 32.6175 156.696C33.0437 157.02 33.5785 157.182 34.2219 157.182ZM41.3459 158V148.182H42.4517V149.69H42.5348C42.7308 149.196 43.0717 148.798 43.5575 148.495C44.0476 148.188 44.6016 148.035 45.2195 148.035C45.3132 148.035 45.4176 148.037 45.5327 148.041C45.6477 148.045 45.7436 148.05 45.8203 148.054V149.211C45.7692 149.202 45.6797 149.19 45.5518 149.173C45.424 149.156 45.2855 149.147 45.1364 149.147C44.625 149.147 44.169 149.256 43.7685 149.473C43.3722 149.686 43.0589 149.982 42.8288 150.362C42.5987 150.741 42.4837 151.173 42.4837 151.659V158H41.3459ZM48.8997 151.864V158H47.7619V148.182H48.8677V149.722H48.97C49.2001 149.219 49.5581 148.817 50.0439 148.514C50.5339 148.207 51.139 148.054 51.8592 148.054C52.5197 148.054 53.0993 148.192 53.5978 148.469C54.1007 148.742 54.4906 149.145 54.7676 149.678C55.0488 150.21 55.1895 150.864 55.1895 151.64V158H54.0517V151.71C54.0517 150.905 53.8258 150.268 53.3741 149.799C52.9267 149.33 52.3258 149.096 51.5716 149.096C51.0559 149.096 50.5978 149.207 50.1973 149.428C49.7967 149.65 49.4792 149.969 49.2449 150.387C49.0147 150.8 48.8997 151.293 48.8997 151.864ZM68.445 144.909H69.6403V154.35C69.636 155.202 69.4826 155.914 69.18 156.485C68.8775 157.052 68.4599 157.476 67.9272 157.757C67.3945 158.038 66.783 158.179 66.0927 158.179C65.4151 158.179 64.81 158.053 64.2773 157.802C63.7447 157.55 63.3249 157.197 63.0181 156.741C62.7156 156.285 62.5643 155.75 62.5643 155.136H63.7404C63.7404 155.524 63.8427 155.867 64.0472 156.165C64.2518 156.46 64.5309 156.69 64.8846 156.856C65.2425 157.022 65.6452 157.105 66.0927 157.105C66.5572 157.105 66.9641 157.007 67.3136 156.811C67.6673 156.615 67.9442 156.315 68.1445 155.91C68.3448 155.501 68.445 154.981 68.445 154.35V144.909ZM75.6232 158.224C75.0309 158.224 74.4897 158.109 73.9996 157.879C73.5096 157.644 73.1197 157.308 72.8299 156.869C72.5401 156.425 72.3952 155.888 72.3952 155.258C72.3952 154.772 72.4869 154.363 72.6701 154.031C72.8533 153.698 73.1133 153.425 73.4499 153.212C73.7866 152.999 74.185 152.831 74.6452 152.707C75.1055 152.584 75.6126 152.488 76.1665 152.42C76.7163 152.352 77.1808 152.292 77.56 152.241C77.9435 152.19 78.2354 152.109 78.4357 151.998C78.636 151.887 78.7362 151.708 78.7362 151.461V151.231C78.7362 150.562 78.5359 150.036 78.1353 149.652C77.739 149.264 77.168 149.07 76.4222 149.07C75.7148 149.07 75.1374 149.226 74.69 149.537C74.2468 149.848 73.9357 150.214 73.7567 150.636L72.6765 150.246C72.8981 149.71 73.2049 149.281 73.5969 148.962C73.989 148.638 74.4279 148.406 74.9137 148.265C75.3995 148.12 75.8917 148.048 76.3903 148.048C76.7653 148.048 77.1552 148.097 77.56 148.195C77.9691 148.293 78.3484 148.463 78.6978 148.706C79.0472 148.945 79.3306 149.279 79.5479 149.71C79.7653 150.136 79.8739 150.677 79.8739 151.333V158H78.7362V156.447H78.6658C78.5295 156.737 78.3271 157.018 78.0586 157.29C77.7901 157.563 77.4535 157.787 77.0487 157.962C76.6438 158.136 76.1687 158.224 75.6232 158.224ZM75.7766 157.182C76.3817 157.182 76.9059 157.048 77.3491 156.779C77.7923 156.511 78.1332 156.155 78.3718 155.712C78.6147 155.264 78.7362 154.772 78.7362 154.235V152.816C78.6509 152.897 78.5082 152.969 78.3079 153.033C78.1119 153.097 77.8839 153.155 77.6239 153.206C77.3683 153.253 77.1126 153.293 76.8569 153.327C76.6012 153.362 76.3711 153.391 76.1665 153.417C75.6126 153.485 75.1396 153.592 74.7475 153.737C74.3555 153.881 74.055 154.082 73.8462 154.337C73.6374 154.589 73.533 154.913 73.533 155.309C73.533 155.906 73.7461 156.368 74.1722 156.696C74.5984 157.02 75.1332 157.182 75.7766 157.182ZM90.1491 148.182L86.5632 158H85.3487L81.7628 148.182H82.9964L85.9112 156.498H86.0007L88.9155 148.182H90.1491ZM94.8185 158.224C94.2262 158.224 93.685 158.109 93.195 157.879C92.7049 157.644 92.315 157.308 92.0252 156.869C91.7354 156.425 91.5906 155.888 91.5906 155.258C91.5906 154.772 91.6822 154.363 91.8654 154.031C92.0487 153.698 92.3086 153.425 92.6452 153.212C92.9819 152.999 93.3803 152.831 93.8406 152.707C94.3008 152.584 94.8079 152.488 95.3619 152.42C95.9116 152.352 96.3761 152.292 96.7553 152.241C97.1388 152.19 97.4308 152.109 97.631 151.998C97.8313 151.887 97.9315 151.708 97.9315 151.461V151.231C97.9315 150.562 97.7312 150.036 97.3306 149.652C96.9343 149.264 96.3633 149.07 95.6175 149.07C94.9102 149.07 94.3327 149.226 93.8853 149.537C93.4421 149.848 93.131 150.214 92.9521 150.636L91.8718 150.246C92.0934 149.71 92.4002 149.281 92.7923 148.962C93.1843 148.638 93.6232 148.406 94.109 148.265C94.5948 148.12 95.087 148.048 95.5856 148.048C95.9606 148.048 96.3505 148.097 96.7553 148.195C97.1644 148.293 97.5437 148.463 97.8931 148.706C98.2425 148.945 98.5259 149.279 98.7433 149.71C98.9606 150.136 99.0692 150.677 99.0692 151.333V158H97.9315V156.447H97.8612C97.7248 156.737 97.5224 157.018 97.2539 157.29C96.9854 157.563 96.6488 157.787 96.244 157.962C95.8391 158.136 95.364 158.224 94.8185 158.224ZM94.9719 157.182C95.5771 157.182 96.1012 157.048 96.5444 156.779C96.9876 156.511 97.3285 156.155 97.5671 155.712C97.81 155.264 97.9315 154.772 97.9315 154.235V152.816C97.8462 152.897 97.7035 152.969 97.5032 153.033C97.3072 153.097 97.0792 153.155 96.8192 153.206C96.5636 153.253 96.3079 153.293 96.0522 153.327C95.7965 153.362 95.5664 153.391 95.3619 153.417C94.8079 153.485 94.3349 153.592 93.9428 153.737C93.5508 153.881 93.2504 154.082 93.0415 154.337C92.8327 154.589 92.7283 154.913 92.7283 155.309C92.7283 155.906 92.9414 156.368 93.3675 156.696C93.7937 157.02 94.3285 157.182 94.9719 157.182ZM109.44 148.182C109.368 147.453 109.046 146.874 108.475 146.443C107.904 146.013 107.186 145.798 106.321 145.798C105.712 145.798 105.175 145.902 104.71 146.111C104.25 146.32 103.888 146.609 103.624 146.98C103.364 147.347 103.234 147.764 103.234 148.233C103.234 148.578 103.308 148.881 103.457 149.141C103.607 149.401 103.807 149.624 104.058 149.812C104.314 149.995 104.595 150.153 104.902 150.285C105.213 150.417 105.526 150.528 105.842 150.617L107.222 151.013C107.64 151.129 108.058 151.276 108.475 151.455C108.893 151.634 109.274 151.859 109.619 152.132C109.969 152.401 110.248 152.731 110.457 153.123C110.67 153.511 110.776 153.977 110.776 154.523C110.776 155.222 110.595 155.85 110.233 156.408C109.871 156.967 109.351 157.41 108.673 157.738C107.996 158.062 107.184 158.224 106.238 158.224C105.347 158.224 104.574 158.077 103.918 157.783C103.261 157.484 102.746 157.073 102.371 156.549C101.996 156.025 101.785 155.418 101.738 154.727H102.965C103.008 155.243 103.178 155.68 103.477 156.038C103.775 156.396 104.163 156.668 104.64 156.856C105.117 157.039 105.65 157.131 106.238 157.131C106.89 157.131 107.469 157.022 107.977 156.805C108.488 156.583 108.888 156.276 109.178 155.884C109.472 155.488 109.619 155.028 109.619 154.504C109.619 154.06 109.504 153.69 109.274 153.391C109.044 153.089 108.722 152.835 108.309 152.631C107.9 152.426 107.425 152.245 106.884 152.087L105.317 151.627C104.29 151.32 103.494 150.896 102.927 150.355C102.36 149.814 102.077 149.124 102.077 148.284C102.077 147.581 102.264 146.963 102.639 146.43C103.018 145.893 103.53 145.476 104.173 145.178C104.821 144.875 105.548 144.724 106.353 144.724C107.167 144.724 107.887 144.873 108.513 145.171C109.14 145.469 109.636 145.881 110.003 146.405C110.374 146.925 110.572 147.517 110.597 148.182H109.44ZM117.251 158.205C116.374 158.205 115.609 157.985 114.957 157.546C114.309 157.107 113.806 156.506 113.448 155.744C113.09 154.981 112.911 154.112 112.911 153.136C112.911 152.151 113.092 151.276 113.455 150.509C113.821 149.741 114.328 149.141 114.976 148.706C115.624 148.267 116.376 148.048 117.232 148.048C117.888 148.048 118.483 148.175 119.016 148.431C119.548 148.683 119.987 149.038 120.332 149.499C120.682 149.955 120.901 150.487 120.991 151.097H119.84C119.721 150.543 119.433 150.07 118.977 149.678C118.526 149.281 117.95 149.083 117.251 149.083C116.625 149.083 116.071 149.254 115.589 149.594C115.108 149.931 114.731 150.402 114.458 151.007C114.19 151.608 114.055 152.305 114.055 153.097C114.055 153.894 114.188 154.599 114.452 155.213C114.716 155.822 115.087 156.3 115.564 156.645C116.045 156.99 116.608 157.163 117.251 157.163C117.686 157.163 118.082 157.082 118.44 156.92C118.803 156.754 119.105 156.519 119.348 156.217C119.595 155.914 119.761 155.554 119.847 155.136H120.997C120.912 155.729 120.701 156.257 120.364 156.722C120.032 157.182 119.599 157.544 119.067 157.808C118.538 158.072 117.933 158.205 117.251 158.205ZM123.436 158V148.182H124.542V149.69H124.625C124.821 149.196 125.162 148.798 125.647 148.495C126.137 148.188 126.691 148.035 127.309 148.035C127.403 148.035 127.507 148.037 127.623 148.041C127.738 148.045 127.833 148.05 127.91 148.054V149.211C127.859 149.202 127.77 149.19 127.642 149.173C127.514 149.156 127.375 149.147 127.226 149.147C126.715 149.147 126.259 149.256 125.858 149.473C125.462 149.686 125.149 149.982 124.919 150.362C124.689 150.741 124.574 151.173 124.574 151.659V158H123.436ZM129.865 158V148.182H131.009V158H129.865ZM130.446 146.494C130.212 146.494 130.012 146.415 129.845 146.258C129.679 146.096 129.596 145.902 129.596 145.676C129.596 145.45 129.679 145.259 129.845 145.101C130.012 144.939 130.212 144.858 130.446 144.858C130.681 144.858 130.881 144.939 131.047 145.101C131.213 145.259 131.296 145.45 131.296 145.676C131.296 145.902 131.213 146.096 131.047 146.258C130.881 146.415 130.681 146.494 130.446 146.494ZM134.018 161.682V148.182H135.124V150.055H135.258C135.394 149.761 135.582 149.46 135.82 149.153C136.059 148.842 136.374 148.58 136.766 148.367C137.163 148.154 137.661 148.048 138.262 148.048C139.072 148.048 139.779 148.261 140.384 148.687C140.994 149.109 141.467 149.701 141.803 150.464C142.144 151.222 142.315 152.107 142.315 153.116C142.315 154.131 142.144 155.019 141.803 155.782C141.467 156.545 140.994 157.139 140.384 157.565C139.779 157.991 139.076 158.205 138.275 158.205C137.683 158.205 137.186 158.098 136.786 157.885C136.389 157.672 136.067 157.41 135.82 157.099C135.577 156.783 135.39 156.477 135.258 156.178H135.156V161.682H134.018ZM135.143 153.097C135.143 153.89 135.26 154.593 135.494 155.207C135.733 155.816 136.074 156.295 136.517 156.645C136.964 156.99 137.506 157.163 138.141 157.163C138.793 157.163 139.342 156.984 139.79 156.626C140.241 156.263 140.585 155.776 140.819 155.162C141.058 154.548 141.177 153.86 141.177 153.097C141.177 152.343 141.06 151.663 140.825 151.058C140.595 150.453 140.254 149.974 139.803 149.62C139.351 149.262 138.797 149.083 138.141 149.083C137.501 149.083 136.958 149.256 136.511 149.601C136.063 149.942 135.722 150.415 135.488 151.02C135.258 151.621 135.143 152.313 135.143 153.097ZM148.678 148.182V149.173H143.993V148.182H148.678ZM145.456 145.83H146.6V155.437C146.6 155.846 146.671 156.168 146.811 156.402C146.952 156.632 147.135 156.796 147.361 156.894C147.587 156.988 147.828 157.035 148.083 157.035C148.233 157.035 148.36 157.026 148.467 157.009C148.574 156.988 148.667 156.967 148.748 156.945L148.991 157.974C148.88 158.017 148.744 158.055 148.582 158.089C148.42 158.128 148.22 158.147 147.981 158.147C147.564 158.147 147.161 158.055 146.773 157.872C146.39 157.689 146.074 157.416 145.827 157.054C145.58 156.692 145.456 156.242 145.456 155.705V145.83Z"
    fill="#353535" />
  <line x1="193" y1="9.5" x2="388" y2="9.5" stroke="#9D9D9D" />
</svg>