<?xml version="1.0" encoding="UTF-8" standalone="no"?>
<!DOCTYPE svg PUBLIC "-//W3C//DTD SVG 1.1//EN" "http://www.w3.org/Graphics/SVG/1.1/DTD/svg11.dtd">
<!-- Created with Vectornator (http://vectornator.io/) -->
<svg height="100%" stroke-miterlimit="10" style="fill-rule:nonzero;clip-rule:evenodd;stroke-linecap:round;stroke-linejoin:round;" version="1.1" viewBox="727.949 736.679 163.666 297.682" width="100%" xml:space="preserve" xmlns="http://www.w3.org/2000/svg" xmlns:xlink="http://www.w3.org/1999/xlink">
<defs>
<linearGradient gradientTransform="matrix(1 0 0 1 7.10543e-14 0)" gradientUnits="userSpaceOnUse" id="LinearGradient" x1="806.834" x2="806.329" y1="725.117" y2="1031.8">
<stop offset="0" stop-color="#ffe012"/>
<stop offset="1" stop-color="#c3014c"/>
</linearGradient>
<linearGradient gradientTransform="matrix(1 0 0 1 0 0)" gradientUnits="userSpaceOnUse" id="LinearGradient_2" x1="797.149" x2="797.919" y1="745.363" y2="903.494">
<stop offset="0" stop-color="#fcbf1f"/>
<stop offset="0.991667" stop-color="#dd233c"/>
<stop offset="1" stop-color="#dd213d"/>
</linearGradient>
<linearGradient gradientTransform="matrix(1 0 0 1 0 0)" gradientUnits="userSpaceOnUse" id="LinearGradient_3" x1="848.003" x2="852.13" y1="824.216" y2="940.267">
<stop offset="0" stop-color="#ffeb12"/>
<stop offset="1" stop-color="#cf0840"/>
</linearGradient>
<linearGradient gradientTransform="matrix(1 0 0 1 0 0)" gradientUnits="userSpaceOnUse" id="LinearGradient_4" x1="795.061" x2="835.152" y1="952.03" y2="981.757">
<stop offset="0" stop-color="#b1041c"/>
<stop offset="1" stop-color="#f83036"/>
</linearGradient>
</defs>
<g id="Layer-3-copy-copy">
<path d="M806.884 1033.72C806.884 1033.72 786.718 996.541 767.359 959.672C752.453 931.286 738.025 903.086 733.649 892.189C712.892 840.512 763.653 815.203 763.653 815.203C750.033 843.234 765.423 866.209 785.17 865.935C799.383 865.737 809.845 851.919 811.029 840.273C812.512 825.693 805.7 816.585 803.726 799.608C801.752 782.632 801.307 775.723 805.7 758.154C810.092 740.586 814.924 737.396 814.924 737.396C814.924 737.396 818.924 756.985 826.427 773.749C839.06 801.977 860.201 821.342 866.499 830.008C870.048 834.892 880.366 855.719 873.408 879.358C866.449 902.996 859.886 911.583 837.284 924.168C814.681 936.752 784.885 930.998 784.885 930.998L806.884 1033.72Z" fill="url(#LinearGradient)" fill-rule="nonzero" opacity="1" stroke="none"/>
<path d="M767.415 959.712C767.415 959.712 783.698 987.995 788.955 985.588C794.365 983.111 789.741 953.678 789.741 953.678L807 1033.61L767.415 959.712Z" fill="#be0032" fill-rule="nonzero" opacity="1" stroke="none"/>
<path d="M763.851 815.005C763.851 815.005 741.495 840.026 745.69 861.592C749.885 883.158 757.83 895.545 780.63 901.269C803.429 906.994 826.765 901.531 839.06 882.319C848.535 867.514 846.043 849.161 833.533 823.099C821.689 798.424 819.172 796.943 816.162 772.564C813.501 751.016 814.659 739.544 814.964 737.171C815.004 736.859 815.029 736.704 815.029 736.704C815.029 736.704 805.612 746.013 802.802 771.392C799.991 796.771 806.783 810.876 810.36 827.109C816.478 854.873 793.131 869.397 781.562 866.155C744.231 855.693 763.851 815.005 763.851 815.005Z" fill="url(#LinearGradient_2)" fill-rule="nonzero" opacity="1" stroke="none"/>
<path d="M738.444 902.808C738.444 902.808 719.414 865.202 738.211 855.833C741.789 854.05 742.776 860.704 747.15 872.323C751.827 884.747 758.625 890.096 758.625 890.096C758.625 890.096 744.1 873.151 745.906 852.857C747.564 834.226 764.017 814.909 764.017 814.909C764.017 814.909 739.201 827.151 730.723 849.209C721.436 873.372 738.444 902.808 738.444 902.808Z" fill="#fee496" fill-rule="nonzero" opacity="1" stroke="none"/>
<path d="M842.79 847.719C842.79 847.719 847.275 857.082 845.951 871.655C845.016 881.947 848.797 892.328 855.643 893.359C862.489 894.389 868.561 885.578 872.058 875.212C876.697 861.458 872.623 843.364 872.623 843.364" fill="none" opacity="0" stroke="#000000" stroke-linecap="butt" stroke-linejoin="round" stroke-width="0.6"/>
<path d="M781.208 901.519C781.208 901.519 792.362 906.815 810.016 904.328C825.381 902.163 835.308 894.364 842.997 904.007C848.053 910.346 842.498 917.052 830.875 922.911C817.794 929.504 804.193 931.025 804.193 931.025C804.193 931.025 837.977 933.585 857.472 913.726C864.863 906.197 867.113 901.037 872.941 883.944C875.227 877.236 876.001 870.17 876.088 865.085C876.227 856.99 874.565 849.366 874.565 849.366C874.565 849.366 880.348 885.651 857.59 892.459C848.321 895.232 845.228 877.477 846.042 868.937C847.149 857.323 842.73 847.898 842.73 847.898C842.73 847.898 850.955 872.896 832.762 890.535C813.269 909.435 781.208 901.519 781.208 901.519Z" fill="#fcb37a" fill-rule="nonzero" opacity="1" stroke="none"/>
<path d="M830.465 816.728C830.465 816.728 816.836 780.156 823.081 781.87C826.474 782.801 850.064 810.558 850.064 810.558C850.064 810.558 832.236 789.829 825.381 770.856C819.334 754.121 815.04 736.679 815.04 736.679C815.04 736.679 812.587 750.718 815.634 774.423C818.557 797.167 830.465 816.728 830.465 816.728Z" fill="#fff28f" fill-rule="nonzero" opacity="1" stroke="none"/>
<path d="M784.785 930.728C784.785 930.728 794.681 944.174 817.105 949.152C840.477 954.34 854.69 947.246 854.69 947.246" fill="none" opacity="1" stroke="#000000" stroke-linecap="butt" stroke-linejoin="round" stroke-width="0.6"/>
<path d="M806.799 1033.86L865.499 927.505" fill="none" opacity="0" stroke="#000000" stroke-linecap="butt" stroke-linejoin="round" stroke-width="1"/>
<path d="M864.038 827.077C864.038 827.077 868.473 811.255 876.566 803.359C876.566 803.359 873.408 815.992 884.462 840.273C892.497 857.921 895.467 875.508 884.265 900.48C879.089 912.017 873.766 919.93 867.414 925.767C860.018 932.564 850.399 936.801 838.823 940.412C814.058 948.137 781.823 928.244 781.823 928.244C781.823 928.244 845.052 937.109 867.873 895.03C886.974 859.812 864.038 827.077 864.038 827.077Z" fill="url(#LinearGradient_3)" fill-rule="nonzero" opacity="1" stroke="none"/>
<path d="M784.376 930.426L806.836 1033.54L866.559 926.467C866.559 926.467 846.853 941.253 826.752 941.921C809.027 942.51 788.502 932.549 784.29 930.402C783.725 930.114 784.376 930.426 784.376 930.426Z" fill="url(#LinearGradient_4)" fill-rule="nonzero" opacity="1" stroke="none"/>
<path d="M806.854 1033.37L781.534 928.154C781.534 928.154 798.322 936.678 812.207 939.496C826.093 942.315 837.471 940.35 837.471 940.35C810.88 947.107 785.387 932.663 785.387 932.663L806.854 1033.37Z" fill="#fe8d74" fill-rule="nonzero" opacity="1" stroke="none"/>
<path d="M807.026 1033.28L788.598 937.463C788.598 937.463 796.547 941.017 810.618 942.677C825.987 944.49 837.643 940.261 837.643 940.261C811.051 947.018 784.805 931.915 784.805 931.915L807.026 1033.28Z" fill="#c30003" fill-rule="nonzero" opacity="1" stroke="none"/>
</g>
</svg>
